<svg width="108" height="24" viewBox="0 0 200 45" fill="none" xmlns="http://www.w3.org/2000/svg">
<path d="M59.9609 1.04708C59.206 0.29227 58.0395 0.29227 57.2847 1.04708L56.1868 2.14499C55.432 2.8998 55.432 4.06633 56.1868 4.82114L73.5475 22.2504L56.1868 39.6797C55.432 40.4346 55.432 41.6011 56.1868 42.3559L57.2847 43.4538C58.0395 44.2086 59.206 44.2086 59.9609 43.4538L81.0956 22.2504L59.9609 1.04708Z" fill="#FAA74A"/>
<path d="M191.984 4.06634C191.984 1.80191 193.7 0.0864258 195.964 0.0864258C198.229 0.0864258 199.944 1.80191 199.944 4.06634C199.944 6.33078 198.229 8.04626 195.964 8.04626C193.7 8.04626 191.984 6.33078 191.984 4.06634ZM199.464 4.06634C199.464 2.00777 198.023 0.566761 195.964 0.566761C193.906 0.566761 192.465 2.07639 192.465 4.06634C192.465 6.12492 193.906 7.56593 195.964 7.56593C197.954 7.63455 199.464 6.0563 199.464 4.06634ZM195.278 6.0563H194.729V1.93915C195.004 1.87053 195.347 1.87053 195.69 1.87053C196.719 1.87053 197.337 2.35086 197.337 3.24291C197.337 3.92911 196.856 4.34082 196.376 4.47806L197.748 6.12492H197.131L195.896 4.6153H195.347L195.278 6.0563ZM195.278 4.13496H195.758C196.307 4.13496 196.788 3.86049 196.788 3.24291C196.788 2.69396 196.376 2.41948 195.69 2.41948C195.552 2.41948 195.347 2.41948 195.209 2.41948L195.278 4.13496Z" fill="#1E3860"/>
<path d="M176.202 19.7802C176.202 19.7802 174.212 19.2998 173.114 18.8881C169.614 17.653 166.389 15.8002 166.389 12.4379C166.389 8.52658 169.752 5.85043 174.83 5.85043C178.192 5.85043 180.799 6.8111 182.652 8.66382L183.27 9.2814C184.025 10.0362 185.191 10.0362 185.946 9.2814L187.044 8.18349C187.799 7.42868 187.799 6.26215 187.044 5.50734C186.769 5.16424 186.426 4.88976 186.426 4.88976C183.476 2.07637 179.427 0.566747 174.83 0.566747C170.644 0.566747 167.281 1.66466 164.468 3.99771C161.792 6.26215 160.488 9.07554 160.488 12.5065C160.488 20.8781 168.311 22.9366 175.173 24.7894L175.378 24.858C181.417 26.299 184.436 28.7007 184.436 31.9944C184.436 36.1802 180.937 38.6505 175.173 38.6505C171.536 38.6505 168.311 37.4153 166.115 35.2195L165.497 34.6019C164.743 33.8471 163.576 33.8471 162.821 34.6019L161.517 35.9057C160.763 36.6605 160.763 37.827 161.517 38.5818L162.135 39.1994C165.291 42.2873 169.82 44.0028 175.173 44.0028C179.633 44.0028 183.27 42.9049 186.152 40.6404C188.965 38.5132 190.337 35.5626 190.337 31.9258C190.475 24.1718 183.75 21.4956 176.202 19.7802Z" fill="#1E3860"/>
<path d="M127.414 0.498146C115.405 0.498146 105.73 10.2421 105.73 22.2505C105.73 34.2589 115.405 44.0028 127.414 44.0028C139.422 44.0028 149.097 34.2589 149.097 22.2505C149.097 10.2421 139.353 0.498146 127.414 0.498146ZM127.414 5.85045C136.471 5.85045 143.814 13.1927 143.814 22.2505C143.814 31.3082 136.471 38.6505 127.414 38.6505C118.356 38.6505 111.014 31.3082 111.014 22.2505C111.014 13.1927 118.356 5.85045 127.414 5.85045Z" fill="#1E3860"/>
<path d="M98.4561 42.3559L97.3582 43.4538C96.6034 44.2086 95.4369 44.2086 94.6821 43.4538L79.9289 28.7007L83.703 24.9266L98.4561 39.6797C99.2109 40.3659 99.2109 41.6011 98.4561 42.3559Z" fill="#1E3860"/>
<path d="M98.4561 2.14499L97.3582 1.04708C96.6034 0.29227 95.4369 0.29227 94.6821 1.04708L79.9289 15.8002L83.703 19.5743L98.4561 4.82114C99.2109 4.13495 99.2109 2.8998 98.4561 2.14499Z" fill="#1E3860"/>
<path d="M38.1399 22.3191C38.0712 31.3082 30.729 38.6505 21.7399 38.6505C12.6821 38.6505 5.33984 31.3082 5.33984 22.2505C5.33984 13.1927 12.7507 5.85045 21.7399 5.85045C30.729 5.85045 38.0712 13.1241 38.1399 22.1819V22.3191ZM41.5708 0.498146H39.9926C38.9633 0.498146 38.0712 1.32158 38.0712 2.41949V7.97765C34.1599 3.38016 28.3273 0.498146 21.7399 0.498146C9.73147 0.498146 0.0561523 10.2421 0.0561523 22.2505C0.0561523 34.2589 9.80009 44.0028 21.7399 44.0028C28.2587 44.0028 34.1599 41.1208 38.1399 36.5233V42.0815C38.1399 43.1107 38.9633 44.0028 40.0612 44.0028H41.6394C42.6687 44.0028 43.5608 43.1794 43.5608 42.0815V2.41949C43.4922 1.3902 42.6687 0.498146 41.5708 0.498146Z" fill="#1E3860"/>
</svg>
