<svg width="20" height="20" viewBox="0 0 64 64" fill="none" xmlns="http://www.w3.org/2000/svg">
<path d="M6.42052 0.820872C5.32602 -0.273624 3.58605 -0.273624 2.49155 0.820872L0.863841 2.44859C-0.230655 3.54308 -0.230655 5.28305 0.863841 6.37755L26.4582 32L0.863841 57.6224C-0.230655 58.7169 -0.230655 60.4569 0.863841 61.5514L2.49155 63.1791C3.58605 64.2736 5.32602 64.2736 6.42052 63.1791L37.5435 32L6.42052 0.820872Z" fill="#FAA74A"/>
<path fill-rule="evenodd" clip-rule="evenodd" d="M61.5092 0.820872L63.137 2.44859C64.2315 3.54308 64.2315 5.31112 63.137 6.37755L41.4435 28.0991L35.8868 22.5424L57.5803 0.820872C58.6748 -0.273624 60.4147 -0.273624 61.5092 0.820872ZM61.5092 63.1791L63.1369 61.5514C64.2314 60.4569 64.2314 58.6889 63.1369 57.6225L41.4434 35.9009L35.8867 41.4576L57.5802 63.1791C58.6747 64.2736 60.4147 64.2736 61.5092 63.1791Z" fill="#1E3860"/>
</svg>
