<svg width="20" height="20" viewBox="0 0 20 21" fill="none" xmlns="http://www.w3.org/2000/svg">
<path d="M18.1911 3.09531L10.5847 0.700569C10.2099 0.584836 9.80885 0.584836 9.43403 0.700569L1.80895 3.09531C0.000755588 3.51748 0.000756861 4.79517 0.000756861 4.79517V13.8324C-0.0110756 14.327 0.116036 14.815 0.367648 15.2409C0.61926 15.6669 0.985286 16.0138 1.42415 16.2421L9.12394 20.1761C9.39466 20.3142 9.69425 20.3861 9.99815 20.3861C10.3021 20.3861 10.6016 20.3142 10.8724 20.1761L18.5722 16.2459C19.0117 16.018 19.3785 15.6714 19.6308 15.2454C19.8831 14.8194 20.0108 14.3311 19.9993 13.8362V4.79517C19.9993 4.79517 19.9993 3.51748 18.1911 3.09531Z" fill="#B68E54"/>
<path d="M9.33887 7.76966C9.02505 6.91039 9.57797 6.37988 9.99639 5.75598C10.426 6.37988 10.9715 6.91412 10.6502 7.78086C10.8143 7.65935 11.0056 7.57982 11.2074 7.54921C11.4093 7.51861 11.6156 7.53785 11.8083 7.60527C11.9993 7.69806 12.1599 7.84317 12.2716 8.0237C12.5182 8.3973 12.3314 8.89044 11.8345 9.25283C11.7448 8.9689 11.5954 8.75221 11.2591 8.75968C11.1381 8.75898 11.0208 8.80149 10.9284 8.87957C10.8359 8.95764 10.7744 9.06616 10.7548 9.18558C10.7274 9.3224 10.7412 9.46426 10.7944 9.59326C10.8476 9.72225 10.9378 9.8326 11.0537 9.91036C11.1587 9.99483 11.2882 10.043 11.4229 10.0477C11.5576 10.0525 11.6902 10.0134 11.8009 9.93651C11.9951 9.81322 12.1744 9.66752 12.3725 9.5405C12.4951 9.45842 12.6337 9.40304 12.7791 9.37794C12.9246 9.35284 13.0737 9.35858 13.2168 9.39479L13.0337 9.51808C12.8575 9.63783 12.7284 9.81509 12.6684 10.0195C12.6084 10.224 12.6213 10.4429 12.705 10.6389C12.7727 10.8311 12.9031 10.9949 13.0752 11.104C13.2473 11.2131 13.4512 11.2612 13.6539 11.2404C13.7816 11.2336 13.9039 11.1866 14.0032 11.1061C14.1026 11.0255 14.1738 10.9156 14.2068 10.792C14.237 10.7178 14.2396 10.6352 14.2143 10.5592C14.1889 10.4831 14.1373 10.4187 14.0686 10.3774C13.9997 10.3305 13.9164 10.3097 13.8336 10.3186C13.7508 10.3275 13.6739 10.3655 13.6165 10.4259C13.5886 10.4529 13.5624 10.4816 13.5381 10.5118C13.4881 10.3628 13.4798 10.203 13.514 10.0496C13.5483 9.89616 13.6238 9.75501 13.7323 9.64137C13.9826 9.36117 14.2853 9.32008 14.9615 9.48072C14.9541 9.27573 14.9932 9.07171 15.0761 8.88405C15.1589 8.69639 15.2832 8.52996 15.4397 8.3973C15.8306 8.09933 16.2985 7.91917 16.7884 7.878C16.0909 8.50661 15.5269 9.26887 15.1296 10.1196C14.7331 10.9686 14.4806 11.8776 14.3824 12.8095H5.64401C5.37876 10.9004 4.67267 9.20053 3.21191 7.87426C3.65763 7.89743 4.08822 8.04355 4.45599 8.29643C4.6404 8.42789 4.7906 8.60168 4.89396 8.8032C4.99732 9.00472 5.05083 9.22809 5.05 9.45457C5.47963 9.3014 5.89433 9.23041 6.24177 9.57412C6.35959 9.68465 6.44564 9.82473 6.49098 9.97978C6.53631 10.1348 6.53927 10.2992 6.49955 10.4558C6.4734 10.4558 6.45471 10.4558 6.44724 10.4558C6.24176 10.2578 6.02882 10.2316 5.87564 10.3811C5.80983 10.4684 5.77678 10.5761 5.78224 10.6854C5.7877 10.7946 5.83134 10.8985 5.90553 10.9788C6.02937 11.105 6.19171 11.1864 6.36693 11.2101C6.54214 11.2337 6.72025 11.1984 6.87314 11.1096C7.01387 11.0275 7.13178 10.9115 7.21613 10.7721C7.30047 10.6328 7.34856 10.4745 7.35599 10.3118C7.36342 10.149 7.32996 9.98703 7.25867 9.84055C7.18737 9.69408 7.08052 9.5678 6.94786 9.47325L6.78721 9.36491C6.92944 9.32823 7.0778 9.32192 7.22263 9.34638C7.36746 9.37084 7.50551 9.42552 7.6278 9.50687C7.8146 9.62642 8.0014 9.76465 8.18073 9.88047C8.28617 9.95325 8.41125 9.99222 8.53937 9.99222C8.66749 9.99222 8.79259 9.95325 8.89803 9.88047C9.01565 9.81688 9.11304 9.72152 9.17909 9.60527C9.24514 9.48901 9.27721 9.35653 9.27162 9.22294C9.27082 9.09798 9.22623 8.97726 9.14563 8.88178C9.06502 8.78629 8.9535 8.72208 8.83045 8.70031C8.70741 8.67854 8.58062 8.7006 8.47215 8.76264C8.36368 8.82468 8.28039 8.92278 8.23676 9.03988C8.21808 9.08845 8.20314 9.13701 8.18819 9.18558C7.97997 9.08414 7.81625 8.90978 7.7281 8.6956C7.63995 8.48142 7.6335 8.24232 7.70999 8.0237C7.96777 7.50067 8.59168 7.39606 9.33887 7.76966Z" fill="white"/>
<path d="M14.32 13.4378V14.1551H5.67505V13.4378H14.32Z" fill="white"/>
</svg>
