<svg width="216" height="22" viewBox="0 0 636 58" fill="none" xmlns="http://www.w3.org/2000/svg">
<path d="M0 15.4242H5.28557V40.1659H17.9122V44.8153H0V15.4242Z" fill="#292929"/>
<path d="M34.0098 15.4242H53.6839V19.9906H39.2954V27.4629H52.9288V31.8633H39.2954V40.1659H54.4389V44.8153H34.0098V15.4242Z" fill="#292929"/>
<path d="M79.3714 29.1235L70.1426 15.4242H76.5188L82.6434 25.4703L88.684 15.4242H94.7666L85.7057 29.248L96.3607 44.8153H89.6908L82.4336 33.2747L75.4701 44.8153H69.0939L79.3714 29.1235Z" fill="#292929"/>
<path d="M112.394 15.4242H120.658L128.376 36.3052H128.502L136.137 15.4242H144.443V44.8153H139.199V21.1945H139.115L130.096 44.8153H126.405L117.511 21.1945H117.428V44.8153H112.394V15.4242Z" fill="#292929"/>
<path d="M172.881 15.4242H177.453L190.248 44.8153H184.207L181.438 38.0902H168.56L165.875 44.8153H159.961L172.881 15.4242ZM179.593 33.6068L175.02 21.6511L170.364 33.6068H179.593Z" fill="#292929"/>
<path d="M205.771 15.4242H212.777L226.578 37.426H226.662V15.4242H231.947V44.8153H225.235L211.141 22.1078H211.057V44.8153H205.771V15.4242Z" fill="#292929"/>
<path d="M351.95 15.4242H356.523L369.317 44.8153H363.277L360.508 38.0902H347.63L344.945 44.8153H339.03L351.95 15.4242ZM358.662 33.6068L354.09 21.6511L349.434 33.6068H358.662Z" fill="#292929"/>
<path d="M384.841 15.4242H395.37C397.3 15.4242 399.243 15.6733 401.201 16.1714C403.158 16.6696 404.92 17.4998 406.486 18.6622C408.053 19.7969 409.325 21.3052 410.304 23.1871C411.283 25.0414 411.772 27.3522 411.772 30.1198C411.772 32.6936 411.283 34.9076 410.304 36.7618C409.325 38.6161 408.053 40.1382 406.486 41.3282C404.92 42.5183 403.158 43.4039 401.201 43.9851C399.243 44.5386 397.3 44.8153 395.37 44.8153H384.841V15.4242ZM394.531 40.2489C395.901 40.2489 397.272 40.0967 398.642 39.7923C400.012 39.4602 401.243 38.9205 402.333 38.1733C403.452 37.3984 404.361 36.3605 405.06 35.0598C405.759 33.7591 406.109 32.1124 406.109 30.1198C406.109 28.0164 405.759 26.3006 405.06 24.9722C404.361 23.6438 403.452 22.6059 402.333 21.8587C401.243 21.1115 400.012 20.5995 398.642 20.3227C397.272 20.046 395.901 19.9076 394.531 19.9076H390.126V40.2489H394.531Z" fill="#292929"/>
<path d="M425.278 15.4242H431.192L439.372 38.0487H439.54L447.804 15.4242H453.509L441.596 44.8153H437.023L425.278 15.4242Z" fill="#292929"/>
<path d="M468.96 15.4242H474.245V44.8153H468.96V15.4242Z" fill="#292929"/>
<path d="M508.527 21.5681C507.968 20.8485 507.171 20.2535 506.136 19.7831C505.129 19.2849 504.109 19.0358 503.074 19.0358C502.459 19.0358 501.843 19.1188 501.228 19.2849C500.613 19.4233 500.054 19.6585 499.55 19.9906C499.047 20.295 498.627 20.7102 498.292 21.236C497.984 21.7342 497.83 22.343 497.83 23.0626C497.83 23.7268 497.97 24.2941 498.25 24.7646C498.529 25.2351 498.907 25.6364 499.382 25.9685C499.886 26.3006 500.487 26.5912 501.186 26.8402C501.885 27.0893 502.654 27.3384 503.493 27.5875C504.444 27.8919 505.423 28.2378 506.43 28.6253C507.465 29.0128 508.401 29.5247 509.24 30.1613C510.107 30.7978 510.806 31.6004 511.338 32.569C511.897 33.5377 512.177 34.7415 512.177 36.1806C512.177 37.7581 511.883 39.1419 511.296 40.3319C510.709 41.4943 509.926 42.4629 508.947 43.2378C507.968 44.0127 506.821 44.5939 505.507 44.9814C504.193 45.3688 502.808 45.5626 501.354 45.5626C499.424 45.5626 497.537 45.2166 495.691 44.5247C493.845 43.8052 492.335 42.7535 491.16 41.3698L494.936 37.8827C495.663 38.879 496.628 39.6677 497.83 40.2489C499.061 40.8301 500.263 41.1207 501.438 41.1207C502.053 41.1207 502.682 41.0515 503.326 40.9131C503.969 40.7471 504.542 40.4841 505.045 40.1244C505.577 39.7646 505.996 39.3218 506.304 38.796C506.64 38.2425 506.807 37.5644 506.807 36.7618C506.807 35.9869 506.626 35.3504 506.262 34.8522C505.898 34.3264 505.409 33.8836 504.794 33.5238C504.179 33.1364 503.451 32.8043 502.612 32.5275C501.773 32.2508 500.893 31.9602 499.97 31.6557C499.075 31.379 498.18 31.0469 497.285 30.6594C496.39 30.272 495.579 29.76 494.852 29.1235C494.153 28.4869 493.579 27.712 493.132 26.7987C492.685 25.8578 492.461 24.6954 492.461 23.3116C492.461 21.8172 492.768 20.5303 493.384 19.4509C494.027 18.3716 494.852 17.486 495.859 16.7941C496.893 16.0746 498.054 15.5487 499.34 15.2166C500.655 14.8569 501.983 14.677 503.326 14.677C504.836 14.677 506.36 14.9399 507.898 15.4657C509.464 15.9915 510.82 16.7803 511.967 17.8319L508.527 21.5681Z" fill="#292929"/>
<path d="M528.63 30.0367C528.63 27.6843 529.021 25.5672 529.805 23.6853C530.616 21.7757 531.72 20.1567 533.119 18.8283C534.545 17.4998 536.223 16.4759 538.152 15.7563C540.11 15.0367 542.235 14.677 544.529 14.677C546.85 14.677 548.989 15.0367 550.947 15.7563C552.904 16.4759 554.596 17.4998 556.023 18.8283C557.449 20.1567 558.554 21.7757 559.337 23.6853C560.148 25.5672 560.553 27.6843 560.553 30.0367C560.553 32.3338 560.148 34.4371 559.337 36.3467C558.554 38.2286 557.449 39.8615 556.023 41.2452C554.596 42.6013 552.904 43.6668 550.947 44.4417C548.989 45.1889 546.85 45.5626 544.529 45.5626C542.235 45.5626 540.11 45.1889 538.152 44.4417C536.223 43.6668 534.545 42.6013 533.119 41.2452C531.72 39.8615 530.616 38.2286 529.805 36.3467C529.021 34.4371 528.63 32.3338 528.63 30.0367ZM534.377 30.0367C534.377 31.6142 534.615 33.0672 535.09 34.3956C535.594 35.6963 536.293 36.831 537.188 37.7996C538.11 38.7683 539.187 39.5294 540.418 40.0829C541.676 40.6087 543.06 40.8716 544.571 40.8716C546.081 40.8716 547.465 40.6087 548.724 40.0829C549.982 39.5294 551.059 38.7683 551.954 37.7996C552.877 36.831 553.576 35.6963 554.051 34.3956C554.554 33.0672 554.806 31.6142 554.806 30.0367C554.806 28.5146 554.554 27.1032 554.051 25.8024C553.576 24.5017 552.891 23.367 551.996 22.3984C551.101 21.4297 550.024 20.6687 548.766 20.1152C547.507 19.5616 546.109 19.2849 544.571 19.2849C543.032 19.2849 541.634 19.5616 540.376 20.1152C539.145 20.6687 538.083 21.4297 537.188 22.3984C536.293 23.367 535.594 24.5017 535.09 25.8024C534.615 27.1032 534.377 28.5146 534.377 30.0367Z" fill="#292929"/>
<path d="M578.24 15.4242H588.56C589.958 15.4242 591.314 15.5764 592.629 15.8808C593.943 16.1576 595.104 16.6281 596.11 17.2923C597.145 17.9565 597.97 18.8283 598.585 19.9076C599.201 20.9869 599.508 22.3015 599.508 23.8513C599.508 25.9823 598.893 27.7259 597.663 29.0819C596.46 30.4104 594.81 31.3098 592.713 31.7803L600.641 44.8153H594.265L587.385 32.3615H583.526V44.8153H578.24V15.4242ZM587.846 28.0856C588.602 28.0856 589.357 28.0303 590.112 27.9196C590.867 27.8089 591.538 27.6013 592.125 27.2969C592.741 26.9925 593.244 26.5635 593.635 26.01C594.027 25.4288 594.223 24.6954 594.223 23.8098C594.223 23.0072 594.041 22.3568 593.677 21.8587C593.314 21.3329 592.852 20.9177 592.293 20.6133C591.734 20.3089 591.091 20.1013 590.363 19.9906C589.664 19.8799 588.979 19.8246 588.308 19.8246H583.526V28.0856H587.846Z" fill="#292929"/>
<path d="M632.35 21.5681C631.791 20.8485 630.994 20.2535 629.959 19.7831C628.953 19.2849 627.932 19.0358 626.897 19.0358C626.282 19.0358 625.667 19.1188 625.051 19.2849C624.436 19.4233 623.877 19.6585 623.373 19.9906C622.87 20.295 622.451 20.7102 622.115 21.236C621.807 21.7342 621.654 22.343 621.654 23.0626C621.654 23.7268 621.793 24.2941 622.073 24.7646C622.353 25.2351 622.73 25.6364 623.206 25.9685C623.709 26.3006 624.31 26.5912 625.009 26.8402C625.709 27.0893 626.478 27.3384 627.317 27.5875C628.267 27.8919 629.246 28.2378 630.253 28.6253C631.288 29.0128 632.225 29.5247 633.064 30.1613C633.93 30.7978 634.63 31.6004 635.161 32.569C635.72 33.5377 636 34.7415 636 36.1806C636 37.7581 635.706 39.1419 635.119 40.3319C634.532 41.4943 633.749 42.4629 632.77 43.2378C631.791 44.0127 630.645 44.5939 629.33 44.9814C628.016 45.3688 626.631 45.5626 625.177 45.5626C623.247 45.5626 621.36 45.2166 619.514 44.5247C617.668 43.8052 616.158 42.7535 614.984 41.3698L618.759 37.8827C619.486 38.879 620.451 39.6677 621.654 40.2489C622.884 40.8301 624.087 41.1207 625.261 41.1207C625.876 41.1207 626.506 41.0515 627.149 40.9131C627.792 40.7471 628.365 40.4841 628.869 40.1244C629.4 39.7646 629.82 39.3218 630.127 38.796C630.463 38.2425 630.631 37.5644 630.631 36.7618C630.631 35.9869 630.449 35.3504 630.085 34.8522C629.722 34.3264 629.232 33.8836 628.617 33.5238C628.002 33.1364 627.275 32.8043 626.436 32.5275C625.597 32.2508 624.716 31.9602 623.793 31.6557C622.898 31.379 622.003 31.0469 621.108 30.6594C620.213 30.272 619.402 29.76 618.675 29.1235C617.976 28.4869 617.403 27.712 616.955 26.7987C616.508 25.8578 616.284 24.6954 616.284 23.3116C616.284 21.8172 616.592 20.5303 617.207 19.4509C617.85 18.3716 618.675 17.486 619.682 16.7941C620.717 16.0746 621.877 15.5487 623.164 15.2166C624.478 14.8569 625.806 14.677 627.149 14.677C628.659 14.677 630.183 14.9399 631.721 15.4657C633.287 15.9915 634.644 16.7803 635.79 17.8319L632.35 21.5681Z" fill="#292929"/>
<path d="M312.475 7.27932L289.928 0.254616C288.817 -0.0848719 287.628 -0.0848719 286.517 0.254616L263.915 7.27932C258.555 8.51769 258.555 12.2657 258.555 12.2657V38.7754C258.52 40.2262 258.897 41.6577 259.643 42.9072C260.389 44.1567 261.474 45.1741 262.774 45.844L285.598 57.3838C286.401 57.7888 287.289 58 288.189 58C289.09 58 289.978 57.7888 290.781 57.3838L313.605 45.8549C314.908 45.1866 315.995 44.1698 316.743 42.9202C317.49 41.6706 317.869 40.2383 317.835 38.7864V12.2657C317.835 12.2657 317.835 8.51769 312.475 7.27932Z" fill="#B68E54"/>
<path d="M286.235 20.991C285.305 18.4704 286.944 16.9143 288.184 15.0841C289.458 16.9143 291.075 18.4814 290.122 21.0239C290.609 20.6674 291.176 20.4341 291.774 20.3444C292.372 20.2546 292.984 20.311 293.555 20.5088C294.121 20.781 294.597 21.2066 294.928 21.7362C295.659 22.8321 295.106 24.2787 293.633 25.3417C293.367 24.5088 292.924 23.8732 291.927 23.8951C291.569 23.8931 291.221 24.0178 290.947 24.2468C290.673 24.4758 290.49 24.7941 290.432 25.1445C290.351 25.5458 290.392 25.9619 290.55 26.3403C290.707 26.7187 290.975 27.0424 291.318 27.2705C291.63 27.5183 292.014 27.6597 292.413 27.6735C292.812 27.6874 293.205 27.5729 293.533 27.3472C294.109 26.9856 294.641 26.5582 295.227 26.1856C295.591 25.9448 296.002 25.7823 296.433 25.7087C296.864 25.6351 297.306 25.6519 297.73 25.7582L297.188 26.1198C296.665 26.4711 296.282 26.991 296.105 27.5907C295.927 28.1905 295.965 28.8327 296.213 29.4075C296.414 29.9713 296.8 30.452 297.311 30.772C297.821 31.0921 298.425 31.2329 299.026 31.1719C299.404 31.1522 299.767 31.0143 300.061 30.778C300.356 30.5418 300.567 30.2193 300.665 29.8568C300.754 29.639 300.762 29.3967 300.687 29.1737C300.612 28.9507 300.459 28.7615 300.255 28.6404C300.051 28.503 299.804 28.442 299.559 28.4681C299.313 28.4942 299.085 28.6057 298.915 28.7828C298.832 28.862 298.755 28.9462 298.683 29.0349C298.534 28.5977 298.51 28.1288 298.611 27.6788C298.713 27.2288 298.937 26.8148 299.258 26.4815C300 25.6595 300.897 25.539 302.902 26.0102C302.88 25.4089 302.996 24.8104 303.241 24.26C303.487 23.7095 303.855 23.2213 304.319 22.8321C305.478 21.958 306.865 21.4296 308.317 21.3088C306.25 23.1528 304.578 25.3888 303.4 27.8842C302.225 30.3747 301.476 33.0412 301.185 35.7747H275.283C274.497 30.1746 272.404 25.1883 268.074 21.2979C269.395 21.3658 270.671 21.7944 271.761 22.5362C272.308 22.9219 272.753 23.4316 273.06 24.0228C273.366 24.6139 273.525 25.2692 273.522 25.9335C274.796 25.4842 276.025 25.276 277.055 26.2842C277.404 26.6084 277.659 27.0193 277.794 27.4742C277.928 27.929 277.937 28.4112 277.819 28.8705C277.741 28.8705 277.686 28.8705 277.664 28.8705C277.055 28.2897 276.424 28.213 275.97 28.6513C275.775 28.9076 275.677 29.2235 275.693 29.5439C275.709 29.8644 275.838 30.169 276.058 30.4048C276.425 30.7749 276.906 31.0136 277.426 31.0831C277.945 31.1525 278.473 31.0488 278.926 30.7883C279.344 30.5476 279.693 30.2073 279.943 29.7985C280.193 29.3896 280.336 28.9254 280.358 28.448C280.38 27.9706 280.28 27.4954 280.069 27.0657C279.858 26.6361 279.541 26.2656 279.148 25.9883L278.672 25.6705C279.093 25.5629 279.533 25.5444 279.962 25.6161C280.392 25.6879 280.801 25.8483 281.163 26.0869C281.717 26.4376 282.271 26.8431 282.802 27.1828C283.115 27.3963 283.486 27.5106 283.865 27.5106C284.245 27.5106 284.616 27.3963 284.929 27.1828C285.277 26.9963 285.566 26.7166 285.762 26.3756C285.957 26.0345 286.053 25.6459 286.036 25.254C286.034 24.8875 285.901 24.5334 285.662 24.2533C285.424 23.9732 285.093 23.7848 284.728 23.721C284.363 23.6571 283.988 23.7218 283.666 23.9038C283.345 24.0858 283.098 24.3736 282.968 24.7171C282.913 24.8595 282.869 25.002 282.824 25.1445C282.207 24.8469 281.722 24.3354 281.461 23.7072C281.199 23.0789 281.18 22.3775 281.407 21.7362C282.171 20.202 284.02 19.8951 286.235 20.991Z" fill="white"/>
<path d="M301.001 37.6179V39.722H275.375V37.6179H301.001Z" fill="white"/>
</svg>
