<svg width="260" height="40" viewBox="0 0 792 122" fill="none" xmlns="http://www.w3.org/2000/svg">
<g clip-path="url(#clip0_325_320)">
<path d="M59.6786 92.5161C57.4786 95.1161 54.5786 98.8161 55.1786 101.416C55.6786 103.616 58.7786 105.016 58.7786 105.016L65.4786 108.616L61.0786 112.416L66.2786 114.116C66.2786 114.116 61.4786 119.016 60.8786 119.516C59.4786 119.716 58.0786 119.916 56.4786 119.916C45.3786 119.916 29.8786 113.316 26.0786 113.316C21.4786 113.216 15.6786 115.916 15.6786 115.916L18.6786 112.616C18.6786 112.616 14.6786 113.416 10.8786 113.116L16.2786 109.416C11.4786 109.216 7.37858 107.816 5.37858 106.416C5.37858 106.416 14.1786 105.716 25.9786 105.816C30.7786 105.916 38.8786 106.316 38.8786 106.316C34.8786 104.616 31.0786 102.316 29.4786 98.4161L37.1786 99.6161C33.9786 97.6161 29.2786 92.7161 28.3786 88.9161L36.9786 91.9161C35.4786 90.3161 30.1786 85.3161 29.1786 79.5161L35.9786 83.8161C34.1786 82.0161 29.3786 72.5161 30.1786 69.7161L36.4786 73.9161C33.4786 70.2161 29.8786 60.3161 32.2786 56.4161C34.1786 63.9161 38.4786 66.6161 38.4786 66.6161C35.6786 62.5161 29.5786 48.1161 35.3786 41.8161C36.8786 56.2161 42.9786 61.0161 42.9786 61.0161C38.2786 53.0161 32.4786 28.3161 43.2786 23.3161C41.1786 39.2161 46.2786 47.8161 46.2786 47.8161C43.0786 33.2161 43.1786 12.4161 54.0786 10.5161C48.7786 26.1161 52.5786 38.2161 52.5786 38.2161C51.7786 1.61608 63.5786 2.31609 63.5786 2.31609C63.5786 2.31609 61.6786 12.7161 61.6786 31.2161V84.6161C61.4786 88.3161 61.1786 90.5161 59.6786 92.5161ZM66.6786 105.416C71.3786 105.816 74.7786 106.116 78.1786 106.516C79.4786 106.716 79.9786 108.116 80.1786 108.816C78.5786 108.416 75.9786 108.316 75.9786 108.316L75.8786 109.816C75.8786 109.816 78.0786 109.216 80.4786 109.116C80.4786 109.116 85.3786 109.116 85.1786 112.416C83.8786 111.516 81.0786 111.816 80.2786 112.016C77.7786 112.416 75.4786 113.616 72.7786 115.016C70.2786 116.316 67.5786 117.716 64.4786 118.716C65.8786 117.416 69.4786 113.416 69.4786 113.416L64.6786 111.716L68.5786 108.316L62.5786 105.016C63.8786 105.216 65.2786 105.316 66.6786 105.416ZM67.1786 100.016H89.0786V27.8161H69.0786V72.8161L63.2786 67.1161V31.2161C63.1786 10.1161 65.6786 0.116089 65.6786 0.116089C58.8786 0.116089 55.3786 6.51609 54.5786 8.41609C50.7786 8.81609 47.6786 11.0161 45.5786 15.3161C44.3786 17.7161 43.7786 20.0161 43.5786 21.2161C35.5786 23.0161 34.8786 37.3161 35.3786 39.9161L22.8786 27.8161H1.07858V100.016H21.0786V56.4161L30.7786 65.6161C31.6786 68.2161 32.4786 69.3161 32.4786 69.3161L28.6786 66.0161C27.9786 73.1161 29.9786 76.7161 31.8786 79.4161L27.2786 75.5161C26.8786 82.5161 30.2786 86.8161 32.3786 88.7161L26.2786 85.7161C25.8786 89.9161 30.0786 96.1161 32.5786 97.3161L27.3786 96.5161C28.4786 102.316 32.5786 104.416 32.5786 104.416C32.5786 104.416 23.7786 104.216 19.6786 104.216C8.37858 104.216 0.978577 105.316 0.978577 105.316C0.978577 105.316 5.97858 110.316 12.3786 110.516L6.67858 114.016C10.7786 115.316 14.6786 114.916 14.6786 114.916L11.3786 118.816C11.3786 118.816 21.6786 114.816 26.0786 115.116C29.5786 115.316 45.6786 121.616 56.5786 121.616C63.8786 121.616 69.1786 118.816 73.3786 116.616C75.9786 115.216 78.1786 114.116 80.3786 113.816C84.2786 113.216 86.0786 114.616 86.0786 114.616C86.4786 112.916 87.6786 108.816 81.2786 107.716C80.9786 106.616 79.8786 105.116 78.2786 104.816C74.8786 104.316 60.3786 103.216 59.9786 103.116C58.7786 103.016 54.5786 102.216 58.3786 96.7161C58.6786 96.3161 60.5786 93.8161 60.5786 93.8161L67.1786 100.016Z" fill="#035CA8"/>
<path fill-rule="evenodd" clip-rule="evenodd" d="M402.292 54.9056H401.192V47.8056H403.892C405.592 47.8056 406.392 48.5056 406.392 49.9056C406.392 51.2056 405.692 51.8056 404.692 51.9056L406.492 54.9056H405.092L403.292 52.0056H402.292V54.9056ZM403.292 48.9056H402.292V50.9056H403.292C404.092 50.9056 404.992 50.9056 404.992 49.9056C404.992 48.9056 404.092 48.9056 403.292 48.9056Z" fill="#231F20"/>
<path fill-rule="evenodd" clip-rule="evenodd" d="M403.392 57.6056C399.992 57.6056 397.192 54.8056 397.192 51.4056C397.192 48.0056 399.992 45.2056 403.392 45.2056C406.792 45.2056 409.592 48.0056 409.592 51.4056C409.592 54.8056 406.792 57.6056 403.392 57.6056ZM403.392 46.3056C400.592 46.3056 398.292 48.6056 398.292 51.4056C398.292 54.3056 400.592 56.5056 403.392 56.5056C406.192 56.5056 408.492 54.2056 408.492 51.4056C408.492 48.6056 406.192 46.3056 403.392 46.3056Z" fill="#231F20"/>
<path d="M139.903 45.2297V71.9297L123.203 45.2297H112.803V84.6297H121.303V57.0297L138.403 84.6297H148.403V45.2297H139.903Z" fill="#231F20"/>
<path d="M209.761 54.2456C212.302 54.2456 214.361 52.2756 214.361 49.8456C214.361 47.4155 212.302 45.4456 209.761 45.4456C207.221 45.4456 205.161 47.4155 205.161 49.8456C205.161 52.2756 207.221 54.2456 209.761 54.2456Z" fill="#231F20"/>
<path d="M327.713 54.2456C330.253 54.2456 332.313 52.2756 332.313 49.8456C332.313 47.4155 330.253 45.4456 327.713 45.4456C325.172 45.4456 323.113 47.4155 323.113 49.8456C323.113 52.2756 325.172 54.2456 327.713 54.2456Z" fill="#231F20"/>
<path fill-rule="evenodd" clip-rule="evenodd" d="M177.963 84.6061V68.3061C177.963 66.0061 177.563 62.0061 175.163 59.9061C172.663 57.6061 170.163 57.0061 165.563 57.0061C160.963 57.0061 156.763 58.5061 153.763 61.4061L158.063 65.7061C159.763 64.0061 162.263 63.1061 165.263 63.1061C169.563 63.1061 170.563 65.1061 170.563 67.3061H169.663C161.363 67.3061 152.963 69.0061 152.963 76.9061C152.963 82.0061 157.463 85.5061 163.063 85.3061C166.663 85.2061 168.963 83.9061 170.863 81.9061V84.6061H177.963ZM169.963 72.8061H170.663V73.6061C170.663 76.7061 168.363 79.1061 164.563 79.1061C162.863 79.1061 160.863 78.3061 160.863 76.3061C160.863 74.9061 162.163 73.9061 163.663 73.5061C165.863 72.9061 168.763 72.8061 169.963 72.8061Z" fill="#231F20"/>
<path d="M193.731 57.5241V48.9241H186.031V57.5241H180.731V63.9241H186.031V75.4241C186.031 79.3241 186.731 81.5241 188.231 83.1241C189.631 84.5241 191.931 85.2241 195.131 85.2241C197.231 85.2241 199.331 84.8241 200.931 84.1241V78.0241C199.931 78.3241 198.531 78.5241 196.731 78.5241C194.331 78.5241 193.731 77.2241 193.731 75.0241V63.9241H200.931V57.5241H193.731Z" fill="#231F20"/>
<path fill-rule="evenodd" clip-rule="evenodd" d="M397.519 73.5757V71.5757C397.519 64.4757 393.619 56.8757 383.619 56.8757C374.119 56.8757 369.619 63.7757 369.619 71.0757C369.619 80.1757 376.319 85.2757 384.619 85.2757C389.819 85.2757 393.519 83.1757 396.519 79.3757L391.619 75.7757C389.819 77.6757 387.919 78.9757 384.519 78.8757C380.919 78.7757 377.719 76.3757 377.619 73.5757H397.519ZM383.519 63.0757C387.319 62.9757 389.019 65.0757 389.319 68.0757H377.719C378.019 65.3757 380.219 63.1757 383.519 63.0757Z" fill="#231F20"/>
<path d="M308.538 74.33L312.938 57.53H321.138L312.438 84.63H305.238L300.038 67.53L295.338 84.63H287.638L278.938 57.53H287.438L291.838 74.33L296.038 57.53H304.138L308.538 74.33Z" fill="#231F20"/>
<path d="M213.7 57.5273H205.9V84.6273H213.7V57.5273Z" fill="#231F20"/>
<path d="M323.9 57.5273H331.7V84.6273H323.9V57.5273Z" fill="#231F20"/>
<path d="M274.19 59.3418C272.59 57.6418 270.49 56.8418 267.49 56.8418C264.49 56.8418 261.09 58.3418 259.39 60.4418V57.5418H251.89V84.6418H259.69V69.9418C259.69 68.0418 260.19 66.6418 261.09 65.6418C261.89 64.7418 262.99 64.2418 264.49 64.1418C266.29 64.0418 267.19 64.8418 267.89 65.6418C268.69 66.7418 268.99 68.5418 268.99 71.0418V84.7418H276.79V67.7418C276.89 64.3418 276.39 61.6418 274.19 59.3418Z" fill="#231F20"/>
<path fill-rule="evenodd" clip-rule="evenodd" d="M365.244 84.6096V45.3096H357.444V59.9096C355.344 57.9096 352.544 56.9096 349.244 56.9096C341.644 56.9096 336.144 62.9096 336.144 71.1096C336.144 75.3096 337.544 79.0096 340.144 81.6096C342.544 84.0096 345.844 85.3096 349.544 85.3096C353.444 85.3096 356.244 83.6096 357.944 81.6096V84.6096H365.244ZM350.844 63.8096C355.344 63.8096 357.744 67.4096 357.744 71.1096C357.744 74.7096 355.344 78.4096 350.844 78.4096C346.344 78.4096 343.944 74.7096 343.944 71.1096C343.944 67.5096 346.344 63.8096 350.844 63.8096Z" fill="#231F20"/>
<path fill-rule="evenodd" clip-rule="evenodd" d="M247.505 71.0625C247.505 79.2625 241.305 85.2625 232.805 85.2625C224.305 85.2625 218.105 79.2625 218.105 71.0625C218.105 62.8625 224.305 56.8625 232.805 56.8625C241.405 56.8625 247.505 62.8625 247.505 71.0625ZM232.805 63.7625C228.305 63.7625 225.905 67.4625 225.905 71.0625C225.905 74.6625 228.305 78.3625 232.805 78.3625C237.305 78.3625 239.705 74.6625 239.705 71.0625C239.705 67.4625 237.405 63.7625 232.805 63.7625Z" fill="#231F20"/>
<path d="M59.6786 92.4281C57.4786 95.0281 54.5786 98.7281 55.1786 101.328C55.6786 103.528 58.7786 104.928 58.7786 104.928L65.4786 108.528L61.0786 112.328L66.2786 114.028C66.2786 114.028 61.4786 118.928 60.8786 119.428C59.4786 119.628 58.0786 119.828 56.4786 119.828C45.3786 119.828 29.8786 113.228 26.0786 113.228C21.4786 113.128 15.6786 115.828 15.6786 115.828L18.6786 112.528C18.6786 112.528 14.6786 113.328 10.8786 113.028L16.2786 109.328C11.4786 109.128 7.3786 107.728 5.3786 106.328C5.3786 106.328 14.1786 105.628 25.9786 105.728C30.7786 105.828 38.8786 106.228 38.8786 106.228C34.8786 104.528 31.0786 102.228 29.4786 98.3281L37.1786 99.5281C33.9786 97.5281 29.2786 92.6281 28.3786 88.8281L36.9786 91.8281C35.4786 90.2281 30.1786 85.2281 29.1786 79.4281L35.9786 83.7281C34.1786 81.9281 29.3786 72.4281 30.1786 69.6281L36.4786 73.8281C33.4786 70.1281 29.8786 60.2281 32.2786 56.3281C34.1786 63.8281 38.4786 66.5281 38.4786 66.5281C35.9786 62.6281 29.8786 48.2281 35.6786 41.9281C37.1786 56.3281 43.2786 61.1281 43.2786 61.1281C38.1786 53.0281 32.4786 28.3281 43.1786 23.3281C41.0786 39.2281 46.1786 47.8281 46.1786 47.8281C42.9786 33.2281 43.0786 12.4281 53.9786 10.5281C48.6786 26.2281 52.4786 38.2281 52.4786 38.2281C51.6786 1.62809 63.4786 2.3281 63.4786 2.3281C63.4786 2.3281 61.5786 12.7281 61.5786 31.2281V84.6281C61.4786 88.3281 61.1786 90.5281 59.6786 92.4281ZM66.6786 105.428C71.3786 105.828 74.7786 106.128 78.1786 106.528C79.4786 106.728 79.9786 108.128 80.1786 108.828C78.5786 108.428 75.9786 108.328 75.9786 108.328L75.8786 109.828C75.8786 109.828 78.0786 109.228 80.4786 109.128C80.4786 109.128 85.3786 109.128 85.1786 112.428C83.8786 111.528 81.0786 111.828 80.2786 112.028C77.7786 112.428 75.4786 113.628 72.7786 115.028C70.2786 116.328 67.5786 117.728 64.4786 118.728C65.8786 117.428 69.4786 113.428 69.4786 113.428L64.6786 111.728L68.5786 108.328L62.5786 105.028C63.8786 105.128 65.2786 105.328 66.6786 105.428Z" fill="white"/>
<path fill-rule="evenodd" clip-rule="evenodd" d="M441.446 117.883V8.58331H440.446V117.883H441.446Z" fill="#7E7E7E"/>
<path d="M483.824 52.8641C484.124 52.9641 484.624 52.9641 485.324 52.9641C487.124 52.9641 488.824 52.2641 488.824 50.3641C488.824 48.4641 487.224 47.7641 485.324 47.7641H483.824V52.8641ZM485.424 46.3641C487.324 46.3641 488.324 45.3641 488.324 44.0641C488.324 42.4641 487.124 41.8641 485.324 41.8641C484.524 41.8641 484.024 41.9641 483.724 41.9641V46.3641H485.424ZM482.024 40.7641C482.824 40.5641 484.024 40.4641 485.224 40.4641C487.024 40.4641 488.124 40.7641 488.924 41.4641C489.624 41.9641 490.024 42.7641 490.024 43.8641C490.024 45.1641 489.124 46.3641 487.724 46.8641C489.024 47.1641 490.524 48.2641 490.524 50.2641C490.524 51.4641 490.024 52.3641 489.324 52.9641C488.424 53.8641 486.824 54.2641 484.624 54.2641C483.424 54.2641 482.524 54.1641 481.924 54.0641V40.7641H482.024Z" fill="#030405"/>
<path d="M498.606 49.2011C496.706 49.2011 494.506 49.5011 494.506 51.4011C494.506 52.5011 495.306 53.1011 496.206 53.1011C497.506 53.1011 498.306 52.3011 498.606 51.5011C498.706 51.3011 498.706 51.1011 498.706 50.9011V49.2011H498.606ZM498.806 54.2011L498.706 53.0011H498.606C498.106 53.8011 497.006 54.5011 495.606 54.5011C493.606 54.5011 492.606 53.1011 492.606 51.7011C492.606 49.3011 494.706 48.0011 498.506 48.1011V47.9011C498.506 47.1011 498.306 45.6011 496.306 45.6011C495.406 45.6011 494.406 45.9011 493.806 46.3011L493.406 45.1011C494.206 44.6011 495.406 44.2011 496.606 44.2011C499.606 44.2011 500.306 46.2011 500.306 48.2011V51.9011C500.306 52.7011 500.306 53.6011 500.506 54.2011H498.806Z" fill="#030405"/>
<path d="M503.633 47.1406C503.633 46.1406 503.633 45.3406 503.533 44.5406H505.133L505.233 46.1406C505.733 45.2406 506.833 44.3406 508.433 44.3406C509.833 44.3406 511.833 45.1406 511.833 48.5406V54.3406H510.033V48.7406C510.033 47.1406 509.433 45.8406 507.733 45.8406C506.533 45.8406 505.633 46.6406 505.333 47.6406C505.233 47.8406 505.233 48.1406 505.233 48.4406V54.3406H503.433V47.1406H503.633Z" fill="#030405"/>
<path d="M517.136 48.9715C517.436 48.6715 517.736 48.1715 518.036 47.8715L520.936 44.4715H523.036L519.236 48.4715L523.536 54.1715H521.336L517.936 49.4715L517.036 50.4715V54.1715H515.236V39.8715H517.036V48.9715H517.136Z" fill="#030405"/>
<path d="M525.7 44.4863H527.5V54.2863H525.7V44.4863ZM527.7 41.6863C527.7 42.2863 527.3 42.7863 526.6 42.7863C526 42.7863 525.5 42.2863 525.5 41.6863C525.5 41.0863 526 40.5863 526.6 40.5863C527.2 40.5863 527.7 41.0863 527.7 41.6863Z" fill="#030405"/>
<path d="M530.933 47.1406C530.933 46.1406 530.933 45.3406 530.833 44.5406H532.433L532.533 46.1406C533.033 45.2406 534.133 44.3406 535.733 44.3406C537.133 44.3406 539.133 45.1406 539.133 48.5406V54.3406H537.333V48.7406C537.333 47.1406 536.733 45.8406 535.033 45.8406C533.833 45.8406 532.933 46.6406 532.633 47.6406C532.533 47.8406 532.533 48.1406 532.533 48.4406V54.3406H530.733V47.1406H530.933Z" fill="#030405"/>
<path d="M549.202 48.3284C549.202 48.0284 549.202 47.7284 549.102 47.5284C548.802 46.5284 547.902 45.6284 546.602 45.6284C544.902 45.6284 543.702 47.0284 543.702 49.3284C543.702 51.2284 544.702 52.8284 546.602 52.8284C547.702 52.8284 548.702 52.1284 549.102 51.0284C549.202 50.7284 549.202 50.4284 549.202 50.1284V48.3284ZM551.002 44.4284C551.002 45.1284 550.902 45.9284 550.902 47.1284V52.8284C550.902 55.0284 550.502 56.4284 549.502 57.3284C548.602 58.2284 547.202 58.5284 546.002 58.5284C544.802 58.5284 543.502 58.2284 542.802 57.7284L543.202 56.3284C543.802 56.7284 544.902 57.1284 546.102 57.1284C547.902 57.1284 549.202 56.2284 549.202 53.7284V52.6284C548.702 53.5284 547.602 54.2284 546.102 54.2284C543.702 54.2284 541.902 52.1284 541.902 49.4284C541.902 46.1284 544.102 44.2284 546.302 44.2284C548.002 44.2284 548.902 45.1284 549.302 45.9284L549.402 44.4284H551.002Z" fill="#030405"/>
<path d="M558.9 52.4069C559.4 52.7069 560.4 53.1069 561.2 53.1069C562.5 53.1069 563.1 52.5069 563.1 51.6069C563.1 50.8069 562.6 50.3069 561.3 49.8069C559.5 49.2069 558.7 48.2069 558.7 47.0069C558.7 45.4069 560 44.1069 562.1 44.1069C563.1 44.1069 564 44.4069 564.5 44.7069L564.1 46.0069C563.7 45.8069 563 45.4069 562.1 45.4069C561.1 45.4069 560.5 46.0069 560.5 46.7069C560.5 47.5069 561.1 47.9069 562.4 48.4069C564.1 49.0069 565 49.9069 565 51.3069C565 53.0069 563.7 54.2069 561.3 54.2069C560.2 54.2069 559.2 53.9069 558.6 53.5069L558.9 52.4069Z" fill="#030405"/>
<path d="M573.878 48.3932C573.878 47.2932 573.378 45.4932 571.378 45.4932C569.578 45.4932 568.778 47.1932 568.678 48.3932H573.878ZM568.678 49.6932C568.678 52.0932 570.278 53.0932 571.978 53.0932C573.278 53.0932 573.978 52.8932 574.678 52.5932L574.978 53.8932C574.378 54.1932 573.278 54.4932 571.778 54.4932C568.778 54.4932 566.978 52.4932 566.978 49.5932C566.978 46.6932 568.678 44.2932 571.578 44.2932C574.778 44.2932 575.578 47.0932 575.578 48.8932C575.578 49.2932 575.578 49.4932 575.478 49.6932H568.678Z" fill="#030405"/>
<path d="M578.308 47.5019C578.308 46.3019 578.308 45.4019 578.208 44.5019H579.808L579.908 46.4019H580.008C580.408 45.1019 581.508 44.3019 582.708 44.3019C582.908 44.3019 583.008 44.3019 583.208 44.4019V46.1019C583.008 46.1019 582.808 46.0019 582.608 46.0019C581.408 46.0019 580.508 46.9019 580.208 48.3019C580.208 48.5019 580.108 48.8019 580.108 49.1019V54.3019H578.308V47.5019Z" fill="#030405"/>
<path d="M586.539 44.4444L588.439 49.9444C588.739 50.8444 589.039 51.6444 589.239 52.4444H589.339C589.539 51.6444 589.839 50.8444 590.139 49.9444L592.039 44.4444H593.939L590.139 54.2444H588.439L584.739 44.4444H586.539Z" fill="#030405"/>
<path d="M596.1 44.4863H597.9V54.2863H596.1V44.4863ZM598.1 41.6863C598.1 42.2863 597.7 42.7863 597 42.7863C596.4 42.7863 595.9 42.2863 595.9 41.6863C595.9 41.0863 596.4 40.5863 597 40.5863C597.6 40.5863 598.1 41.0863 598.1 41.6863Z" fill="#030405"/>
<path d="M608.25 53.8552C607.75 54.0552 606.75 54.4552 605.45 54.4552C602.55 54.4552 600.55 52.4552 600.55 49.4552C600.55 46.4552 602.65 44.2552 605.75 44.2552C606.75 44.2552 607.75 44.5552 608.25 44.7552L607.85 46.1552C607.45 45.9552 606.75 45.6552 605.75 45.6552C603.55 45.6552 602.35 47.3552 602.35 49.3552C602.35 51.6552 603.85 53.0552 605.75 53.0552C606.75 53.0552 607.45 52.7552 607.95 52.5552L608.25 53.8552Z" fill="#030405"/>
<path d="M616.897 48.3932C616.897 47.2932 616.397 45.4932 614.397 45.4932C612.597 45.4932 611.797 47.1932 611.697 48.3932H616.897ZM611.697 49.6932C611.697 52.0932 613.297 53.0932 614.997 53.0932C616.297 53.0932 616.997 52.8932 617.697 52.5932L617.997 53.8932C617.397 54.1932 616.297 54.4932 614.797 54.4932C611.797 54.4932 609.997 52.4932 609.997 49.5932C609.997 46.6932 611.697 44.2932 614.597 44.2932C617.797 44.2932 618.597 47.0932 618.597 48.8932C618.597 49.2932 618.597 49.4932 618.497 49.6932H611.697Z" fill="#030405"/>
<path d="M621.083 52.4069C621.583 52.7069 622.583 53.1069 623.383 53.1069C624.683 53.1069 625.283 52.5069 625.283 51.6069C625.283 50.8069 624.783 50.3069 623.483 49.8069C621.683 49.2069 620.883 48.2069 620.883 47.0069C620.883 45.4069 622.183 44.1069 624.283 44.1069C625.283 44.1069 626.183 44.4069 626.683 44.7069L626.283 46.0069C625.883 45.8069 625.183 45.4069 624.283 45.4069C623.283 45.4069 622.683 46.0069 622.683 46.7069C622.683 47.5069 623.283 47.9069 624.583 48.4069C626.283 49.0069 627.183 49.9069 627.183 51.3069C627.183 53.0069 625.883 54.2069 623.483 54.2069C622.383 54.2069 621.383 53.9069 620.783 53.5069L621.083 52.4069Z" fill="#030405"/>
<path d="M483.788 76.1451C483.788 76.4451 483.788 76.6451 483.888 76.8451C484.188 78.0451 485.288 78.9451 486.588 78.9451C488.488 78.9451 489.588 77.4451 489.588 75.1451C489.588 73.1451 488.588 71.5451 486.688 71.5451C485.488 71.5451 484.388 72.4451 483.988 73.7451C483.888 73.9451 483.888 74.2451 483.888 74.4451V76.1451H483.788ZM481.988 73.5451C481.988 72.3451 481.988 71.2451 481.888 70.3451H483.488L483.588 72.0451C484.288 70.8451 485.488 70.1451 487.088 70.1451C489.488 70.1451 491.188 72.1451 491.188 75.1451C491.188 78.6451 489.088 80.3451 486.788 80.3451C485.488 80.3451 484.388 79.7451 483.788 78.8451V84.1451H481.988V73.5451Z" fill="#030405"/>
<path d="M493.973 73.4023C493.973 72.2023 493.973 71.3023 493.873 70.4023H495.473L495.573 72.3023H495.673C496.073 71.0023 497.173 70.2023 498.373 70.2023C498.573 70.2023 498.673 70.2023 498.873 70.3023V72.0023C498.673 72.0023 498.473 71.9023 498.273 71.9023C497.073 71.9023 496.173 72.8023 495.873 74.2023C495.873 74.4023 495.773 74.7023 495.773 75.0023V80.2023H493.973V73.4023Z" fill="#030405"/>
<path d="M501.924 75.2298C501.924 77.3298 503.124 79.0298 504.924 79.0298C506.624 79.0298 507.924 77.4298 507.924 75.2298C507.924 73.5298 507.124 71.4298 505.024 71.4298C502.824 71.4298 501.924 73.4298 501.924 75.2298ZM509.724 75.1298C509.724 78.7298 507.224 80.3298 504.824 80.3298C502.224 80.3298 500.124 78.4298 500.124 75.3298C500.124 72.0298 502.224 70.1298 504.924 70.1298C507.824 70.1298 509.724 72.1298 509.724 75.1298Z" fill="#030405"/>
<path d="M512.988 70.3447L514.888 75.8447C515.188 76.7447 515.488 77.5447 515.688 78.3447H515.788C515.988 77.5447 516.288 76.7447 516.588 75.8447L518.488 70.3447H520.388L516.588 80.1447H514.888L511.188 70.3447H512.988Z" fill="#030405"/>
<path d="M522.5 70.3863H524.3V80.1863H522.5V70.3863ZM524.5 67.5863C524.5 68.1863 524.1 68.6863 523.4 68.6863C522.8 68.6863 522.3 68.1863 522.3 67.5863C522.3 66.9863 522.8 66.4863 523.4 66.4863C524.1 66.4863 524.5 66.9863 524.5 67.5863Z" fill="#030405"/>
<path d="M534.418 74.3031C534.418 74.1031 534.418 73.8031 534.318 73.6031C534.018 72.5031 533.118 71.5031 531.718 71.5031C529.918 71.5031 528.818 73.1031 528.818 75.3031C528.818 77.3031 529.818 78.9031 531.718 78.9031C532.918 78.9031 534.018 78.1031 534.318 76.8031C534.418 76.6031 534.418 76.3031 534.418 76.0031V74.3031ZM536.218 65.8031V77.6031C536.218 78.5031 536.218 79.5031 536.318 80.1031H534.718L534.618 78.4031C534.118 79.5031 532.918 80.3031 531.318 80.3031C528.918 80.3031 527.118 78.3031 527.118 75.3031C527.118 72.1031 529.118 70.1031 531.518 70.1031C533.018 70.1031 534.018 70.8031 534.418 71.6031V65.8031H536.218Z" fill="#030405"/>
<path d="M545.81 74.2936C545.81 73.1936 545.31 71.3936 543.31 71.3936C541.51 71.3936 540.71 73.0936 540.61 74.2936H545.81ZM540.61 75.5936C540.61 77.9936 542.21 78.9936 543.91 78.9936C545.21 78.9936 545.91 78.7936 546.61 78.4936L546.91 79.7936C546.31 80.0936 545.21 80.3936 543.71 80.3936C540.71 80.3936 538.91 78.3936 538.91 75.4936C538.91 72.5936 540.61 70.1936 543.51 70.1936C546.71 70.1936 547.51 72.9936 547.51 74.7936C547.51 75.1936 547.51 75.3936 547.41 75.5936H540.61Z" fill="#030405"/>
<path d="M556.898 74.3031C556.898 74.1031 556.898 73.8031 556.798 73.6031C556.498 72.5031 555.598 71.5031 554.198 71.5031C552.398 71.5031 551.298 73.1031 551.298 75.3031C551.298 77.3031 552.298 78.9031 554.198 78.9031C555.398 78.9031 556.498 78.1031 556.798 76.8031C556.898 76.6031 556.898 76.3031 556.898 76.0031V74.3031ZM558.698 65.8031V77.6031C558.698 78.5031 558.698 79.5031 558.798 80.1031H557.198L557.098 78.4031C556.598 79.5031 555.398 80.3031 553.798 80.3031C551.398 80.3031 549.598 78.3031 549.598 75.3031C549.598 72.1031 551.598 70.1031 553.998 70.1031C555.498 70.1031 556.498 70.8031 556.898 71.6031V65.8031H558.698Z" fill="#030405"/>
<path d="M568.696 76.1883C568.696 76.3883 568.696 76.5883 568.796 76.7883C569.096 77.9883 570.196 78.8883 571.496 78.8883C573.396 78.8883 574.496 77.3883 574.496 75.1883C574.496 73.1883 573.496 71.5883 571.596 71.5883C570.396 71.5883 569.296 72.3883 568.896 73.7883C568.896 73.9883 568.796 74.1883 568.796 74.4883V76.1883H568.696ZM566.796 80.0883C566.796 79.3883 566.896 78.3883 566.896 77.5883V65.7883H568.696V71.8883C569.296 70.7883 570.496 70.0883 571.996 70.0883C574.396 70.0883 576.096 72.0883 576.096 75.0883C576.096 78.5883 573.896 80.2883 571.696 80.2883C570.296 80.2883 569.196 79.7883 568.396 78.4883H568.296L568.196 80.0883H566.796Z" fill="#030405"/>
<path d="M579.381 70.3947L581.481 76.1947C581.681 76.7947 581.981 77.5947 582.081 78.1947C582.281 77.5947 582.481 76.8947 582.681 76.1947L584.581 70.4947H586.481L583.781 77.4947C582.481 80.7947 581.681 82.5947 580.481 83.5947C579.581 84.3947 578.781 84.6947 578.281 84.7947L577.881 83.2947C578.281 83.1947 578.881 82.8947 579.481 82.3947C579.981 81.9947 580.581 81.2947 580.981 80.3947C581.081 80.1947 581.081 80.0947 581.081 79.9947C581.081 79.8947 581.081 79.7947 580.981 79.4947L577.381 70.4947H579.381V70.3947Z" fill="#030405"/>
<path d="M701.065 41.3986C700.591 40.9252 699.794 40.9252 699.321 41.3986L698.598 42.1211C698.125 42.5945 698.125 43.3917 698.598 43.865L709.959 55.2257L698.598 66.5863C698.125 67.0596 698.125 67.8569 698.598 68.3302L699.321 69.0527C699.794 69.5261 700.591 69.5261 701.065 69.0527L714.867 55.2506L701.065 41.3986Z" fill="#FAA74A"/>
<path d="M726.227 42.1211L725.505 41.3986C725.031 40.9252 724.234 40.9252 723.761 41.3986L714.144 51.0402L716.611 53.5066L726.252 43.89C726.726 43.3668 726.726 42.5945 726.227 42.1211Z" fill="#1E3860"/>
<path d="M777.001 53.5814C777.001 53.5814 775.706 53.2575 774.983 53.0083C772.716 52.236 770.623 51.0153 770.623 48.773C770.623 46.2069 772.841 44.4879 776.129 44.4879C778.322 44.4879 780.041 45.1107 781.237 46.3315L781.635 46.7301C782.109 47.2035 782.906 47.2035 783.379 46.7301L784.102 46.0076C784.575 45.5343 784.575 44.737 784.102 44.2637C783.902 44.0644 783.703 43.865 783.703 43.865C781.785 42.0463 779.119 41.0498 776.129 41.0498C773.389 41.0498 771.196 41.7723 769.378 43.2671C767.659 44.737 766.787 46.6055 766.787 48.8478C766.787 54.3039 771.869 55.6492 776.378 56.845L776.528 56.87C780.464 57.7918 782.457 59.3613 782.457 61.5288C782.457 64.2444 780.19 65.8638 776.378 65.8638C773.987 65.8638 771.894 65.0665 770.474 63.6465L770.05 63.2229C769.577 62.7496 768.78 62.7496 768.306 63.2229L767.434 64.0949C766.961 64.5683 766.961 65.3655 767.434 65.8389L767.858 66.2624C769.901 68.2804 772.866 69.3766 776.378 69.3766C779.293 69.3766 781.635 68.6541 783.554 67.1842C785.372 65.7641 786.319 63.8707 786.319 61.5039C786.344 56.4713 781.909 54.7025 777.001 53.5814Z" fill="#1E3860"/>
<path d="M726.227 68.3053L725.505 69.0278C725.031 69.5012 724.234 69.5012 723.761 69.0278L714.144 59.3862L716.611 56.9198L726.252 66.5365C726.726 67.0347 726.726 67.8071 726.227 68.3053Z" fill="#1E3860"/>
<path fill-rule="evenodd" clip-rule="evenodd" d="M730.936 55.2008C730.936 47.3779 737.289 41.0249 745.112 41.0249C752.935 41.0249 759.288 47.3779 759.288 55.2008C759.288 63.0236 752.935 69.3766 745.112 69.3766C737.289 69.3766 730.936 63.0236 730.936 55.2008ZM755.8 55.2008C755.8 49.3211 751.016 44.5128 745.112 44.5128C739.232 44.5128 734.424 49.3211 734.424 55.2008C734.424 61.0804 739.207 65.8887 745.112 65.8887C750.992 65.8887 755.8 61.0804 755.8 55.2008Z" fill="#1E3860"/>
<path fill-rule="evenodd" clip-rule="evenodd" d="M688.085 41.0249H689.106C689.779 41.0249 690.327 41.573 690.327 42.2706V68.106C690.327 68.7787 689.779 69.3268 689.106 69.3268H688.085C687.412 69.3268 686.864 68.7787 686.864 68.106V64.4686C684.273 67.4583 680.436 69.3517 676.176 69.3517C668.353 69.3517 662 62.9987 662 55.1759C662 47.353 668.353 41 676.176 41C680.436 41 684.273 42.8934 686.864 45.8831V42.2457C686.864 41.573 687.412 41.0249 688.085 41.0249ZM676.151 65.9136C682.031 65.9136 686.814 61.1551 686.839 55.2755V55.1759C686.814 49.2962 682.031 44.5377 676.151 44.5377C670.271 44.5377 665.463 49.3212 665.463 55.2257C665.463 61.1053 670.246 65.9136 676.151 65.9136Z" fill="#1E3860"/>
<path fill-rule="evenodd" clip-rule="evenodd" d="M745.137 77.0251C745.685 76.9504 746.482 76.8756 747.055 76.8756C748.874 76.8756 749.945 77.5234 749.945 78.9933C749.945 79.94 749.322 80.5628 748.45 80.7123C749.546 80.812 750.269 81.4348 750.269 82.5559C750.269 83.9013 749.297 84.7732 746.906 84.7732C746.283 84.7732 745.61 84.6985 745.112 84.6237V77.0251H745.137ZM746.407 80.2639H747.03C748.102 80.2639 748.65 79.8652 748.65 79.068C748.65 78.3206 748.077 77.9718 747.13 77.9718C746.906 77.9718 746.607 77.9967 746.407 78.0216V80.2639ZM747.08 83.677C746.931 83.677 746.657 83.6521 746.407 83.6272V81.3352H747.23C748.276 81.3352 748.949 81.659 748.949 82.4812C748.949 83.2784 748.301 83.677 747.08 83.677Z" fill="#1E3860"/>
<path fill-rule="evenodd" clip-rule="evenodd" d="M755.85 84.6237L756.522 82.83H759.911L760.583 84.6237H762.003L759.014 77.0002H757.419L754.454 84.6237H755.85ZM756.921 81.7587L758.241 78.2459L759.537 81.7587H756.921Z" fill="#1E3860"/>
<path d="M771.894 82.6556V77.0002H773.165V84.6237H771.894L767.983 79.0431V84.6237H766.712V77.0002H768.057L771.894 82.6556Z" fill="#1E3860"/>
<path fill-rule="evenodd" clip-rule="evenodd" d="M780.041 77.0002H778.72V84.6237H780.041V77.0002ZM784.575 77.0002H783.005L780.091 80.8867L783.18 84.6487H784.774L781.585 80.7621L784.575 77.0002Z" fill="#1E3860"/>
<path fill-rule="evenodd" clip-rule="evenodd" d="M790.106 41.0498C789.234 41.0498 788.586 41.6976 788.586 42.5695C788.586 43.4166 789.234 44.0893 790.106 44.0893C790.978 44.0893 791.626 43.4415 791.626 42.5695C791.626 41.7225 790.978 41.0498 790.106 41.0498ZM790.106 41.1993C790.903 41.1993 791.451 41.7972 791.451 42.5695C791.451 43.3419 790.903 43.9149 790.106 43.9398C789.309 43.9398 788.761 43.3419 788.761 42.5695C788.761 41.7723 789.309 41.1993 790.106 41.1993ZM789.857 43.3419H789.657V41.7723C789.782 41.7474 789.907 41.7225 790.031 41.7225C790.43 41.7225 790.654 41.8969 790.654 42.2457C790.654 42.5197 790.48 42.6692 790.28 42.719L790.803 43.3419H790.554L790.081 42.7439H789.857V43.3419ZM790.056 42.5695H789.857V41.9218C789.907 41.8969 789.981 41.8969 790.031 41.8969C790.305 41.8969 790.455 41.9965 790.455 42.2207C790.455 42.4699 790.28 42.5695 790.056 42.5695Z" fill="#1E3860"/>
</g>
<defs>
<clipPath id="clip0_325_320">
<rect width="792" height="122" fill="white"/>
</clipPath>
</defs>
</svg>
