<svg width="20" height="20" viewBox="0 0 64 64" fill="none" xmlns="http://www.w3.org/2000/svg">
<path d="M39.5881 48.6716C38.4293 50.0412 36.9017 51.9901 37.2178 53.3597C37.4811 54.5185 39.1141 55.256 39.1141 55.256L42.6433 57.1523L40.3256 59.1539L43.0647 60.0494C43.0647 60.0494 40.5363 62.6305 40.2202 62.8938C39.4828 62.9992 38.7453 63.1045 37.9025 63.1045C32.0556 63.1045 23.891 59.628 21.8894 59.628C19.4663 59.5753 16.4112 60.9975 16.4112 60.9975L17.9914 59.2593C17.9914 59.2593 15.8844 59.6807 13.8828 59.5226L16.7272 57.5737C14.1988 57.4683 12.0392 56.7309 10.9857 55.9934C10.9857 55.9934 15.6211 55.6247 21.8367 55.6774C24.3651 55.73 28.6318 55.9407 28.6318 55.9407C26.5248 55.0453 24.5231 53.8338 23.6803 51.7794L27.7363 52.4115C26.0507 51.358 23.575 48.777 23.1009 46.7753L27.6309 48.3556C26.8408 47.5128 24.049 44.879 23.5223 41.8239L27.1042 44.0889C26.156 43.1407 23.6276 38.1366 24.049 36.6617L27.3676 38.8741C25.7873 36.9251 23.891 31.7103 25.1552 29.656C26.156 33.6066 28.4211 35.0288 28.4211 35.0288C26.9462 32.8691 23.733 25.284 26.7881 21.9654C27.5783 29.5506 30.7914 32.079 30.7914 32.079C28.3157 27.865 25.2606 14.8543 30.9495 12.2206C29.8433 20.5959 32.5297 25.1259 32.5297 25.1259C30.8441 17.4354 30.8968 6.47901 36.6383 5.47819C33.8466 13.6955 35.8482 20.0691 35.8482 20.0691C35.4268 0.79012 41.6425 1.15885 41.6425 1.15885C41.6425 1.15885 40.6416 6.63703 40.6416 16.3819V44.5103C40.5363 46.4593 40.3783 47.6181 39.5881 48.6716ZM43.2754 55.4667C45.7511 55.6774 47.542 55.8354 49.333 56.0461C50.0178 56.1514 50.2811 56.8889 50.3865 57.2576C49.5437 57.0469 48.1741 56.9942 48.1741 56.9942L48.1215 57.7844C48.1215 57.7844 49.2803 57.4683 50.5445 57.4156C50.5445 57.4156 53.1256 57.4156 53.0202 59.1539C52.3355 58.6798 50.8606 58.8379 50.4392 58.9432C49.1223 59.1539 47.9108 59.786 46.4885 60.5235C45.1717 61.2082 43.7495 61.9457 42.1165 62.4724C42.854 61.7877 44.7503 59.6807 44.7503 59.6807L42.2219 58.7852L44.2762 56.9942L41.1157 55.256C41.8005 55.3613 42.5379 55.414 43.2754 55.4667ZM43.5388 52.6222H55.0746V14.5909H44.5396V38.2947L41.4844 35.2922V16.3819C41.4318 5.26749 42.7486 0 42.7486 0C39.1667 0 37.3231 3.3712 36.9017 4.37202C34.9001 4.58272 33.2671 5.74156 32.161 8.00658C31.5289 9.27078 31.2128 10.4823 31.1075 11.1144C26.8935 12.0625 26.5248 19.5951 26.7881 20.9646L20.2038 14.5909H8.72064V52.6222H19.2556V29.656L24.3651 34.5021C24.8392 35.8716 25.2606 36.451 25.2606 36.451L23.2589 34.7128C22.8902 38.4527 23.9437 40.349 24.9445 41.7712L22.5215 39.7169C22.3108 43.4041 24.1017 45.6691 25.2079 46.67L21.9947 45.0897C21.784 47.3021 23.9964 50.5679 25.3132 51.2L22.5741 50.7786C23.1536 53.8338 25.3132 54.9399 25.3132 54.9399C25.3132 54.9399 20.6778 54.8346 18.5182 54.8346C12.5659 54.8346 8.66797 55.414 8.66797 55.414C8.66797 55.414 11.3017 58.0477 14.6729 58.1531L11.6704 59.9967C13.8301 60.6815 15.8844 60.4708 15.8844 60.4708L14.1462 62.5251C14.1462 62.5251 19.5717 60.4181 21.8894 60.5761C23.733 60.6815 32.2137 64 37.9552 64C41.8005 64 44.5923 62.5251 46.8046 61.3663C48.1741 60.6288 49.333 60.0494 50.4918 59.8914C52.5462 59.5753 53.4943 60.3128 53.4943 60.3128C53.705 59.4173 54.3371 57.2576 50.9659 56.6782C50.8079 56.0988 50.2285 55.3086 49.3857 55.1506C47.5947 54.8872 39.9569 54.3078 39.7462 54.2551C39.1141 54.2025 36.9017 53.7811 38.9034 50.884C39.0614 50.6733 40.0622 49.3564 40.0622 49.3564L43.5388 52.6222Z" fill="#1C57A5"/>
</svg>
