<svg width="26" height="20" viewBox="0 0 64 50" fill="none" xmlns="http://www.w3.org/2000/svg">
<g clip-path="url(#clip0_26371_30840)">
<path fill-rule="evenodd" clip-rule="evenodd" d="M10.4603 48.2779H8.00644V42.0409H10.4603C11.4364 42.0409 12.225 42.3294 12.804 42.8985C13.3826 43.4675 13.6762 44.2309 13.6762 45.1668C13.6762 46.1178 13.3877 46.8822 12.8189 47.4387C12.2501 47.9957 11.4564 48.2779 10.4603 48.2779ZM10.4603 40.9799H6.87109V49.3389H10.4603C11.7937 49.3389 12.8696 48.9565 13.6587 48.2027C14.4486 47.4484 14.8488 46.432 14.8488 45.1819C14.8488 43.9418 14.4422 42.9204 13.6404 42.1462C12.8387 41.3724 11.7688 40.9799 10.4603 40.9799Z" fill="#AA9377"/>
<path fill-rule="evenodd" clip-rule="evenodd" d="M17.2798 49.3389H18.4302V40.9352H17.2798V49.3389Z" fill="#AA9377"/>
<path fill-rule="evenodd" clip-rule="evenodd" d="M22.894 42.0409H26.5281C26.9944 42.0409 27.3597 42.1578 27.6145 42.3885C27.8675 42.6181 27.9957 42.9447 27.9957 43.3592C27.9957 43.7831 27.8679 44.1081 27.6155 44.3252C27.3609 44.5441 26.9775 44.6552 26.4758 44.6552H22.894V42.0409ZM28.6327 44.9006C28.9982 44.4662 29.1836 43.9376 29.1836 43.3293C29.1836 42.599 28.9461 42.0182 28.4776 41.6029C28.0108 41.1896 27.3597 40.9799 26.543 40.9799H21.7584V49.3389H22.894V45.7308H26.0025L28.0481 49.3106L28.0641 49.3389H29.3285L27.2578 45.7003C27.8208 45.5845 28.2832 45.3157 28.6327 44.9006Z" fill="#AA9377"/>
<path fill-rule="evenodd" clip-rule="evenodd" d="M33.1193 45.4098H36.421V44.3489H33.1193V42.0409H38.5796V40.9799H31.9838V49.3389H38.9158V48.2779H33.1193V45.4098Z" fill="#AA9377"/>
<path fill-rule="evenodd" clip-rule="evenodd" d="M48.1435 46.627C47.8209 47.2333 47.4076 47.6985 46.9152 48.0103C46.4239 48.3219 45.8533 48.4798 45.2197 48.4798C44.3135 48.4798 43.5531 48.1664 42.9597 47.5483C42.3652 46.9299 42.0639 46.1336 42.0639 45.1819C42.0639 44.2299 42.3652 43.4324 42.9597 42.8117C43.5533 42.1911 44.3137 41.8763 45.2197 41.8763C45.8094 41.8763 46.3505 42.0148 46.828 42.2872C47.3044 42.5599 47.6738 42.9419 47.9264 43.4226L47.9565 43.4796L48.9113 42.7988L48.8826 42.7539C48.4853 42.1307 47.9631 41.6442 47.3303 41.3078C46.6974 40.9713 45.9871 40.8008 45.2197 40.8008C43.9801 40.8008 42.9388 41.2173 42.1249 42.0386C41.3109 42.8598 40.8984 43.9175 40.8984 45.1819C40.8984 46.4414 41.3097 47.4963 42.121 48.3175C42.9324 49.1388 43.9748 49.5553 45.2197 49.5553C46.0624 49.5553 46.826 49.3579 47.4892 48.9689C48.1525 48.5795 48.6824 48.0153 49.0639 47.2921L49.0864 47.2495L48.1742 46.5694L48.1435 46.627Z" fill="#AA9377"/>
<path fill-rule="evenodd" clip-rule="evenodd" d="M50.8447 40.9799V42.0409H54.3107V49.3389H55.4537V42.0409H58.927V40.9799H50.8447Z" fill="#AA9377"/>
<path fill-rule="evenodd" clip-rule="evenodd" d="M21.9426 33.8413C21.4332 33.2137 21.1784 32.1985 21.1784 30.7954V11.8323C19.9524 12.246 18.3794 12.4526 16.4596 12.4526C15.5293 12.4526 14.5914 12.4083 13.6462 12.3196V13.2724C14.9313 13.2724 15.8285 13.59 16.3381 14.2248C16.8472 14.86 17.102 15.8789 17.102 17.2819V26.6526C17.102 28.174 16.8364 28.7425 16.3048 29.9977C15.7729 31.2532 15.0418 32.2429 14.1115 32.9661C13.1812 33.69 12.1321 34.0517 10.9659 34.0517C9.94668 34.0517 9.18591 33.8268 8.68394 33.376C8.18177 32.9256 7.86438 32.3458 7.73156 31.637C7.59855 30.9282 7.53214 30.8174 7.53214 29.6654V11.8323C6.29146 12.246 4.71855 12.4526 2.81339 12.4526C1.88288 12.4526 0.944752 12.4083 0 12.3196V13.2724C1.28502 13.2724 2.17841 13.59 2.68058 14.2248C3.18255 14.86 3.43373 15.8789 3.43373 17.2819V28.6685C3.43373 30.1457 3.54789 31.3567 3.777 32.3017C4.00592 33.247 4.39353 34.0152 4.94004 34.6057C6.0479 35.7577 7.62061 36.3337 9.65858 36.3337C11.2389 36.3337 12.6901 35.8905 14.0118 35.0043C15.3335 34.1181 16.3635 32.7449 17.102 30.884V36.245C18.2984 35.8165 19.8713 35.6026 21.8208 35.6026C22.7511 35.6026 23.689 35.6469 24.6342 35.7354V34.7828C23.3494 34.7828 22.4522 34.4692 21.9426 33.8413Z" fill="#323339"/>
<path fill-rule="evenodd" clip-rule="evenodd" d="M58.0398 32.5344C57.0352 34.3729 55.5143 34.4727 53.4761 34.4727C52.5159 34.4727 51.582 34.2809 50.6738 33.8967C49.7655 33.5129 48.957 32.9517 48.248 32.213V19.5195C48.5433 18.3232 48.9903 17.3008 49.5882 16.4513C50.1864 15.6023 50.8694 14.9599 51.6374 14.5239C52.4052 14.0886 53.1954 13.8705 54.0078 13.8705C55.8832 13.8705 57.2754 13.9589 58.1836 15.7756C59.0919 17.5921 59.5461 20.3467 59.5461 24.0386C59.5461 27.8638 59.0439 30.6957 58.0398 32.5344ZM62.847 17.2486C62.1083 15.3954 61.0929 14.0071 59.8009 13.084C58.5082 12.1611 57.0206 11.6995 55.3371 11.6995C53.7714 11.6995 52.3687 12.124 51.128 12.9733C49.8875 13.8225 48.9271 15.0151 48.248 16.5508V0.113281C47.3177 0.482636 46.0621 0.667212 44.482 0.667212C44.3809 0.667212 44.2772 0.665808 44.1718 0.663802V33.4759C44.1718 34.4949 44.0611 35.3664 43.8396 36.0899L44.6148 36.4221L47.8493 33.6752C48.632 34.5469 49.5474 35.2076 50.5963 35.658C51.6446 36.1082 52.723 36.3337 53.8306 36.3337C55.6914 36.3337 57.3897 35.8646 58.9257 34.9269C60.4617 33.9891 61.684 32.5936 62.5922 30.74C63.5004 28.8868 63.9545 26.6526 63.9545 24.0386C63.9545 21.3657 63.5853 19.1024 62.847 17.2486Z" fill="#323339"/>
<path fill-rule="evenodd" clip-rule="evenodd" d="M40.455 0.434485C39.2956 0.2794 38.4425 0.201958 37.8962 0.201958C35.6368 0.201958 33.7166 0.903551 32.1364 2.30633C31.3092 3.0302 30.6855 3.87584 30.2646 4.84306C29.8437 5.81048 29.5668 6.87762 29.434 8.04407C29.3008 9.21091 29.2344 10.651 29.2344 12.364H25.6014V13.8871H29.2344V31.4821C29.2344 32.3239 29.12 32.9812 28.8911 33.4537C28.662 33.9265 28.3002 34.2588 27.8055 34.4506C27.3105 34.6428 26.635 34.7387 25.7786 34.7387V35.6911C28.6142 35.5731 30.4451 35.5139 31.2727 35.5139C31.9372 35.5139 33.9232 35.5731 37.2315 35.6911V34.7387C35.917 34.7387 34.935 34.5025 34.2853 34.0297C33.6353 33.5572 33.3107 32.7081 33.3107 31.4821V13.8871H36.8857V12.364H33.3107V8.71235C33.3107 7.36875 33.4066 6.20572 33.5986 5.22325C33.7904 4.24138 34.2113 3.42543 34.8613 2.7754C35.7178 1.91912 36.7589 1.49059 37.9849 1.49059C38.664 1.49059 39.3658 1.61999 40.0895 1.8782C40.8129 2.1368 41.4333 2.52442 41.9503 3.04123C42.2569 3.37568 42.505 3.76289 42.6958 4.20246V0.646949C42.0247 0.615049 41.2788 0.54483 40.455 0.434485Z" fill="#323339"/>
<path d="M61.2782 42.1794H61.0451V42.6432H60.8359V41.4395H61.2592C61.3981 41.4395 61.5053 41.4706 61.5808 41.5329C61.6563 41.5952 61.6941 41.6853 61.6941 41.8032C61.6941 41.8837 61.6746 41.9511 61.6358 42.0053C61.5969 42.0596 61.5428 42.1014 61.4733 42.1306L61.7437 42.6324V42.6432H61.5196L61.2782 42.1794ZM61.0451 42.0115H61.26C61.3306 42.0115 61.3857 41.9938 61.4254 41.9582C61.4651 41.9227 61.4849 41.874 61.4849 41.8123C61.4849 41.7478 61.4666 41.6979 61.4299 41.6627C61.3933 41.6274 61.3386 41.6092 61.2658 41.6081H61.0451V42.0115Z" fill="#323339"/>
<path d="M61.2311 43.1516C60.6116 43.1516 60.1094 42.6494 60.1094 42.0299C60.1094 41.4104 60.6116 40.9082 61.2311 40.9082C61.8506 40.9082 62.3528 41.4104 62.3528 42.0299C62.3528 42.6494 61.8506 43.1516 61.2311 43.1516ZM61.2311 42.9823C61.7571 42.9823 62.1834 42.5559 62.1834 42.0299C62.1834 41.5039 61.7571 41.0775 61.2311 41.0775C60.7051 41.0775 60.2787 41.5039 60.2787 42.0299C60.2787 42.5559 60.7051 42.9823 61.2311 42.9823Z" fill="#323339"/>
</g>
<defs>
<clipPath id="clip0_26371_30840">
<rect width="64" height="49.6" fill="white"/>
</clipPath>
</defs>
</svg>
