<svg width="150" height="24" viewBox="0 0 1982 319" fill="none" xmlns="http://www.w3.org/2000/svg">
<g clip-path="url(#clip0_405_77)">
<path fill-rule="evenodd" clip-rule="evenodd" d="M736.402 126.438H671.729V289.848H736.402C762.58 289.848 783.175 282.514 798.188 267.839C813.201 253.164 820.709 233.327 820.709 208.335C820.709 183.728 813.075 163.926 797.803 148.932C782.531 133.934 762.065 126.438 736.402 126.438ZM736.402 102.021C769.894 102.021 796.871 111.892 817.34 131.629C837.806 151.365 848.043 177.066 848.043 208.72C848.043 240.633 837.965 266.2 817.823 285.429C797.674 304.652 770.535 314.265 736.402 314.265H645.36V102.021H736.402Z" fill="#AA9377"/>
<path fill-rule="evenodd" clip-rule="evenodd" d="M910.583 314.264H937.337V100.869H910.583V314.264Z" fill="#AA9377"/>
<path fill-rule="evenodd" clip-rule="evenodd" d="M1042.22 196.609H1135.96C1149.31 196.609 1159.41 193.661 1166.28 187.765C1173.14 181.872 1176.58 173.22 1176.58 161.809C1176.58 150.661 1173.14 141.979 1166.28 135.763C1159.41 129.544 1149.76 126.438 1137.31 126.438H1042.22V196.609ZM1015.85 314.265V102.021H1137.7C1158.48 102.021 1174.78 107.245 1186.59 117.688C1198.39 128.138 1204.29 142.587 1204.29 161.043C1204.29 176.423 1199.68 189.591 1190.44 200.549C1181.2 211.506 1169 218.333 1153.86 221.026L1206.99 314.265H1177.73L1124.6 221.407H1042.22V314.265H1015.85Z" fill="#AA9377"/>
<path fill-rule="evenodd" clip-rule="evenodd" d="M1268.18 314.265V102.021H1435.26V126.438H1294.55V188.725H1379.63V213.142H1294.55V289.848H1443.92V314.265H1268.18Z" fill="#AA9377"/>
<path fill-rule="evenodd" clip-rule="evenodd" d="M1657.85 246.593L1679.02 262.357C1669.26 280.814 1655.92 295.01 1638.98 304.94C1622.05 314.87 1602.8 319.841 1581.24 319.841C1549.41 319.841 1523.14 309.362 1502.42 288.407C1481.7 267.451 1471.33 240.891 1471.33 208.72C1471.33 176.423 1481.73 149.795 1502.51 128.84C1523.3 107.885 1549.54 97.4054 1581.24 97.4054C1600.87 97.4054 1618.77 101.704 1634.94 110.289C1651.11 118.874 1664.26 131.115 1674.4 147.009L1652.26 162.773C1645.59 150.083 1635.97 140.153 1623.39 132.974C1610.81 125.795 1596.77 122.207 1581.24 122.207C1557.37 122.207 1537.61 130.378 1521.96 146.721C1506.3 163.06 1498.47 183.728 1498.47 208.72C1498.47 233.712 1506.3 254.351 1521.96 270.626C1537.61 286.904 1557.37 295.039 1581.24 295.039C1597.92 295.039 1612.74 290.941 1625.7 282.737C1638.66 274.537 1649.38 262.487 1657.85 246.593Z" fill="#AA9377"/>
<path fill-rule="evenodd" clip-rule="evenodd" d="M1779.1 314.265V126.438H1689.79V102.021H1895.16V126.438H1805.66V314.265H1779.1Z" fill="#AA9377"/>
<path fill-rule="evenodd" clip-rule="evenodd" d="M190.072 295.041C185.661 289.61 183.454 280.828 183.454 268.688V104.621C172.833 108.203 159.208 109.99 142.577 109.99C134.519 109.99 126.393 109.605 118.208 108.839V117.082C129.338 117.082 137.111 119.829 141.525 125.324C145.936 130.819 148.144 139.634 148.144 151.771V232.844C148.144 246.01 145.843 250.926 141.237 261.786C136.629 272.647 130.296 281.21 122.237 287.471C114.179 293.732 105.092 296.86 94.9883 296.86C86.1598 296.86 79.5708 294.915 75.2245 291.013C70.8718 287.118 68.1242 282.102 66.9721 275.97C65.82 269.835 65.2439 268.878 65.2439 258.913V104.621C54.4996 108.203 40.875 109.99 24.3702 109.99C16.3119 109.99 8.18569 109.605 0.0012207 108.839V117.082C11.1307 117.082 18.8685 119.829 23.218 125.324C27.5676 130.819 29.7423 139.634 29.7423 151.771V250.286C29.7423 263.066 30.7326 273.546 32.7197 281.72C34.7003 289.898 38.0595 296.544 42.7941 301.654C52.3896 311.619 66.0109 316.603 83.6646 316.603C97.354 316.603 109.924 312.77 121.373 305.103C132.823 297.436 141.746 285.554 148.144 269.454V315.837C158.506 312.13 172.131 310.278 189.017 310.278C197.076 310.278 205.202 310.662 213.39 311.429V303.186C202.26 303.186 194.487 300.474 190.072 295.041Z" fill="#323339"/>
<path fill-rule="evenodd" clip-rule="evenodd" d="M509.23 283.732C500.528 299.642 487.353 300.502 469.699 300.502C461.379 300.502 453.292 298.843 445.424 295.521C437.557 292.198 430.55 287.343 424.411 280.953V171.131C426.968 160.781 430.838 151.934 436.02 144.587C441.201 137.24 447.117 131.681 453.77 127.912C460.421 124.143 467.266 122.258 474.304 122.258C490.55 122.258 502.609 123.021 510.476 138.74C518.343 154.456 522.279 178.287 522.279 210.229C522.279 243.325 517.929 267.823 509.23 283.732ZM550.871 151.485C544.473 135.45 535.677 123.438 524.486 115.451C513.288 107.467 500.402 103.472 485.819 103.472C472.256 103.472 460.104 107.147 449.356 114.494C438.612 121.841 430.295 132.159 424.411 145.447V3.23132C416.35 6.42809 405.476 8.02486 391.79 8.02486C390.913 8.02486 390.013 8.01193 389.101 7.99577V291.878C389.101 300.696 388.143 308.237 386.224 314.494L392.939 317.368L420.958 293.604C427.735 301.145 435.667 306.86 444.751 310.758C453.832 314.653 463.175 316.602 472.77 316.602C488.89 316.602 503.599 312.545 516.906 304.432C530.211 296.319 540.796 284.246 548.664 268.207C556.531 252.175 560.466 232.846 560.466 210.229C560.466 187.105 557.266 167.521 550.871 151.485Z" fill="#323339"/>
<path fill-rule="evenodd" clip-rule="evenodd" d="M350.433 6.01144C340.391 4.67003 332.999 4.00094 328.268 4.00094C308.695 4.00094 292.064 10.068 278.374 22.2054C271.209 28.4696 265.805 35.7844 262.161 44.1529C258.514 52.5213 256.115 61.7561 254.967 71.8474C253.811 81.9419 253.235 94.4026 253.235 109.223H221.766V122.401H253.235V274.627C253.235 281.913 252.245 287.599 250.264 291.687C248.277 295.776 245.145 298.653 240.86 300.311C236.572 301.973 230.721 302.803 223.3 302.803V311.046C247.863 310.024 263.727 309.51 270.892 309.51C276.649 309.51 293.853 310.024 322.51 311.046V302.803C311.125 302.803 302.617 300.761 296.989 296.672C291.358 292.583 288.546 285.236 288.546 274.627V122.401H319.513V109.223H288.546V77.63C288.546 66.0066 289.378 55.9444 291.041 47.4434C292.701 38.9488 296.348 31.8894 301.98 26.2652C309.397 18.8567 318.416 15.1492 329.038 15.1492C334.918 15.1492 340.999 16.2676 347.268 18.5011C353.533 20.7379 358.905 24.0931 363.387 28.5634C366.041 31.4563 368.19 34.8082 369.844 38.6094V7.85064C364.031 7.57266 357.569 6.96498 350.433 6.01144Z" fill="#323339"/>
<path fill-rule="evenodd" clip-rule="evenodd" d="M1957.93 125.892H1953.44V134.837H1949.4V111.622H1957.57C1960.25 111.622 1962.31 112.223 1963.77 113.424C1965.23 114.625 1965.95 116.363 1965.95 118.638C1965.95 120.19 1965.58 121.489 1964.83 122.536C1964.08 123.583 1963.04 124.388 1961.7 124.951L1966.91 134.629V134.837H1962.59L1957.93 125.892ZM1953.44 122.656H1957.58C1958.94 122.656 1960.01 122.313 1960.77 121.627C1961.54 120.942 1961.92 120.004 1961.92 118.813C1961.92 117.569 1961.57 116.607 1960.86 115.927C1960.15 115.247 1959.1 114.896 1957.7 114.875H1953.44V122.656Z" fill="#323339"/>
<path d="M1957 144.633C1945.05 144.633 1935.37 134.947 1935.37 123C1935.37 111.053 1945.05 101.367 1957 101.367C1968.95 101.367 1978.63 111.053 1978.63 123C1978.63 134.947 1968.95 144.633 1957 144.633ZM1957 141.367C1967.14 141.367 1975.37 133.144 1975.37 123C1975.37 112.856 1967.14 104.633 1957 104.633C1946.86 104.633 1938.63 112.856 1938.63 123C1938.63 133.144 1946.86 141.367 1957 141.367Z" fill="#323339"/>
</g>
<defs>
<clipPath id="clip0_405_77">
<rect width="1982" height="319" fill="white"/>
</clipPath>
</defs>
</svg>
