<svg xmlns="http://www.w3.org/2000/svg" xmlns:xlink="http://www.w3.org/1999/xlink">
  <symbol id="eye" viewBox="0 -4 20 20">
    <path d="M9.91165 0.109863C14.1084 0.109863 17.7013 2.69509 19.1848 6.3599C17.7005 10.0252 14.1079 12.6099 9.91165 12.6099C5.71539 12.6099 2.12281 10.0252 0.639038 6.36107C2.12199 2.69509 5.71492 0.109863 9.91165 0.109863ZM9.91165 1.35986C6.53898 1.35986 3.52458 3.28547 2.06801 6.22802L2.0054 6.35986L2.06799 6.49347C3.4767 9.33684 6.34038 11.2304 9.57568 11.3535L9.91165 11.3599C13.2838 11.3599 16.2981 9.43477 17.7557 6.49247L17.8179 6.35986L17.7558 6.22724C16.3473 3.38336 13.4833 1.48935 10.2477 1.36625L9.91165 1.35986ZM9.91165 2.60986C11.9827 2.60986 13.6617 4.2888 13.6617 6.35986C13.6617 8.43093 11.9827 10.1099 9.91165 10.1099C7.84058 10.1099 6.16165 8.43093 6.16165 6.35986C6.16165 4.2888 7.84058 2.60986 9.91165 2.60986ZM9.91165 3.85986C8.53094 3.85986 7.41165 4.97915 7.41165 6.35986C7.41165 7.74058 8.53094 8.85986 9.91165 8.85986C11.2924 8.85986 12.4117 7.74058 12.4117 6.35986C12.4117 4.97915 11.2924 3.85986 9.91165 3.85986Z"/>
 </symbol>
 <symbol id="eye-hide" viewBox="0 -3 20 20">
<path d="M16.9828 0.34668L17.8667 1.23056L15.9224 3.17507C17.3617 4.25918 18.4988 5.72305 19.1848 7.41778C17.7005 11.0831 14.108 13.6677 9.9117 13.6677C8.58421 13.6677 7.31713 13.4091 6.15812 12.9394L3.72452 15.3727L2.84063 14.4888L16.9828 0.34668ZM15.0288 4.06868L13.2966 5.80184C13.5307 6.29116 13.6617 6.83915 13.6617 7.41775C13.6617 9.48882 11.9828 11.1677 9.9117 11.1677C9.33311 11.1677 8.78512 11.0367 8.29579 10.8027L7.13143 11.9657C7.9078 12.2257 8.72904 12.3792 9.57573 12.4114L9.9117 12.4177C13.2839 12.4177 16.2981 10.4927 17.7558 7.55036L17.818 7.41775L17.7559 7.28512C17.1145 5.9902 16.1714 4.89222 15.0288 4.06868ZM9.9117 1.16775C11.2389 1.16775 12.5058 1.42632 13.6646 1.89583L12.6921 2.86987C11.9157 2.60983 11.0944 2.45635 10.2477 2.42413L9.9117 2.41775C6.53903 2.41775 3.52463 4.34335 2.06806 7.2859L2.00545 7.41775L2.06804 7.55135C2.7094 8.84589 3.65234 9.94354 4.79464 10.7669L3.90081 11.6603C2.46194 10.5765 1.32511 9.11309 0.639088 7.41896C2.12204 3.75298 5.71497 1.16775 9.9117 1.16775ZM12.3274 6.77145L9.2654 9.8334C9.47156 9.88842 9.68821 9.91775 9.9117 9.91775C11.2924 9.91775 12.4117 8.79846 12.4117 7.41775C12.4117 7.26875 12.3987 7.1228 12.3737 6.98097L12.3274 6.77145ZM9.9117 3.66775C10.4904 3.66775 11.0385 3.79884 11.5279 4.03294L10.5591 5.00237C10.3526 4.94717 10.1356 4.91775 9.9117 4.91775C8.53099 4.91775 7.4117 6.03704 7.4117 7.41775C7.4117 7.64162 7.44113 7.85863 7.49633 8.0651L6.52731 9.03483C6.29295 8.54521 6.1617 7.9968 6.1617 7.41775C6.1617 5.34668 7.84063 3.66775 9.9117 3.66775Z"/>
  </symbol>


</svg>
