<svg xmlns="http://www.w3.org/2000/svg" xmlns:xlink="http://www.w3.org/1999/xlink">
  <symbol id="uk2-x-circle" viewBox="0 0 24 24" xmlns="http://www.w3.org/2000/svg">
    <path id="primary" d="M12 1.5C17.799 1.5 22.5 6.20101 22.5 12C22.5 17.799 17.799 22.5 12 22.5C6.20101 22.5 1.5 17.799 1.5 12C1.5 6.20101 6.20101 1.5 12 1.5ZM12 3C7.02944 3 3 7.02944 3 12C3 16.9706 7.02944 21 12 21C16.9706 21 21 16.9706 21 12C21 7.02944 16.9706 3 12 3ZM15.5947 6.96967L16.6553 8.03033L12.8737 11.8117L16.6553 15.5947L15.5947 16.6553L11.8117 12.8737L8.03033 16.6553L6.96967 15.5947L10.7512 11.8117L6.96967 8.03033L8.03033 6.96967L11.8117 10.7512L15.5947 6.96967Z"/>
  </symbol>
  <symbol id="uk2-info-circle" viewBox="0 0 24 24" xmlns="http://www.w3.org/2000/svg">
    <path id="primary" d="M12 1.5C17.799 1.5 22.5 6.20101 22.5 12C22.5 17.799 17.799 22.5 12 22.5C6.20101 22.5 1.5 17.799 1.5 12C1.5 6.20101 6.20101 1.5 12 1.5ZM12 3C7.02944 3 3 7.02944 3 12C3 16.9706 7.02944 21 12 21C16.9706 21 21 16.9706 21 12C21 7.02944 16.9706 3 12 3ZM12.75 10.5V17.25H11.25V10.5H12.75ZM12 6.75C12.6213 6.75 13.125 7.25368 13.125 7.875C13.125 8.49632 12.6213 9 12 9C11.3787 9 10.875 8.49632 10.875 7.875C10.875 7.25368 11.3787 6.75 12 6.75Z"/>
  </symbol>
  <symbol id="uk2-check-circle" viewBox="0 0 24 24" xmlns="http://www.w3.org/2000/svg">
    <path id="primary" d="M12 1.5C17.799 1.5 22.5 6.20101 22.5 12C22.5 17.799 17.799 22.5 12 22.5C6.20101 22.5 1.5 17.799 1.5 12C1.5 6.20101 6.20101 1.5 12 1.5ZM12 3C7.02944 3 3 7.02944 3 12C3 16.9706 7.02944 21 12 21C16.9706 21 21 16.9706 21 12C21 7.02944 16.9706 3 12 3ZM16.7197 8.46967L17.7803 9.53033L10.5 16.8107L6.21967 12.5303L7.28033 11.4697L10.5 14.6887L16.7197 8.46967Z"/>
  </symbol>
  <symbol id="uk2-exclamation-circle" viewBox="0 0 24 24" xmlns="http://www.w3.org/2000/svg">
    <path id="primary" d="M12 1.5C17.799 1.5 22.5 6.20101 22.5 12C22.5 17.799 17.799 22.5 12 22.5C6.20101 22.5 1.5 17.799 1.5 12C1.5 6.20101 6.20101 1.5 12 1.5ZM12 3C7.02944 3 3 7.02944 3 12C3 16.9706 7.02944 21 12 21C16.9706 21 21 16.9706 21 12C21 7.02944 16.9706 3 12 3ZM12 15.75C12.6213 15.75 13.125 16.2537 13.125 16.875C13.125 17.4963 12.6213 18 12 18C11.3787 18 10.875 17.4963 10.875 16.875C10.875 16.2537 11.3787 15.75 12 15.75ZM12.75 6V14.25H11.25V6H12.75Z"/>
  </symbol>
  <symbol id="uk2-exclamation-triangle" viewBox="0 0 24 24" xmlns="http://www.w3.org/2000/svg">
    <g id="primary">
      <path d="M12.7514 7.14531V15.3953H11.2514V7.14531H12.7514Z"/>
      <path d="M12.0014 16.8953C12.6227 16.8953 13.1264 17.399 13.1264 18.0203C13.1264 18.6416 12.6227 19.1453 12.0014 19.1453C11.3801 19.1453 10.8764 18.6416 10.8764 18.0203C10.8764 17.399 11.3801 16.8953 12.0014 16.8953Z"/>
      <path fill-rule="evenodd" clip-rule="evenodd" d="M9.31805 3.51187L2.17215 17.8037C1.1748 19.7984 2.62529 22.1453 4.85543 22.1453H19.1472C21.3774 22.1453 22.8279 19.7984 21.8305 17.8037L14.6846 3.51188C13.579 1.30073 10.4236 1.30073 9.31805 3.51187ZM3.51379 18.4745L10.6597 4.18269C11.2125 3.07712 12.7902 3.07712 13.343 4.1827L20.4889 18.4745C20.9875 19.4718 20.2623 20.6453 19.1472 20.6453H4.85543C3.74036 20.6453 3.01512 19.4718 3.51379 18.4745Z"/>
    </g>
  </symbol>
  <symbol id="uk2-question-circle" viewBox="0 0 24 24" xmlns="http://www.w3.org/2000/svg">
    <path id="primary" d="M12 1.5C17.799 1.5 22.5 6.20101 22.5 12C22.5 17.799 17.799 22.5 12 22.5C6.20101 22.5 1.5 17.799 1.5 12C1.5 6.20101 6.20101 1.5 12 1.5ZM12 3C7.02944 3 3 7.02944 3 12C3 16.9706 7.02944 21 12 21C16.9706 21 21 16.9706 21 12C21 7.02944 16.9706 3 12 3ZM12 15.75C12.6213 15.75 13.125 16.2537 13.125 16.875C13.125 17.4963 12.6213 18 12 18C11.3787 18 10.875 17.4963 10.875 16.875C10.875 16.2537 11.3787 15.75 12 15.75ZM12 6C13.8102 6 15 7.33855 15 9C15 9.8325 14.6956 10.3363 13.8721 11.1854L13.6553 11.4053L13.3208 11.7499C12.9416 12.1568 12.789 12.3993 12.7567 12.6443L12.75 12.75V14.25H11.25V12.75L11.2565 12.5483C11.3043 11.8311 11.623 11.343 12.3779 10.5646L12.5947 10.3447L12.9292 10.0001C13.3626 9.53506 13.5 9.28483 13.5 9C13.5 8.1302 12.9398 7.5 12 7.5C11.2392 7.5 10.5979 8.23358 10.5102 8.85818L10.5 9H9L9.00779 8.80637C9.11635 7.44575 10.348 6 12 6Z"/>
  </symbol>
  <symbol id="uk2-x-circle-fill" viewBox="0 0 24 24" xmlns="http://www.w3.org/2000/svg">
    <path id="primary" fill-rule="evenodd" clip-rule="evenodd" d="M22.5 12C22.5 6.20101 17.799 1.5 12 1.5C6.20101 1.5 1.5 6.20101 1.5 12C1.5 17.799 6.20101 22.5 12 22.5C17.799 22.5 22.5 17.799 22.5 12ZM15.5946 6.96968L16.6553 8.03034L12.8736 11.8117L16.6553 15.5947L15.5946 16.6553L11.8116 12.8737L8.03029 16.6553L6.96964 15.5947L10.7511 11.8117L6.96964 8.03034L8.03029 6.96968L11.8116 10.7512L15.5946 6.96968Z"/>
  </symbol>
  <symbol id="uk2-info-circle-fill" viewBox="0 0 24 24" xmlns="http://www.w3.org/2000/svg">
    <path id="primary" fill-rule="evenodd" clip-rule="evenodd" d="M22.5 12C22.5 6.20101 17.799 1.5 12 1.5C6.20101 1.5 1.5 6.20101 1.5 12C1.5 17.799 6.20101 22.5 12 22.5C17.799 22.5 22.5 17.799 22.5 12ZM12 6.75C12.6213 6.75 13.125 7.25368 13.125 7.875C13.125 8.49632 12.6213 9 12 9C11.3787 9 10.875 8.49632 10.875 7.875C10.875 7.25368 11.3787 6.75 12 6.75ZM12.75 10.5V17.25H11.25V10.5H12.75Z"/>
  </symbol>
  <symbol id="uk2-check-circle-fill" viewBox="0 0 24 24" xmlns="http://www.w3.org/2000/svg">
    <path id="primary" fill-rule="evenodd" clip-rule="evenodd" d="M22.5 12C22.5 6.20101 17.799 1.5 12 1.5C6.20101 1.5 1.5 6.20101 1.5 12C1.5 17.799 6.20101 22.5 12 22.5C17.799 22.5 22.5 17.799 22.5 12ZM16.7196 8.46968L17.7803 9.53034L10.5 16.8107L6.21964 12.5303L7.28029 11.4697L10.5 14.6888L16.7196 8.46968Z"/>
  </symbol>
  <symbol id="uk2-exclamation-circle-fill" viewBox="0 0 24 24" xmlns="http://www.w3.org/2000/svg">
    <path id="primary" fill-rule="evenodd" clip-rule="evenodd" d="M22.5 12C22.5 6.20101 17.799 1.5 12 1.5C6.20101 1.5 1.5 6.20101 1.5 12C1.5 17.799 6.20101 22.5 12 22.5C17.799 22.5 22.5 17.799 22.5 12ZM12.75 6V14.25H11.25V6H12.75ZM12 15.75C12.6213 15.75 13.125 16.2537 13.125 16.875C13.125 17.4963 12.6213 18 12 18C11.3787 18 10.875 17.4963 10.875 16.875C10.875 16.2537 11.3787 15.75 12 15.75Z"/>
  </symbol>
  <symbol id="uk2-exclamation-triangle-fill" viewBox="0 0 24 24" xmlns="http://www.w3.org/2000/svg">
    <path id="primary" fill-rule="evenodd" clip-rule="evenodd" d="M2.17215 17.8037L9.31805 3.51187C10.4236 1.30073 13.579 1.30073 14.6846 3.51188L21.8305 17.8037C22.8279 19.7984 21.3774 22.1453 19.1472 22.1453H4.85543C2.62529 22.1453 1.1748 19.7984 2.17215 17.8037ZM12.7514 15.3953V7.14531H11.2514V15.3953H12.7514ZM13.1264 18.0203C13.1264 17.399 12.6227 16.8953 12.0014 16.8953C11.3801 16.8953 10.8764 17.399 10.8764 18.0203C10.8764 18.6416 11.3801 19.1453 12.0014 19.1453C12.6227 19.1453 13.1264 18.6416 13.1264 18.0203Z"/>
  </symbol>
  <symbol id="uk2-question-circle-fill" viewBox="0 0 24 24" xmlns="http://www.w3.org/2000/svg">
    <path id="primary" fill-rule="evenodd" clip-rule="evenodd" d="M22.5 12C22.5 6.20101 17.799 1.5 12 1.5C6.20101 1.5 1.5 6.20101 1.5 12C1.5 17.799 6.20101 22.5 12 22.5C17.799 22.5 22.5 17.799 22.5 12ZM12 6C13.8102 6 15 7.33855 15 9C15 9.8325 14.6956 10.3363 13.8721 11.1854L13.6553 11.4053L13.3208 11.7499C12.9416 12.1568 12.789 12.3993 12.7567 12.6443L12.75 12.75V14.25H11.25V12.75L11.2565 12.5483C11.3043 11.8311 11.623 11.343 12.3779 10.5646L12.5947 10.3447L12.9292 10.0001C13.3626 9.53506 13.5 9.28483 13.5 9C13.5 8.1302 12.9398 7.5 12 7.5C11.2392 7.5 10.5979 8.23358 10.5102 8.85818L10.5 9H9L9.00779 8.80637C9.11635 7.44575 10.348 6 12 6ZM12 15.75C12.6213 15.75 13.125 16.2537 13.125 16.875C13.125 17.4963 12.6213 18 12 18C11.3787 18 10.875 17.4963 10.875 16.875C10.875 16.2537 11.3787 15.75 12 15.75Z"/>
  </symbol>
</svg>
