<svg xmlns="http://www.w3.org/2000/svg" xmlns:xlink="http://www.w3.org/1999/xlink">
  <symbol id="uk2-face-id" viewBox="0 0 24 24" xmlns="http://www.w3.org/2000/svg">
    <path id="primary" d="M20.25 15C20.6642 15 21 15.3358 21 15.75V18C21 19.6569 19.6569 21 18 21H15.75C15.3357 21 14.9998 20.6643 14.9996 20.25C14.9994 19.8656 15.2887 19.5486 15.6615 19.5051L15.7491 19.5H18C18.7908 19.5 19.4386 18.8881 19.4959 18.1119L19.5 18V15.75C19.5 15.3358 19.8358 15 20.25 15ZM3.75 15C4.16421 15 4.5 15.3358 4.5 15.75V18C4.5 18.7908 5.11191 19.4386 5.88805 19.4959L6 19.5H8.24925C8.66352 19.5 8.99942 19.8357 8.99963 20.25C8.99982 20.6344 8.71059 20.9514 8.33779 20.9949L8.25 21H6C4.34315 21 3 19.6569 3 18V15.75C3 15.3358 3.33579 15 3.75 15ZM9.90533 14.4697C10.5169 15.0813 11.2023 15.375 12 15.375C12.7977 15.375 13.4831 15.0813 14.0947 14.4697C14.3876 14.1768 14.8624 14.1768 15.1553 14.4697C15.4482 14.7626 15.4482 15.2374 15.1553 15.5303C14.2669 16.4187 13.2023 16.875 12 16.875C10.7977 16.875 9.73307 16.4187 8.84467 15.5303C8.55178 15.2374 8.55178 14.7626 8.84467 14.4697C9.13756 14.1768 9.61244 14.1768 9.90533 14.4697ZM12.375 8.625C12.7596 8.625 13.0766 8.91453 13.12 9.28753L13.125 9.375V12.375C13.125 13.1658 12.5131 13.8136 11.7369 13.8709L11.625 13.875H11.25C10.8358 13.875 10.5 13.5392 10.5 13.125C10.5 12.7404 10.7895 12.4234 11.1625 12.38L11.25 12.375H11.625V9.375C11.625 8.96079 11.9608 8.625 12.375 8.625ZM15.375 8.625C15.7596 8.625 16.0766 8.91453 16.12 9.28753L16.125 9.375V10.5C16.125 10.9142 15.7892 11.25 15.375 11.25C14.9904 11.25 14.6734 10.9605 14.63 10.5875L14.625 10.5V9.375C14.625 8.96079 14.9608 8.625 15.375 8.625ZM8.625 8.625C9.00963 8.625 9.32663 8.91453 9.36995 9.28753L9.375 9.375V10.5C9.375 10.9142 9.03921 11.25 8.625 11.25C8.24037 11.25 7.92337 10.9605 7.88005 10.5875L7.875 10.5V9.375C7.875 8.96079 8.21079 8.625 8.625 8.625ZM18 3C19.6569 3 21 4.34315 21 6V8.25C21 8.66421 20.6642 9 20.25 9C19.8358 9 19.5 8.66421 19.5 8.25V6C19.5 5.20923 18.8881 4.56138 18.1119 4.50411L18 4.5H15.75C15.3358 4.5 15 4.16421 15 3.75C15 3.33579 15.3358 3 15.75 3H18ZM8.25 3C8.66421 3 9 3.33579 9 3.75C9 4.16421 8.66421 4.5 8.25 4.5H6C5.20923 4.5 4.56138 5.11191 4.50411 5.88805L4.5 6V8.25C4.5 8.66421 4.16421 9 3.75 9C3.33579 9 3 8.66421 3 8.25V6C3 4.34315 4.34315 3 6 3H8.25Z"/>
  </symbol>
  <symbol id="uk2-finger-print" viewBox="0 0 24 24" xmlns="http://www.w3.org/2000/svg">
    <path id="primary" fill-rule="evenodd" clip-rule="evenodd" d="M5.21567 5.88897C3.8436 7.64933 3.25976 9.85065 3.187 11.5597C3.17379 11.87 2.91146 12.1109 2.60108 12.0977C2.2907 12.0845 2.0498 11.8222 2.06302 11.5118C2.14349 9.6216 2.78295 7.1801 4.32836 5.19737C5.89119 3.19229 8.3592 1.6875 12.0016 1.6875C14.4398 1.6875 16.3673 2.35795 17.8511 3.47664C19.3298 4.59149 20.3315 6.12397 20.9716 7.7943C22.2448 11.1175 22.121 15.0728 21.3965 17.7199C21.3145 18.0196 21.0051 18.196 20.7055 18.114C20.4058 18.0319 20.2294 17.7226 20.3114 17.423C20.9847 14.9629 21.0938 11.2575 19.921 8.19683C19.338 6.67514 18.447 5.33486 17.1738 4.37492C15.9058 3.41884 14.2225 2.8125 12.0016 2.8125C8.71395 2.8125 6.57032 4.15098 5.21567 5.88897ZM7.40028 4.76051C8.6412 4.00847 10.2904 3.54464 12.4675 3.54464C14.6483 3.54464 16.3088 4.3303 17.5055 5.60027C18.6883 6.85534 19.3856 8.5473 19.7351 10.3245C20.4299 13.8574 19.7894 17.9431 18.5497 20.1667C18.3985 20.4381 18.0559 20.5354 17.7845 20.3842C17.5132 20.2329 17.4159 19.8903 17.5672 19.6189C18.6571 17.664 19.2832 13.8568 18.6313 10.5415C18.3074 8.8947 17.678 7.42367 16.6868 6.37183C15.7096 5.33489 14.3488 4.66964 12.4675 4.66964C10.4513 4.66964 9.0138 5.09811 7.98338 5.72261C6.95488 6.34591 6.29537 7.18654 5.86913 8.07255C5.07714 9.7188 5.09837 11.4911 5.10774 12.2726C5.10861 12.3455 5.10938 12.4096 5.10938 12.4642C5.10938 13.0274 4.96646 13.4871 4.7232 13.8507C4.48237 14.2107 4.16543 14.4435 3.8659 14.5928C3.56852 14.741 3.278 14.8122 3.06657 14.8473C2.95952 14.8651 2.8691 14.8742 2.80323 14.8789C2.77021 14.8813 2.74308 14.8825 2.72282 14.8832C2.71268 14.8835 2.70423 14.8837 2.6976 14.8838L2.68901 14.8839H2.68576C2.37256 14.884 2.12072 14.6321 2.12072 14.3215C2.12072 14.012 2.37066 13.7609 2.67971 13.759C2.69251 13.7585 2.70542 13.758 2.72336 13.7567C2.75941 13.7542 2.81458 13.7488 2.88225 13.7375C3.02027 13.7146 3.19565 13.6698 3.36419 13.5858C3.53057 13.5029 3.67956 13.3875 3.78816 13.2252C3.89434 13.0664 3.98438 12.8297 3.98438 12.4642C3.98438 12.416 3.98349 12.3562 3.98245 12.286C3.97101 11.5159 3.94085 9.4857 4.85534 7.58483C5.36094 6.53388 6.15742 5.51374 7.40028 4.76051ZM16.0116 8.57018C15.1364 7.19671 13.7073 6.36197 11.5787 6.52514C10.1625 6.6337 9.20423 7.06224 8.53793 7.63223C7.86745 8.20582 7.44833 8.9607 7.17866 9.7938C6.90767 10.6309 6.7953 11.5223 6.7234 12.3463C6.70754 12.528 6.69173 12.7325 6.67639 12.9309C6.6604 13.1377 6.64492 13.3378 6.63044 13.4986C6.59932 13.8443 6.56006 14.18 6.49022 14.4583C6.20279 15.6041 5.34768 16.2886 4.64078 16.6728C4.2821 16.8677 3.94226 16.9966 3.69254 17.0768C3.56707 17.1172 3.46268 17.1458 3.38791 17.1646C3.35048 17.1741 3.32035 17.1811 3.29855 17.186L3.27221 17.1918L3.26393 17.1935C2.9544 17.2552 2.6582 17.0575 2.59748 16.7528C2.53685 16.4486 2.73389 16.1529 3.03773 16.0915L3.05225 16.0883C3.06481 16.0855 3.08518 16.0808 3.11236 16.0739C3.16681 16.0601 3.24806 16.038 3.34826 16.0057C3.54991 15.9409 3.82159 15.8376 4.10354 15.6844C4.67791 15.3722 5.22056 14.896 5.39903 14.1845C5.44568 13.9986 5.47922 13.7394 5.50997 13.3978C5.52674 13.2115 5.53982 13.0399 5.55376 12.8568C5.56768 12.6741 5.58246 12.4799 5.60266 12.2486C5.67635 11.404 5.79695 10.4093 6.10835 9.4473C6.42107 8.48123 6.93378 7.52408 7.80663 6.77737C8.68373 6.02705 9.88028 5.52703 11.4926 5.40343C14.0231 5.20947 15.8555 6.23188 16.9604 7.96552C18.0412 9.66157 18.3928 11.9806 18.1523 14.3776C17.7707 18.1793 16.7171 20.2706 16.2107 21.1116C16.0505 21.3777 15.7048 21.4636 15.4387 21.3033C15.1726 21.1431 15.0867 20.7974 15.247 20.5312C15.6725 19.8246 16.6689 17.8921 17.0329 14.2653C17.2583 12.0193 16.9109 9.9813 16.0116 8.57018ZM13.4648 8.7117C13.0207 8.43367 12.4261 8.27738 11.6051 8.3796C10.8374 8.47522 10.1844 8.73075 9.7062 9.3348C9.21525 9.9549 8.83673 11.0318 8.83673 12.9286C8.83673 15.4565 7.67839 16.9015 6.48884 17.6917C5.90616 18.0788 5.32711 18.3026 4.89544 18.4301C4.67873 18.4941 4.49657 18.5345 4.36604 18.5593C4.30069 18.5717 4.24805 18.5803 4.21021 18.5858C4.19128 18.5886 4.17603 18.5907 4.16473 18.5921L4.15075 18.5939L4.14425 18.5947C3.83409 18.629 3.55607 18.4064 3.52188 18.0976C3.48775 17.7894 3.70949 17.5118 4.01739 17.4768C4.02582 17.4757 4.03412 17.4746 4.0459 17.4729C4.06949 17.4694 4.10693 17.4635 4.15625 17.4541C4.25503 17.4353 4.40046 17.4032 4.57687 17.3512C4.93142 17.2465 5.40068 17.064 5.86631 16.7547C6.77338 16.1521 7.71169 15.0435 7.71169 12.9286C7.71169 10.9079 8.11088 9.53753 8.82413 8.63655C9.55013 7.71952 10.5279 7.38012 11.4661 7.26325C12.5089 7.13336 13.3703 7.32526 14.0618 7.75815C14.7453 8.1861 15.215 8.81925 15.5375 9.4941C16.1749 10.8278 16.2914 12.4387 16.2914 13.3928C16.2914 15.3287 15.8086 18.6792 13.8872 22.0298C13.7327 22.2993 13.389 22.3925 13.1195 22.2379C12.85 22.0835 12.7568 21.7397 12.9113 21.4702C14.7173 18.3208 15.1664 15.1713 15.1664 13.3928C15.1664 12.4898 15.05 11.0829 14.5225 9.97913C14.2625 9.43523 13.9169 8.99475 13.4648 8.7117ZM10.572 9.5664C10.9559 9.25815 11.4389 9.1161 12.0016 9.1161C12.5957 9.1161 13.0931 9.30622 13.4801 9.65235C13.856 9.98857 14.0912 10.4388 14.2383 10.906C14.5291 11.8296 14.52 12.9657 14.4249 13.9133C14.1842 16.3126 13.4627 18.347 12.8038 19.7797C12.4739 20.497 12.1583 21.0663 11.9237 21.4584C11.8064 21.6546 11.7091 21.8067 11.6402 21.911C11.6058 21.9632 11.5784 22.0035 11.5592 22.0315L11.5366 22.064L11.5301 22.0732C11.5283 22.0758 11.5269 22.0777 11.5269 22.0777C11.3459 22.3302 10.9945 22.3882 10.742 22.2072C10.4896 22.0263 10.4316 21.6751 10.6124 21.4226L10.6163 21.4171L10.6328 21.3933C10.6478 21.3713 10.671 21.3373 10.7012 21.2915C10.7615 21.2 10.85 21.062 10.9583 20.8808C11.175 20.5186 11.471 19.9852 11.7817 19.3096C12.404 17.9565 13.0804 16.0445 13.3055 13.801C13.3959 12.9007 13.3868 11.9475 13.1653 11.2438C13.0562 10.8974 12.9074 10.6494 12.7301 10.4908C12.5639 10.3423 12.3392 10.2411 12.0016 10.2411C11.6323 10.2411 11.4165 10.3311 11.2763 10.4437C11.1302 10.561 11.0043 10.7524 10.9083 11.0633C10.7062 11.7179 10.7004 12.6622 10.7004 13.8572C10.7004 14.8724 10.4468 16.1481 9.67358 17.3039C8.89253 18.4713 7.60609 19.4783 5.61469 19.9744C5.31324 20.0495 5.00799 19.866 4.93289 19.5646C4.8578 19.2631 5.04129 18.9578 5.34274 18.8827C7.07867 18.4503 8.12175 17.6002 8.73855 16.6783C9.36308 15.7448 9.5754 14.699 9.5754 13.8572C9.5754 13.8334 9.5754 13.8096 9.5754 13.7858C9.57525 12.6825 9.5751 11.5677 9.8334 10.7314C9.97035 10.2878 10.1939 9.86985 10.572 9.5664ZM11.9613 11.4389C12.2712 11.4167 12.5404 11.6499 12.5626 11.9598C12.8039 15.3264 11.961 17.6708 10.8203 19.1865C10.2528 19.9405 9.61545 20.4837 9.0123 20.8411C8.42033 21.1918 7.82564 21.3839 7.34237 21.3839C7.03172 21.3839 6.77987 21.1321 6.77987 20.8214C6.77987 20.5108 7.03172 20.2589 7.34237 20.2589C7.55798 20.2589 7.95338 20.1609 8.43885 19.8732C8.91308 19.5923 9.44055 19.1488 9.92138 18.5099C10.8773 17.2399 11.6651 15.1736 11.4405 12.0402C11.4183 11.7304 11.6515 11.4611 11.9613 11.4389Z"/>
  </symbol>
  <symbol id="uk2-finger-print-2" viewBox="0 0 24 24" xmlns="http://www.w3.org/2000/svg">
    <g id="primary">
      <path fill-rule="evenodd" clip-rule="evenodd" d="M8.3744 11.8661C9.24492 10.9956 10.6478 10.1465 12.7485 10.1465C15.0414 10.1465 16.9479 11.9533 17.7658 14.2027C18.6001 16.4969 18.3832 19.4064 16.3246 21.8766L15.1723 20.9163C16.8638 18.8866 17.0219 16.546 16.3561 14.7153C15.6741 12.8396 14.2056 11.6465 12.7485 11.6465C11.0992 11.6465 10.0645 12.2973 9.43506 12.9268C9.11456 13.2473 8.89436 13.5679 8.75569 13.8056C8.68663 13.924 8.63871 14.0203 8.6094 14.0834C8.59477 14.1149 8.58486 14.138 8.57934 14.1512L8.57434 14.1635L8.57521 14.1612C8.57521 14.1612 8.57573 14.1598 7.87348 13.8965C7.17123 13.6331 7.17153 13.6323 7.17153 13.6323L7.17258 13.6296L7.17437 13.6249L7.17931 13.6122C7.1832 13.6024 7.18833 13.5897 7.19472 13.5743C7.20751 13.5436 7.22543 13.5022 7.24889 13.4517C7.29575 13.3508 7.36502 13.2127 7.46002 13.0498C7.64948 12.725 7.9449 12.2956 8.3744 11.8661Z"/>
      <path d="M5.24846 3.77148C5.72859 4.34765 5.72807 4.34809 5.72807 4.34809L5.72678 4.34916L5.73656 4.34145C5.74776 4.33269 5.76751 4.31755 5.7958 4.29692C5.85239 4.25566 5.94307 4.19249 6.06783 4.11451C6.31736 3.95856 6.70289 3.74359 7.22442 3.52629C8.2657 3.09243 9.85547 2.64648 11.9985 2.64648C14.1429 2.64648 15.8328 3.09306 16.9792 3.53399C17.5526 3.75454 17.9897 3.97354 18.2788 4.13413C18.4232 4.2144 18.5305 4.27996 18.5992 4.32366C18.6335 4.34551 18.6582 4.36188 18.673 4.37187L18.688 4.38211C18.688 4.38211 18.6875 4.38178 19.1235 3.77148C19.5594 3.16118 19.5583 3.16041 19.5583 3.16041L19.557 3.15946L19.5536 3.15706L19.5438 3.15026C19.5361 3.14485 19.5257 3.13772 19.5128 3.12899C19.4869 3.11151 19.4508 3.08759 19.4045 3.05817C19.3121 2.99934 19.1791 2.91841 19.0072 2.8229C18.6635 2.63193 18.163 2.38218 17.5177 2.13398C16.2266 1.63741 14.354 1.14648 11.9985 1.14648C9.64144 1.14648 7.85622 1.63804 6.64749 2.14168C6.04402 2.39313 5.5858 2.64691 5.27283 2.84252C5.11634 2.94033 4.99608 3.02363 4.91205 3.08491C4.87002 3.11555 4.83704 3.1407 4.81309 3.15941C4.80112 3.16876 4.7914 3.17651 4.78394 3.18254L4.77444 3.19026L4.77095 3.19313L4.76953 3.19431C4.76953 3.19431 4.76832 3.19532 5.24846 3.77148Z"/>
      <path d="M3.74846 8.94648C4.40407 9.31072 4.4037 9.3114 4.4037 9.3114C4.40582 9.30773 4.41043 9.29991 4.41691 9.2892C4.42987 9.26778 4.45159 9.2328 4.48242 9.18619C4.54411 9.09291 4.64198 8.95346 4.77871 8.78307C5.05249 8.44191 5.47971 7.97961 6.08156 7.51532C7.2774 6.59281 9.18175 5.64648 11.9985 5.64648C14.8152 5.64648 16.7195 6.59281 17.9154 7.51532C18.5172 7.97961 18.9444 8.44191 19.2182 8.78307C19.3549 8.95346 19.4528 9.09291 19.5145 9.18619C19.5453 9.2328 19.567 9.26778 19.58 9.2892C19.5852 9.29775 19.5892 9.30446 19.5916 9.30868L19.5932 9.3114C19.5932 9.3114 19.5928 9.31072 20.2485 8.94648C20.9041 8.58225 20.9036 8.58148 20.9036 8.58148L20.902 8.5786L20.8991 8.57347L20.8907 8.55884C20.884 8.54719 20.8749 8.53176 20.8634 8.5128C20.8405 8.4749 20.808 8.42286 20.7656 8.35873C20.6808 8.23052 20.556 8.05357 20.3881 7.84427C20.0525 7.42606 19.5422 6.87586 18.8316 6.32765C17.4024 5.22515 15.1817 4.14648 11.9985 4.14648C8.81516 4.14648 6.59451 5.22515 5.16535 6.32765C4.4547 6.87586 3.94443 7.42606 3.60882 7.84427C3.44087 8.05357 3.31609 8.23052 3.23129 8.35873C3.18888 8.42286 3.1564 8.4749 3.13347 8.5128C3.12201 8.53176 3.11292 8.54719 3.10617 8.55884L3.09777 8.57347L3.09488 8.5786L3.09375 8.58061C3.09375 8.58061 3.09284 8.58225 3.74846 8.94648Z"/>
      <path d="M4.85888 11.1236C5.92697 8.98739 8.34738 7.14648 11.9984 7.14648C15.6183 7.14648 17.7965 8.67005 19.0528 10.2405C19.6716 11.0139 20.0571 11.7853 20.2886 12.364C20.4046 12.6542 20.483 12.8984 20.5331 13.0737C20.5581 13.1615 20.5762 13.2323 20.5885 13.2833C20.5946 13.3088 20.5992 13.3294 20.6026 13.3447L20.6067 13.3636L20.608 13.37L20.6087 13.3735C20.6087 13.3735 20.6089 13.3744 19.8735 13.5215C19.138 13.6686 19.1382 13.6693 19.1382 13.6693L19.1374 13.666L19.1346 13.6534L19.1299 13.6333C19.1223 13.6019 19.1097 13.5519 19.0908 13.4858C19.053 13.3536 18.9907 13.1583 18.8958 12.9211C18.7055 12.4452 18.3878 11.8103 17.8815 11.1775C16.8879 9.93542 15.1285 8.64648 11.9984 8.64648C8.8995 8.64648 7.00742 10.1806 6.20052 11.7944C5.79095 12.6135 5.66673 13.4379 5.7773 14.1013C5.88614 14.7543 6.21199 15.2272 6.70885 15.4757C7.30871 15.7756 7.71803 15.7668 8.04276 15.6656C8.41071 15.5509 8.76501 15.2896 9.20352 14.9002C9.28525 14.8276 9.37163 14.7487 9.46193 14.6663C9.81228 14.3464 10.2229 13.9715 10.6611 13.6897C11.2499 13.3111 11.9639 13.0426 12.8415 13.1523C13.7876 13.2705 14.4987 13.8745 14.8979 14.6718C15.2922 15.4594 15.395 16.4453 15.1886 17.4515C14.7701 19.4909 13.0885 21.6543 9.77165 22.8519L9.26224 21.4411C12.1769 20.3887 13.4235 18.5912 13.7192 17.15C13.8698 16.4161 13.7761 15.7818 13.5566 15.3433C13.3419 14.9145 13.0218 14.6865 12.6554 14.6407C12.2205 14.5863 11.8564 14.7045 11.4725 14.9514C11.1512 15.158 10.8658 15.4178 10.5305 15.7231C10.4259 15.8183 10.3165 15.9179 10.1996 16.0217C9.74749 16.4233 9.18772 16.8798 8.48927 17.0976C7.74759 17.3289 6.93816 17.2674 6.03803 16.8173C5.0349 16.3157 4.47013 15.3824 4.29771 14.3479C4.12704 13.3238 4.33094 12.1794 4.85888 11.1236Z"/>
      <path d="M8.59084 18.7269C9.4595 18.396 10.404 17.8053 11.4681 16.7412L12.5288 17.8018C11.343 18.9877 10.2249 19.7095 9.12484 20.1286C8.02517 20.5475 6.98835 20.6465 5.99846 20.6465V19.1465C6.88357 19.1465 7.72176 19.058 8.59084 18.7269Z"/>
    </g>
  </symbol>
  <symbol id="uk2-microphone" viewBox="0 0 24 24" xmlns="http://www.w3.org/2000/svg">
    <path id="primary" fill-rule="evenodd" clip-rule="evenodd" d="M6.75 10.5V12.75C6.75 15.6495 9.10051 18 12 18C14.8028 18 17.0927 15.8036 17.2422 13.0381L17.25 12.75V10.5H18.75V12.75C18.75 16.2241 16.1255 19.0851 12.7511 19.4587L12.75 21H17.25V22.5H6.75V21H11.25L11.2504 19.4589C7.87527 19.086 5.25 16.2246 5.25 12.75V10.5H6.75ZM12 1.5C14.0711 1.5 15.75 3.17893 15.75 5.25V12.75C15.75 14.8211 14.0711 16.5 12 16.5C9.92893 16.5 8.25 14.8211 8.25 12.75V5.25C8.25 3.17893 9.92893 1.5 12 1.5ZM12 3C10.8305 3 9.86933 3.89233 9.7603 5.03331L9.75 5.25V12.75C9.75 13.9926 10.7574 15 12 15C13.1695 15 14.1307 14.1077 14.2397 12.9667L14.25 12.75V5.25C14.25 4.00736 13.2426 3 12 3Z"/>
  </symbol>
  <symbol id="uk2-eye" viewBox="0 0 24 24" xmlns="http://www.w3.org/2000/svg">
    <path id="primary" d="M11.9982 4.5C17.0343 4.5 21.3458 7.60228 23.126 12C21.3448 16.3984 17.0337 19.5 11.9982 19.5C6.96272 19.5 2.65162 16.3984 0.871094 12.0015C2.65064 7.60228 6.96215 4.5 11.9982 4.5ZM11.9982 6C7.95103 6 4.33375 8.31072 2.58586 11.8418L2.51073 12L2.58584 12.1603C4.27629 15.5724 7.7127 17.8446 11.5951 17.9923L11.9982 18C16.0449 18 19.662 15.6899 21.4111 12.1591L21.4857 12L21.4112 11.8409C19.721 8.42819 16.2843 6.15539 12.4014 6.00766L11.9982 6ZM11.9982 7.5C14.4835 7.5 16.4982 9.51472 16.4982 12C16.4982 14.4853 14.4835 16.5 11.9982 16.5C9.51295 16.5 7.49823 14.4853 7.49823 12C7.49823 9.51472 9.51295 7.5 11.9982 7.5ZM11.9982 9C10.3414 9 8.99823 10.3431 8.99823 12C8.99823 13.6569 10.3414 15 11.9982 15C13.6551 15 14.9982 13.6569 14.9982 12C14.9982 10.3431 13.6551 9 11.9982 9Z"/>
  </symbol>
  <symbol id="uk2-eye-hide" viewBox="0 0 24 24" xmlns="http://www.w3.org/2000/svg">
    <path id="primary" d="M20.4835 2.98438L21.5442 4.04504L19.2111 6.37844C20.9382 7.67938 22.3028 9.43602 23.126 11.4697C21.3448 15.8681 17.0337 18.9697 11.9982 18.9697C10.4052 18.9697 8.88475 18.6593 7.49394 18.0956L4.57361 21.0156L3.51295 19.9549L20.4835 2.98438ZM18.1388 7.45078L16.0602 9.53056C16.341 10.1178 16.4982 10.7753 16.4982 11.4697C16.4982 13.9549 14.4835 15.9697 11.9982 15.9697C11.3039 15.9697 10.6463 15.8124 10.0591 15.5316L8.6619 16.9272C9.59354 17.2392 10.579 17.4233 11.5951 17.462L11.9982 17.4697C16.0449 17.4697 19.662 15.1595 21.4111 11.6288L21.4857 11.4697L21.4112 11.3105C20.6416 9.7566 19.5099 8.43902 18.1388 7.45078ZM11.9982 3.96966C13.5909 3.96966 15.1111 4.27994 16.5017 4.84336L15.3347 6.0122C14.403 5.70015 13.4175 5.51598 12.4014 5.47732L11.9982 5.46966C7.95103 5.46966 4.33375 7.78038 2.58586 11.3114L2.51073 11.4697L2.58584 11.63C3.35547 13.1834 4.487 14.5006 5.85775 15.4886L4.78516 16.5607C3.05852 15.2601 1.69433 13.5041 0.871094 11.4711C2.65064 7.07193 6.96215 3.96966 11.9982 3.96966ZM14.897 10.6941L11.2227 14.3684C11.4701 14.4345 11.73 14.4697 11.9982 14.4697C13.6551 14.4697 14.9982 13.1265 14.9982 11.4697C14.9982 11.2909 14.9826 11.1157 14.9526 10.9455L14.897 10.6941ZM11.9982 6.96966C12.6927 6.96966 13.3504 7.12696 13.9377 7.40789L12.7751 8.57121C12.5273 8.50497 12.2669 8.46966 11.9982 8.46966C10.3414 8.46966 8.99823 9.8128 8.99823 11.4697C8.99823 11.7383 9.03354 11.9987 9.09978 12.2465L7.93697 13.4102C7.65573 12.8226 7.49823 12.1645 7.49823 11.4697C7.49823 8.98438 9.51295 6.96966 11.9982 6.96966Z"/>
  </symbol>
  <symbol id="uk2-eye-fill" viewBox="0 0 24 24" xmlns="http://www.w3.org/2000/svg">
    <path id="primary" fill-rule="evenodd" clip-rule="evenodd" d="M11.9982 4.5C17.0343 4.5 21.3458 7.60228 23.126 12C21.3448 16.3984 17.0337 19.5 11.9982 19.5C6.96272 19.5 2.65162 16.3984 0.871094 12.0015C2.65064 7.60228 6.96215 4.5 11.9982 4.5ZM11.9982 7.5C9.51295 7.5 7.49823 9.51472 7.49823 12C7.49823 14.4853 9.51295 16.5 11.9982 16.5C14.4835 16.5 16.4982 14.4853 16.4982 12C16.4982 9.51472 14.4835 7.5 11.9982 7.5ZM11.9982 9C13.6551 9 14.9982 10.3431 14.9982 12C14.9982 13.6569 13.6551 15 11.9982 15C10.3414 15 8.99823 13.6569 8.99823 12C8.99823 10.3431 10.3414 9 11.9982 9Z"/>
  </symbol>
  <symbol id="uk2-eye-hide-fill" viewBox="0 0 24 24" xmlns="http://www.w3.org/2000/svg">
    <path id="primary" fill-rule="evenodd" clip-rule="evenodd" d="M20.4835 2.98438L21.5442 4.04504L19.2116 6.37883C20.9385 7.67973 22.3029 9.43622 23.126 11.4697C21.3448 15.8681 17.0337 18.9697 11.9982 18.9697C10.4057 18.9697 8.88566 18.6594 7.49519 18.0962L4.57361 21.0156L3.51295 19.9549L20.4835 2.98438ZM11.9982 3.96966C13.5914 3.96966 15.1121 4.28013 16.503 4.84386L13.9388 7.40843C13.3512 7.12717 12.6931 6.96966 11.9982 6.96966C9.51295 6.96966 7.49823 8.98438 7.49823 11.4697C7.49823 12.1646 7.65574 12.8227 7.937 13.4102L4.78634 16.5616C3.05914 15.2609 1.69451 13.5045 0.871094 11.4711C2.65064 7.07193 6.96215 3.96966 11.9982 3.96966ZM16.06 9.53022L14.8967 10.6928C14.9629 10.9406 14.9982 11.201 14.9982 11.4697C14.9982 13.1265 13.6551 14.4697 11.9982 14.4697C11.7296 14.4697 11.4692 14.4343 11.2214 14.3681L10.0588 15.5314C10.6461 15.8124 11.3038 15.9697 11.9982 15.9697C14.4835 15.9697 16.4982 13.9549 16.4982 11.4697C16.4982 10.7752 16.3409 10.1175 16.06 9.53022ZM11.9982 8.46966C12.267 8.46966 12.5275 8.50499 12.7753 8.57127L9.09984 12.2467C9.03357 11.9989 8.99823 11.7384 8.99823 11.4697C8.99823 9.8128 10.3414 8.46966 11.9982 8.46966Z"/>
  </symbol>
</svg>
