<svg xmlns="http://www.w3.org/2000/svg" xmlns:xlink="http://www.w3.org/1999/xlink">
  <symbol id="uk2-color-bag-hand" viewBox="0 0 32 32" xmlns="http://www.w3.org/2000/svg">
    <g id="accent">
      <path fill-rule="evenodd" clip-rule="evenodd" d="M16.4516 2.42773L16.4533 2.42774H16.4557L16.4574 2.42773C16.895 2.42887 17.2441 2.55774 17.5294 2.76166C17.7721 2.93514 17.9552 3.15704 18.0797 3.30802L18.1043 3.33783C18.2482 3.51157 18.333 3.605 18.4279 3.66904C18.5013 3.71853 18.6011 3.76342 18.7874 3.76342C19.0317 3.76342 19.2891 3.71872 19.6054 3.65641L19.6878 3.64006C19.9672 3.58451 20.2994 3.51845 20.6324 3.5011C21.0135 3.48124 21.4321 3.52133 21.8565 3.71574C22.2808 3.91016 22.66 4.23556 23.0018 4.70641L23.2931 5.1077L21.1774 7.8841C21.214 7.92762 21.2485 7.97303 21.2806 8.02018H20.9226C20.0366 8.02018 19.3176 8.73529 19.3112 9.61984C19.3042 8.73591 18.5855 8.02153 17.6999 8.02153L12.2189 8.02018C12.0072 8.02018 11.7993 8.03679 11.5965 8.06878C11.6373 8.00407 11.6825 7.94238 11.7316 7.8841L9.6159 5.1077L9.9072 4.70641C10.249 4.23556 10.6282 3.91016 11.0525 3.71574C11.4768 3.52133 11.8955 3.48124 12.2766 3.5011C12.6095 3.51845 12.9418 3.58451 13.2211 3.64006L13.3036 3.65641C13.6199 3.71872 13.8773 3.76342 14.1216 3.76342C14.3079 3.76342 14.4077 3.71853 14.4811 3.66904C14.576 3.605 14.6608 3.51157 14.8046 3.33783L14.8293 3.30802C14.9538 3.15704 15.1369 2.93514 15.3796 2.76166C15.6649 2.55774 16.0139 2.42887 16.4516 2.42773ZM21.6015 5.12774L19.9524 7.29173C19.936 7.29126 19.9196 7.29102 19.9031 7.29102H13.0059C12.9894 7.29102 12.9729 7.29126 12.9565 7.29173L11.3075 5.12774C11.4164 5.03182 11.517 4.96957 11.6079 4.9279C11.7828 4.84778 11.9727 4.82041 12.2072 4.83263C12.4392 4.84471 12.6779 4.89189 12.9776 4.95111L13.0459 4.9646C13.357 5.02588 13.7316 5.09675 14.1216 5.09675C14.5691 5.09675 14.9294 4.97495 15.2268 4.77435C15.4976 4.59162 15.692 4.35681 15.8243 4.19698L15.8315 4.1883C15.9833 4.00501 16.0635 3.91175 16.1549 3.8464C16.2197 3.80006 16.3 3.76156 16.4545 3.76107C16.609 3.76156 16.6892 3.80006 16.7541 3.8464C16.8455 3.91175 16.9256 4.00501 17.0774 4.1883L17.0846 4.197C17.217 4.35682 17.4114 4.59163 17.6822 4.77435C17.9796 4.97495 18.3398 5.09675 18.7874 5.09675C19.1774 5.09675 19.552 5.02588 19.8631 4.9646L19.9314 4.95111C20.2311 4.89189 20.4698 4.84471 20.7017 4.83263C20.9363 4.82041 21.1262 4.84778 21.3011 4.9279C21.392 4.96957 21.4926 5.03182 21.6015 5.12774Z" fill="var(--uk2-icons-tier2-accent-color)" />
      <path d="M8.25586 14.6007C7.22461 16.6742 6.44922 19.1685 6.44922 22.0022C6.44922 25.187 7.27711 27.1485 8.67024 28.2808C10.0355 29.3904 11.7921 29.5711 13.3242 29.5711H19.5848C21.1168 29.5711 22.8734 29.3904 24.2387 28.2808C25.6319 27.1485 26.4598 25.187 26.4598 22.0022C26.4598 21.4632 26.4317 20.9365 26.3792 20.4227C26.0863 20.7246 25.6763 20.9123 25.2224 20.9123H25.0844C25.112 21.2694 25.1264 21.6327 25.1264 22.0022C25.1264 24.9777 24.3559 26.4673 23.3978 27.2461C22.4118 28.0475 21.0642 28.2378 19.5848 28.2378H13.3242C11.8447 28.2378 10.4972 28.0475 9.5112 27.2461C8.55306 26.4673 7.78255 24.9777 7.78255 22.0022C7.78255 19.3156 8.5466 16.9498 9.55343 14.9887C9.14689 15.1295 8.71031 15.206 8.25586 15.206V14.6007Z" fill="var(--uk2-icons-tier2-accent-color)" />
    </g>
    <g id="primary">
      <path fill-rule="evenodd" clip-rule="evenodd" d="M19.3126 11.2445C18.9002 11.6575 18.3302 11.913 17.7005 11.913L13.5531 11.9119C13.2168 11.9119 12.8227 12.2162 12.6275 12.7741C11.9963 14.5787 10.2786 15.8747 8.25651 15.8747C8.06422 15.8747 7.89094 15.7932 7.76927 15.663C7.70793 15.8084 7.64808 15.9555 7.58984 16.1043L7.58984 10.3008H4.92318L4.92318 18.3008H6.89543C6.79056 18.7341 6.70173 19.1787 6.63164 19.6341H4.25651C3.88832 19.6341 3.58984 19.3356 3.58984 18.9674V9.63411C3.58984 9.26592 3.88832 8.96745 4.25651 8.96745H8.25651C8.39019 8.96745 8.51468 9.00679 8.61903 9.07454C9.46779 8.0259 10.7654 7.35547 12.2196 7.35547L17.7005 7.35682C18.3295 7.35686 18.8989 7.61179 19.3112 8.02394C19.7235 7.61096 20.2936 7.35547 20.9233 7.35547H23.655C24.9131 7.35547 25.9331 8.3754 25.9331 9.63354C25.9331 9.96999 25.8601 10.2894 25.7292 10.5768H25.7375C26.9956 10.5768 28.0155 11.5968 28.0155 12.8549C28.0155 13.3903 27.8308 13.8826 27.5216 14.2715C28.0616 14.6881 28.4094 15.3415 28.4094 16.0762C28.4094 16.9631 27.9027 17.7315 27.163 18.1079C27.3774 18.4553 27.5011 18.8646 27.5011 19.3028C27.5011 20.561 26.4812 21.5809 25.2231 21.5809H23.9688C22.7107 21.5809 21.6908 20.561 21.6908 19.3028C21.6908 18.8359 21.8312 18.4019 22.0722 18.0405C21.3998 17.6445 20.9486 16.9131 20.9486 16.0762C20.9486 15.6097 21.0888 15.1759 21.3295 14.8147C20.6613 14.4176 20.2135 13.6885 20.2135 12.8549C20.2135 12.4984 20.2954 12.161 20.4414 11.8606C20.0058 11.7668 19.6165 11.5484 19.3126 11.2445ZM8.92318 11.9852C8.92318 10.1647 10.3989 8.68889 12.2194 8.6888L17.7005 8.69015C18.2184 8.69015 18.6389 9.10681 18.6452 9.62318L18.6452 9.63354L18.6452 9.64581C18.6394 10.1625 18.2186 10.5795 17.7005 10.5796L13.5534 10.5786C12.4166 10.5783 11.6602 11.5013 11.369 12.3338C10.9905 13.4159 10.0638 14.2396 8.92318 14.4739V11.9852ZM19.9786 9.64525C19.9849 10.1616 20.4054 10.5783 20.9233 10.5783H22.4094C22.4367 10.5773 22.4641 10.5768 22.4916 10.5768H23.7079C24.205 10.5494 24.5997 10.1376 24.5997 9.63354C24.5997 9.11178 24.1768 8.6888 23.655 8.6888H20.9233C20.4051 8.6888 19.9844 9.10589 19.9786 9.62262L19.9786 9.63489L19.9786 9.64525ZM23.655 11.9116H22.4387C21.9416 11.939 21.5469 12.3509 21.5469 12.8549C21.5469 13.3767 21.9698 13.7996 22.4916 13.7996H23.1445C23.1717 13.7987 23.1991 13.7982 23.2266 13.7982H25.7903C26.2875 13.7708 26.6822 13.3589 26.6822 12.8549C26.6822 12.3331 26.2592 11.9102 25.7375 11.9102H23.7372C23.7099 11.9111 23.6825 11.9116 23.655 11.9116ZM23.1738 15.133H25.7375C25.765 15.133 25.7924 15.1325 25.8196 15.1315H26.1313C26.6531 15.1315 27.0761 15.5545 27.0761 16.0762C27.0761 16.598 26.6531 17.021 26.1313 17.021H23.2266C22.7049 17.021 22.2819 16.598 22.2819 16.0762C22.2819 15.5722 22.6766 15.1604 23.1738 15.133ZM23.9688 18.3581C23.4471 18.3581 23.0241 18.781 23.0241 19.3028C23.0241 19.8246 23.4471 20.2476 23.9688 20.2476H25.2231C25.7448 20.2476 26.1678 19.8246 26.1678 19.3028C26.1678 18.781 25.7448 18.3581 25.2231 18.3581H23.9688Z" />
      <path d="M16.455 22.4804C15.8106 22.4804 15.5854 21.7428 15.5776 21.6496H14.0247C14.0624 22.1382 14.2378 22.6061 14.5305 22.9991C14.8232 23.3921 15.2213 23.6942 15.6786 23.8703V25.5241H17.2315V23.9246C17.6703 23.8126 18.0641 23.5686 18.3599 23.2257C18.6556 22.8827 18.839 22.4573 18.8853 22.0068C18.8853 20.8965 18.6058 20.2753 16.851 19.3125C15.6242 18.6447 15.6242 18.4739 15.6242 18.0236C15.6832 17.856 15.7978 17.7137 15.949 17.6205C16.1002 17.5272 16.2788 17.4886 16.455 17.5111C17.0995 17.5111 17.3246 18.2488 17.3324 18.3342H18.8853C18.8505 17.8429 18.6764 17.3716 18.3835 16.9756C18.0906 16.5796 17.691 16.2752 17.2315 16.098V14.4674H15.6786V16.0825C15.2486 16.1977 14.8642 16.4417 14.5769 16.7818C14.2896 17.1218 14.1132 17.5416 14.0713 17.9848C14.0713 19.0951 14.3508 19.7163 16.1056 20.6791C17.3324 21.3468 17.3324 21.5176 17.3324 21.968C17.2721 22.1445 17.1503 22.2935 16.9892 22.3876C16.8281 22.4817 16.6384 22.5147 16.455 22.4804Z" />
    </g>
  </symbol>
  <symbol id="uk2-color-bank-check-stack" viewBox="0 0 32 32" xmlns="http://www.w3.org/2000/svg">
    <g id="primary">
      <path d="M7.33464 5.99935C7.33464 5.26297 7.93159 4.66602 8.66797 4.66602H23.3346C24.071 4.66602 24.668 5.26297 24.668 5.99935V7.33268H23.3346V5.99935H8.66797V7.33268H7.33464V5.99935Z" />
      <path d="M6.66797 8.66602C5.93159 8.66602 5.33464 9.26297 5.33464 9.99935V11.3327H6.66797V9.99935H25.3346V11.3327H26.668V9.99935C26.668 9.26297 26.071 8.66602 25.3346 8.66602H6.66797Z" />
      <path fill-rule="evenodd" clip-rule="evenodd" d="M2.66797 13.9993C2.66797 13.263 3.26492 12.666 4.0013 12.666H28.0013C28.7377 12.666 29.3346 13.263 29.3346 13.9993V25.9993C29.3346 26.7357 28.7377 27.3327 28.0013 27.3327H4.0013C3.26492 27.3327 2.66797 26.7357 2.66797 25.9993V13.9993ZM4.0013 13.9993H28.0013V25.9993H4.0013V13.9993Z" />
    </g>
    <g id="accent">
      <path d="M6 16.666H15.3333V17.9993H6V16.666Z" fill="var(--uk2-icons-tier2-accent-color)" />
      <path d="M15.3333 19.3327H6V20.666H15.3333V19.3327Z" fill="var(--uk2-icons-tier2-accent-color)" />
      <path d="M12.6667 21.9994H6V23.3327H12.6667V21.9994Z" fill="var(--uk2-icons-tier2-accent-color)" />
      <path fill-rule="evenodd" clip-rule="evenodd" d="M17.3333 16.666H26V23.3327H17.3333V16.666ZM24.6667 17.9993H18.6667V21.9994H24.6667V17.9993Z" fill="var(--uk2-icons-tier2-accent-color)" />
    </g>
  </symbol>
  <symbol id="uk2-color-bar-graph" viewBox="0 0 32 32" xmlns="http://www.w3.org/2000/svg">
    <path id="primary" d="M4 4V24.6667C4 26.5076 5.49238 28 7.33333 28H28V26.6667H7.33333C6.22876 26.6667 5.33333 25.7712 5.33333 24.6667V4H4Z" />
    <path id="accent" fill-rule="evenodd" clip-rule="evenodd" d="M21.9987 8.66732V23.334H24.6654V8.66732L21.9987 8.66732ZM17.9987 12.6673H15.332V23.334H17.9987V12.6673ZM11.332 15.334H8.66536V23.334H11.332V15.334ZM21.9987 7.33398C21.2623 7.33398 20.6654 7.93094 20.6654 8.66732V23.334C20.6654 24.0704 21.2623 24.6673 21.9987 24.6673H24.6654C25.4017 24.6673 25.9987 24.0704 25.9987 23.334V8.66732C25.9987 7.93094 25.4017 7.33398 24.6654 7.33398H21.9987ZM13.9987 12.6673C13.9987 11.9309 14.5957 11.334 15.332 11.334H17.9987C18.7351 11.334 19.332 11.9309 19.332 12.6673V23.334C19.332 24.0704 18.7351 24.6673 17.9987 24.6673H15.332C14.5957 24.6673 13.9987 24.0704 13.9987 23.334V12.6673ZM8.66536 14.0007C7.92898 14.0007 7.33203 14.5976 7.33203 15.334V23.334C7.33203 24.0704 7.92898 24.6673 8.66536 24.6673H11.332C12.0684 24.6673 12.6654 24.0704 12.6654 23.334V15.334C12.6654 14.5976 12.0684 14.0007 11.332 14.0007H8.66536Z" fill="var(--uk2-icons-tier2-accent-color)" />
  </symbol>
  <symbol id="uk2-color-briefcase" viewBox="0 0 32 32" xmlns="http://www.w3.org/2000/svg">
    <path id="primary" fill-rule="evenodd" clip-rule="evenodd" d="M4.66536 8.66602C3.92898 8.66602 3.33203 9.26297 3.33203 9.99935V12.5481C3.33203 13.2745 3.72582 13.9437 4.36075 14.2965L4.66536 14.4657V25.3327C4.66536 26.0691 5.26232 26.666 5.9987 26.666H25.9987C26.7351 26.666 27.332 26.0691 27.332 25.3327V14.4657L27.6366 14.2965C28.2716 13.9437 28.6654 13.2745 28.6654 12.5481V9.99935C28.6654 9.26297 28.0684 8.66602 27.332 8.66602H4.66536ZM25.9987 25.3327V15.2064L18.265 19.5029C16.8556 20.2859 15.1418 20.2859 13.7324 19.5029L5.9987 15.2064V25.3327H25.9987ZM4.66536 9.99935V12.5481C4.66536 12.7903 4.79663 13.0133 5.00827 13.1309L14.3799 18.3374C15.3866 18.8967 16.6108 18.8967 17.6175 18.3374L26.9891 13.1309C27.2008 13.0133 27.332 12.7903 27.332 12.5481V9.99935L4.66536 9.99935Z" />
    <g id="accent">
      <path d="M11.3333 5.33398C10.597 5.33398 10 5.93094 10 6.66732V8.66732H11.3333V6.66732H20.6667V8.66732H22V6.66732C22 5.93094 21.403 5.33398 20.6667 5.33398H11.3333Z" fill="var(--uk2-icons-tier2-accent-color)" />
      <path d="M10 17.4303V25.334H11.3333V18.1711L10 17.4303Z" fill="var(--uk2-icons-tier2-accent-color)" />
      <path d="M20.6667 18.1711V25.334H22V17.4303L20.6667 18.1711Z" fill="var(--uk2-icons-tier2-accent-color)" />
    </g>
  </symbol>
  <symbol id="uk2-color-building" viewBox="0 0 32 32" xmlns="http://www.w3.org/2000/svg">
    <path id="primary" d="M27.3346 27.334V14.114C27.3346 13.9372 27.2643 13.7676 27.1393 13.6426C27.0143 13.5176 26.8447 13.4473 26.6679 13.4473H22.5012V4.00065C22.5012 3.82384 22.431 3.65427 22.306 3.52925C22.181 3.40422 22.0114 3.33398 21.8346 3.33398H10.1679C9.99111 3.33398 9.82154 3.40422 9.69651 3.52925C9.57149 3.65427 9.50125 3.82384 9.50125 4.00065V8.80732H5.58792C5.41111 8.80732 5.24154 8.87756 5.11651 9.00258C4.99149 9.1276 4.92125 9.29717 4.92125 9.47399V27.334H1.78125V28.6673H30.2213V27.334H27.3346ZM15.0146 24.274H17.0146V27.334H15.0146V24.274ZM17.6812 22.9407H14.3479C14.1711 22.9407 14.0015 23.0109 13.8765 23.1359C13.7515 23.2609 13.6812 23.4305 13.6812 23.6073V27.334H10.8346V4.66732H21.1679V27.334H18.3212V23.6073C18.3212 23.4305 18.251 23.2609 18.126 23.1359C18.001 23.0109 17.8314 22.9407 17.6546 22.9407H17.6812ZM6.25458 10.1407H9.50125V27.334H6.25458V10.1407ZM22.5012 14.8073H26.0012V27.334H22.5012V14.8073Z" />
    <g id="accent">
      <path d="M13.7553 6.17383H12.3086V7.62049H13.7553V6.17383Z" fill="var(--uk2-icons-tier2-accent-color)" />
      <path d="M16.7219 6.17383H15.2753V7.62049H16.7219V6.17383Z" fill="var(--uk2-icons-tier2-accent-color)" />
      <path d="M19.6953 6.17383H18.2486V7.62049H19.6953V6.17383Z" fill="var(--uk2-icons-tier2-accent-color)" />
      <path d="M13.7553 19.6072H12.3086V21.0538H13.7553V19.6072Z" fill="var(--uk2-icons-tier2-accent-color)" />
      <path d="M16.7219 19.6072H15.2753V21.0538H16.7219V19.6072Z" fill="var(--uk2-icons-tier2-accent-color)" />
      <path d="M19.6953 19.6072H18.2486V21.0538H19.6953V19.6072Z" fill="var(--uk2-icons-tier2-accent-color)" />
      <path d="M13.7553 16.2471H12.3086V17.6938H13.7553V16.2471Z" fill="var(--uk2-icons-tier2-accent-color)" />
      <path d="M16.7219 16.2471H15.2753V17.6938H16.7219V16.2471Z" fill="var(--uk2-icons-tier2-accent-color)" />
      <path d="M19.6953 16.2471H18.2486V17.6938H19.6953V16.2471Z" fill="var(--uk2-icons-tier2-accent-color)" />
      <path d="M13.7553 12.8938H12.3086V14.3405H13.7553V12.8938Z" fill="var(--uk2-icons-tier2-accent-color)" />
      <path d="M16.7219 12.8938H15.2753V14.3405H16.7219V12.8938Z" fill="var(--uk2-icons-tier2-accent-color)" />
      <path d="M19.6953 12.8938H18.2486V14.3405H19.6953V12.8938Z" fill="var(--uk2-icons-tier2-accent-color)" />
      <path d="M13.7553 9.53386H12.3086V10.9805H13.7553V9.53386Z" fill="var(--uk2-icons-tier2-accent-color)" />
      <path d="M16.7219 9.53386H15.2753V10.9805H16.7219V9.53386Z" fill="var(--uk2-icons-tier2-accent-color)" />
      <path d="M19.6953 9.53386H18.2486V10.9805H19.6953V9.53386Z" fill="var(--uk2-icons-tier2-accent-color)" />
    </g>
  </symbol>
  <symbol id="uk2-color-car" viewBox="0 0 32 32" xmlns="http://www.w3.org/2000/svg">
    <g id="color-car">
      <path id="primary" fill-rule="evenodd" clip-rule="evenodd" d="M4.66667 18.3076C4.66667 17.6628 4.77063 17.0221 4.97457 16.4103L5.77778 14.0007H4.66667C4.29848 14.0007 4 13.7022 4 13.334C4 12.9658 4.29848 12.6673 4.66667 12.6673H6.22222L7.75497 8.06907C8.29943 6.4357 9.82798 5.33398 11.5497 5.33398H20.4503C22.172 5.33398 23.7006 6.4357 24.245 8.06907L25.7778 12.6673H27.3333C27.7015 12.6673 28 12.9658 28 13.334C28 13.7022 27.7015 14.0007 27.3333 14.0007H26.2222L27.0254 16.4103C27.2294 17.0221 27.3333 17.6628 27.3333 18.3076V25.334C27.3333 26.0704 26.7364 26.6673 26 26.6673H22.6667C21.9303 26.6673 21.3333 26.0704 21.3333 25.334V23.334H10.6667V25.334C10.6667 26.0704 10.0697 26.6673 9.33333 26.6673H6C5.26362 26.6673 4.66667 26.0704 4.66667 25.334V18.3076ZM6 23.334V25.334H9.33333V23.334H6ZM22.6667 23.334V25.334H26V23.334H22.6667ZM11.5497 6.66732H20.4503C21.5981 6.66732 22.6171 7.4018 22.9801 8.49071L24.5969 13.3412C23.8284 12.9119 22.9428 12.6673 22 12.6673H10C9.05721 12.6673 8.17156 12.9119 7.40306 13.3412L9.01988 8.49071C9.38285 7.4018 10.4019 6.66732 11.5497 6.66732ZM6 18.3076C6 17.8061 6.08086 17.3078 6.23948 16.8319L6.48964 16.0814C7.16903 14.8414 8.48633 14.0007 10 14.0007H22C23.5137 14.0007 24.831 14.8414 25.5104 16.0814L25.7605 16.8319C25.9191 17.3078 26 17.8061 26 18.3076V22.0007H6V18.3076Z" />
      <g id="accent">
        <path fill-rule="evenodd" clip-rule="evenodd" d="M20 16.666H12V20.666H20V16.666ZM18.6667 17.9993H13.3333V19.3327H18.6667V17.9993Z" fill="var(--uk2-icons-tier2-accent-color)" />
        <path d="M6 17.9993H10.6667V19.3327H6V17.9993Z" fill="var(--uk2-icons-tier2-accent-color)" />
        <path d="M26 17.9993H21.3333V19.3327H26V17.9993Z" fill="var(--uk2-icons-tier2-accent-color)" />
      </g>
    </g>
  </symbol>
  <symbol id="uk2-color-cds" viewBox="0 0 32 32" xmlns="http://www.w3.org/2000/svg">
    <g id="primary">
      <path fill-rule="evenodd" clip-rule="evenodd" d="M26.1394 5.90244C25.3267 5.08981 24.0092 5.08981 23.1966 5.90244L18.668 10.431V13.3738H21.6108L26.1394 8.84525L26.2822 8.68721C26.9488 7.8699 26.9012 6.66429 26.1394 5.90244ZM24.2429 6.75875C24.5343 6.55692 24.9371 6.58576 25.1966 6.84525L25.2831 6.94879L25.3479 7.06277C25.4741 7.3386 25.4236 7.67538 25.1966 7.90244L21.0573 12.0405H20.0013V10.9818L24.1394 6.84525L24.2429 6.75875Z" />
      <path d="M16.668 10.707H4.0013C3.26492 10.707 2.66797 11.304 2.66797 12.0404V25.3737C2.66797 26.1101 3.26492 26.707 4.0013 26.707H28.0013C28.7377 26.707 29.3346 26.1101 29.3346 25.3737V12.0404C29.3346 11.304 28.7377 10.707 28.0013 10.707H26.0013V12.0404H28.0013V25.3737H4.0013V12.0404H16.668V10.707Z" />
    </g>
    <g id="accent">
      <path d="M6 15.373H15.3333V16.7064H6V15.373Z" fill="var(--uk2-icons-tier2-accent-color)" />
      <path d="M15.3333 18.0397H6V19.373H15.3333V18.0397Z" fill="var(--uk2-icons-tier2-accent-color)" />
      <path d="M12.6667 20.7064H6V22.0397H12.6667V20.7064Z" fill="var(--uk2-icons-tier2-accent-color)" />
      <path fill-rule="evenodd" clip-rule="evenodd" d="M17.3333 15.373H26V22.0397H17.3333V15.373ZM24.6667 16.7064H18.6667V20.7064H24.6667V16.7064Z" fill="var(--uk2-icons-tier2-accent-color)" />
    </g>
  </symbol>
  <symbol id="uk2-color-clip-board" viewBox="0 0 32 32" xmlns="http://www.w3.org/2000/svg">
    <path id="primary" fill-rule="evenodd" clip-rule="evenodd" d="M16 2.625C14.6021 2.625 13.4275 3.58108 13.0945 4.875H7.5C7.08579 4.875 6.75 5.21079 6.75 5.625V28.625C6.75 29.0392 7.08579 29.375 7.5 29.375H24.5C24.9142 29.375 25.25 29.0392 25.25 28.625V5.625C25.25 5.21079 24.9142 4.875 24.5 4.875H18.9055C18.5725 3.58108 17.3979 2.625 16 2.625ZM8.25 6.375V27.875H23.75V6.375H21.5V7.125C21.5 7.95343 20.8284 8.625 20 8.625H12C11.1716 8.625 10.5 7.95343 10.5 7.125V6.375H8.25ZM16 6.625C16.5523 6.625 17 6.17728 17 5.625C17 5.07272 16.5523 4.625 16 4.625C15.4477 4.625 15 5.07272 15 5.625C15 6.17728 15.4477 6.625 16 6.625Z" />
    <g id="accent">
      <path d="M20.5222 11.6028L14.8565 17.1111L11.4766 13.8251L12.5222 12.7496L14.8565 15.0191L19.4766 10.5273L20.5222 11.6028Z" fill="var(--uk2-icons-tier2-accent-color)" />
      <path d="M9.99609 21.3535L22.0002 21.3535V19.8535L9.99609 19.8535L9.99609 21.3535Z" fill="var(--uk2-icons-tier2-accent-color)" />
      <path d="M9.99609 24.8945L22.0002 24.8945V23.3945L9.99609 23.3945L9.99609 24.8945Z" fill="var(--uk2-icons-tier2-accent-color)" />
    </g>
  </symbol>
  <symbol id="uk2-color-credit-card" viewBox="0 0 32 32" xmlns="http://www.w3.org/2000/svg">
    <path id="primary" fill-rule="evenodd" clip-rule="evenodd" d="M2.66797 10.666C2.66797 8.45688 4.45883 6.66602 6.66797 6.66602H25.3346C27.5438 6.66602 29.3346 8.45688 29.3346 10.666V21.3327C29.3346 23.5418 27.5438 25.3327 25.3346 25.3327H6.66797C4.45883 25.3327 2.66797 23.5418 2.66797 21.3327V10.666ZM25.3346 7.99935H6.66797C5.19521 7.99935 4.0013 9.19326 4.0013 10.666V21.3327C4.0013 22.8054 5.19521 23.9993 6.66797 23.9993H25.3346C26.8074 23.9993 28.0013 22.8054 28.0013 21.3327V10.666C28.0013 9.19326 26.8074 7.99935 25.3346 7.99935Z" />
    <g id="accent">
      <path d="M28 12H4V14.6667H28V12Z" fill="var(--uk2-icons-tier2-accent-color)" />
      <path d="M20.6667 20.6667H26V22H20.6667V20.6667Z" fill="var(--uk2-icons-tier2-accent-color)" />
    </g>
  </symbol>
  <symbol id="uk2-color-dollar-bill-stack" viewBox="0 0 32 32" xmlns="http://www.w3.org/2000/svg">
    <g id="primary">
      <path d="M8.66797 4.66602C7.93159 4.66602 7.33464 5.26297 7.33464 5.99935V7.33268H8.66797V5.99935H23.3346V7.33268H24.668V5.99935C24.668 5.26297 24.071 4.66602 23.3346 4.66602H8.66797Z" />
      <path d="M5.33464 9.99935C5.33464 9.26297 5.93159 8.66602 6.66797 8.66602H25.3346C26.071 8.66602 26.668 9.26297 26.668 9.99935V11.3327H25.3346V9.99935H6.66797V11.3327H5.33464V9.99935Z" />
      <path fill-rule="evenodd" clip-rule="evenodd" d="M4.0013 12.666C3.26492 12.666 2.66797 13.263 2.66797 13.9993V25.9993C2.66797 26.7357 3.26492 27.3327 4.0013 27.3327H28.0013C28.7377 27.3327 29.3346 26.7357 29.3346 25.9993V13.9993C29.3346 13.263 28.7377 12.666 28.0013 12.666H4.0013ZM28.0013 13.9993H4.0013V25.9993H28.0013V13.9993Z" />
    </g>
    <g id="accent">
      <path d="M8 14H6.66667C6.66667 14.3502 6.59769 14.697 6.46368 15.0205C6.41904 15.1283 6.36748 15.2327 6.3094 15.3333C6.19313 15.5347 6.05076 15.7205 5.88562 15.8856C5.72048 16.0508 5.53472 16.1931 5.33333 16.3094C5.23275 16.3675 5.12826 16.419 5.02049 16.4637C4.69695 16.5977 4.35019 16.6667 4 16.6667V18C4.52529 18 5.04543 17.8965 5.53073 17.6955C6.01604 17.4945 6.45699 17.1999 6.82843 16.8284C7.19986 16.457 7.4945 16.016 7.69552 15.5307C7.89654 15.0454 8 14.5253 8 14Z" fill="var(--uk2-icons-tier2-accent-color)" />
      <path fill-rule="evenodd" clip-rule="evenodd" d="M20 20C20 22.2091 18.2091 24 16 24C13.7909 24 12 22.2091 12 20C12 17.7909 13.7909 16 16 16C18.2091 16 20 17.7909 20 20ZM16 22.6667C17.4728 22.6667 18.6667 21.4728 18.6667 20C18.6667 18.5272 17.4728 17.3333 16 17.3333C14.5272 17.3333 13.3333 18.5272 13.3333 20C13.3333 21.4728 14.5272 22.6667 16 22.6667Z" fill="var(--uk2-icons-tier2-accent-color)" />
      <path d="M8 26H6.66667C6.66667 25.6498 6.59769 25.303 6.46368 24.9795C6.41904 24.8717 6.36748 24.7673 6.3094 24.6667C6.19313 24.4653 6.05076 24.2795 5.88562 24.1144C5.72048 23.9492 5.53472 23.8069 5.33333 23.6906C5.23275 23.6325 5.12826 23.581 5.02049 23.5363C4.69695 23.4023 4.35019 23.3333 4 23.3333V22C4.52529 22 5.04543 22.1035 5.53073 22.3045C6.01604 22.5055 6.45699 22.8001 6.82843 23.1716C7.19986 23.543 7.4945 23.984 7.69552 24.4693C7.89654 24.9546 8 25.4747 8 26Z" fill="var(--uk2-icons-tier2-accent-color)" />
      <path d="M28 18V16.6667C27.6498 16.6667 27.303 16.5977 26.9795 16.4637C26.8717 16.419 26.7673 16.3675 26.6667 16.3094C26.4653 16.1931 26.2795 16.0508 26.1144 15.8856C25.9492 15.7205 25.8069 15.5347 25.6906 15.3333C25.6325 15.2327 25.581 15.1283 25.5363 15.0205C25.4023 14.697 25.3333 14.3502 25.3333 14H24C24 14.5253 24.1035 15.0454 24.3045 15.5307C24.5055 16.016 24.8001 16.457 25.1716 16.8284C25.543 17.1999 25.984 17.4945 26.4693 17.6955C26.9546 17.8965 27.4747 18 28 18Z" fill="var(--uk2-icons-tier2-accent-color)" />
      <path d="M26.4693 22.3045C26.9546 22.1035 27.4747 22 28 22V23.3333C27.6498 23.3333 27.303 23.4023 26.9795 23.5363C26.8717 23.581 26.7673 23.6325 26.6667 23.6906C26.4653 23.8069 26.2795 23.9492 26.1144 24.1144C25.9492 24.2795 25.8069 24.4653 25.6906 24.6667C25.6325 24.7673 25.581 24.8717 25.5363 24.9795C25.4023 25.303 25.3333 25.6498 25.3333 26H24C24 25.4747 24.1035 24.9546 24.3045 24.4693C24.5055 23.984 24.8001 23.543 25.1716 23.1716C25.543 22.8001 25.984 22.5055 26.4693 22.3045Z" fill="var(--uk2-icons-tier2-accent-color)" />
    </g>
  </symbol>
  <symbol id="uk2-color-education" viewBox="0 0 32 32" xmlns="http://www.w3.org/2000/svg">
    <g id="primary">
      <path fill-rule="evenodd" clip-rule="evenodd" d="M29.773 7.33291C29.7753 7.60254 29.615 7.84702 29.3668 7.95236L24.4232 10.0503V13.9051C24.4232 15.3107 23.2936 16.5807 21.8254 17.4533C20.3129 18.3521 18.2551 18.9536 16.0005 18.9536C13.7437 18.9536 11.6856 18.3413 10.1742 17.4379C8.70981 16.5626 7.57792 15.2929 7.57792 13.9051V10.0509L2.6328 7.95236C2.38458 7.84702 2.22426 7.60254 2.22659 7.33291C2.22891 7.06328 2.39343 6.8216 2.64343 6.72057L15.75 1.42357C15.9102 1.35881 16.0894 1.35881 16.2496 1.42357L29.3562 6.72057C29.6062 6.8216 29.7707 7.06328 29.773 7.33291ZM16.2602 13.5143L23.0898 10.6161V13.9051C23.0898 14.5905 22.4831 15.5114 21.1442 16.3071C19.8496 17.0764 18.0294 17.6203 16.0005 17.6203C13.9739 17.6203 12.154 17.0679 10.8583 16.2934C9.5156 15.4909 8.91126 14.5696 8.91126 13.9051V10.6167L15.7394 13.5143C15.9058 13.585 16.0938 13.585 16.2602 13.5143ZM15.9998 2.76072L4.63522 7.35369L15.9998 12.1764L27.3644 7.35369L15.9998 2.76072Z" />
      <path d="M4.13477 23.6598C4.13477 23.0566 4.6237 22.5677 5.22682 22.5677H26.7711C27.3743 22.5677 27.8632 23.0566 27.8632 23.6598C27.8632 24.2629 27.3743 24.7518 26.7711 24.7518H18.3665V26.0852H26.7711C28.1106 26.0852 29.1965 24.9993 29.1965 23.6598C29.1965 22.3203 28.1106 21.2344 26.7711 21.2344H5.22682C3.88732 21.2344 2.80143 22.3203 2.80143 23.6598C2.80143 24.9993 3.88732 26.0852 5.22682 26.0852H13.7025V24.7518H5.22682C4.6237 24.7518 4.13477 24.2629 4.13477 23.6598Z" />
    </g>
    <g id="accent">
      <path fill-rule="evenodd" clip-rule="evenodd" d="M15.9991 6.26562C15.6684 6.26562 15.3375 6.32124 15.0644 6.43717C14.9291 6.4946 14.7767 6.58005 14.6483 6.70894C14.5822 6.77518 14.5144 6.86204 14.4634 6.96816L4.62286 9.21871C4.31979 9.28802 4.10486 9.55762 4.10483 9.86852L4.10454 12.3649C3.38799 12.6379 2.87891 13.3313 2.87891 14.1437V18.0071H6.68457V14.1437C6.68457 13.3234 6.16549 12.6243 5.43788 12.357L5.4381 10.4L15.0074 8.21149C15.0267 8.22053 15.0457 8.22899 15.0644 8.23692C15.3375 8.35286 15.6684 8.40847 15.9991 8.40847C16.3298 8.40847 16.6607 8.35286 16.9338 8.23692C17.0691 8.1795 17.2215 8.09405 17.35 7.96516C17.4811 7.83358 17.6193 7.62067 17.6193 7.33705C17.6193 7.05343 17.4811 6.84052 17.35 6.70894C17.2215 6.58005 17.0691 6.4946 16.9338 6.43717C16.6607 6.32124 16.3298 6.26562 15.9991 6.26562ZM4.78174 13.5742C4.46721 13.5742 4.21224 13.8292 4.21224 14.1437V16.6738H5.35124V14.1437C5.35124 13.8292 5.09627 13.5742 4.78174 13.5742Z" fill="var(--uk2-icons-tier2-accent-color)" />
      <path d="M15.0332 22.5664V27.8405L16.0332 27.0355L17.0332 27.8405V22.5664H18.3665V30.6256L16.0332 28.7472L13.6999 30.6256V22.5664H15.0332Z" fill="var(--uk2-icons-tier2-accent-color)" />
    </g>
  </symbol>
  <symbol id="uk2-color-etf" viewBox="0 0 32 32" xmlns="http://www.w3.org/2000/svg">
    <g id="primary">
      <path d="M15.3314 6.64453V9.43099H16.6647V6.64453H15.3314Z" fill="var(--uk2-icons-tier2-accent-color)" />
      <path d="M16.6647 25.3555L16.6647 22.569H15.3314L15.3314 25.3555H16.6647Z" fill="var(--uk2-icons-tier2-accent-color)" />
      <path d="M10.6423 19.8617L8.22917 21.255L7.5625 20.1003L9.97564 18.707L10.6423 19.8617Z" fill="var(--uk2-icons-tier2-accent-color)" />
      <path d="M23.7669 10.745L21.3538 12.1383L22.0204 13.293L24.4336 11.8997L23.7669 10.745Z" fill="var(--uk2-icons-tier2-accent-color)" />
      <path d="M22.0205 18.7073L24.4336 20.1005L23.7669 21.2552L21.3538 19.862L22.0205 18.7073Z" fill="var(--uk2-icons-tier2-accent-color)" />
      <path d="M7.5625 11.8995L9.97564 13.2927L10.6423 12.138L8.22917 10.7448L7.5625 11.8995Z" fill="var(--uk2-icons-tier2-accent-color)" />
    </g>
    <g id="primary_2">
      <path fill-rule="evenodd" clip-rule="evenodd" d="M13.6663 4.77083C13.6663 3.48217 14.711 2.4375 15.9996 2.4375C17.2883 2.4375 18.333 3.48217 18.333 4.77083C18.333 6.0595 17.2883 7.10417 15.9996 7.10417C14.711 7.10417 13.6663 6.0595 13.6663 4.77083ZM14.9996 4.77083C14.9996 4.21855 15.4473 3.77083 15.9996 3.77083C16.5519 3.77083 16.9996 4.21855 16.9996 4.77083C16.9996 5.32312 16.5519 5.77083 15.9996 5.77083C15.4473 5.77083 14.9996 5.32312 14.9996 4.77083Z" />
      <path fill-rule="evenodd" clip-rule="evenodd" d="M14.2279 16.2716H13.0187V16.9571H14.4379V17.5964H12.2555V14.4062H14.4337V15.0497H13.0187V15.6449H14.2279V16.2716Z" />
      <path fill-rule="evenodd" clip-rule="evenodd" d="M16.401 15.0497H17.3373V14.4062H14.714V15.0497H15.6378V17.5964H16.401V15.0497Z" />
      <path fill-rule="evenodd" clip-rule="evenodd" d="M19.5928 16.3472H18.3835V17.5964H17.6204V14.4062H19.744V15.0497H18.3835V15.7058H19.5928V16.3472Z" />
      <path fill-rule="evenodd" clip-rule="evenodd" d="M22.3555 12.3309L15.9998 8.66146L9.64416 12.3309V19.6698L15.9998 23.3393L22.3555 19.6698V12.3309ZM10.9775 13.1007L15.9998 10.2011L21.0222 13.1007V18.9L15.9998 21.7997L10.9775 18.9V13.1007Z" />
      <path fill-rule="evenodd" clip-rule="evenodd" d="M15.9996 29.5625C17.2883 29.5625 18.333 28.5178 18.333 27.2292C18.333 25.9405 17.2883 24.8958 15.9996 24.8958C14.711 24.8958 13.6663 25.9405 13.6663 27.2292C13.6663 28.5178 14.711 29.5625 15.9996 29.5625ZM15.9996 28.2292C16.5519 28.2292 16.9996 27.7815 16.9996 27.2292C16.9996 26.6769 16.5519 26.2292 15.9996 26.2292C15.4473 26.2292 14.9996 26.6769 14.9996 27.2292C14.9996 27.7815 15.4473 28.2292 15.9996 28.2292Z" />
      <path fill-rule="evenodd" clip-rule="evenodd" d="M4.2544 22.7811C4.89874 23.8972 6.32578 24.2795 7.4418 23.6352C8.55781 22.9909 8.94019 21.5638 8.29586 20.4478C7.65152 19.3318 6.22448 18.9494 5.10846 19.5938C3.99245 20.2381 3.61007 21.6651 4.2544 22.7811ZM5.4091 22.1145C5.68525 22.5928 6.29684 22.7566 6.77513 22.4805C7.25342 22.2044 7.4173 21.5928 7.14115 21.1145C6.86501 20.6362 6.25342 20.4723 5.77513 20.7485C5.29684 21.0246 5.13296 21.6362 5.4091 22.1145Z" />
      <path fill-rule="evenodd" clip-rule="evenodd" d="M27.7449 9.21886C27.1005 8.10284 25.6735 7.72047 24.5575 8.3648C23.4415 9.00913 23.0591 10.4362 23.7034 11.5522C24.3477 12.6682 25.7748 13.0506 26.8908 12.4063C28.0068 11.7619 28.3892 10.3349 27.7449 9.21886ZM26.5902 9.88552C26.314 9.40723 25.7024 9.24336 25.2241 9.5195C24.7458 9.79564 24.582 10.4072 24.8581 10.8855C25.1342 11.3638 25.7458 11.5277 26.2241 11.2516C26.7024 10.9754 26.8663 10.3638 26.5902 9.88552Z" />
      <path fill-rule="evenodd" clip-rule="evenodd" d="M27.7449 22.7814C28.3892 21.6653 28.0068 20.2383 26.8908 19.594C25.7748 18.9496 24.3477 19.332 23.7034 20.448C23.0591 21.564 23.4415 22.9911 24.5575 23.6354C25.6735 24.2798 27.1005 23.8974 27.7449 22.7814ZM26.5902 22.1147C26.8663 21.6364 26.7024 21.0248 26.2241 20.7487C25.7458 20.4725 25.1342 20.6364 24.8581 21.1147C24.582 21.593 24.7458 22.2046 25.2241 22.4807C25.7024 22.7569 26.314 22.593 26.5902 22.1147Z" />
      <path fill-rule="evenodd" clip-rule="evenodd" d="M4.2544 9.21864C3.61007 10.3347 3.99245 11.7617 5.10846 12.406C6.22448 13.0504 7.65152 12.668 8.29585 11.552C8.94019 10.436 8.55781 9.00892 7.4418 8.36458C6.32578 7.72025 4.89874 8.10263 4.2544 9.21864ZM5.4091 9.88531C5.13296 10.3636 5.29684 10.9752 5.77513 11.2513C6.25342 11.5275 6.86501 11.3636 7.14115 10.8853C7.4173 10.407 7.25342 9.79543 6.77513 9.51928C6.29684 9.24314 5.68525 9.40702 5.4091 9.88531Z" />
    </g>
  </symbol>
  <symbol id="uk2-color-folders" viewBox="0 0 32 32" xmlns="http://www.w3.org/2000/svg">
    <g id="primary">
      <path d="M16.781 8.66732L14.781 6.66732L9.33333 6.66732V8.66732H8V6.66732C8 5.93094 8.59695 5.33398 9.33333 5.33398H14.781C15.1347 5.33398 15.4738 5.47446 15.7239 5.72451L17.3333 7.33398H26.6667C27.403 7.33398 28 7.93094 28 8.66732V20.6673C28 21.4037 27.403 22.0007 26.6667 22.0007H25.3333V20.6673H26.6667V8.66732H16.781Z" />
      <path fill-rule="evenodd" clip-rule="evenodd" d="M11.7239 10.3912L13.3333 12.0007H22.6667C23.403 12.0007 24 12.5976 24 13.334V25.334C24 26.0704 23.403 26.6673 22.6667 26.6673H5.33333C4.59695 26.6673 4 26.0704 4 25.334V11.334C4 10.5976 4.59695 10.0007 5.33333 10.0007H10.781C11.1347 10.0007 11.4738 10.1411 11.7239 10.3912ZM10.781 11.334L12.781 13.334H22.6667V25.334H5.33333L5.33333 11.334H10.781Z" />
    </g>
    <rect id="accent" x="5.33203" y="15.334" width="17.3333" height="1.33333" fill="var(--uk2-icons-tier2-accent-color)" />
  </symbol>
  <symbol id="uk2-color-home" viewBox="0 0 32 32" xmlns="http://www.w3.org/2000/svg">
    <g id="primary">
      <path fill-rule="evenodd" clip-rule="evenodd" d="M23.332 17.196H16.6654V25.196H23.332V17.196ZM21.9987 18.5293H17.9987V20.5293H21.9987V18.5293ZM21.9987 23.8626V21.8626H17.9987V23.8626H21.9987Z" />
      <path fill-rule="evenodd" clip-rule="evenodd" d="M16.0007 4.13867C16.3413 4.13917 16.6817 4.26935 16.9416 4.5292L28.4702 16.0578L27.5273 17.0006L26.6654 16.1386V25.8625C26.6654 26.9671 25.7699 27.8625 24.6654 27.8625H7.33203C6.22746 27.8625 5.33203 26.9671 5.33203 25.8625V16.1387L4.47015 17.0006L3.52734 16.0578L6.66536 12.9197V6.5293H11.332V8.25305L15.0559 4.5292C15.3168 4.26833 15.6588 4.13816 16.0007 4.13867ZM9.9987 9.58639V7.86263H7.9987V11.5864L9.9987 9.58639ZM15.9987 5.47203L25.332 14.8053V25.8625C25.332 26.2307 25.0336 26.5292 24.6654 26.5292H7.33203C6.96384 26.5292 6.66536 26.2307 6.66536 25.8625V14.8054L15.9987 5.47203Z" />
    </g>
    <path id="accent" d="M14.668 17.1953H8.66797V26.5286H10.0013V18.5286H13.3346V26.5286H14.668V17.1953Z" fill="var(--uk2-icons-tier2-accent-color)" />
  </symbol>
  <symbol id="uk2-color-identification" viewBox="0 0 32 32" xmlns="http://www.w3.org/2000/svg">
    <path id="primary" fill-rule="evenodd" clip-rule="evenodd" d="M2.66797 10.666C2.66797 8.45688 4.45883 6.66602 6.66797 6.66602H25.3346C27.5438 6.66602 29.3346 8.45688 29.3346 10.666V21.3327C29.3346 23.5418 27.5438 25.3327 25.3346 25.3327H6.66797C4.45883 25.3327 2.66797 23.5418 2.66797 21.3327V10.666ZM25.3346 7.99935H6.66797C5.19521 7.99935 4.0013 9.19326 4.0013 10.666V21.3327C4.0013 22.8054 5.19521 23.9993 6.66797 23.9993H25.3346C26.8074 23.9993 28.0013 22.8054 28.0013 21.3327V10.666C28.0013 9.19326 26.8074 7.99935 25.3346 7.99935Z" />
    <g id="accent">
      <path fill-rule="evenodd" clip-rule="evenodd" d="M14 13.3333C14 15.1743 12.5076 16.6667 10.6667 16.6667C8.82572 16.6667 7.33333 15.1743 7.33333 13.3333C7.33333 11.4924 8.82572 10 10.6667 10C12.5076 10 14 11.4924 14 13.3333ZM12.6667 13.3333C12.6667 14.4379 11.7712 15.3333 10.6667 15.3333C9.5621 15.3333 8.66667 14.4379 8.66667 13.3333C8.66667 12.2288 9.5621 11.3333 10.6667 11.3333C11.7712 11.3333 12.6667 12.2288 12.6667 13.3333Z" fill="var(--uk2-icons-tier2-accent-color)" />
      <path d="M11.3333 18.6667C12.8061 18.6667 14 19.8606 14 21.3333V22H15.3333V21.3333C15.3333 19.1242 13.5425 17.3333 11.3333 17.3333H10C7.79086 17.3333 6 19.1242 6 21.3333V22H7.33333V21.3333C7.33333 19.8606 8.52724 18.6667 10 18.6667H11.3333Z" fill="var(--uk2-icons-tier2-accent-color)" />
      <path d="M24 12H16.6667V13.3333H24V12Z" fill="var(--uk2-icons-tier2-accent-color)" />
      <path d="M26 15.3333H16.6667V16.6667H26V15.3333Z" fill="var(--uk2-icons-tier2-accent-color)" />
      <path d="M16.6667 18.6667H26V20H16.6667V18.6667Z" fill="var(--uk2-icons-tier2-accent-color)" />
    </g>
  </symbol>
  <symbol id="uk2-color-image" viewBox="0 0 32 32" xmlns="http://www.w3.org/2000/svg">
    <path id="primary" fill-rule="evenodd" clip-rule="evenodd" d="M24 5.33333H8C6.52724 5.33333 5.33333 6.52724 5.33333 8V24C5.33333 25.4728 6.52724 26.6667 8 26.6667H24C25.4728 26.6667 26.6667 25.4728 26.6667 24V8C26.6667 6.52724 25.4728 5.33333 24 5.33333ZM8 4C5.79086 4 4 5.79086 4 8V24C4 26.2091 5.79086 28 8 28H24C26.2091 28 28 26.2091 28 24V8C28 5.79086 26.2091 4 24 4H8Z" />
    <g id="accent">
      <path fill-rule="evenodd" clip-rule="evenodd" d="M24.6667 11.3333C24.6667 13.1743 23.1743 14.6667 21.3333 14.6667C19.4924 14.6667 18 13.1743 18 11.3333C18 9.49238 19.4924 8 21.3333 8C23.1743 8 24.6667 9.49238 24.6667 11.3333ZM23.3333 11.3333C23.3333 12.4379 22.4379 13.3333 21.3333 13.3333C20.2288 13.3333 19.3333 12.4379 19.3333 11.3333C19.3333 10.2288 20.2288 9.33333 21.3333 9.33333C22.4379 9.33333 23.3333 10.2288 23.3333 11.3333Z" fill="var(--uk2-icons-tier2-accent-color)" />
      <path d="M10.1953 17.081C10.4557 16.8207 10.8778 16.8207 11.1381 17.081L15.2525 21.1954C16.0336 21.9764 17.2999 21.9764 18.0809 21.1954L20.1953 19.081C20.4557 18.8207 20.8778 18.8207 21.1381 19.081L24.862 22.8049L25.8048 21.8621L22.0809 18.1382C21.2999 17.3571 20.0336 17.3571 19.2525 18.1382L17.1381 20.2526C16.8778 20.5129 16.4557 20.5129 16.1953 20.2526L12.0809 16.1382C11.2999 15.3571 10.0336 15.3571 9.2525 16.1382L6.19531 19.1954L7.13812 20.1382L10.1953 17.081Z" fill="var(--uk2-icons-tier2-accent-color)" />
    </g>
  </symbol>
  <symbol id="uk2-color-innovation" viewBox="0 0 32 32" xmlns="http://www.w3.org/2000/svg">
    <g id="primary">
      <path d="M15.9986 8.41995C14.4495 8.41581 12.9358 8.88353 11.659 9.76088C10.3822 10.6382 9.40287 11.8836 8.85132 13.3312C8.29976 14.7789 8.20214 16.3602 8.57144 17.8647C8.94074 19.3692 9.75945 20.7256 10.9186 21.7533C11.5426 22.2735 11.9551 23.0037 12.0786 23.8066H13.4119C13.4119 22.1333 11.8453 20.7933 11.7919 20.7533C10.8467 19.9013 10.1819 18.7829 9.8853 17.5454C9.58869 16.3079 9.67418 15.0096 10.1305 13.8217C10.5868 12.6338 11.3925 11.6122 12.4413 10.8915C13.4901 10.1709 14.7328 9.78514 16.0053 9.78514C17.2778 9.78514 18.5204 10.1709 19.5692 10.8915C20.618 11.6122 21.4237 12.6338 21.8801 13.8217C22.3364 15.0096 22.4219 16.3079 22.1253 17.5454C21.8287 18.7829 21.1639 19.9013 20.2186 20.7533C20.1519 20.8066 18.5853 22.1466 18.5853 23.8199H19.9186C20.0441 23.0127 20.4616 22.2796 21.0919 21.7599C22.2484 20.7299 23.0641 19.3724 23.4309 17.8678C23.7977 16.3633 23.6982 14.7827 23.1456 13.336C22.5929 11.8893 21.6133 10.6449 20.3368 9.76804C19.0603 8.89118 17.5473 8.42334 15.9986 8.42662V8.41995Z" />
      <path d="M15.9986 18.6799C15.4453 18.6799 15.2519 18.0466 15.2453 17.9666H13.9119C13.9443 18.3861 14.0949 18.7878 14.3462 19.1253C14.5975 19.4627 14.9393 19.7221 15.3319 19.8732V21.2932H16.6653V19.9199C17.042 19.8237 17.3802 19.6142 17.6341 19.3198C17.888 19.0253 18.0455 18.66 18.0853 18.2732C18.0853 17.3199 17.8453 16.7866 16.3386 15.9599C15.2853 15.3866 15.2853 15.2399 15.2853 14.8532C15.3359 14.7094 15.4343 14.5872 15.5642 14.5071C15.694 14.427 15.8473 14.3939 15.9986 14.4132C16.5519 14.4132 16.7453 15.0466 16.7519 15.1199H18.0853C18.0553 14.6981 17.9059 14.2935 17.6544 13.9534C17.403 13.6134 17.0599 13.352 16.6653 13.1999V11.7999H15.3319V13.1866C14.9628 13.2855 14.6327 13.495 14.386 13.787C14.1393 14.079 13.9879 14.4394 13.9519 14.8199C13.9519 15.7732 14.1919 16.3066 15.6986 17.1332C16.7519 17.7066 16.7519 17.8532 16.7519 18.2399C16.7002 18.3915 16.5956 18.5194 16.4572 18.6002C16.3189 18.681 16.1561 18.7093 15.9986 18.6799Z" />
      <path d="M19.9319 25.2999H12.1386V26.6332H19.9319V25.2999Z" />
      <path d="M18.8186 27.9532H13.6119V29.2866H18.8186V27.9532Z" />
    </g>
    <g id="accent">
      <path d="M16.668 2.71289H15.3346V6.59289H16.668V2.71289Z" fill="var(--uk2-icons-tier2-accent-color)" />
      <path d="M27.2168 8.79979L23.8563 10.7392L24.5228 11.894L27.8833 9.95461L27.2168 8.79979Z" fill="var(--uk2-icons-tier2-accent-color)" />
      <path d="M7.48047 20.1914L4.11996 22.1308L4.78642 23.2856L8.14694 21.3462L7.48047 20.1914Z" fill="var(--uk2-icons-tier2-accent-color)" />
      <path d="M4.78369 8.8006L4.11702 9.9553L7.4772 11.8953L8.14387 10.7406L4.78369 8.8006Z" fill="var(--uk2-icons-tier2-accent-color)" />
      <path d="M24.5173 20.1944L23.8506 21.3491L27.2108 23.2891L27.8774 22.1344L24.5173 20.1944Z" fill="var(--uk2-icons-tier2-accent-color)" />
      <path d="M22.0849 4.16625L20.1455 7.52677L21.3003 8.19324L23.2397 4.83272L22.0849 4.16625Z" fill="var(--uk2-icons-tier2-accent-color)" />
      <path d="M29.3346 15.3796H25.4546V16.7129H29.3346V15.3796Z" fill="var(--uk2-icons-tier2-accent-color)" />
      <path d="M6.54797 15.3796H2.66797V16.7129H6.54797V15.3796Z" fill="var(--uk2-icons-tier2-accent-color)" />
      <path d="M11.8546 7.52624L9.91464 4.16624L8.75464 4.8329L10.6946 8.1929L11.8546 7.52624Z" fill="var(--uk2-icons-tier2-accent-color)" />
    </g>
  </symbol>
  <symbol id="uk2-color-island" viewBox="0 0 32 32" xmlns="http://www.w3.org/2000/svg">
    <g id="primary">
      <path d="M11.0149 9.70789C11.1028 9.71009 11.1898 9.71423 11.2757 9.72014C10.9725 9.56808 10.6372 9.42092 10.2782 9.29525C8.74413 8.75834 6.84976 8.62991 5.09186 10.0948L4.23828 9.07053C6.48038 7.20212 8.91934 7.40702 10.7186 8.03677C11.1153 8.1756 11.4844 8.33584 11.8186 8.50102C11.2325 7.44542 10.5335 6.44668 9.72852 5.52356L10.7334 4.64722C11.6882 5.74209 12.5044 6.93576 13.1725 8.2012C13.3093 7.90382 13.4834 7.59212 13.7047 7.28018C14.7674 5.78273 16.8215 4.41602 20.6651 4.41602V5.74935C17.1754 5.74935 15.5627 6.96597 14.7921 8.05185C14.3944 8.61226 14.1948 9.17398 14.0951 9.59552C14.0828 9.64762 14.072 9.69741 14.0626 9.74462C14.0207 9.90585 13.9984 10.075 13.9984 10.2493C13.9984 10.7968 14.2183 11.2928 14.5746 11.654C15.1322 13.5515 15.3894 15.5417 15.3208 17.5527C15.2889 18.487 15.1871 19.4121 15.0185 20.3208C15.3383 20.2737 15.6655 20.2493 15.9983 20.2493C17.0697 20.2493 18.082 20.5021 18.9789 20.9511C19.212 20.0412 19.5133 19.1504 19.8803 18.2864C19.8158 18.1341 19.7216 17.9537 19.5858 17.7686C19.2344 17.2894 18.5671 16.724 17.2581 16.5786L17.4054 15.2534C18.8362 15.4124 19.7719 15.9867 20.3683 16.6266C20.3552 16.533 20.3363 16.433 20.31 16.3277C20.144 15.6638 19.6647 14.7171 18.2952 13.8041L19.0348 12.6947C20.3554 13.575 21.0574 14.5426 21.4097 15.4114C21.8851 14.6798 22.4137 13.9786 22.9934 13.3139L23.9983 14.1902C23.4823 14.7819 23.0099 15.4047 22.5828 16.0537C23.6249 15.809 25.0029 15.8396 26.6299 16.6531L26.0336 17.8456C24.5277 17.0927 23.3744 17.1854 22.6172 17.4263C22.5516 17.4472 22.4886 17.4693 22.4282 17.4923C23.3193 17.6343 24.3585 18.1927 25.4967 19.4731L24.5002 20.3589C23.2532 18.9561 22.3523 18.7631 21.8687 18.79C21.6122 18.8042 21.4175 18.882 21.2896 18.9526C21.2255 18.9881 21.1794 19.0211 21.1526 19.0421C21.1409 19.0512 21.1331 19.0579 21.1295 19.061L20.9179 19.2727C20.6079 20.0657 20.3565 20.8812 20.1661 21.7124C21.5267 22.8036 22.4502 24.4174 22.6321 26.2493H21.2904C20.9623 23.6185 18.7181 21.5827 15.9983 21.5827C15.5494 21.5827 15.1134 21.6381 14.6969 21.7426C14.2436 21.8563 13.8133 22.028 13.4144 22.2493C11.9591 23.0569 10.9212 24.5253 10.7063 26.2493H9.36458C9.61653 23.7118 11.2914 21.5928 13.5799 20.7015C13.8134 19.6586 13.9513 18.5896 13.9882 17.5072C14.0505 15.6809 13.8234 13.8731 13.3291 12.1461C13.2754 11.0895 12.4017 10.2493 11.3317 10.2493C10.5949 10.2493 9.95122 10.6477 9.60422 11.2408C9.31447 11.3389 9.02498 11.4771 8.74072 11.6649C7.99844 12.1554 7.23996 13.0181 6.61264 14.508L5.38379 13.9906C6.0898 12.3139 6.99798 11.2183 8.00571 10.5525C9.01495 9.88567 10.072 9.68431 11.0149 9.70789Z" />
      <path d="M17.9617 9.86605C18.6479 9.87663 19.466 10.0198 20.4354 10.3752L20.8944 9.12341C19.3857 8.57022 18.1297 8.45018 17.1002 8.57997C17.5397 8.87061 17.8577 9.33014 17.9617 9.86605Z" />
    </g>
    <g id="accent">
      <path fill-rule="evenodd" clip-rule="evenodd" d="M16 12.25C17.1046 12.25 18 11.3546 18 10.25C18 9.14543 17.1046 8.25 16 8.25C14.8954 8.25 14 9.14543 14 10.25C14 11.3546 14.8954 12.25 16 12.25ZM16.6667 10.25C16.6667 10.6182 16.3682 10.9167 16 10.9167C15.6318 10.9167 15.3333 10.6182 15.3333 10.25C15.3333 9.88181 15.6318 9.58333 16 9.58333C16.3682 9.58333 16.6667 9.88181 16.6667 10.25Z" fill="var(--uk2-icons-tier2-accent-color)" />
      <path fill-rule="evenodd" clip-rule="evenodd" d="M13.3333 12.25C13.3333 13.3546 12.4379 14.25 11.3333 14.25C10.2288 14.25 9.33333 13.3546 9.33333 12.25C9.33333 11.1454 10.2288 10.25 11.3333 10.25C12.4379 10.25 13.3333 11.1454 13.3333 12.25ZM12 12.25C12 12.6182 11.7015 12.9167 11.3333 12.9167C10.9651 12.9167 10.6667 12.6182 10.6667 12.25C10.6667 11.8818 10.9651 11.5833 11.3333 11.5833C11.7015 11.5833 12 11.8818 12 12.25Z" fill="var(--uk2-icons-tier2-accent-color)" />
      <path d="M4 26.25V27.5833H28V26.25H4Z" fill="var(--uk2-icons-tier2-accent-color)" />
    </g>
  </symbol>
  <symbol id="uk2-color-line-graph" viewBox="0 0 32 32" xmlns="http://www.w3.org/2000/svg">
      <path id="primary" d="M4 4V24.6667C4 26.5076 5.49238 28 7.33333 28H28V26.6667H7.33333C6.22876 26.6667 5.33333 25.7712 5.33333 24.6667V4H4Z" />
      <path id="accent" d="M19.3334 10.6673H23.0572L16.6667 17.0578L14.0001 14.3912L8.19531 20.1959L9.13812 21.1387L14.0001 16.2768L16.6667 18.9435L24 11.6101V15.334H25.3334V9.33398H19.3334V10.6673Z" fill="var(--uk2-icons-tier2-accent-color)" />
  </symbol>
  <symbol id="uk2-color-lock" viewBox="0 0 32 32" xmlns="http://www.w3.org/2000/svg">
    <path id="primary" fill-rule="evenodd" clip-rule="evenodd" d="M15.9983 2.25C12.8261 2.25 10.2545 4.82163 10.2545 7.99388V12.2455H9.99609C8.47731 12.2455 7.24609 13.4767 7.24609 14.9955V27.0001C7.24609 28.5189 8.47731 29.7501 9.99609 29.7501H22.0007C23.5195 29.7501 24.7507 28.5189 24.7507 27.0001V14.9955C24.7507 13.4767 23.5195 12.2455 22.0007 12.2455H21.7422V7.99388C21.7422 4.82162 19.1706 2.25 15.9983 2.25ZM20.2422 12.2455V7.99388C20.2422 5.65005 18.3422 3.75 15.9983 3.75C13.6545 3.75 11.7545 5.65005 11.7545 7.99388V12.2455H20.2422ZM8.74609 14.9955C8.74609 14.3051 9.30574 13.7455 9.99609 13.7455H22.0007C22.6911 13.7455 23.2507 14.3051 23.2507 14.9955V27.0001C23.2507 27.6904 22.6911 28.2501 22.0007 28.2501H9.99609C9.30574 28.2501 8.74609 27.6904 8.74609 27.0001V14.9955Z" />
    <g id="accent">
      <path fill-rule="evenodd" clip-rule="evenodd" d="M18.8592 19.8222C18.8592 21.4013 17.579 22.6815 15.9999 22.6815C14.4208 22.6815 13.1406 21.4013 13.1406 19.8222C13.1406 18.243 14.4208 16.9629 15.9999 16.9629C17.579 16.9629 18.8592 18.243 18.8592 19.8222ZM15.9999 21.1815C16.7506 21.1815 17.3592 20.5729 17.3592 19.8222C17.3592 19.0715 16.7506 18.4629 15.9999 18.4629C15.2492 18.4629 14.6406 19.0715 14.6406 19.8222C14.6406 20.5729 15.2492 21.1815 15.9999 21.1815Z" fill="var(--uk2-icons-tier2-accent-color)" />
      <path fill-rule="evenodd" clip-rule="evenodd" d="M15.2499 26L15.2499 22.0342H16.7499L16.7499 26H15.2499Z" fill="var(--uk2-icons-tier2-accent-color)" />
    </g>
  </symbol>
  <symbol id="uk2-color-money-bag" viewBox="0 0 32 32" xmlns="http://www.w3.org/2000/svg">
    <path id="primary" fill-rule="evenodd" clip-rule="evenodd" d="M15.9984 2.42774C15.5621 2.42888 15.2137 2.55695 14.9285 2.76023C14.6847 2.93395 14.5012 3.15639 14.3764 3.30767L14.3522 3.33703C14.208 3.5111 14.1232 3.6047 14.0281 3.66889C13.9547 3.71847 13.8549 3.76342 13.6685 3.76342C13.4241 3.76342 13.1668 3.71872 12.8505 3.65641L12.768 3.64006C12.4886 3.58451 12.1564 3.51845 11.8235 3.5011C11.4424 3.48124 11.0237 3.52133 10.5994 3.71574C10.1751 3.91016 9.79586 4.23556 9.45407 4.70641L9.1627 5.10781L11.279 7.88347C11.0346 8.17328 10.8874 8.54765 10.8874 8.95642C10.8874 9.25319 10.965 9.53183 11.101 9.77314C9.05401 12.0859 5.99609 16.3748 5.99609 22.0022C5.99609 25.187 6.82398 27.1485 8.21711 28.2808C9.5824 29.3904 11.339 29.5711 12.8711 29.5711H19.1317C20.6637 29.5711 22.4203 29.3904 23.7856 28.2808C25.1787 27.1485 26.0066 25.187 26.0066 22.0022C26.0066 16.3748 22.9487 12.0859 20.9017 9.77314C21.0377 9.53183 21.1154 9.25319 21.1154 8.95642C21.1154 8.54765 20.9681 8.17328 20.7237 7.88347L22.84 5.10781L22.5486 4.70641C22.2069 4.23556 21.8277 3.91016 21.4033 3.71574C20.979 3.52133 20.5604 3.48124 20.1792 3.5011C19.8463 3.51845 19.5141 3.58451 19.2347 3.64006L19.1522 3.65641C18.8359 3.71872 18.5786 3.76342 18.3342 3.76342C18.1478 3.76342 18.048 3.71847 17.9746 3.66889C17.8795 3.6047 17.7947 3.51111 17.6505 3.33703L17.6263 3.30766C17.5015 3.15638 17.318 2.93394 17.0743 2.76023C16.7891 2.55695 16.4406 2.42887 16.0043 2.42773L16.0014 2.42774L15.9984 2.42774ZM19.4982 7.2917L21.1482 5.12765C21.0394 5.03177 20.9389 4.96955 20.8479 4.9279C20.6731 4.84778 20.4831 4.82041 20.2486 4.83263C20.0167 4.84471 19.7779 4.89189 19.4783 4.95111L19.4099 4.9646C19.0989 5.02588 18.7242 5.09675 18.3342 5.09675C17.8863 5.09675 17.5258 4.97474 17.2284 4.77387C16.9578 4.59118 16.7635 4.35644 16.6313 4.19668L16.6236 4.18746C16.4719 4.00422 16.3917 3.91108 16.3003 3.84598C16.2359 3.80001 16.1557 3.76155 16.0014 3.76107C15.847 3.76155 15.7669 3.80001 15.7024 3.84598C15.611 3.91108 15.5309 4.00422 15.3791 4.18746L15.3715 4.19669C15.2392 4.35644 15.0449 4.59118 14.7743 4.77387C14.4769 4.97474 14.1164 5.09675 13.6685 5.09675C13.2785 5.09675 12.9038 5.02588 12.5928 4.9646L12.5244 4.95111C12.2248 4.89189 11.986 4.84471 11.7541 4.83263C11.5196 4.82041 11.3296 4.84778 11.1548 4.9279C11.0639 4.96955 10.9633 5.03177 10.8545 5.12765L12.5045 7.2917C12.5205 7.29125 12.5366 7.29102 12.5528 7.29102H15.3353V6.16471H16.6686V7.29102H19.45C19.4661 7.29102 19.4822 7.29125 19.4982 7.2917ZM12.5528 8.62435C12.3694 8.62435 12.2207 8.77302 12.2207 8.95642C12.2207 9.13981 12.3694 9.28848 12.5528 9.28848H19.45C19.6333 9.28848 19.782 9.13981 19.782 8.95642C19.782 8.77302 19.6333 8.62435 19.45 8.62435H12.5528ZM19.832 10.5778C19.7093 10.6066 19.5814 10.6218 19.45 10.6218H18.4794L19.0283 12.0526L17.7312 12.3612L17.0639 10.6218H14.9387L14.2714 12.3612L12.9743 12.0526L13.5232 10.6218H12.5528C12.4213 10.6218 12.2934 10.6066 12.1707 10.5778C10.2253 12.7575 7.32943 16.7718 7.32943 22.0022C7.32943 24.9777 8.09993 26.4673 9.05807 27.2461C10.0441 28.0475 11.3916 28.2378 12.8711 28.2378H19.1317C20.6111 28.2378 21.9587 28.0475 22.9446 27.2461C23.9028 26.4673 24.6733 24.9777 24.6733 22.0022C24.6733 16.7718 21.7774 12.7575 19.832 10.5778Z" />
    <path id="accent" d="M16.0006 22.4798C15.3561 22.4798 15.131 21.7421 15.1232 21.649H13.5703C13.608 22.1375 13.7834 22.6055 14.0761 22.9985C14.3688 23.3915 14.7668 23.6935 15.2242 23.8696V25.5234H16.7771V23.924C17.2158 23.8119 17.6097 23.568 17.9054 23.225C18.2012 22.8821 18.3846 22.4566 18.4309 22.0061C18.4309 20.8958 18.1514 20.2746 16.3966 19.3118C15.1698 18.6441 15.1698 18.4733 15.1698 18.0229C15.2288 17.8554 15.3434 17.7131 15.4946 17.6198C15.6458 17.5266 15.8244 17.488 16.0006 17.5105C16.6451 17.5105 16.8702 18.2481 16.878 18.3335H18.4309C18.396 17.8422 18.222 17.371 17.9291 16.975C17.6362 16.579 17.2366 16.2745 16.7771 16.0973V14.4668H15.2242V16.0818C14.7942 16.1971 14.4097 16.4411 14.1225 16.7811C13.8352 17.1212 13.6587 17.5409 13.6169 17.9841C13.6169 19.0944 13.8964 19.7156 15.6512 20.6784C16.878 21.3461 16.878 21.517 16.878 21.9673C16.8177 22.1439 16.6959 22.2929 16.5348 22.387C16.3736 22.4811 16.184 22.514 16.0006 22.4798Z" fill="var(--uk2-icons-tier2-accent-color)" />
  </symbol>
  <symbol id="uk2-color-money-hand" viewBox="0 0 32 32" xmlns="http://www.w3.org/2000/svg">
    <path id="primary" fill-rule="evenodd" clip-rule="evenodd" d="M27.0553 16.0566H14.3373C13.9183 16.0566 13.5315 15.8435 13.2497 15.5335C11.9728 14.1291 8.95789 12.0566 5.66667 12.0566H2V21.39L11.6699 26.0868C12.9458 26.7065 14.4189 26.7803 15.7503 26.2912L28.0707 21.7654C29.2297 21.3396 30 20.236 30 19.0013C30 17.375 28.6816 16.0566 27.0553 16.0566ZM3.33333 20.5553L12.2525 24.8874C13.2024 25.3489 14.2993 25.4038 15.2906 25.0396L27.611 20.5138C28.2452 20.2808 28.6667 19.6769 28.6667 19.0013C28.6667 18.1114 27.9453 17.39 27.0553 17.39H20.4421C20.5861 17.6931 20.6667 18.0321 20.6667 18.39C20.6667 19.6786 19.622 20.7233 18.3333 20.7233H13V19.39H18.3333C18.8856 19.39 19.3333 18.9423 19.3333 18.39C19.3333 17.8377 18.8856 17.39 18.3333 17.39H14.3373C13.4567 17.39 12.7334 16.9476 12.2632 16.4305C11.1464 15.2022 8.46376 13.39 5.66667 13.39H3.33333V20.5553Z" />
    <path id="accent" fill-rule="evenodd" clip-rule="evenodd" d="M20.6654 9.05534C20.6654 11.0804 19.0237 12.722 16.9987 12.722C14.9737 12.722 13.332 11.0804 13.332 9.05534C13.332 7.03029 14.9737 5.38867 16.9987 5.38867C19.0237 5.38867 20.6654 7.03029 20.6654 9.05534ZM19.332 9.05534C19.332 10.344 18.2874 11.3887 16.9987 11.3887C15.71 11.3887 14.6654 10.344 14.6654 9.05534C14.6654 7.76667 15.71 6.72201 16.9987 6.72201C18.2874 6.72201 19.332 7.76667 19.332 9.05534Z" fill="var(--uk2-icons-tier2-accent-color)" />
  </symbol>
  <symbol id="uk2-color-money-jar" viewBox="0 0 32 32" xmlns="http://www.w3.org/2000/svg">
    <path id="primary" fill-rule="evenodd" clip-rule="evenodd" d="M9.02734 3.33268C9.02734 2.96449 9.32582 2.66602 9.69401 2.66602H22.3387C22.7069 2.66602 23.0054 2.96449 23.0054 3.33268V5.99627C23.0054 6.36446 22.7069 6.66294 22.3387 6.66294H21.4614V7.74036C21.7476 8.01662 22.0516 8.38314 22.3466 8.78115C22.739 9.31051 23.1464 9.93814 23.5156 10.5816C23.8843 11.2241 24.2215 11.8942 24.4687 12.5087C24.7076 13.1026 24.8931 13.7175 24.8931 14.223V25.7654C24.8931 27.0079 24.5063 27.9645 23.679 28.5763C22.8958 29.1555 21.8348 29.3332 20.6911 29.3332L11.3113 29.3327C10.1676 29.3327 9.10663 29.1549 8.32344 28.5757C7.49617 27.9639 7.10938 27.0074 7.10938 25.7648V14.2224C7.10938 13.7169 7.29481 13.102 7.5337 12.5082C7.78091 11.8937 8.11816 11.2236 8.48684 10.581C8.856 9.93759 9.26343 9.30996 9.6558 8.7806C9.95082 8.38258 10.2548 8.01606 10.5411 7.7398V6.66294H9.69401C9.32582 6.66294 9.02734 6.36446 9.02734 5.99627V3.33268ZM11.8744 6.66294H20.128V8.03979C20.128 8.24324 20.2209 8.43556 20.3803 8.56202C20.5942 8.73172 20.9089 9.08057 21.2755 9.57512C21.6332 10.0578 22.0126 10.6412 22.3591 11.2451C22.7061 11.8499 23.0133 12.4635 23.2317 13.0064C23.4585 13.5699 23.5597 13.9862 23.5597 14.223V25.7654C23.5597 26.721 23.2773 27.215 22.8862 27.5043C22.451 27.8261 21.7443 27.9999 20.6912 27.9999L11.3113 27.9993C10.2581 27.9993 9.55146 27.8256 9.11624 27.5037C8.72511 27.2144 8.44271 26.7204 8.44271 25.7648V14.2224C8.44271 13.9856 8.54397 13.5694 8.77069 13.0058C8.98909 12.4629 9.29636 11.8493 9.64334 11.2445C9.98984 10.6406 10.3692 10.0573 10.727 9.57456C11.0935 9.08002 11.4083 8.73117 11.6221 8.56147C11.7815 8.435 11.8744 8.24269 11.8744 8.03923V6.66294ZM10.3607 3.99935V5.3296H12.0026V3.99935H10.3607ZM13.3359 3.99935H15.3346V5.3296H13.3359V3.99935ZM19.9948 3.99935H21.6721V5.3296H19.9948V3.99935ZM18.6615 3.99935H16.668V5.3296H18.6615V3.99935Z" />
    <g id="accent">
      <path d="M15.2467 14.5514C15.2534 14.6314 15.4467 15.2647 16.0001 15.2647C16.1576 15.2941 16.3204 15.2658 16.4587 15.185C16.597 15.1042 16.7017 14.9763 16.7534 14.8247C16.7534 14.438 16.7534 14.2914 15.7001 13.718C14.1934 12.8914 13.9534 12.358 13.9534 11.4047C13.9893 11.0242 14.1408 10.6638 14.3875 10.3718C14.6342 10.0799 14.9642 9.87034 15.3334 9.77138V8.71289H16.6667V9.78471C17.0613 9.93686 17.4044 10.1982 17.6559 10.5382C17.9074 10.8783 18.0568 11.2829 18.0867 11.7047H16.7534C16.7467 11.6314 16.5534 10.998 16.0001 10.998C15.8488 10.9787 15.6954 11.0119 15.5656 11.0919C15.4358 11.172 15.3374 11.2942 15.2867 11.438C15.2867 11.8247 15.2867 11.9714 16.3401 12.5447C17.8467 13.3714 18.0867 13.9047 18.0867 14.858C18.047 15.2448 17.8895 15.6101 17.6356 15.9046C17.3817 16.1991 17.0435 16.4085 16.6667 16.5047V17.4823H15.3334V16.458C14.9408 16.3069 14.599 16.0475 14.3477 15.7101C14.0963 15.3726 13.9458 14.9709 13.9134 14.5514H15.2467Z" fill="var(--uk2-icons-tier2-accent-color)" />
      <path fill-rule="evenodd" clip-rule="evenodd" d="M13.028 19.3835C12.6598 19.3835 12.3613 19.6819 12.3613 20.0501V21.3965H11.1042C10.736 21.3965 10.4375 21.695 10.4375 22.0632V24.0768C10.4375 24.445 10.736 24.7435 11.1042 24.7435H12.3613V26.0898C12.3613 26.458 12.6598 26.7565 13.028 26.7565H20.896C21.2642 26.7565 21.5626 26.458 21.5626 26.0898V24.0762C21.5626 23.708 21.2642 23.4095 20.896 23.4095H19.6388V22.7305H20.896C21.2642 22.7305 21.5626 22.432 21.5626 22.0638V20.0501C21.5626 19.6819 21.2642 19.3835 20.896 19.3835H13.028ZM18.9721 21.3965C18.9821 21.3965 18.992 21.3967 19.0018 21.3971H20.2293V20.7168H13.6947V21.3965H18.9721ZM11.7708 22.7298H12.9983C13.0082 22.7302 13.0181 22.7305 13.028 22.7305H18.3055V23.4095H13.028C13.0181 23.4095 13.0082 23.4097 12.9983 23.4102H11.7708V22.7298ZM13.6947 25.4232V24.7435H18.9721C18.9821 24.7435 18.992 24.7433 19.0018 24.7428H20.2293V25.4232H13.6947Z" fill="var(--uk2-icons-tier2-accent-color)" />
    </g>
  </symbol>
  <symbol id="uk2-color-money-stack" viewBox="0 0 32 32" xmlns="http://www.w3.org/2000/svg">
    <g id="primary">
      <path d="M15.1713 11.8551C15.1787 11.9433 15.3918 12.6413 16.0016 12.6413C16.1752 12.6737 16.3546 12.6425 16.5071 12.5535C16.6596 12.4644 16.7749 12.3235 16.8319 12.1564C16.8319 11.7302 16.8319 11.5686 15.671 10.9367C14.0104 10.0256 13.7459 9.43775 13.7459 8.38705C13.7855 7.96766 13.9524 7.57043 14.2243 7.24865C14.4962 6.92688 14.86 6.69596 15.2669 6.58689V5.05859H16.7364V6.60159C17.1713 6.76927 17.5494 7.05734 17.8266 7.43209C18.1037 7.80683 18.2684 8.25276 18.3014 8.71769H16.8319C16.8245 8.63687 16.6115 7.93885 16.0016 7.93885C15.8349 7.91755 15.6659 7.95407 15.5228 8.04232C15.3797 8.13057 15.2712 8.26522 15.2154 8.42379C15.2154 8.84995 15.2154 9.01159 16.3763 9.64349C18.0369 10.5546 18.3014 11.1424 18.3014 12.1931C18.2576 12.6194 18.084 13.022 17.8042 13.3465C17.5243 13.6711 17.1516 13.9019 16.7364 14.0079V15.5216H15.2669V13.9565C14.8341 13.7899 14.4574 13.5041 14.1804 13.1322C13.9034 12.7602 13.7375 12.3175 13.7018 11.8551H15.1713Z" />
      <path fill-rule="evenodd" clip-rule="evenodd" d="M8.89974 15.8815H10.3412C10.8551 16.4017 11.4403 16.8514 12.0808 17.2148H9.39974V18.9935H22.6039V17.2148H19.922C20.5625 16.8514 21.1477 16.4017 21.6616 15.8815H23.1039C23.5642 15.8815 23.9373 16.2546 23.9373 16.7148V28.6662C23.9373 29.2185 23.4896 29.6662 22.9373 29.6662H9.06641C8.51412 29.6662 8.06641 29.2185 8.06641 28.6662V16.7148C8.06641 16.2546 8.4395 15.8815 8.89974 15.8815ZM22.6039 22.1055V20.3277H9.39974V22.1055H22.6039ZM9.39974 23.4397H22.6039V25.2183H9.39974V23.4397ZM9.39974 28.3329V26.5534H22.6039V28.3329H9.39974Z" />
    </g>
    <path id="accent" fill-rule="evenodd" clip-rule="evenodd" d="M15.9994 16.9136C19.6573 16.9136 22.6226 13.9483 22.6226 10.2905C22.6226 6.6326 19.6573 3.66732 15.9994 3.66732C12.3416 3.66732 9.3763 6.6326 9.3763 10.2905C9.3763 13.9483 12.3416 16.9136 15.9994 16.9136ZM15.9994 18.2469C20.3937 18.2469 23.9559 14.6847 23.9559 10.2905C23.9559 5.89622 20.3937 2.33398 15.9994 2.33398C11.6052 2.33398 8.04297 5.89622 8.04297 10.2905C8.04297 14.6847 11.6052 18.2469 15.9994 18.2469Z" fill="var(--uk2-icons-tier2-accent-color)" />
  </symbol>
  <symbol id="uk2-color-nest-egg" viewBox="0 0 32 32" xmlns="http://www.w3.org/2000/svg">
    <g id="accent">
      <path d="M15.1235 15.8013C15.1313 15.8945 15.3564 16.6321 16.0009 16.6321C16.1843 16.6664 16.3739 16.6334 16.5351 16.5393C16.6962 16.4452 16.818 16.2962 16.8783 16.1196C16.8783 15.6693 16.8783 15.4985 15.6515 14.8307C13.8967 13.8679 13.6172 13.2468 13.6172 12.1365C13.659 11.6933 13.8355 11.2735 14.1228 10.9335C14.41 10.5934 14.7945 10.3494 15.2244 10.2342V8.61914H16.7773V10.2497C17.2369 10.4269 17.6365 10.7313 17.9294 11.1273C18.2223 11.5233 18.3963 11.9945 18.4312 12.4859H16.8783C16.8705 12.4005 16.6454 11.6628 16.0009 11.6628C15.8247 11.6403 15.6461 11.6789 15.4949 11.7722C15.3437 11.8654 15.2291 12.0077 15.1701 12.1753C15.1701 12.6256 15.1701 12.7964 16.3969 13.4642C18.1517 14.427 18.4312 15.0481 18.4312 16.1585C18.3849 16.609 18.2015 17.0344 17.9057 17.3774C17.61 17.7203 17.2161 17.9643 16.7773 18.0763V19.6758H15.2244V18.0219C14.7671 17.8459 14.3691 17.5438 14.0764 17.1508C13.7837 16.7578 13.6083 16.2899 13.5706 15.8013H15.1235Z" fill="var(--uk2-icons-tier2-accent-color)" />
      <path d="M3.68099 21.3659C3.65091 21.3149 3.62134 21.2647 3.59216 21.2155L2.44531 21.8956C2.47577 21.9469 2.50715 22.0003 2.5396 22.0555L2.54067 22.0573C3.05724 22.9357 3.84468 24.2746 5.49427 25.392C7.24945 26.5809 9.90926 27.4774 14.1331 27.4774V26.1441C10.0975 26.1441 7.71947 25.2889 6.24203 24.2881C4.84628 23.3426 4.19047 22.2302 3.68099 21.3659Z" fill="var(--uk2-icons-tier2-accent-color)" />
      <path d="M21.1283 26.7113C22.9135 25.6872 23.7898 24.4725 24.2078 23.6908L25.3836 24.3194C24.8651 25.2893 23.8236 26.7022 21.7918 27.8678C19.763 29.0317 16.7853 29.9269 12.4267 29.9269V28.5936C16.6015 28.5936 19.3401 27.7371 21.1283 26.7113Z" fill="var(--uk2-icons-tier2-accent-color)" />
    </g>
    <path id="primary" fill-rule="evenodd" clip-rule="evenodd" d="M9.14179 6.53346C7.48341 9.25008 6.46423 12.8767 6.43864 16.6375C5.65073 16.8351 4.7756 17.0938 4.04154 17.509C3.04004 18.0754 2.21875 18.984 2.21875 20.4439C2.21875 21.974 2.5769 24.4258 4.54727 26.4934C6.52308 28.5667 10.0059 30.1348 16.0001 30.1348C21.9943 30.1348 25.4769 28.5667 27.4525 26.4934C29.4226 24.4257 29.7805 21.974 29.7805 20.4439C29.7805 18.9836 28.958 18.0751 27.9559 17.5089C27.2225 17.0945 26.3485 16.8359 25.5614 16.6385C25.536 12.8773 24.5165 9.25027 22.8577 6.53341C21.1889 3.80006 18.7857 1.86523 15.9995 1.86523C13.2133 1.86523 10.8104 3.80009 9.14179 6.53346ZM10.2798 7.22818C8.73974 9.75103 7.77148 13.1913 7.77148 16.7825C7.77148 18.9647 8.63836 21.0575 10.1814 22.6006L10.1645 22.6175C11.351 23.2952 13.0637 23.8568 15.9995 23.8568C18.9355 23.8568 20.6482 23.2951 21.8348 22.6174L21.8183 22.6009C22.5825 21.8369 23.1886 20.9298 23.6022 19.9315C24.0157 18.9331 24.2286 17.8631 24.2286 16.7825C24.2286 13.1913 23.2601 9.75108 21.7197 7.22822C20.1683 4.6872 18.1236 3.19857 15.9995 3.19857C13.8755 3.19857 11.831 4.68717 10.2798 7.22818ZM24.8537 20.3937C25.4767 20.0288 26.2024 19.7728 27.1423 19.7728V21.1061C25.9613 21.1061 25.3815 21.5862 24.4727 22.3389C24.2249 22.544 23.9528 22.7694 23.6373 23.0109C22.185 24.1224 20.1544 25.1901 15.9995 25.1901C11.8447 25.1901 9.81401 24.1224 8.36174 23.0109C8.04628 22.7694 7.77411 22.544 7.5264 22.3389C6.61753 21.5862 6.03779 21.1061 4.85677 21.1061V19.7728C5.7973 19.7728 6.52344 20.0292 7.14667 20.3945C6.83424 19.6288 6.62107 18.8224 6.51531 17.995C5.85311 18.1695 5.22006 18.3743 4.69794 18.6696C3.97587 19.078 3.55208 19.6054 3.55208 20.4439C3.55208 21.787 3.86744 23.8473 5.5125 25.5735C7.15212 27.2941 10.2266 28.8015 16.0001 28.8015C21.7736 28.8015 24.8478 27.2941 26.4872 25.5736C28.132 23.8474 28.4472 21.7871 28.4472 20.4439C28.4472 19.6057 28.023 19.0783 27.3 18.6697C26.7782 18.3749 26.1459 18.1702 25.4846 17.996C25.3795 18.8176 25.1678 19.6237 24.8537 20.3937Z" />
  </symbol>
  <symbol id="uk2-color-options" viewBox="0 0 32 32" xmlns="http://www.w3.org/2000/svg">
    <g id="accent">
      <path d="M3.92188 7.3457L25.8658 7.34571V8.67904L3.92188 8.67904V7.3457Z" fill="var(--uk2-icons-tier2-accent-color)" />
      <path d="M21.5135 24.8672C21.5135 25.1172 21.5538 25.3392 21.635 25.5339C21.6949 25.6775 21.777 25.8062 21.8818 25.9203C22.088 26.1412 22.3715 26.2849 22.7287 26.3548L22.7287 27.1133L23.7523 27.1282L23.7524 26.3476C23.988 26.2813 24.1942 26.1709 24.3525 26.0126C24.5808 25.7843 24.6949 25.4934 24.6948 25.1326C24.6948 24.919 24.6617 24.7386 24.588 24.584C24.518 24.433 24.4149 24.3004 24.2934 24.1863C24.1719 24.0721 24.0172 23.969 23.8442 23.8843C23.6711 23.7922 23.487 23.7112 23.2919 23.6265C23.0967 23.5418 22.9531 23.4571 22.8684 23.3651C22.78 23.2767 22.7358 23.1515 22.7358 22.9968C22.7358 22.8422 22.7726 22.7244 22.8536 22.636C22.9212 22.5619 23.0114 22.516 23.1266 22.5057C23.1431 22.5042 23.16 22.5035 23.1775 22.5035C23.3322 22.5035 23.45 22.5624 23.5384 22.6803C23.6032 22.7745 23.6444 22.9016 23.6602 23.0599C23.6642 23.0995 23.6666 23.1412 23.6673 23.1847L24.7351 23.1848C24.7351 22.7871 24.6246 22.4557 24.4074 22.1943C24.2417 21.9991 24.0318 21.8629 23.7704 21.7782L23.7703 21.0418L22.7246 21.0417L22.7246 21.7486C22.4484 21.8112 22.2165 21.9327 22.0361 22.1057C21.7968 22.3377 21.6753 22.6285 21.6753 22.982C21.6753 23.1956 21.7085 23.376 21.7748 23.5233C21.8411 23.6706 21.9368 23.8031 22.0657 23.9173C22.1871 24.0248 22.328 24.1192 22.4886 24.2006L22.5019 24.2073L22.5186 24.2156L22.5368 24.2244C22.5433 24.2276 22.5498 24.2308 22.5563 24.2339L22.5739 24.2425C22.7322 24.3188 22.9049 24.3972 23.0893 24.4697C23.1442 24.4912 23.1946 24.5135 23.2405 24.5365C23.3675 24.5999 23.4607 24.6682 23.5202 24.7385C23.6012 24.8342 23.6417 24.9631 23.6454 25.1288C23.6454 25.2761 23.6049 25.3976 23.5239 25.4786C23.4498 25.5527 23.356 25.5958 23.2375 25.6029C23.2206 25.6039 23.2032 25.6042 23.1853 25.6038C23.1602 25.6038 23.1359 25.6028 23.1124 25.6008C22.9492 25.587 22.8225 25.5254 22.7324 25.4159C22.6292 25.2907 22.574 25.1103 22.574 24.8673L21.5135 24.8672Z" fill="var(--uk2-icons-tier2-accent-color)" />
      <path d="M11.2038 16.2729L8.11457 19.3621L6.02531 17.2729L6.96812 16.3301L8.11457 17.4765L10.261 15.3301L11.2038 16.2729Z" fill="var(--uk2-icons-tier2-accent-color)" />
    </g>
    <g id="primary">
      <path d="M7.42839 5.99027V4.65755H6.83594C5.36318 4.65755 4.16927 5.85146 4.16927 7.32422V23.3242C4.16927 24.797 5.36318 25.9909 6.83594 25.9909H15.9473V27.3242H6.83594C4.6268 27.3242 2.83594 25.5334 2.83594 23.3242V7.32422C2.83594 5.11508 4.6268 3.32422 6.83594 3.32422H7.42839V1.99219H8.76172V3.32422H11.8743V1.99219H13.2077V3.32422H16.3203V1.99219H17.6536V3.32422H20.7663V1.99219H22.0996V3.32422H22.8359C25.0451 3.32422 26.8359 5.11508 26.8359 7.32422V16.6663H25.5026V7.32422C25.5026 5.85146 24.3087 4.65755 22.8359 4.65755H22.0996V5.99027H20.7663V4.65755H17.6536V5.99027H16.3203V4.65755H13.2077V5.99027H11.8743V4.65755H8.76172V5.99027H7.42839Z" />
      <path fill-rule="evenodd" clip-rule="evenodd" d="M6.61393 10.0104V14.0104H10.6139V10.0104H6.61393ZM9.2806 11.3438H7.94727V12.6771H9.2806V11.3438Z" />
      <path fill-rule="evenodd" clip-rule="evenodd" d="M6.61393 24.6719V20.6719H10.6139V24.6719H6.61393ZM7.94727 22.0052H9.2806V23.3385H7.94727V22.0052Z" />
      <path fill-rule="evenodd" clip-rule="evenodd" d="M12.9466 10.0104V14.0104H16.9466V10.0104H12.9466ZM15.6133 11.3438H14.2799V12.6771H15.6133V11.3438Z" />
      <path fill-rule="evenodd" clip-rule="evenodd" d="M12.9466 19.3411V15.3411H16.9466V19.3411H12.9466ZM14.2799 16.6745H15.6133V18.0078H14.2799V16.6745Z" />
      <path d="M15.9447 22.0052L14.2799 22.0053V23.3386L15.9447 23.3385V24.6719L12.9466 24.6719V20.6719L15.9447 20.6719V22.0052Z" />
      <path fill-rule="evenodd" clip-rule="evenodd" d="M19.2793 14.0104V10.0104H23.2793V14.0104H19.2793ZM20.6126 11.3438H21.946V12.6771H20.6126V11.3438Z" />
      <path d="M20.6126 16.6745V17.3469H19.2793V15.3411H23.2793V16.6745H20.6126Z" />
      <path fill-rule="evenodd" clip-rule="evenodd" d="M23.1634 18.0104C19.8497 18.0104 17.1634 20.6967 17.1634 24.0104C17.1634 27.3241 19.8497 30.0104 23.1634 30.0104C26.4771 30.0104 29.1634 27.3241 29.1634 24.0104C29.1634 20.6967 26.4771 18.0104 23.1634 18.0104ZM18.4967 24.0104C18.4967 21.4331 20.5861 19.3438 23.1634 19.3438C25.7407 19.3438 27.8301 21.4331 27.8301 24.0104C27.8301 26.5877 25.7407 28.6771 23.1634 28.6771C20.5861 28.6771 18.4967 26.5877 18.4967 24.0104Z" />
    </g>
  </symbol>
  <symbol id="uk2-color-pie-chart" viewBox="0 0 32 32" xmlns="http://www.w3.org/2000/svg">
    <path id="primary" fill-rule="evenodd" clip-rule="evenodd" d="M13.3346 18.6673V6.75097C11.6975 6.95724 10.124 7.54147 8.74189 8.46498C6.98777 9.63704 5.62059 11.3029 4.81326 13.252C4.00592 15.2011 3.79469 17.3458 4.20626 19.4149C4.61784 21.4841 5.63374 23.3847 7.1255 24.8765C8.61726 26.3682 10.5179 27.3841 12.587 27.7957C14.6561 28.2073 16.8009 27.996 18.7499 27.1887C20.699 26.3814 22.3649 25.0142 23.537 23.2601C24.4605 21.8779 25.0447 20.3045 25.251 18.6673L13.3346 18.6673ZM26.668 17.334C26.668 17.781 26.643 18.2261 26.5937 18.6673C26.3811 20.569 25.7159 22.3991 24.6456 24.0008C23.327 25.9742 21.4529 27.5123 19.2602 28.4205C17.0675 29.3288 14.6547 29.5664 12.3269 29.1034C9.99912 28.6404 7.86092 27.4975 6.18269 25.8193C4.50446 24.141 3.36157 22.0028 2.89855 19.6751C2.43553 17.3473 2.67317 14.9345 3.58142 12.7418C4.48967 10.5491 6.02774 8.67493 8.00113 7.35635C9.60286 6.28611 11.433 5.62089 13.3346 5.40828C13.7759 5.35895 14.221 5.33398 14.668 5.33398V17.334L26.668 17.334Z" />
    <path id="accent" fill-rule="evenodd" clip-rule="evenodd" d="M27.915 13.3327C27.7963 12.3901 27.5519 11.4655 27.1867 10.5841C26.6507 9.28992 25.865 8.11403 24.8745 7.12354C23.884 6.13305 22.7081 5.34735 21.414 4.8113C20.5325 4.44619 19.608 4.20177 18.6654 4.08301L18.6654 13.3327H27.915ZM29.2577 13.3327C29.3071 13.7745 29.332 14.2197 29.332 14.666H17.332V2.66602C17.7784 2.66602 18.2235 2.69092 18.6654 2.74032C19.7835 2.86533 20.8807 3.14722 21.9242 3.57946C23.3801 4.18252 24.703 5.06643 25.8173 6.18073C26.9316 7.29504 27.8155 8.61791 28.4186 10.0738C28.8508 11.1173 29.1327 12.2146 29.2577 13.3327Z" fill="var(--uk2-icons-tier2-accent-color)" />
  </symbol>
  <symbol id="uk2-color-piggy" viewBox="0 0 32 32" xmlns="http://www.w3.org/2000/svg">
    <path id="primary" fill-rule="evenodd" clip-rule="evenodd" d="M19.3346 4.44444V8H20.668C23.3457 8 25.6159 9.96896 25.9946 12.6198L26.0013 12.6667H28.0013C28.7377 12.6667 29.3346 13.2636 29.3346 14V16.6667C29.3346 18 28.701 19.6337 27.0013 21.3333C26.0013 22.3333 26.0013 23.6667 26.0013 24.6667V28H20.0013L18.668 25.3333H13.668L11.668 28H8.66797C7.19521 28 6.0013 26.8061 6.0013 25.3333V23.1495C3.96334 21.4374 2.66797 18.87 2.66797 16C2.66797 10.8453 6.84664 6.66667 12.0013 6.66667H14.0481C14.9703 5.07253 16.6939 4 18.668 4H18.8902C19.1357 4 19.3346 4.19898 19.3346 4.44444ZM18.0013 5.38864C16.1095 5.70602 14.668 7.35134 14.668 9.33333V10.6667H13.3346V9.33333C13.3346 8.87293 13.393 8.42616 13.5027 8H12.0013C7.58302 8 4.0013 11.5817 4.0013 16C4.0013 18.4596 5.10964 20.659 6.85895 22.1286L7.33464 22.5282V25.3333C7.33464 26.0697 7.93159 26.6667 8.66797 26.6667H11.0013L13.0013 24H19.492L20.8253 26.6667H24.668V24.6667L24.6679 24.574C24.6662 23.615 24.6631 21.7859 26.0585 20.3905C27.5763 18.8727 28.0013 17.5604 28.0013 16.6667V14H24.8449L24.6747 12.8083C24.3898 10.8144 22.6821 9.33333 20.668 9.33333H18.0013V5.38864Z" />
    <g id="accent">
      <path d="M5.33203 16.0007C5.33203 12.3188 8.3168 9.33398 11.9987 9.33398V10.6673C9.05318 10.6673 6.66536 13.0551 6.66536 16.0007H5.33203Z" fill="var(--uk2-icons-tier2-accent-color)" />
      <path d="M21.332 16.6673C22.0684 16.6673 22.6654 16.0704 22.6654 15.334C22.6654 14.5976 22.0684 14.0007 21.332 14.0007C20.5956 14.0007 19.9987 14.5976 19.9987 15.334C19.9987 16.0704 20.5956 16.6673 21.332 16.6673Z" fill="var(--uk2-icons-tier2-accent-color)" />
    </g>
  </symbol>
  <symbol id="uk2-color-present" viewBox="0 0 32 32" xmlns="http://www.w3.org/2000/svg">
    <g id="color-present">
      <path id="primary" fill-rule="evenodd" clip-rule="evenodd" d="M5.33333 8.09375C4.59695 8.09375 4 8.6907 4 9.42708V14.7604C4 15.4968 4.59695 16.0938 5.33333 16.0938H6V26.7604C6 27.4968 6.59695 28.0938 7.33333 28.0938H24.6667C25.403 28.0938 26 27.4968 26 26.7604V16.0938H26.6667C27.403 16.0938 28 15.4968 28 14.7604V9.42708C28 8.6907 27.403 8.09375 26.6667 8.09375H5.33333ZM26.6667 14.7604V9.42708H5.33333V14.7604H26.6667ZM24.6667 26.7604V16.0938H7.33333V26.7604H24.6667Z" />
      <g id="accent">
        <path fill-rule="evenodd" clip-rule="evenodd" d="M10.8525 4.38501C9.08391 3.16058 6.66797 4.42643 6.66797 6.57752V8.09375H25.3346V6.57752C25.3346 4.42643 22.9187 3.16058 21.1501 4.38501L16.0013 7.94955L10.8525 4.38501ZM8.0013 6.57752C8.0013 5.50197 9.20927 4.86905 10.0936 5.48127L13.8671 8.09372H8.0013V6.57752ZM24.0013 6.57752C24.0013 5.50197 22.7933 4.86905 21.909 5.48127L18.1355 8.09372H24.0013V6.57752Z" fill="var(--uk2-icons-tier2-accent-color)" />
        <path d="M13.3346 14.7604V9.42708H14.668V14.7604H13.3346Z" fill="var(--uk2-icons-tier2-accent-color)" />
        <path d="M17.3346 14.7604H18.668V9.42708H17.3346V14.7604Z" fill="var(--uk2-icons-tier2-accent-color)" />
        <path d="M13.3346 16.0937V26.7604H14.668V16.0937H13.3346Z" fill="var(--uk2-icons-tier2-accent-color)" />
        <path d="M17.3346 16.0937V26.7604H18.668V16.0937H17.3346Z" fill="var(--uk2-icons-tier2-accent-color)" />
      </g>
    </g>
  </symbol>
  <symbol id="uk2-color-scroll" viewBox="0 0 32 32" xmlns="http://www.w3.org/2000/svg">
    <path id="primary" fill-rule="evenodd" clip-rule="evenodd" d="M25.332 2C27.2095 2 28.6654 3.60244 28.6654 5.49524V8.36191H23.332V27.0833C23.332 28.7168 21.9658 30 20.332 30C20.2195 30 20.1083 29.9939 19.9987 29.9821V30L6.66536 30C6.14617 30 5.3621 29.8872 4.68193 29.5199C3.97288 29.1371 3.33203 28.4416 3.33203 27.3333V23.3333H5.9987V5.33333C5.9987 3.49238 7.49108 2 9.33203 2H25.332ZM25.332 3.33333C24.2639 3.33333 23.332 4.26368 23.332 5.49524V7.02857H27.332V5.49524C27.332 4.26368 26.4001 3.33333 25.332 3.33333ZM22.7132 3.33333C22.2636 3.93324 21.9987 4.68782 21.9987 5.49524V27.0833C21.9987 27.9351 21.2756 28.6667 20.332 28.6667C19.3885 28.6667 18.6654 27.9351 18.6654 27.0833V23.3333H7.33203V5.33333C7.33203 4.22876 8.22746 3.33333 9.33203 3.33333H22.7132ZM17.8112 28.6667C17.5088 28.2132 17.332 27.6709 17.332 27.0833V24.6667H4.66537L4.66536 27.3333C4.66536 27.8251 4.9134 28.1296 5.31546 28.3467C5.74641 28.5794 6.29567 28.6667 6.66536 28.6667L17.8112 28.6667Z" />
    <g id="accent">
      <path d="M9.33203 8.66732H19.9987V7.33398H9.33203V8.66732Z" fill="var(--uk2-icons-tier2-accent-color)" />
      <path d="M9.33203 12.6673H19.9987V11.334H9.33203V12.6673Z" fill="var(--uk2-icons-tier2-accent-color)" />
      <path d="M19.9987 16.6673H9.33203V15.334H19.9987V16.6673Z" fill="var(--uk2-icons-tier2-accent-color)" />
      <path d="M9.33203 20.6673H19.9987V19.334H9.33203V20.6673Z" fill="var(--uk2-icons-tier2-accent-color)" />
    </g>
  </symbol>
  <symbol id="uk2-color-skeleton-tier-2" viewBox="0 0 32 32" xmlns="http://www.w3.org/2000/svg">
    <rect id="primary" width="32" height="32" rx="8" fill="#D4D4D4" />
  </symbol>
  <symbol id="uk2-color-small-business-loan" viewBox="0 0 32 32" xmlns="http://www.w3.org/2000/svg">
    <path id="accent" fill-rule="evenodd" clip-rule="evenodd" d="M22.5098 15.6478H20.6185V20.8369H22.5098V15.6478ZM19.2852 14.3145V22.1702H23.8431V14.3145H19.2852Z" fill="var(--uk2-icons-tier2-accent-color)" />
    <g id="primary">
      <path d="M18.0144 7.35942L18.0143 6.83433C18.1728 6.78976 18.3115 6.71547 18.418 6.60897C18.5716 6.45542 18.6484 6.25976 18.6483 6.01703C18.6483 5.87337 18.626 5.75201 18.5765 5.64797C18.5294 5.54642 18.46 5.45725 18.3783 5.38046C18.2966 5.30367 18.1925 5.2343 18.0761 5.17733C17.9597 5.1154 17.8358 5.06089 17.7046 5.00391C17.5733 4.94694 17.4767 4.88996 17.4197 4.82803C17.3603 4.76858 17.3305 4.68437 17.3305 4.58034C17.3305 4.47631 17.3553 4.39706 17.4098 4.33762C17.4618 4.28066 17.5336 4.24846 17.6277 4.24847C17.7317 4.24848 17.811 4.28812 17.8705 4.36738C17.925 4.44665 17.9547 4.56058 17.9572 4.70672L18.6755 4.70678C18.6754 4.43928 18.6011 4.21636 18.455 4.04049C18.3435 3.90921 18.2023 3.81755 18.0264 3.76057L18.0264 3.2652L17.323 3.26514L17.323 3.74069C17.1373 3.78278 16.9812 3.8645 16.8599 3.9809C16.6989 4.13693 16.6172 4.33259 16.6172 4.57037C16.6172 4.71403 16.6395 4.83539 16.6841 4.93447C16.7287 5.03355 16.7931 5.12272 16.8798 5.19951C16.9665 5.2763 17.068 5.34318 17.1845 5.40016C17.3009 5.45714 17.4297 5.5166 17.5684 5.5711C17.7071 5.6256 17.8037 5.68753 17.8582 5.75194C17.9127 5.81634 17.9399 5.90303 17.9424 6.01449C17.9424 6.11356 17.9152 6.1953 17.8607 6.24978C17.8038 6.30674 17.7295 6.33646 17.6329 6.33397C17.4991 6.33396 17.3976 6.29185 17.3282 6.20763C17.2588 6.12341 17.2217 6.00204 17.2217 5.83857L16.5083 5.83851C16.5084 6.13077 16.5901 6.36608 16.7561 6.5469C16.8948 6.69553 17.0855 6.79214 17.3258 6.83922L17.3258 7.34945L18.0144 7.35942Z" />
      <path fill-rule="evenodd" clip-rule="evenodd" d="M19.7408 8.73968C20.8797 8.02415 21.6368 6.75662 21.6368 5.31228C21.6368 3.07845 19.8259 1.26758 17.5921 1.26758C15.5191 1.26758 13.8104 2.82706 13.575 4.83683H8.85064L8.84019 8.09871C8.70458 8.58399 8.53044 9.24249 8.42032 9.88679C8.35661 10.2596 8.3109 10.6464 8.31041 11.0043C8.30996 11.3392 8.34805 11.7187 8.50358 12.0444C8.57799 12.2191 8.69965 12.3983 8.85989 12.5656V17.4422C8.69448 17.3985 8.52859 17.3599 8.36194 17.3258C6.89443 17.0262 5.03326 17.0947 3.38747 17.1765L2.75391 17.208V25.7976L12.1787 30.3478C12.8443 30.6884 14.664 31.3097 16.6629 30.3542L28.7586 25.8391L28.7924 25.8204C29.3437 25.5162 29.7342 25.0987 29.929 24.5751C30.119 24.0646 30.1759 23.6113 30.0463 23.1117C29.8867 22.4424 28.9837 20.7146 26.3426 20.9166V12.4905C26.4692 12.3453 26.5669 12.1932 26.6303 12.0444C26.7858 11.7187 26.8239 11.3392 26.8234 11.0043C26.8229 10.6464 26.7772 10.2596 26.7135 9.88679C26.6151 9.31075 26.4654 8.72337 26.3379 8.25858V4.83683H21.6113C21.6295 4.99278 21.6389 5.15143 21.6389 5.31228C21.6389 5.60664 21.6075 5.89366 21.5478 6.17017H25.0046V7.12097H21.213C20.9538 7.63857 20.5868 8.09282 20.1414 8.4543H21.5507C21.7992 8.95773 21.992 9.58918 22.0947 10.1988C22.1559 10.5622 22.1818 10.8987 22.1735 11.1759C22.1648 11.4682 22.1195 11.6345 22.0867 11.7002L22.0742 11.7251L22.0639 11.751C22.0631 11.7528 22.0542 11.7719 22.0299 11.8038C22.0047 11.8368 21.9683 11.8764 21.9196 11.9175C21.8223 11.9996 21.687 12.0782 21.517 12.1231C21.2117 12.2039 20.7044 12.1973 19.9999 11.7192C20.1368 11.1028 20.086 10.4398 19.9916 9.86823C19.9268 9.47604 19.8339 9.08815 19.7408 8.73968ZM20.3035 5.31228C20.3035 6.80972 19.0895 8.02364 17.5921 8.02364C16.0946 8.02364 14.8807 6.80972 14.8807 5.31228C14.8807 3.81483 16.0946 2.60091 17.5921 2.60091C19.0895 2.60091 20.3035 3.81483 20.3035 5.31228ZM18.4975 9.25524C18.2064 9.32181 17.9034 9.35697 17.5921 9.35697C17.2347 9.35697 16.8882 9.31063 16.5582 9.22363C16.4429 9.62522 16.3625 10.0201 16.3265 10.3784C16.2948 10.6931 16.2995 10.9593 16.334 11.167C16.3693 11.3791 16.4284 11.4869 16.4684 11.5337L16.4725 11.5385L16.4766 11.5434C16.9708 12.1445 17.42 12.2103 17.7541 12.1514C18.1168 12.0874 18.4483 11.8541 18.6375 11.636C18.7791 11.2651 18.7824 10.7289 18.6761 10.0855C18.6294 9.80271 18.5661 9.52297 18.4975 9.25524ZM10.1932 17.9135C10.528 18.0633 11.1233 18.3425 11.463 18.5462L11.474 14.3088H18.2397V20.0809H13.299C13.5544 20.3329 13.7372 20.4983 13.9019 20.615C14.0932 20.7507 14.2525 20.8149 14.4964 20.8469H25.0092V13.2761C24.3688 13.4251 23.6174 13.3472 22.8197 12.9018C22.567 13.1253 22.2392 13.3114 21.8578 13.4122C21.1273 13.6053 20.2439 13.482 19.2922 12.85C18.9478 13.1318 18.499 13.3739 17.9857 13.4645C17.2897 13.5873 16.5446 13.4184 15.8711 12.8303C14.9082 13.4794 14.014 13.6073 13.2761 13.4122C12.8947 13.3114 12.5668 13.1253 12.3141 12.9018C11.5447 13.3314 10.8184 13.4191 10.1932 13.2911V17.9135ZM11.2036 20.0809V20.0378C10.1024 19.2463 9.10393 18.8382 8.09519 18.6322C6.98512 18.4055 5.47072 18.4164 4.08724 18.478V24.9661L12.7768 29.1561L12.7827 29.1591C13.2371 29.393 14.5017 29.8775 16.1022 29.1443L16.1206 29.1355L28.1795 24.6354C28.5407 24.4949 28.6472 24.2873 28.7089 24.1213C28.7765 23.9396 28.8396 23.7669 28.7543 23.441L28.7518 23.4316L28.7496 23.422C28.7179 23.2845 28.3612 21.9597 25.8599 22.1802H21.1947C21.2915 22.4323 21.3406 22.6744 21.357 22.8589L21.3601 22.8942L21.3595 22.9296C21.3458 23.7116 20.9848 24.2789 20.5527 24.6493C20.1381 25.0046 19.6537 25.1861 19.3101 25.2491L19.2505 25.2601H13.6722V23.9267H19.1204C19.2727 23.8894 19.4982 23.797 19.685 23.6369C19.8691 23.4792 20.0096 23.2645 20.0251 22.9438C20.0103 22.834 19.9652 22.6588 19.877 22.5012C19.7823 22.3319 19.6721 22.239 19.5488 22.2038L19.4622 22.1802H14.4176L14.3797 22.1759C13.9017 22.1209 13.5217 21.9799 13.1307 21.7027C12.7822 21.4557 12.4253 21.0985 11.9838 20.6492C11.7381 20.4411 11.4983 20.2522 11.2631 20.0809H11.2036ZM10.1797 6.17017H13.6385C13.7107 6.50433 13.8242 6.82314 13.9733 7.12097H10.1767L10.1797 6.17017ZM9.73459 10.1114C9.83352 9.53262 9.9931 8.92733 10.1253 8.4543H12.1328C11.9456 8.95117 11.8082 9.47955 11.7244 9.97731C11.6521 10.4065 11.6162 10.8324 11.6276 11.2157C11.6327 11.3853 11.6473 11.5601 11.6772 11.7305C11.093 12.0614 10.6452 12.0461 10.3462 11.956C10.1593 11.8996 10.0061 11.8069 9.89435 11.7108C9.83866 11.6629 9.79677 11.6172 9.76795 11.5796C9.74253 11.5464 9.73258 11.5266 9.73092 11.5233L9.72052 11.4974L9.70806 11.4725C9.68087 11.418 9.64338 11.2756 9.64374 11.0061C9.64409 10.7513 9.67755 10.4452 9.73459 10.1114ZM13.0392 10.1988C13.1419 9.58918 13.3346 8.95773 13.5832 8.4543H15.0449C15.1375 8.5295 15.2335 8.60068 15.3327 8.66758C15.1685 9.19882 15.0507 9.7397 14.9998 10.2449C14.9604 10.6371 14.9592 11.028 15.0188 11.3859C15.0384 11.5037 15.0654 11.623 15.1021 11.7406C14.4141 12.1975 13.9176 12.2026 13.6168 12.1231C13.4468 12.0782 13.3115 11.9996 13.2142 11.9175C13.1656 11.8764 13.1291 11.8368 13.1039 11.8038C13.0796 11.7719 13.0708 11.7529 13.07 11.7511L13.0596 11.7251L13.0471 11.7002C13.0143 11.6345 12.9691 11.4682 12.9603 11.1759C12.9521 10.8987 12.9779 10.5622 13.0392 10.1988ZM23.001 8.4543H25.0086C25.1407 8.92733 25.3003 9.53262 25.3992 10.1114C25.4563 10.4452 25.4897 10.7513 25.4901 11.0061C25.4905 11.2756 25.453 11.418 25.4258 11.4725L25.4133 11.4974L25.4031 11.5229C25.4015 11.5262 25.3913 11.5464 25.3659 11.5796C25.3371 11.6172 25.2952 11.6629 25.2395 11.7108C25.1277 11.8069 24.9745 11.8996 24.7877 11.956C24.4887 12.0461 24.0409 12.0614 23.4566 11.7305C23.4865 11.5601 23.5012 11.3853 23.5062 11.2157C23.5177 10.8324 23.4818 10.4065 23.4095 9.97731C23.3256 9.47955 23.1882 8.95117 23.001 8.4543ZM16.9064 15.6421H12.8074V18.7475H16.9064V15.6421Z" />
    </g>
  </symbol>
  <symbol id="uk2-color-small-business" viewBox="0 0 32 32" xmlns="http://www.w3.org/2000/svg">
    <path id="accemt" fill-rule="evenodd" clip-rule="evenodd" d="M21.3468 20.3274H19.2304V26.4282H21.3468V20.3274ZM17.7383 18.8086V27.6081H22.8389V18.8086H17.7383Z" fill="var(--uk2-icons-tier2-accent-color)" />
    <path id="primary" fill-rule="evenodd" clip-rule="evenodd" d="M16.0258 12.0073C17.7781 12.0073 19.1987 10.5867 19.1987 8.83438C19.1987 7.08202 17.7781 5.66146 16.0258 5.66146C14.2734 5.66146 12.8529 7.08202 12.8529 8.83438C12.8529 10.5867 14.2734 12.0073 16.0258 12.0073ZM16.0258 13.3406C16.3989 13.3406 16.7614 13.2953 17.1081 13.2098C17.1848 13.5094 17.2557 13.823 17.3081 14.1399C17.4281 14.8666 17.4263 15.4857 17.2562 15.9194C17.0374 16.1763 16.6488 16.4531 16.219 16.5289C15.8176 16.5997 15.2903 16.514 14.7237 15.8249L14.7197 15.82L14.7155 15.8151C14.6589 15.7489 14.5893 15.6141 14.5486 15.3697C14.5087 15.1298 14.5038 14.826 14.5396 14.471C14.5802 14.0671 14.6706 13.623 14.8 13.1719C15.1898 13.2818 15.6009 13.3406 16.0258 13.3406ZM18.6236 13.9226C18.5532 13.4968 18.4529 13.0755 18.3516 12.6948C18.5649 12.566 18.7666 12.4201 18.9549 12.2589H20.485C20.7764 12.835 21.0009 13.5644 21.1191 14.2659C21.1879 14.6745 21.2173 15.0545 21.2079 15.3694C21.1981 15.6994 21.1471 15.8976 21.1032 15.9853L21.0908 16.0102L21.0805 16.0361C21.0512 16.1092 20.8436 16.384 20.4199 16.496C20.0481 16.5943 19.4454 16.5776 18.6224 16.0044C18.7854 15.3192 18.7309 14.5723 18.6236 13.9226ZM24.3607 10.9256H20.0185C20.2156 10.5499 20.3613 10.1429 20.4462 9.71411H24.3607V10.9256ZM16.0258 4.32812C18.3614 4.32812 20.282 6.10505 20.5095 8.38078H25.0274H25.6941V9.04744V11.5922V12.1246C25.8366 12.6433 26.0043 13.3002 26.1143 13.9438C26.1849 14.3568 26.2351 14.7832 26.2357 15.1761C26.2362 15.5457 26.1937 15.9555 26.0272 16.3034C25.9567 16.4695 25.8452 16.6406 25.6992 16.8038V27.0062V27.6728H25.0325H7.16479H6.49813V27.0062V17.0026C6.25216 16.7841 6.07004 16.5386 5.97022 16.3034C5.80365 15.9555 5.76122 15.5457 5.76172 15.1761C5.76226 14.7832 5.81248 14.3568 5.88308 13.9438C6.00582 13.2257 6.20047 12.4909 6.35171 11.9501L6.35287 11.5901L6.36102 9.04531L6.36315 8.38078H7.02768H11.5421C11.7695 6.10505 13.6902 4.32812 16.0258 4.32812ZM7.69222 9.71411H11.6054C11.6902 10.1429 11.8359 10.5499 12.0331 10.9256H7.68834L7.69222 9.71411ZM11.5124 12.2589H13.0967C13.2476 12.3881 13.4071 12.5075 13.5743 12.6161C13.396 13.1969 13.2683 13.7869 13.2129 14.3375C13.1694 14.7701 13.1684 15.1984 13.2334 15.5886C13.2578 15.7354 13.2927 15.8834 13.3413 16.0276C12.5356 16.578 11.9442 16.593 11.5775 16.496C11.1538 16.384 10.9461 16.1092 10.9169 16.0361L10.9066 16.0102L10.8941 15.9853C10.8503 15.8976 10.7993 15.6994 10.7895 15.3694C10.7801 15.0545 10.8095 14.6745 10.8783 14.2659C10.9965 13.5644 11.221 12.835 11.5124 12.2589ZM24.3475 12.2589H21.9431C22.1698 12.8363 22.3353 13.459 22.4339 14.0444C22.5138 14.5188 22.5532 14.9882 22.5407 15.4092C22.5345 15.6139 22.5158 15.8233 22.4768 16.0244C23.1667 16.4298 23.7027 16.4185 24.0657 16.3091C24.2848 16.243 24.4647 16.1342 24.5967 16.0207C24.6624 15.9642 24.7128 15.9095 24.7483 15.8632C24.7659 15.8403 24.7786 15.8209 24.7874 15.806C24.7918 15.7986 24.7949 15.7928 24.797 15.7886C24.7991 15.7843 24.7999 15.7824 24.7999 15.7824L24.8102 15.7565L24.8227 15.7316C24.8608 15.6552 24.9028 15.4823 24.9023 15.1779C24.9019 14.8881 24.864 14.5425 24.8 14.1684C24.6852 13.4967 24.4978 12.7941 24.3475 12.2589ZM24.3659 17.6097C23.6407 17.8042 22.7716 17.7308 21.8412 17.197C21.5641 17.4537 21.1953 17.6702 20.7607 17.7851C19.9593 17.9969 18.9796 17.859 17.9156 17.1365C17.5355 17.4586 17.0304 17.7397 16.4507 17.8419C15.6846 17.9771 14.8599 17.7868 14.1142 17.1143C13.0377 17.8561 12.0463 17.9991 11.2367 17.7851C10.8021 17.6702 10.4333 17.4537 10.1562 17.197C9.30984 17.6826 8.51417 17.7872 7.83146 17.6557V26.3395H24.3659V17.6097ZM7.64991 12.2589C7.49964 12.7941 7.31217 13.4967 7.19736 14.1684C7.13343 14.5425 7.09545 14.8881 7.09506 15.1779C7.09464 15.4823 7.13655 15.6552 7.17473 15.7316L7.18719 15.7565L7.19752 15.7824C7.19752 15.7824 7.1983 15.7843 7.20041 15.7886C7.2025 15.7928 7.2056 15.7986 7.20995 15.806C7.21875 15.8209 7.23154 15.8403 7.24914 15.8632C7.28462 15.9095 7.33495 15.9642 7.40074 16.0207C7.53271 16.1342 7.71263 16.243 7.93174 16.3091C8.29469 16.4185 8.8307 16.4298 9.52059 16.0244C9.4816 15.8233 9.46285 15.6139 9.45673 15.4092C9.44415 14.9882 9.48358 14.5188 9.56351 14.0444C9.66213 13.459 9.82757 12.8363 10.0543 12.2589H7.64991ZM14.9476 20.1908H10.7284V23.7562H14.9476V20.1908ZM10.7284 18.8575H9.39504V20.1908V23.7562V25.0895H10.7284H14.9476H16.2809V23.7562V20.1908V18.8575H14.9476H10.7284ZM16.4969 11.1151L16.4969 10.5301C16.6735 10.4805 16.828 10.3977 16.9466 10.279C17.1177 10.108 17.2032 9.88998 17.2032 9.61955C17.2032 9.4595 17.1784 9.32428 17.1232 9.20838C17.0707 9.09524 16.9934 8.99589 16.9024 8.91033C16.8113 8.82478 16.6954 8.74751 16.5657 8.68403C16.436 8.61503 16.298 8.55431 16.1518 8.49082C16.0055 8.42734 15.8979 8.36387 15.8344 8.29487C15.7682 8.22864 15.735 8.13481 15.735 8.01892C15.735 7.90302 15.7626 7.81472 15.8233 7.7485C15.8813 7.68503 15.9613 7.64917 16.0661 7.64917C16.182 7.64918 16.2703 7.69335 16.3366 7.78165C16.3973 7.86996 16.4304 7.9969 16.4332 8.15971L17.2334 8.15978C17.2334 7.86176 17.1506 7.6134 16.9878 7.41746C16.8636 7.2712 16.7063 7.16908 16.5104 7.1056L16.5103 6.5537L15.7266 6.55363L15.7267 7.08345C15.5197 7.13034 15.3459 7.22139 15.2107 7.35107C15.0313 7.52491 14.9403 7.7429 14.9403 8.00781C14.9403 8.16786 14.9652 8.30307 15.0148 8.41346C15.0645 8.52384 15.1363 8.62319 15.2329 8.70874C15.3295 8.7943 15.4426 8.86881 15.5723 8.93229C15.702 8.99577 15.8455 9.06201 16 9.12273C16.1546 9.18346 16.2622 9.25245 16.3229 9.3242C16.3836 9.39596 16.414 9.49254 16.4168 9.61672C16.4168 9.7271 16.3864 9.81816 16.3257 9.87886C16.2623 9.94232 16.1795 9.97543 16.0719 9.97266C15.9229 9.97265 15.8097 9.92573 15.7324 9.8319C15.6552 9.73807 15.6138 9.60285 15.6137 9.42072L14.819 9.42065C14.819 9.74627 14.9101 10.0084 15.095 10.2099C15.2496 10.3755 15.4621 10.4831 15.7297 10.5356L15.7298 11.104L16.4969 11.1151Z" />
  </symbol>
  <symbol id="uk2-color-tile" viewBox="0 0 32 32" xmlns="http://www.w3.org/2000/svg">
    <path id="primary" fill-rule="evenodd" clip-rule="evenodd" d="M25.3333 5.33333H6.66667C5.93029 5.33333 5.33333 5.93029 5.33333 6.66667V25.3333C5.33333 26.0697 5.93029 26.6667 6.66667 26.6667H25.3333C26.0697 26.6667 26.6667 26.0697 26.6667 25.3333V6.66667C26.6667 5.93029 26.0697 5.33333 25.3333 5.33333ZM6.66667 4C5.19391 4 4 5.19391 4 6.66667V25.3333C4 26.8061 5.19391 28 6.66667 28H25.3333C26.8061 28 28 26.8061 28 25.3333V6.66667C28 5.19391 26.8061 4 25.3333 4H6.66667Z" />
    <g id="accent">
      <path fill-rule="evenodd" clip-rule="evenodd" d="M8 8H14.6667V14.6667H8V8ZM9.33333 9.33333H13.3333V13.3333H9.33333V9.33333Z" fill="var(--uk2-icons-tier2-accent-color)" />
      <path fill-rule="evenodd" clip-rule="evenodd" d="M8 17.3333H14.6667V24H8V17.3333ZM9.33333 18.6667H13.3333V22.6667H9.33333V18.6667Z" fill="var(--uk2-icons-tier2-accent-color)" />
      <path fill-rule="evenodd" clip-rule="evenodd" d="M17.3333 8H24V14.6667H17.3333V8ZM22.6667 9.33333H18.6667V13.3333H22.6667V9.33333Z" fill="var(--uk2-icons-tier2-accent-color)" />
      <path fill-rule="evenodd" clip-rule="evenodd" d="M17.3333 17.3333H24V24H17.3333V17.3333ZM18.6667 18.6667H22.6667V22.6667H18.6667V18.6667Z" fill="var(--uk2-icons-tier2-accent-color)" />
    </g>
  </symbol>
  <symbol id="uk2-color-trading" viewBox="0 0 32 32" xmlns="http://www.w3.org/2000/svg">
    <g id="primary">
      <path d="M11 4.0332V8.75846H9.66667V4.0332H11Z" />
      <path d="M5.33333 12.0918V8.14128H4V12.0918H5.33333Z" />
      <path d="M5.33333 20.634V18.0918H4V20.634H5.33333Z" />
      <path d="M11 19.1828V16.0918H9.66667V19.1828H11Z" />
      <path d="M16.6667 8.52409V12.0918H15.3333V8.52409H16.6667Z" />
      <path d="M16.6667 27.966V24.4251H15.3333V27.966H16.6667Z" />
      <path d="M22.3333 11.7415V14.0918H21V11.7415H22.3333Z" />
      <path d="M22.3333 25.2862V21.4251H21V25.2862H22.3333Z" />
      <path d="M28 7.41602V10.0918H26.6667V7.41602H28Z" />
      <path d="M28 18.5832V15.4251H26.6667V18.5832H28Z" />
    </g>
    <g id="accent">
      <path fill-rule="evenodd" clip-rule="evenodd" d="M12.3346 7.74609V17.0661H8.33464V7.74609H12.3346ZM11.0013 9.07943H9.66797V15.7328H11.0013V9.07943Z" fill="var(--uk2-icons-tier2-accent-color)" />
      <path fill-rule="evenodd" clip-rule="evenodd" d="M6.66797 11.2031V18.9403H2.66797V11.2031H6.66797ZM5.33464 12.5365H4.0013V17.6069H5.33464V12.5365Z" fill="var(--uk2-icons-tier2-accent-color)" />
      <path fill-rule="evenodd" clip-rule="evenodd" d="M18.0013 11.2031H14.0013V25.5117H18.0013V11.2031ZM15.3346 12.5365H16.668V24.1784H15.3346V12.5365Z" fill="var(--uk2-icons-tier2-accent-color)" />
      <path fill-rule="evenodd" clip-rule="evenodd" d="M23.668 13.2253V22.5453H19.668V13.2253H23.668ZM22.3346 14.5586H21.0013V21.2119H22.3346V14.5586Z" fill="var(--uk2-icons-tier2-accent-color)" />
      <path fill-rule="evenodd" clip-rule="evenodd" d="M29.3346 9.19141H25.3346V16.4657H29.3346V9.19141ZM26.668 10.5247H28.0013V15.1324H26.668V10.5247Z" fill="var(--uk2-icons-tier2-accent-color)" />
    </g>
  </symbol>
  <symbol id="uk2-color-umbrella" viewBox="0 0 32 32" xmlns="http://www.w3.org/2000/svg">
    <path id="primary" fill-rule="evenodd" clip-rule="evenodd" d="M16.6676 2.66602H15.3343V4.01573C9.12908 4.32132 4.03931 8.86895 2.90425 14.8193C2.89747 14.8549 2.89082 14.8906 2.88431 14.9262C2.86483 15.0332 2.84662 15.1405 2.8297 15.2483C2.81282 15.3558 2.79722 15.4637 2.78293 15.5721C2.709 16.1325 3.38737 16.3732 3.72655 15.9209C3.77913 15.8508 3.83359 15.7832 3.8898 15.7181C3.95575 15.6417 4.02409 15.5688 4.09462 15.4993C4.1123 15.4819 4.1301 15.4648 4.14805 15.4478C5.70461 13.9754 8.26804 14.1331 9.6089 15.9209L10.1815 16.6844C10.4381 17.0266 10.9383 17.0621 11.2407 16.7597L11.4984 16.502C13.9851 14.0153 18.017 14.0153 20.5037 16.502L20.7614 16.7597C21.0638 17.0621 21.564 17.0266 21.8206 16.6844L22.3932 15.9209C23.7341 14.1331 26.2975 13.9754 27.8541 15.4478C27.872 15.4648 27.8898 15.4819 27.9075 15.4993C27.978 15.5688 28.0464 15.6417 28.1123 15.7181C28.1685 15.7832 28.223 15.8508 28.2756 15.9209C28.6147 16.3732 29.2931 16.1325 29.2192 15.5721C29.2049 15.4637 29.1893 15.3558 29.1724 15.2483C29.1555 15.1405 29.1373 15.0332 29.1178 14.9262C29.1113 14.8906 29.1046 14.8549 29.0979 14.8193C27.9628 8.8689 22.8729 4.32124 16.6676 4.01572V2.66602ZM16.0011 5.33268C21.3089 5.33268 25.8132 8.77968 27.3953 13.5569C25.3497 12.6377 22.7979 13.1591 21.3265 15.1209L21.1851 15.3095C18.2514 12.635 13.7507 12.635 10.817 15.3095L10.6756 15.1209C9.20417 13.1591 6.6524 12.6377 4.6068 13.5569C6.18891 8.77968 10.6933 5.33268 16.0011 5.33268Z" />
    <g id="accent">
      <path d="M16.0014 5.39208C17.4761 6.09943 20.318 8.77878 20.6384 14.8562C20.826 14.998 21.0086 15.1496 21.1855 15.3108L21.3269 15.1222C21.5171 14.8687 21.7253 14.6392 21.9481 14.4338C21.6422 10.0313 20.0653 7.20082 18.472 5.58863C17.7145 5.43006 16.9308 5.34294 16.1281 5.33464C16.086 5.3342 16.0438 5.33398 16.0015 5.33398C15.9592 5.33398 15.9169 5.3342 15.8747 5.33464C15.072 5.34295 14.2883 5.43009 13.5307 5.58867C11.9375 7.20085 10.3607 10.0313 10.0547 14.4336C10.2776 14.6391 10.4858 14.8686 10.676 15.1222L10.8175 15.3108C10.9943 15.1496 11.1769 14.9981 11.3644 14.8564C11.6847 8.77882 14.5267 6.09944 16.0014 5.39208Z" fill="var(--uk2-icons-tier2-accent-color)" />
      <path d="M15.3346 26.334V14.6731C15.7778 14.6267 16.2248 14.6267 16.668 14.673V26.334C16.668 27.2545 17.4142 28.0007 18.3346 28.0007C19.2551 28.0007 20.0013 27.2545 20.0013 26.334V24.0007H21.3346V26.334C21.3346 27.9909 19.9915 29.334 18.3346 29.334C16.6778 29.334 15.3346 27.9909 15.3346 26.334Z" fill="var(--uk2-icons-tier2-accent-color)" />
    </g>
  </symbol>
  <symbol id="uk2-color-user-group" viewBox="0 0 32 32" xmlns="http://www.w3.org/2000/svg">
    <g id="primary">
      <path d="M6.0013 16.666C6.0013 15.1933 7.19521 13.9993 8.66797 13.9993H10.668V12.666H8.66797C6.45883 12.666 4.66797 14.4569 4.66797 16.666V20.666H6.0013V16.666Z" />
      <path d="M16.668 20.666H15.3346C13.8619 20.666 12.668 21.8599 12.668 23.3327V27.3327H11.3346V23.3327C11.3346 21.1235 13.1255 19.3327 15.3346 19.3327H16.668C18.8771 19.3327 20.668 21.1235 20.668 23.3327V27.3327H19.3346V23.3327C19.3346 21.8599 18.1407 20.666 16.668 20.666Z" />
      <path d="M23.3346 13.9993H21.3346V12.666H23.3346C25.5438 12.666 27.3346 14.4569 27.3346 16.666V20.666H26.0013V16.666C26.0013 15.1933 24.8074 13.9993 23.3346 13.9993Z" />
    </g>
    <g id="accent">
      <path fill-rule="evenodd" clip-rule="evenodd" d="M22.6667 11.3327C24.5076 11.3327 26 9.8403 26 7.99935C26 6.1584 24.5076 4.66602 22.6667 4.66602C20.8257 4.66602 19.3333 6.1584 19.3333 7.99935C19.3333 9.8403 20.8257 11.3327 22.6667 11.3327ZM22.6667 9.99935C23.7712 9.99935 24.6667 9.10392 24.6667 7.99935C24.6667 6.89478 23.7712 5.99935 22.6667 5.99935C21.5621 5.99935 20.6667 6.89478 20.6667 7.99935C20.6667 9.10392 21.5621 9.99935 22.6667 9.99935Z" fill="var(--uk2-icons-tier2-accent-color)" />
      <path fill-rule="evenodd" clip-rule="evenodd" d="M16 17.9993C17.8409 17.9993 19.3333 16.507 19.3333 14.666C19.3333 12.8251 17.8409 11.3327 16 11.3327C14.1591 11.3327 12.6667 12.8251 12.6667 14.666C12.6667 16.507 14.1591 17.9993 16 17.9993ZM16 16.666C17.1046 16.666 18 15.7706 18 14.666C18 13.5614 17.1046 12.666 16 12.666C14.8954 12.666 14 13.5614 14 14.666C14 15.7706 14.8954 16.666 16 16.666Z" fill="var(--uk2-icons-tier2-accent-color)" />
      <path fill-rule="evenodd" clip-rule="evenodd" d="M6 7.99935C6 9.8403 7.49238 11.3327 9.33333 11.3327C11.1743 11.3327 12.6667 9.8403 12.6667 7.99935C12.6667 6.1584 11.1743 4.66602 9.33333 4.66602C7.49238 4.66602 6 6.1584 6 7.99935ZM7.33333 7.99935C7.33333 9.10392 8.22876 9.99935 9.33333 9.99935C10.4379 9.99935 11.3333 9.10392 11.3333 7.99935C11.3333 6.89478 10.4379 5.99935 9.33333 5.99935C8.22876 5.99935 7.33333 6.89478 7.33333 7.99935Z" fill="var(--uk2-icons-tier2-accent-color)" />
    </g>
  </symbol>
  <symbol id="uk2-color-user" viewBox="0 0 32 32" xmlns="http://www.w3.org/2000/svg">
    <g id="primary">
      <path d="M13.332 13.3333H18.6654C20.1381 13.3333 21.332 14.5272 21.332 16V21.3333H22.6654V16C22.6654 13.7909 20.8745 12 18.6654 12H13.332C11.1229 12 9.33203 13.7909 9.33203 16V21.3333H10.6654V16C10.6654 14.5272 11.8593 13.3333 13.332 13.3333Z" />
      <path d="M11.9987 17.3333H13.332V29.3333H11.9987V17.3333Z" />
      <path d="M19.9987 17.3333H18.6654V29.3333H19.9987V17.3333Z" />
    </g>
    <path id="accent" fill-rule="evenodd" clip-rule="evenodd" d="M16 10.666C18.2091 10.666 20 8.87515 20 6.66602C20 4.45688 18.2091 2.66602 16 2.66602C13.7909 2.66602 12 4.45688 12 6.66602C12 8.87515 13.7909 10.666 16 10.666ZM18.6667 6.66602C18.6667 8.13877 17.4728 9.33268 16 9.33268C14.5272 9.33268 13.3333 8.13877 13.3333 6.66602C13.3333 5.19326 14.5272 3.99935 16 3.99935C17.4728 3.99935 18.6667 5.19326 18.6667 6.66602Z" fill="var(--uk2-icons-tier2-accent-color)" />
  </symbol>
  <symbol id="uk2-color-users" viewBox="0 0 32 32" xmlns="http://www.w3.org/2000/svg">
    <g id="primary">
      <path d="M19.3346 14.6673H23.3346C24.8074 14.6673 26.0013 15.8612 26.0013 17.334V22.6673H27.3346V17.334C27.3346 15.1248 25.5438 13.334 23.3346 13.334H19.3346C17.1255 13.334 15.3346 15.1248 15.3346 17.334H16.668C16.668 15.8612 17.8619 14.6673 19.3346 14.6673Z" />
      <path d="M8.66797 20.0007H12.668C14.1407 20.0007 15.3346 21.1946 15.3346 22.6673V28.0007H16.668V22.6673C16.668 20.4582 14.8771 18.6673 12.668 18.6673H8.66797C6.45883 18.6673 4.66797 20.4582 4.66797 22.6673V28.0007H6.0013V22.6673C6.0013 21.1946 7.19521 20.0007 8.66797 20.0007Z" />
    </g>
    <g id="accent">
      <path fill-rule="evenodd" clip-rule="evenodd" d="M25.3346 8C25.3346 10.2091 23.5438 12 21.3346 12C19.1255 12 17.3346 10.2091 17.3346 8C17.3346 5.79086 19.1255 4 21.3346 4C23.5438 4 25.3346 5.79086 25.3346 8ZM21.3346 10.6667C22.8074 10.6667 24.0013 9.47276 24.0013 8C24.0013 6.52724 22.8074 5.33333 21.3346 5.33333C19.8619 5.33333 18.668 6.52724 18.668 8C18.668 9.47276 19.8619 10.6667 21.3346 10.6667Z" fill="var(--uk2-icons-tier2-accent-color)" />
      <path fill-rule="evenodd" clip-rule="evenodd" d="M14.668 13.3333C14.668 15.5425 12.8771 17.3333 10.668 17.3333C8.45883 17.3333 6.66797 15.5425 6.66797 13.3333C6.66797 11.1242 8.45883 9.33333 10.668 9.33333C12.8771 9.33333 14.668 11.1242 14.668 13.3333ZM10.668 16C12.1407 16 13.3346 14.8061 13.3346 13.3333C13.3346 11.8606 12.1407 10.6667 10.668 10.6667C9.19521 10.6667 8.0013 11.8606 8.0013 13.3333C8.0013 14.8061 9.19521 16 10.668 16Z" fill="var(--uk2-icons-tier2-accent-color)" />
    </g>
  </symbol>
</svg>
