<svg xmlns="http://www.w3.org/2000/svg" xmlns:xlink="http://www.w3.org/1999/xlink">
  <symbol id="uk2-user" viewBox="0 0 24 24" xmlns="http://www.w3.org/2000/svg">
    <g id="primary">
      <path fill-rule="evenodd" clip-rule="evenodd" d="M12 12C14.4853 12 16.5 9.98528 16.5 7.5C16.5 5.01472 14.4853 3 12 3C9.51472 3 7.5 5.01472 7.5 7.5C7.5 9.98528 9.51472 12 12 12ZM12 10.5C13.6569 10.5 15 9.15685 15 7.5C15 5.84315 13.6569 4.5 12 4.5C10.3431 4.5 9 5.84315 9 7.5C9 9.15685 10.3431 10.5 12 10.5Z" />
      <path d="M19.5 21H18C18 17.6863 15.3137 15 12 15C8.68629 15 6 17.6863 6 21H4.5C4.5 16.8579 7.85786 13.5 12 13.5C16.1421 13.5 19.5 16.8579 19.5 21Z" />
    </g>
  </symbol>
  <symbol id="uk2-user-check" viewBox="0 0 24 24" xmlns="http://www.w3.org/2000/svg">
    <g id="primary">
      <path fill-rule="evenodd" clip-rule="evenodd" d="M13.2344 7.5C13.2344 9.98528 11.2197 12 8.73438 12C6.24909 12 4.23438 9.98528 4.23438 7.5C4.23438 5.01472 6.24909 3 8.73438 3C11.2197 3 13.2344 5.01472 13.2344 7.5ZM11.7344 7.5C11.7344 9.15685 10.3912 10.5 8.73438 10.5C7.07752 10.5 5.73438 9.15685 5.73438 7.5C5.73438 5.84315 7.07752 4.5 8.73438 4.5C10.3912 4.5 11.7344 5.84315 11.7344 7.5Z" />
      <path d="M22.7648 9.53034L18.4844 13.8107L15.7041 11.0303L16.7648 9.96968L18.4844 11.6894L21.7041 8.46968L22.7648 9.53034Z" />
      <path d="M16.2344 21H14.7344C14.7344 17.6863 12.0481 15 8.73438 15C5.42067 15 2.73438 17.6863 2.73438 21H1.23438C1.23438 16.8579 4.59224 13.5 8.73438 13.5C12.8765 13.5 16.2344 16.8579 16.2344 21Z" />
    </g>
  </symbol>
  <symbol id="uk2-user-add" viewBox="0 0 24 24" xmlns="http://www.w3.org/2000/svg">
    <g id="primary">
      <path fill-rule="evenodd" clip-rule="evenodd" d="M13.5 7.5C13.5 9.98528 11.4853 12 9 12C6.51472 12 4.5 9.98528 4.5 7.5C4.5 5.01472 6.51472 3 9 3C11.4853 3 13.5 5.01472 13.5 7.5ZM12 7.5C12 9.15685 10.6569 10.5 9 10.5C7.34315 10.5 6 9.15685 6 7.5C6 5.84315 7.34315 4.5 9 4.5C10.6569 4.5 12 5.84315 12 7.5Z" />
      <path d="M15 12L18 12V15H19.5V12H22.5V10.5H19.5V7.5H18V10.5L15 10.5V12Z" />
      <path d="M16.5 21H15C15 17.6863 12.3137 15 9 15C5.68629 15 3 17.6863 3 21H1.5C1.5 16.8579 4.85786 13.5 9 13.5C13.1421 13.5 16.5 16.8579 16.5 21Z" />
    </g>
  </symbol>
  <symbol id="uk2-user-cog" viewBox="0 0 24 24" xmlns="http://www.w3.org/2000/svg">
    <g id="primary">
      <path fill-rule="evenodd" clip-rule="evenodd" d="M7.57031 12C10.0556 12 12.0703 9.98528 12.0703 7.5C12.0703 5.01472 10.0556 3 7.57031 3C5.08503 3 3.07031 5.01472 3.07031 7.5C3.07031 9.98528 5.08503 12 7.57031 12ZM7.57031 10.5C9.22717 10.5 10.5703 9.15685 10.5703 7.5C10.5703 5.84315 9.22717 4.5 7.57031 4.5C5.91346 4.5 4.57031 5.84315 4.57031 7.5C4.57031 9.15685 5.91346 10.5 7.57031 10.5Z" />
      <path d="M13.5703 21H15.0703C15.0703 16.8579 11.7124 13.5 7.57031 13.5C3.42818 13.5 0.0703125 16.8579 0.0703125 21H1.57031C1.57031 17.6863 4.2566 15 7.57031 15C10.884 15 13.5703 17.6863 13.5703 21Z" />
      <path fill-rule="evenodd" clip-rule="evenodd" d="M22.8103 11.5C22.8103 11.67 22.7903 11.83 22.7703 11.99L23.8403 12.82C23.9303 12.9 23.9603 13.03 23.9003 13.14L22.9003 14.87C22.8303 14.98 22.7003 15.02 22.5903 14.98L21.3403 14.48C21.0903 14.68 20.8003 14.84 20.5003 14.97L20.3103 16.29C20.2903 16.41 20.1803 16.5 20.0603 16.5H18.0603C17.9303 16.5 17.8303 16.41 17.8103 16.29L17.6203 14.97C17.3103 14.85 17.0303 14.68 16.7703 14.48L15.5303 14.98C15.4103 15.02 15.2803 14.98 15.2203 14.87L14.2203 13.14C14.1603 13.03 14.1903 12.9 14.2803 12.82L15.3403 11.99C15.3203 11.83 15.3103 11.67 15.3103 11.5C15.3103 11.33 15.3203 11.17 15.3403 11.01L14.2803 10.18C14.1803 10.1 14.1603 9.96999 14.2203 9.85999L15.2203 8.12999C15.2903 8.01999 15.4203 7.97999 15.5303 8.01999L16.7703 8.51999C17.0303 8.31999 17.3203 8.15999 17.6203 8.02999L17.8103 6.70999C17.8303 6.58999 17.9403 6.49999 18.0603 6.49999H20.0603C20.1803 6.49999 20.2903 6.58999 20.3003 6.70999L20.4903 8.02999C20.8003 8.14999 21.0803 8.31999 21.3403 8.51999L22.5803 8.01999C22.7003 7.97999 22.8303 8.01999 22.8903 8.12999L23.8903 9.85999C23.9503 9.96999 23.9203 10.1 23.8303 10.18L22.7703 11.01C22.8003 11.17 22.8103 11.33 22.8103 11.5ZM17.5603 11.5C17.5603 12.33 18.2303 13 19.0603 13C19.8903 13 20.5603 12.33 20.5603 11.5C20.5603 10.67 19.8903 9.99998 19.0603 9.99998C18.2303 9.99998 17.5603 10.67 17.5603 11.5Z" />
    </g>
  </symbol>
  <symbol id="uk2-users" viewBox="0 0 24 24" xmlns="http://www.w3.org/2000/svg">
    <g id="primary">
      <path fill-rule="evenodd" clip-rule="evenodd" d="M16.125 10.125C17.7819 10.125 19.125 8.78185 19.125 7.125C19.125 5.46815 17.7819 4.125 16.125 4.125C14.4681 4.125 13.125 5.46815 13.125 7.125C13.125 8.78185 14.4681 10.125 16.125 10.125ZM16.125 8.625C16.9534 8.625 17.625 7.95343 17.625 7.125C17.625 6.29657 16.9534 5.625 16.125 5.625C15.2966 5.625 14.625 6.29657 14.625 7.125C14.625 7.95343 15.2966 8.625 16.125 8.625Z" />
      <path d="M21.375 16.875H19.875C19.875 14.8039 18.1961 13.125 16.125 13.125C14.6491 13.125 13.3723 13.9776 12.7604 15.2172C12.4079 14.8475 12.0138 14.5178 11.5857 14.2356C12.4955 12.6743 14.1877 11.625 16.125 11.625C19.0245 11.625 21.375 13.9755 21.375 16.875Z" />
      <path fill-rule="evenodd" clip-rule="evenodd" d="M7.875 13.125C9.53185 13.125 10.875 11.7819 10.875 10.125C10.875 8.46815 9.53185 7.125 7.875 7.125C6.21815 7.125 4.875 8.46815 4.875 10.125C4.875 11.7819 6.21815 13.125 7.875 13.125ZM7.875 11.625C8.70343 11.625 9.375 10.9534 9.375 10.125C9.375 9.29657 8.70343 8.625 7.875 8.625C7.04657 8.625 6.375 9.29657 6.375 10.125C6.375 10.9534 7.04657 11.625 7.875 11.625Z" />
      <path d="M11.625 19.875H13.125C13.125 16.9755 10.7745 14.625 7.875 14.625C4.97551 14.625 2.625 16.9755 2.625 19.875H4.125C4.125 17.8039 5.80393 16.125 7.875 16.125C9.94607 16.125 11.625 17.8039 11.625 19.875Z" />
    </g>
  </symbol>
  <symbol id="uk2-address-book" viewBox="0 0 24 24" xmlns="http://www.w3.org/2000/svg">
    <g id="primary">
      <path fill-rule="evenodd" clip-rule="evenodd" d="M15.75 9C15.75 10.6569 14.4069 12 12.75 12C11.0931 12 9.75 10.6569 9.75 9C9.75 7.34315 11.0931 6 12.75 6C14.4069 6 15.75 7.34315 15.75 9ZM14.25 9C14.25 9.82843 13.5784 10.5 12.75 10.5C11.9216 10.5 11.25 9.82843 11.25 9C11.25 8.17157 11.9216 7.5 12.75 7.5C13.5784 7.5 14.25 8.17157 14.25 9Z" />
      <path d="M18 18.75H16.5C16.5 16.6789 14.8211 15 12.75 15C10.6789 15 9 16.6789 9 18.75H7.5C7.5 15.8505 9.8505 13.5 12.75 13.5C15.6495 13.5 18 15.8505 18 18.75Z" />
      <path fill-rule="evenodd" clip-rule="evenodd" d="M6.75 2.25C5.35212 2.25 4.17755 3.20608 3.84451 4.5H2.25V6H3.75V9H2.25V10.5H3.75V13.5H2.25V15H3.75V18H2.25V19.5H3.84451C4.17755 20.7939 5.35212 21.75 6.75 21.75H18.75C20.4069 21.75 21.75 20.4069 21.75 18.75V5.25C21.75 3.59315 20.4069 2.25 18.75 2.25H6.75ZM18.75 3.75H6.75C5.92157 3.75 5.25 4.42157 5.25 5.25V18.75C5.25 19.5784 5.92157 20.25 6.75 20.25H18.75C19.5784 20.25 20.25 19.5784 20.25 18.75V5.25C20.25 4.42157 19.5784 3.75 18.75 3.75Z" />
    </g>
  </symbol>
  <symbol id="uk2-home" viewBox="0 0 24 24" xmlns="http://www.w3.org/2000/svg">
    <path id="primary" d="M13.0607 2.68934L21 9.75V20.25C21 21.0784 20.3284 21.75 19.5 21.75H13.5V17.25H10.5V21.75H4.5C3.67157 21.75 3 21.0784 3 20.25V9.75L10.9393 2.68934C11.5251 2.10355 12.4749 2.10355 13.0607 2.68934ZM12 3.75L4.5 10.371V20.25L9 20.2485V15.75H15V20.2485L19.5 20.25V10.3725L12 3.75Z" />
  </symbol>
  <symbol id="uk2-home-check" viewBox="0 0 24 24" xmlns="http://www.w3.org/2000/svg">
    <g id="primary">
      <path d="M11.295 2.68934L19.2344 9.75V14.25H17.7344V10.3725L10.2344 3.75L2.73438 10.371V20.25L7.23438 20.2485V15.75H13.2344V20.2485L14.7344 20.249V21.75H11.7344V17.25H8.73438V21.75H2.73438C1.90595 21.75 1.23438 21.0784 1.23438 20.25V9.75L9.17372 2.68934C9.7595 2.10355 10.7092 2.10355 11.295 2.68934Z" />
      <path d="M22.7648 16.2803L18.4844 20.5607L15.7041 17.7803L16.7648 16.7197L18.4844 18.4394L21.7041 15.2197L22.7648 16.2803Z" />
    </g>
  </symbol>
  <symbol id="uk2-home-x" viewBox="0 0 24 24" xmlns="http://www.w3.org/2000/svg">
    <g id="primary">
      <path d="M11.8458 2.68934L19.7852 9.75V14.25H18.2852V10.3725L10.7852 3.75L3.28516 10.371V20.25L7.78516 20.2485V15.75H13.7852V20.2485L15.2852 20.249V21.75H12.2852V17.25H9.28516V21.75H3.28516C2.45673 21.75 1.78516 21.0784 1.78516 20.25V9.75L9.7245 2.68934C10.3103 2.10355 11.26 2.10355 11.8458 2.68934Z" />
      <path d="M17.9745 18L15.8532 15.8787L16.9138 14.818L19.0352 16.9393L21.1565 14.818L22.2171 15.8787L20.0958 18L22.2171 20.1213L21.1565 21.182L19.0352 19.0607L16.9138 21.182L15.8532 20.1213L17.9745 18Z" />
    </g>
  </symbol>
  <symbol id="uk2-headset" viewBox="0 0 24 24" xmlns="http://www.w3.org/2000/svg">
    <path id="primary" fill-rule="evenodd" clip-rule="evenodd" d="M19.5 11.25C19.5 7.10779 16.1418 3.75 12 3.75C7.85816 3.75 4.5 7.10779 4.5 11.25H7.5C8.32842 11.25 9 11.9216 9 12.75V17.25C9 18.0785 8.32842 18.75 7.5 18.75H4.5C3.67157 18.75 3 18.0785 3 17.25V11.25C3 6.27942 7.02978 2.25 12 2.25C16.9702 2.25 21 6.27942 21 11.25V17.25C21 18.0785 20.3284 18.75 19.5 18.75V19.5C19.5 20.7426 18.4926 21.75 17.25 21.75H9.75V20.25H17.25C17.6642 20.25 18 19.9142 18 19.5V18.75H16.5C15.6716 18.75 15 18.0785 15 17.25V12.75C15 11.9216 15.6716 11.25 16.5 11.25H19.5ZM4.5 17.25V12.75H7.5V17.25H4.5ZM19.5 12.75H16.5V17.25H19.5V12.75Z" />
  </symbol>
  <symbol id="uk2-envelope" viewBox="0 0 24 24" xmlns="http://www.w3.org/2000/svg">
    <path id="primary" d="M21 4.5C21.8284 4.5 22.5 5.17157 22.5 6V18C22.5 18.8284 21.8284 19.5 21 19.5H3C2.17157 19.5 1.5 18.8284 1.5 18V6C1.5 5.17157 2.17157 4.5 3 4.5H21ZM14.3932 12.455L14.1963 12.6098C12.8873 13.5569 11.1127 13.5569 9.80369 12.6098L9.60517 12.455L4.059 18H19.9395L14.3932 12.455ZM21 6.8655L15.5437 11.483L21 16.9395V6.8655ZM3 6.867V16.938L8.45467 11.483L3 6.867ZM19.701 6H4.2975L10.5466 11.2878C11.3296 11.9503 12.4523 11.9944 13.2806 11.4203L13.4534 11.2878L19.701 6Z" />
  </symbol>
  <symbol id="uk2-envelope-check" viewBox="0 0 24 24" xmlns="http://www.w3.org/2000/svg">
    <g id="primary">
      <path fill-rule="evenodd" clip-rule="evenodd" d="M0.859375 5.84375C0.859375 5.01532 1.53095 4.34375 2.35938 4.34375H20.3594C21.1878 4.34375 21.8594 5.01532 21.8594 5.84375V12.5938H20.3594V6.7108L13.7816 12.2766C12.3834 13.4597 10.3352 13.4597 8.93705 12.2766L2.35938 6.71087V17.8438H15.1094V19.3438H2.35938C1.53095 19.3438 0.859375 18.6722 0.859375 17.8438V5.84375ZM19.0619 5.84375H3.65679L9.90597 11.1315C10.7449 11.8414 11.9738 11.8414 12.8127 11.1315L19.0619 5.84375Z" />
      <path d="M18.8594 19.6544L23.1398 15.3741L22.0791 14.3134L18.8594 17.5331L17.1398 15.8134L16.0791 16.8741L18.8594 19.6544Z" />
    </g>
  </symbol>
  <symbol id="uk2-envelope-x" viewBox="0 0 24 24" xmlns="http://www.w3.org/2000/svg">
    <g id="primary">
      <path fill-rule="evenodd" clip-rule="evenodd" d="M1.03516 5.5332C1.03516 4.70478 1.70673 4.0332 2.53516 4.0332H20.5352C21.3636 4.0332 22.0352 4.70478 22.0352 5.5332V12.2832H20.5352V6.40025L13.9574 11.966C12.5592 13.1491 10.511 13.1491 9.11283 11.966L2.53516 6.40032V17.5332H15.2852V19.0332H2.53516C1.70673 19.0332 1.03516 18.3616 1.03516 17.5332V5.5332ZM19.2377 5.5332H3.83257L10.0817 10.821C10.9206 11.5308 12.1496 11.5308 12.9885 10.821L19.2377 5.5332Z" />
      <path d="M16.6032 14.6619L18.7245 16.7832L16.6031 18.9045L17.6638 19.9652L19.7851 17.8439L21.9065 19.9652L22.9671 18.9045L20.8458 16.7832L22.9671 14.6619L21.9065 13.6012L19.7851 15.7225L17.6638 13.6012L16.6032 14.6619Z" />
    </g>
  </symbol>
  <symbol id="uk2-speech-bubble" viewBox="0 0 24 24" xmlns="http://www.w3.org/2000/svg">
    <path id="primary" fill-rule="evenodd" clip-rule="evenodd" d="M3 6.12109V13.6211C3 15.2779 4.34315 16.6211 6 16.6211H7.5V19.3748C7.5 20.7111 9.11571 21.3804 10.0607 20.4354L13.875 16.6211H18C19.6569 16.6211 21 15.2779 21 13.6211V6.12109C21 4.46424 19.6569 3.12109 18 3.12109H6C4.34315 3.12109 3 4.46424 3 6.12109ZM9 15.1211V19.3748L13.2537 15.1211H18C18.8284 15.1211 19.5 14.4495 19.5 13.6211V6.12109C19.5 5.29267 18.8284 4.62109 18 4.62109H6C5.17157 4.62109 4.5 5.29267 4.5 6.12109V13.6211C4.5 14.4495 5.17157 15.1211 6 15.1211H9Z" />
  </symbol>
  <symbol id="uk2-speech-bubble-text" viewBox="0 0 24 24" xmlns="http://www.w3.org/2000/svg">
    <g id="primary">
      <path d="M7.5 7.62109H16.5V9.12109H7.5V7.62109Z" />
      <path d="M13.5 10.6211H7.5V12.1211H13.5V10.6211Z" />
      <path fill-rule="evenodd" clip-rule="evenodd" d="M3 6.12109V13.6211C3 15.2779 4.34315 16.6211 6 16.6211H7.5V19.3748C7.5 20.7111 9.11571 21.3804 10.0607 20.4354L13.875 16.6211H18C19.6569 16.6211 21 15.2779 21 13.6211V6.12109C21 4.46424 19.6569 3.12109 18 3.12109H6C4.34315 3.12109 3 4.46424 3 6.12109ZM9 15.1211V19.3748L13.2537 15.1211H18C18.8284 15.1211 19.5 14.4495 19.5 13.6211V6.12109C19.5 5.29267 18.8284 4.62109 18 4.62109H6C5.17157 4.62109 4.5 5.29267 4.5 6.12109V13.6211C4.5 14.4495 5.17157 15.1211 6 15.1211H9Z" />
    </g>
  </symbol>
  <symbol id="uk2-speech-bubbles" viewBox="0 0 24 24" xmlns="http://www.w3.org/2000/svg">
    <g id="primary">
      <path d="M3.75 6.12109C3.75 4.87845 4.75736 3.87109 6 3.87109H13.5V2.37109H6C3.92893 2.37109 2.25 4.05003 2.25 6.12109V10.6211H3.75V6.12109Z" />
      <path fill-rule="evenodd" clip-rule="evenodd" d="M9 17.3711H8.25C6.59315 17.3711 5.25 16.0279 5.25 14.3711V8.37109C5.25 6.71424 6.59315 5.37109 8.25 5.37109H18.75C20.4069 5.37109 21.75 6.71424 21.75 8.37109V14.3711C21.75 16.0279 20.4069 17.3711 18.75 17.3711H15.375L11.5607 21.1854C10.6157 22.1304 9 21.4611 9 20.1248V17.3711ZM10.5 20.1248V15.8711H8.25C7.42157 15.8711 6.75 15.1995 6.75 14.3711V8.37109C6.75 7.54267 7.42157 6.87109 8.25 6.87109H18.75C19.5784 6.87109 20.25 7.54267 20.25 8.37109V14.3711C20.25 15.1995 19.5784 15.8711 18.75 15.8711H14.7537L10.5 20.1248Z" />
    </g>
  </symbol>
  <symbol id="uk2-mobile-phone" viewBox="0 0 24 24" xmlns="http://www.w3.org/2000/svg">
    <path id="primary" fill-rule="evenodd" clip-rule="evenodd" d="M5.25 4.5C5.25 2.84315 6.59315 1.5 8.25 1.5H15.75C17.4069 1.5 18.75 2.84315 18.75 4.5V19.5C18.75 21.1569 17.4069 22.5 15.75 22.5H8.25C6.59315 22.5 5.25 21.1569 5.25 19.5V4.5ZM6.75 4.5C6.75 3.67157 7.42157 3 8.25 3C8.25 3.82843 8.92157 4.5 9.75 4.5H14.25C15.0784 4.5 15.75 3.82843 15.75 3C16.5784 3 17.25 3.67157 17.25 4.5V19.5C17.25 20.3284 16.5784 21 15.75 21H8.25C7.42157 21 6.75 20.3284 6.75 19.5V4.5Z" />
  </symbol>
  <symbol id="uk2-mobile-phone-check" viewBox="0 0 24 24" xmlns="http://www.w3.org/2000/svg">
    <g id="primary">
      <path d="M3.48438 4.34375C3.48438 2.6869 4.82752 1.34375 6.48438 1.34375H13.9844C15.6412 1.34375 16.9844 2.6869 16.9844 4.34375V15.5938H15.4844V4.34375C15.4844 3.51532 14.8128 2.84375 13.9844 2.84375C13.9844 3.67218 13.3128 4.34375 12.4844 4.34375H7.98438C7.15595 4.34375 6.48438 3.67218 6.48438 2.84375C5.65595 2.84375 4.98438 3.51532 4.98438 4.34375V19.3438C4.98438 20.1722 5.65595 20.8438 6.48438 20.8438H12.4844V22.3438H6.48438C4.82752 22.3438 3.48438 21.0006 3.48438 19.3438V4.34375Z" />
      <path d="M20.5148 18.3741L16.2344 22.6544L13.4541 19.8741L14.5148 18.8134L16.2344 20.5331L19.4541 17.3134L20.5148 18.3741Z" />
    </g>
  </symbol>
  <symbol id="uk2-mobile-phone-x" viewBox="0 0 24 24" xmlns="http://www.w3.org/2000/svg">
    <g id="primary">
      <path d="M6.66016 1.0332C5.0033 1.0332 3.66016 2.37635 3.66016 4.0332V19.0332C3.66016 20.6901 5.0033 22.0332 6.66016 22.0332H12.6602V20.5332H6.66016C5.83173 20.5332 5.16016 19.8616 5.16016 19.0332V4.0332C5.16016 3.20478 5.83173 2.5332 6.66016 2.5332C6.66016 3.36163 7.33173 4.0332 8.16016 4.0332H12.6602C13.4886 4.0332 14.1602 3.36163 14.1602 2.5332C14.9886 2.5332 15.6602 3.20478 15.6602 4.0332V15.2832H17.1602V4.0332C17.1602 2.37635 15.817 1.0332 14.1602 1.0332H6.66016Z" />
      <path d="M16.0995 19.7832L13.9782 17.6619L15.0388 16.6012L17.1601 18.7225L19.2815 16.6012L20.3421 17.6619L18.2208 19.7832L20.3421 21.9045L19.2815 22.9652L17.1601 20.8439L15.0388 22.9652L13.9781 21.9045L16.0995 19.7832Z" />
    </g>
  </symbol>
  <symbol id="uk2-phone" viewBox="0 0 24 24" xmlns="http://www.w3.org/2000/svg">
    <path id="primary" d="M5.5656 1.57115L5.71963 1.65468L10.1031 4.3696C10.1905 4.42377 10.2722 4.48679 10.3467 4.55767C10.901 5.08454 10.9641 5.93407 10.5216 6.53389L10.4004 6.67831L8.125 9.07186L8.0978 9.48073C8.08873 9.75368 8.0978 10.0271 8.125 10.2991C8.45363 13.5855 11.3053 16.0101 14.568 15.845L14.875 15.8219L17.4869 13.6678C17.5401 13.6239 17.5962 13.5838 17.6549 13.5476C18.31 13.1443 19.1535 13.3051 19.6183 13.8949L19.7186 14.0386L22.4028 18.3987C22.824 19.0829 22.6313 19.9775 21.9657 20.4276C19.9931 21.7618 18.0204 22.4734 16.0477 22.5623L15.625 22.5719L14.9627 22.3353C8.71744 20.1049 3.75561 15.2614 1.375 9.07186C1.375 7.45683 2.02708 5.35273 3.33125 2.75957L3.60078 2.23442C3.61757 2.20233 3.63552 2.17086 3.65459 2.14007C4.05964 1.4861 4.88576 1.252 5.5656 1.57115ZM4.92981 2.92989L4.67905 3.41821C3.62832 5.50508 3.04381 7.21163 2.90662 8.5046L2.8825 8.80336L2.98378 9.0555C5.20895 14.4141 9.52941 18.6315 14.9402 20.7266L15.4672 20.9227L15.8665 21.0659L16.0107 21.0624C17.5551 20.9866 19.1216 20.4554 20.7241 19.4471L21.1255 19.185L18.4413 14.825L15.8294 16.9791C15.6002 17.1681 15.3199 17.2849 15.0243 17.3144C10.8109 17.7358 7.05378 14.6617 6.63244 10.4484C6.60991 10.223 6.59737 9.99681 6.5956 9.75572L6.6011 9.38114L6.62831 8.97228C6.64692 8.69262 6.74337 8.42523 6.9048 8.19945L7.03785 8.03838L9.31325 5.64482L4.92981 2.92989Z" />
  </symbol>
  <symbol id="uk2-phone-ring" viewBox="0 0 24 24" xmlns="http://www.w3.org/2000/svg">
    <path id="primary" d="M5.5656 1.57115L5.71963 1.65468L10.1031 4.3696C10.1905 4.42377 10.2722 4.48679 10.3467 4.55767C10.901 5.08454 10.9641 5.93407 10.5216 6.53389L10.4004 6.67831L8.125 9.07186L8.0978 9.48073C8.08873 9.75368 8.0978 10.0271 8.125 10.2991C8.45363 13.5855 11.3053 16.0101 14.568 15.845L14.875 15.8219L17.4869 13.6678C17.5401 13.6239 17.5962 13.5838 17.6549 13.5476C18.31 13.1443 19.1535 13.3051 19.6183 13.8949L19.7186 14.0386L22.4028 18.3987C22.824 19.0829 22.6313 19.9775 21.9657 20.4276C19.9931 21.7618 18.0204 22.4734 16.0477 22.5623L15.625 22.5719L14.9627 22.3353C8.71744 20.1049 3.75561 15.2614 1.375 9.07186C1.375 7.45683 2.02708 5.35273 3.33125 2.75957L3.60078 2.23442C3.61757 2.20233 3.63552 2.17086 3.65459 2.14007C4.05964 1.4861 4.88576 1.252 5.5656 1.57115ZM4.92981 2.92989L4.67905 3.41821C3.62832 5.50508 3.04381 7.21163 2.90662 8.5046L2.8825 8.80336L2.98378 9.0555C5.20895 14.4141 9.52941 18.6315 14.9402 20.7266L15.4672 20.9227L15.8665 21.0659L16.0107 21.0624C17.5551 20.9866 19.1216 20.4554 20.7241 19.4471L21.1255 19.185L18.4413 14.825L15.8294 16.9791C15.6002 17.1681 15.3199 17.2849 15.0243 17.3144C10.8109 17.7358 7.05378 14.6617 6.63244 10.4484C6.60991 10.223 6.59737 9.99681 6.5956 9.75572L6.6011 9.38114L6.62831 8.97228C6.64692 8.69262 6.74337 8.42523 6.9048 8.19945L7.03785 8.03838L9.31325 5.64482L4.92981 2.92989ZM13.375 4.57187C16.6887 4.57187 19.375 7.25816 19.375 10.5719H17.875C17.875 8.08658 15.8603 6.07187 13.375 6.07187V4.57187ZM13.375 1.57187C18.3456 1.57187 22.375 5.6013 22.375 10.5719H20.875C20.875 6.42973 17.5171 3.07187 13.375 3.07187V1.57187Z" />
  </symbol>
  <symbol id="uk2-phone-check" viewBox="0 0 24 24" xmlns="http://www.w3.org/2000/svg">
    <g id="primary">
      <path fill-rule="evenodd" clip-rule="evenodd" d="M5.71963 1.65468L5.5656 1.57115C4.88576 1.252 4.05964 1.4861 3.65459 2.14007C3.63552 2.17086 3.61757 2.20233 3.60078 2.23442L3.33125 2.75957C2.02708 5.35273 1.375 7.45683 1.375 9.07186C3.75561 15.2614 8.71744 20.1049 14.9627 22.3353L15.625 22.5719L16.0477 22.5623C18.0204 22.4734 19.9931 21.7618 21.9657 20.4276C22.6313 19.9775 22.824 19.0829 22.4028 18.3987L19.7186 14.0386L19.6183 13.8949C19.1535 13.3051 18.31 13.1443 17.6549 13.5476C17.5962 13.5838 17.5401 13.6239 17.4869 13.6678L14.875 15.8219L14.568 15.845C11.3053 16.0101 8.45363 13.5855 8.125 10.2991C8.0978 10.0271 8.08873 9.75368 8.0978 9.48073L8.125 9.07186L10.4004 6.67831L10.5216 6.53389C10.9641 5.93407 10.901 5.08454 10.3467 4.55767C10.2722 4.48679 10.1905 4.42377 10.1031 4.3696L5.71963 1.65468ZM4.67905 3.41821L4.92981 2.92989L9.31325 5.64482L7.03785 8.03838L6.9048 8.19945C6.74337 8.42523 6.64692 8.69262 6.62831 8.97228L6.6011 9.38114L6.5956 9.75572C6.59737 9.99681 6.60991 10.223 6.63244 10.4484C7.05378 14.6617 10.8109 17.7358 15.0243 17.3144C15.3199 17.2849 15.6002 17.1681 15.8294 16.9791L18.4413 14.825L21.1255 19.185L20.7241 19.4471C19.1216 20.4554 17.5551 20.9866 16.0107 21.0624L15.8665 21.0659L15.4672 20.9227L14.9402 20.7266C9.52941 18.6315 5.20895 14.4141 2.98378 9.0555L2.8825 8.80336L2.90662 8.5046C3.04381 7.21163 3.62832 5.50508 4.67905 3.41821Z" />
      <path d="M22.1554 5.10221L17.8751 9.38254L15.0947 6.60221L16.1554 5.54155L17.8751 7.26122L21.0947 4.04155L22.1554 5.10221Z" />
    </g>
  </symbol>
  <symbol id="uk2-phone-x" viewBox="0 0 24 24" xmlns="http://www.w3.org/2000/svg">
    <g id="primary">
      <path fill-rule="evenodd" clip-rule="evenodd" d="M5.71963 1.65468L5.5656 1.57115C4.88576 1.252 4.05964 1.4861 3.65459 2.14007C3.63552 2.17086 3.61757 2.20233 3.60078 2.23442L3.33125 2.75957C2.02708 5.35273 1.375 7.45683 1.375 9.07186C3.75561 15.2614 8.71744 20.1049 14.9627 22.3353L15.625 22.5719L16.0477 22.5623C18.0204 22.4734 19.9931 21.7618 21.9657 20.4276C22.6313 19.9775 22.824 19.0829 22.4028 18.3987L19.7186 14.0386L19.6183 13.8949C19.1535 13.3051 18.31 13.1443 17.6549 13.5476C17.5962 13.5838 17.5401 13.6239 17.4869 13.6678L14.875 15.8219L14.568 15.845C11.3053 16.0101 8.45363 13.5855 8.125 10.2991C8.0978 10.0271 8.08873 9.75368 8.0978 9.48073L8.125 9.07186L10.4004 6.67831L10.5216 6.53389C10.9641 5.93407 10.901 5.08454 10.3467 4.55767C10.2722 4.48679 10.1905 4.42377 10.1031 4.3696L5.71963 1.65468ZM4.67905 3.41821L4.92981 2.92989L9.31325 5.64482L7.03785 8.03838L6.9048 8.19945C6.74337 8.42523 6.64692 8.69262 6.62831 8.97228L6.6011 9.38114L6.5956 9.75572C6.59737 9.99681 6.60991 10.223 6.63244 10.4484C7.05378 14.6617 10.8109 17.7358 15.0243 17.3144C15.3199 17.2849 15.6002 17.1681 15.8294 16.9791L18.4413 14.825L21.1255 19.185L20.7241 19.4471C19.1216 20.4554 17.5551 20.9866 16.0107 21.0624L15.8665 21.0659L15.4672 20.9227L14.9402 20.7266C9.52941 18.6315 5.20895 14.4141 2.98378 9.0555L2.8825 8.80336L2.90662 8.5046C3.04381 7.21163 3.62832 5.50508 4.67905 3.41821Z" />
      <path d="M17.5643 6.82184L15.443 4.70052L16.5037 3.63986L18.625 5.76118L20.7463 3.63986L21.807 4.70052L19.6856 6.82184L21.807 8.94316L20.7463 10.0038L18.625 7.8825L16.5037 10.0038L15.443 8.94316L17.5643 6.82184Z" />
    </g>
  </symbol>
  <symbol id="uk2-calendar" viewBox="0 0 24 24" xmlns="http://www.w3.org/2000/svg">
    <g id="primary">
      <path d="M11.25 11.25V12.75H12.75V11.25H11.25Z" />
      <path d="M11.25 14.25H12.75V15.75H11.25V14.25Z" />
      <path d="M11.25 17.25V18.75H12.75V17.25H11.25Z" />
      <path d="M8.25 14.25V15.75H6.75V14.25H8.25Z" />
      <path d="M8.25 12.75V11.25H6.75V12.75H8.25Z" />
      <path d="M8.25 18.75V17.25H6.75V18.75H8.25Z" />
      <path d="M15.75 14.25V15.75H17.25V14.25H15.75Z" />
      <path d="M15.75 12.75V11.25H17.25V12.75H15.75Z" />
      <path d="M15.75 18.75V17.25H17.25V18.75H15.75Z" />
      <path fill-rule="evenodd" clip-rule="evenodd" d="M9 3.75V2.25H7.5V3.75H6C4.34315 3.75 3 5.09315 3 6.75V18.75C3 20.4069 4.34315 21.75 6 21.75H18C19.6569 21.75 21 20.4069 21 18.75V6.75C21 5.09315 19.6569 3.75 18 3.75H16.5V2.25H15V3.75H9ZM9 5.25V6.75H7.5V5.25H6C5.23075 5.25 4.59674 5.82906 4.51009 6.57507L4.5 6.75V8.25H19.5V6.75L19.4899 6.57507C19.4033 5.82906 18.7693 5.25 18 5.25H16.5V6.75H15V5.25H9ZM4.5 9.75V18.75C4.5 19.5193 5.07906 20.1533 5.82507 20.2399L6 20.25H18L18.1749 20.2399C18.9209 20.1533 19.5 19.5193 19.5 18.75V9.75H4.5Z" />
    </g>
  </symbol>
  <symbol id="uk2-calendar-check" viewBox="0 0 24 24" xmlns="http://www.w3.org/2000/svg">
    <g id="primary">
      <path fill-rule="evenodd" clip-rule="evenodd" d="M8.73438 3.75V2.25H7.23438V3.75H5.73438C4.07752 3.75 2.73438 5.09315 2.73438 6.75V18.75C2.73438 20.4069 4.07752 21.75 5.73438 21.75H13.9844V20.25H5.73438L5.55944 20.2399C4.81344 20.1533 4.23438 19.5193 4.23438 18.75V9.75H19.2344V15H20.7344V6.75C20.7344 5.09315 19.3912 3.75 17.7344 3.75H16.2344V2.25H14.7344V3.75H8.73438ZM8.73438 5.25V6.75H7.23438V5.25H5.73438C4.96512 5.25 4.33111 5.82906 4.24447 6.57507L4.23438 6.75V8.25H19.2344V6.75L19.2243 6.57507C19.1376 5.82906 18.5036 5.25 17.7344 5.25H16.2344V6.75H14.7344V5.25H8.73438Z" />
      <path d="M10.9844 11.25V12.75H12.4844V11.25H10.9844Z" />
      <path d="M12.4844 14.25H10.9844V15.75H12.4844V14.25Z" />
      <path d="M10.9844 18.75V17.25H12.4844V18.75H10.9844Z" />
      <path d="M7.98438 15.75V14.25H6.48438V15.75H7.98438Z" />
      <path d="M7.98438 11.25V12.75H6.48438V11.25H7.98438Z" />
      <path d="M7.98438 17.25V18.75H6.48438V17.25H7.98438Z" />
      <path d="M15.4844 11.25V12.75H16.9844V11.25H15.4844Z" />
      <path d="M15.4844 15.75V14.25H16.9844V15.75H15.4844Z" />
      <path d="M16.9844 21.3107L21.2648 17.0303L20.2041 15.9697L16.9844 19.1894L15.2648 17.4697L14.2041 18.5303L16.9844 21.3107Z" />
    </g>
  </symbol>
  <symbol id="uk2-building" viewBox="0 0 24 24" xmlns="http://www.w3.org/2000/svg">
    <g id="primary">
      <path d="M7.5 6.75H6V8.25H7.5V6.75Z" />
      <path d="M7.5 9.75H6V11.25H7.5V9.75Z" />
      <path d="M6 12.75H7.5V14.25H6V12.75Z" />
      <path d="M7.5 15.75H6V17.25H7.5V15.75Z" />
      <path d="M10.5 6.75H12V8.25H10.5V6.75Z" />
      <path d="M12 9.75H10.5V11.25H12V9.75Z" />
      <path d="M10.5 12.75H12V14.25H10.5V12.75Z" />
      <path d="M12 15.75H10.5V17.25H12V15.75Z" />
      <path d="M18 9.75V11.25H16.5V9.75H18Z" />
      <path d="M18 14.25V12.75H16.5V14.25H18Z" />
      <path d="M18 15.75V17.25H16.5V15.75H18Z" />
      <path fill-rule="evenodd" clip-rule="evenodd" d="M19.5 21C20.3284 21 21 20.3284 21 19.5V8.25C21 7.42157 20.3284 6.75 19.5 6.75H15V4.5C15 3.67157 14.3284 3 13.5 3H4.5C3.67157 3 3 3.67157 3 4.5V19.5C3 20.3284 3.67157 21 4.5 21H19.5ZM4.5 4.5H13.5V19.5H4.5V4.5ZM15 19.5V8.25H19.5V19.5H15Z" />
    </g>
  </symbol>
  <symbol id="uk2-identification" viewBox="0 0 24 24" xmlns="http://www.w3.org/2000/svg">
    <g id="primary">
      <path d="M12.7423 12.7214H19.7423V11.241H12.7423V12.7214Z" />
      <path d="M18.7423 9.79481H12.7423V8.2565H18.7423V9.79481Z" />
      <path d="M12.7423 15.756H19.7423V14.2194H12.7423V15.756Z" />
      <path fill-rule="evenodd" clip-rule="evenodd" d="M5.66714 9.85218C5.66714 8.48542 6.77512 7.37744 8.14189 7.37744C9.50865 7.37744 10.6166 8.48542 10.6166 9.85218C10.6166 11.2189 9.50865 12.3269 8.14189 12.3269C6.77512 12.3269 5.66714 11.2189 5.66714 9.85218ZM8.14189 8.87744C7.60355 8.87744 7.16714 9.31385 7.16714 9.85218C7.16714 10.3905 7.60355 10.8269 8.14189 10.8269C8.68022 10.8269 9.11663 10.3905 9.11663 9.85218C9.11663 9.31385 8.68022 8.87744 8.14189 8.87744Z" />
      <path d="M5.63477 16.9797C5.63477 15.595 6.75724 14.4725 8.14188 14.4725C9.52652 14.4725 10.649 15.595 10.649 16.9797H12.149C12.149 14.7666 10.3549 12.9725 8.14188 12.9725C5.92881 12.9725 4.13477 14.7666 4.13477 16.9797H5.63477Z" />
      <path fill-rule="evenodd" clip-rule="evenodd" d="M19.5 19.5C21.1569 19.5 22.5 18.1569 22.5 16.5V7.5C22.5 5.84315 21.1569 4.5 19.5 4.5H4.5C2.84315 4.5 1.5 5.84315 1.5 7.5V16.5C1.5 18.1569 2.84315 19.5 4.5 19.5H19.5ZM3 16.5V7.5L3.01009 7.32507C3.09674 6.57906 3.73075 6 4.5 6H19.5L19.6749 6.01009C20.4209 6.09674 21 6.73075 21 7.5V16.5L20.9899 16.6749C20.9033 17.4209 20.2693 18 19.5 18H4.5L4.32507 17.9899C3.57906 17.9033 3 17.2693 3 16.5Z" />
    </g>
  </symbol>
  <symbol id="uk2-user-fill" viewBox="0 0 24 24" xmlns="http://www.w3.org/2000/svg">
    <g id="primary">
      <path d="M16.5012 7.5C16.5012 9.98528 14.4865 12 12.0012 12C9.51593 12 7.50121 9.98528 7.50121 7.5C7.50121 5.01472 9.51593 3 12.0012 3C14.4865 3 16.5012 5.01472 16.5012 7.5Z" />
      <path d="M12.0012 13.5C8.36939 13.5 5.3405 16.0814 4.6493 19.5096C4.48557 20.3217 5.17279 21 6.00121 21H18.0012C18.8296 21 19.5169 20.3217 19.3531 19.5096C18.6619 16.0814 15.633 13.5 12.0012 13.5Z" />
    </g>
  </symbol>
  <symbol id="uk2-home-fill" viewBox="0 0 24 24" xmlns="http://www.w3.org/2000/svg">
    <path id="primary" d="M13.0607 2.68934L21 9.75V20.25C21 21.0784 20.3284 21.75 19.5 21.75H13.5V17.25H10.5V21.75H4.5C3.67157 21.75 3 21.0784 3 20.25V9.75L10.9393 2.68934C11.5251 2.10355 12.4749 2.10355 13.0607 2.68934Z" />
  </symbol>


</svg>
