<svg xmlns="http://www.w3.org/2000/svg" xmlns:xlink="http://www.w3.org/1999/xlink">
  <symbol id="uk2-file-blank" viewBox="0 0 24 24" xmlns="http://www.w3.org/2000/svg">
    <path id="primary" d="M12.8787 1.5C13.2765 1.5 13.658 1.65804 13.9393 1.93934L19.0607 7.06066C19.342 7.34196 19.5 7.7235 19.5 8.12132V21C19.5 21.8284 18.8284 22.5 18 22.5H6C5.17157 22.5 4.5 21.8284 4.5 21V3C4.5 2.17157 5.17157 1.5 6 1.5H12.8787ZM12 3H6V21H18V9H14.25C13.0805 9 12.1193 8.10767 12.0103 6.96669L12 6.75V3ZM13.5 3.6225V6.75C13.5 7.11819 13.7653 7.42441 14.1152 7.48792L14.25 7.5H17.379L13.5 3.6225Z" />
  </symbol>
  <symbol id="uk2-file" viewBox="0 0 24 24" xmlns="http://www.w3.org/2000/svg">
    <path id="primary" d="M12.8787 1.5C13.2765 1.5 13.658 1.65804 13.9393 1.93934L19.0607 7.06066C19.342 7.34196 19.5 7.7235 19.5 8.12132V21C19.5 21.8284 18.8284 22.5 18 22.5H6C5.17157 22.5 4.5 21.8284 4.5 21V3C4.5 2.17157 5.17157 1.5 6 1.5H12.8787ZM12 3H6V21H18V9H14.25C13.0805 9 12.1193 8.10767 12.0103 6.96669L12 6.75V3ZM16.5 16.5V18H7.5V16.5H16.5ZM16.5 13.5V15H7.5V13.5H16.5ZM16.5 10.5V12H7.5V10.5H16.5ZM13.5 3.6225V6.75C13.5 7.11819 13.7653 7.42441 14.1152 7.48792L14.25 7.5H17.379L13.5 3.6225Z" />
  </symbol>
  <symbol id="uk2-file-plus" viewBox="0 0 24 24" xmlns="http://www.w3.org/2000/svg">
    <g id="primary">
      <path d="M11.25 12.75V10.5H12.75V12.75H15V14.25H12.75V16.5H11.25V14.25H9V12.75H11.25Z" />
      <path fill-rule="evenodd" clip-rule="evenodd" d="M13.9393 1.93934C13.658 1.65804 13.2765 1.5 12.8787 1.5H6C5.17157 1.5 4.5 2.17157 4.5 3V21C4.5 21.8284 5.17157 22.5 6 22.5H18C18.8284 22.5 19.5 21.8284 19.5 21V8.12132C19.5 7.7235 19.342 7.34196 19.0607 7.06066L13.9393 1.93934ZM6 3H12V6.75L12.0103 6.96669C12.1193 8.10767 13.0805 9 14.25 9H18V21H6V3ZM13.5 6.75V3.6225L17.379 7.5H14.25L14.1152 7.48792C13.7653 7.42441 13.5 7.11819 13.5 6.75Z" />
    </g>
  </symbol>
  <symbol id="uk2-file-pdf" viewBox="0 0 24 24" xmlns="http://www.w3.org/2000/svg">
    <path id="primary" d="M5.25 19.5V21H17.25V19.5H18.75V21C18.75 21.8284 18.0784 22.5 17.25 22.5H5.25C4.42157 22.5 3.75 21.8284 3.75 21V19.5H5.25ZM12 10.5C13.2426 10.5 14.25 11.5074 14.25 12.75V15.75C14.25 16.9926 13.2426 18 12 18H9.75V10.5H12ZM6 10.5C7.24265 10.5 8.25 11.5074 8.25 12.75C8.25 13.9926 7.24265 15 6 15H5.25V18H3.75V10.5H6ZM20.25 10.5V12H17.25V13.5H19.5V15H17.25V18H15.75V10.5H20.25ZM12 12H11.25V16.5H12C12.4142 16.5 12.75 16.1642 12.75 15.75V12.75C12.75 12.3358 12.4142 12 12 12ZM6 12H5.25V13.5H6C6.41421 13.5 6.75 13.1642 6.75 12.75C6.75 12.3358 6.41421 12 6 12ZM12.1287 1.5C12.5265 1.5 12.908 1.65804 13.1893 1.93934L18.3107 7.06066C18.592 7.34196 18.75 7.7235 18.75 8.12132V9H13.5C12.3305 9 11.3693 8.10767 11.2603 6.96669L11.25 6.75V3H5.25V9H3.75V3C3.75 2.17157 4.42157 1.5 5.25 1.5H12.1287ZM12.75 3.6225V6.75C12.75 7.11819 13.0153 7.42441 13.3652 7.48792L13.5 7.5H16.629L12.75 3.6225Z" />
  </symbol>
  <symbol id="uk2-file-ribbon" viewBox="0 0 24 24" xmlns="http://www.w3.org/2000/svg">
    <g id="primary">
      <path fill-rule="evenodd" clip-rule="evenodd" d="M11.3787 1.125C11.7765 1.125 12.158 1.28304 12.4393 1.56434L17.5607 6.68566C17.842 6.96696 18 7.3485 18 7.74632V8.625H12.75C11.5805 8.625 10.6193 7.73267 10.5103 6.59169L10.5 6.375V2.625H4.5V20.625H12V22.125H4.5C3.67157 22.125 3 21.4534 3 20.625V2.625C3 1.79657 3.67157 1.125 4.5 1.125H11.3787ZM12 3.2475V6.375C12 6.74319 12.2653 7.04941 12.6152 7.11292L12.75 7.125H15.879L12 3.2475Z" />
      <path d="M6 10.125H12V11.625H6V10.125Z" />
      <path d="M6 13.125H12V14.625H6V13.125Z" />
      <path d="M6 16.125H12V17.625H6V16.125Z" />
      <path fill-rule="evenodd" clip-rule="evenodd" d="M21 13.875C21 14.7194 20.7209 15.4986 20.25 16.1254V22.125C20.25 22.4283 20.0673 22.7018 19.787 22.8179C19.5068 22.934 19.1842 22.8698 18.9697 22.6553L17.25 20.9357L15.5303 22.6553C15.3158 22.8698 14.9932 22.934 14.713 22.8179C14.4327 22.7018 14.25 22.4283 14.25 22.125V16.1254C13.7791 15.4986 13.5 14.7194 13.5 13.875C13.5 11.8039 15.1789 10.125 17.25 10.125C19.3211 10.125 21 11.8039 21 13.875ZM17.25 16.125C18.4926 16.125 19.5 15.1176 19.5 13.875C19.5 12.6324 18.4926 11.625 17.25 11.625C16.0074 11.625 15 12.6324 15 13.875C15 15.1176 16.0074 16.125 17.25 16.125ZM17.25 17.625C17.7833 17.625 18.2907 17.5137 18.75 17.313V20.3143L17.7803 19.3447C17.4874 19.0518 17.0126 19.0518 16.7197 19.3447L15.75 20.3143V17.313C16.2093 17.5137 16.7167 17.625 17.25 17.625Z" />
    </g>
  </symbol>
  <symbol id="uk2-clipboard" viewBox="0 0 24 24" xmlns="http://www.w3.org/2000/svg">
    <path id="primary" fill-rule="evenodd" clip-rule="evenodd" d="M9.87803 2.625H6C5.17157 2.625 4.5 3.29657 4.5 4.125V21.375C4.5 22.2034 5.17157 22.875 6 22.875H18C18.8284 22.875 19.5 22.2034 19.5 21.375V4.125C19.5 3.29657 18.8284 2.625 18 2.625H14.122C13.8131 1.75111 12.9797 1.125 12 1.125C11.0203 1.125 10.1869 1.75111 9.87803 2.625ZM12.75 3.375C12.75 3.78921 12.4142 4.125 12 4.125C11.5858 4.125 11.25 3.78921 11.25 3.375C11.25 2.96079 11.5858 2.625 12 2.625C12.4142 2.625 12.75 2.96079 12.75 3.375ZM15.75 4.125H18V21.375H6V4.125H8.25C8.25 4.95343 8.92157 5.625 9.75 5.625H14.25C15.0784 5.625 15.75 4.95343 15.75 4.125Z" />
  </symbol>
  <symbol id="uk2-clipboard-check" viewBox="0 0 24 24" xmlns="http://www.w3.org/2000/svg">
    <g id="primary">
      <path d="M11.2501 16.4357L16.2804 11.4054L15.2197 10.3447L11.2501 14.3144L9.53039 12.5947L8.46973 13.6554L11.2501 16.4357Z" />
      <path fill-rule="evenodd" clip-rule="evenodd" d="M6 2.625H9.87803C10.1869 1.75111 11.0203 1.125 12 1.125C12.9797 1.125 13.8131 1.75111 14.122 2.625H18C18.8284 2.625 19.5 3.29657 19.5 4.125V21.375C19.5 22.2034 18.8284 22.875 18 22.875H6C5.17157 22.875 4.5 22.2034 4.5 21.375V4.125C4.5 3.29657 5.17157 2.625 6 2.625ZM12 4.125C12.4142 4.125 12.75 3.78921 12.75 3.375C12.75 2.96079 12.4142 2.625 12 2.625C11.5858 2.625 11.25 2.96079 11.25 3.375C11.25 3.78921 11.5858 4.125 12 4.125ZM18 4.125H15.75C15.75 4.95343 15.0784 5.625 14.25 5.625H9.75C8.92157 5.625 8.25 4.95343 8.25 4.125H6V21.375H18V4.125Z" />
    </g>
  </symbol>
  <symbol id="uk2-scroll" viewBox="0 0 24 24" xmlns="http://www.w3.org/2000/svg">
    <path id="primary" fill-rule="evenodd" clip-rule="evenodd" d="M21.75 4.125C21.75 2.67525 20.5747 1.5 19.125 1.5H6.75V1.52658C5.47789 1.70854 4.5 2.80257 4.5 4.125V17.25H2.25V19.5C2.25 21.1569 3.59315 22.5 5.25 22.5H15.375C16.6974 22.5 17.7915 21.5221 17.9734 20.25H18V6.75H21.75V4.125ZM16.5 4.125C16.5 3.7224 16.5906 3.34097 16.7526 3H7.04258L6.9624 3.01147C6.41861 3.08925 6 3.55954 6 4.125V17.25H14.25L14.25 19.875C14.25 20.4963 14.7537 21 15.375 21C15.9963 21 16.5 20.4963 16.5 19.875V4.125ZM12.75 18.75H3.75V19.5C3.75 20.3284 4.42157 21 5.25 21H13.0026C12.8406 20.659 12.75 20.2776 12.75 19.875V18.75ZM18 4.125V5.25H20.25V4.125C20.25 3.50368 19.7463 3 19.125 3C18.5037 3 18 3.50368 18 4.125Z" />
  </symbol>
  <symbol id="uk2-picture" viewBox="0 0 24 24" xmlns="http://www.w3.org/2000/svg">
    <path id="primary" d="M18 3C19.6569 3 21 4.34315 21 6V18C21 19.6569 19.6569 21 18 21H6C4.34315 21 3 19.6569 3 18V6C3 4.34315 4.34315 3 6 3H18ZM8.25 12.3105L4.5 16.059V18C4.5 18.7693 5.07906 19.4033 5.82507 19.4899L6 19.5H18C18.7693 19.5 19.4033 18.9209 19.4899 18.1749L19.5 18V17.5605L15.75 13.8105L13.2803 16.2803C13.02 16.5407 12.6158 16.5696 12.3235 16.3671L12.2197 16.2803L8.25 12.3105ZM18 4.5H6C5.23075 4.5 4.59674 5.07906 4.51009 5.82507L4.5 6V13.938L7.71967 10.7197C7.98002 10.4593 8.38416 10.4304 8.67646 10.6329L8.78033 10.7197L12.75 14.6895L15.2197 12.2197C15.48 11.9593 15.8842 11.9304 16.1765 12.1329L16.2803 12.2197L19.5 15.4395V6C19.5 5.23075 18.9209 4.59674 18.1749 4.51009L18 4.5ZM15.75 6C16.9926 6 18 7.00736 18 8.25C18 9.49264 16.9926 10.5 15.75 10.5C14.5074 10.5 13.5 9.49264 13.5 8.25C13.5 7.00736 14.5074 6 15.75 6ZM15.75 7.5C15.3358 7.5 15 7.83579 15 8.25C15 8.66421 15.3358 9 15.75 9C16.1642 9 16.5 8.66421 16.5 8.25C16.5 7.83579 16.1642 7.5 15.75 7.5Z" />
  </symbol>
  <symbol id="uk2-presentation" viewBox="0 0 24 24" xmlns="http://www.w3.org/2000/svg">
    <g id="primary">
      <path d="M15 6.75H16.5V14.25H15V6.75Z" />
      <path d="M12.75 8.25H11.25V14.25H12.75V8.25Z" />
      <path d="M7.5 10.5H9V14.25H7.5V10.5Z" />
      <path fill-rule="evenodd" clip-rule="evenodd" d="M6 3C4.34315 3 3 4.34315 3 6V14.25C3 15.9069 4.34315 17.25 6 17.25H9V19.5H6.75V21H17.25V19.5H15V17.25H18C19.6569 17.25 21 15.9069 21 14.25V6C21 4.34315 19.6569 3 18 3H6ZM6 4.5H18C18.8284 4.5 19.5 5.17157 19.5 6V14.25C19.5 15.0784 18.8284 15.75 18 15.75H6C5.17157 15.75 4.5 15.0784 4.5 14.25V6C4.5 5.17157 5.17157 4.5 6 4.5ZM10.5 19.5V17.25H13.5V19.5H10.5Z" />
      <path fill-rule="evenodd" clip-rule="evenodd" d="M15 6.75H16.5V14.25H15V6.75ZM12.75 8.25H11.25V14.25H12.75V8.25ZM7.5 10.5H9V14.25H7.5V10.5Z" />
    </g>
  </symbol>
  <symbol id="uk2-pencil-writing-fill" viewBox="0 0 24 24" xmlns="http://www.w3.org/2000/svg">
    <g id="primary">
      <path d="M6 3H13.5V4.5H6C5.17157 4.5 4.5 5.17157 4.5 6V18C4.5 18.8284 5.17157 19.5 6 19.5H18C18.8284 19.5 19.5 18.8284 19.5 18V10.5H21V18C21 19.6569 19.6569 21 18 21H6C4.34315 21 3 19.6569 3 18V6C3 4.34315 4.34315 3 6 3Z" />
      <path fill-rule="evenodd" clip-rule="evenodd" d="M8.25 15.7503V12.0003L16.125 4.12528C17.1605 3.08975 18.8395 3.08975 19.875 4.12528C20.9105 5.16082 20.9105 6.83975 19.875 7.87528L12 15.7503H8.25ZM9.75 14.2503V12.6216L17.1857 5.18595C17.6354 4.7362 18.3646 4.7362 18.8143 5.18594C19.2641 5.63569 19.2641 6.36487 18.8143 6.81462L11.3787 14.2503H9.75Z" />
    </g>
  </symbol>
  <symbol id="uk2-pencil" viewBox="0 0 24 24" xmlns="http://www.w3.org/2000/svg">
    <path id="primary" d="M7.41016 21.0902H2.91016V16.5902L15.6602 3.84018C16.9028 2.59754 18.9175 2.59754 20.1602 3.84018C21.4028 5.08282 21.4028 7.09754 20.1602 8.34018L7.41016 21.0902ZM14.6897 6.9297L4.41016 17.2112V19.5902H6.78616L17.0687 9.3087L14.6897 6.9297ZM16.8675 4.77014L16.7208 4.90084L15.7502 5.8692L18.1292 8.2482L19.0995 7.27952C19.7094 6.66959 19.753 5.70775 19.2302 5.04755L19.0995 4.90084C18.4896 4.29091 17.5277 4.24734 16.8675 4.77014Z" />
  </symbol>
  <symbol id="uk2-pencil-writing" viewBox="0 0 24 24" xmlns="http://www.w3.org/2000/svg">
    <path id="primary" d="M21 19.5902V21.0902H3V19.5902H21ZM17.25 3.84018C18.4926 5.08282 18.4926 7.09754 17.25 8.34018L7.5 18.0902H3V13.5902L12.75 3.84018C13.9926 2.59754 16.0074 2.59754 17.25 3.84018ZM11.7795 6.9297L4.5 14.2112V16.5902H6.876L14.1585 9.3087L11.7795 6.9297ZM13.9574 4.77014L13.8107 4.90084L12.84 5.8692L15.219 8.2482L16.1893 7.27952C16.7993 6.66959 16.8428 5.70775 16.32 5.04755L16.1893 4.90084C15.5794 4.29091 14.6176 4.24734 13.9574 4.77014Z" />
  </symbol>
  <symbol id="uk2-disk" viewBox="0 0 24 24" xmlns="http://www.w3.org/2000/svg">
    <path id="primary" d="M15.8787 3C16.2765 3 16.658 3.15804 16.9393 3.43934L20.5607 7.06066C20.842 7.34196 21 7.7235 21 8.12132V19.5C21 20.3284 20.3284 21 19.5 21H4.5C3.67157 21 3 20.3284 3 19.5V4.5C3 3.67157 3.67157 3 4.5 3H15.8787ZM7.5 4.5H4.5V19.5H7.5V13.5C7.5 12.6716 8.17157 12 9 12H15C15.8284 12 16.5 12.6716 16.5 13.5V19.5H19.5V8.12132L16.5 5.1225V7.5C16.5 8.32843 15.8284 9 15 9H9C8.17157 9 7.5 8.32843 7.5 7.5V4.5ZM15 13.5H9V19.5H15V13.5ZM9 4.5V7.5H15V4.5H9Z" />
  </symbol>
  <symbol id="uk2-printer" viewBox="0 0 24 24" xmlns="http://www.w3.org/2000/svg">
    <path id="primary" fill-rule="evenodd" clip-rule="evenodd" d="M5.25 6.75V2.25H18.75V6.75H21C21.8284 6.75 22.5 7.42157 22.5 8.25V15.75C22.5 16.5784 21.8284 17.25 21 17.25H18.75V21.75H5.25V17.25H3C2.17157 17.25 1.5 16.5784 1.5 15.75V8.25C1.5 7.42157 2.17157 6.75 3 6.75H5.25ZM6.75 3.75H17.25V6.75H6.75V3.75ZM3 8.25V15.75H5.25V11.25H18.75V15.75H21V8.25H3ZM6.75 12.75H17.25V20.25H6.75V12.75Z" />
  </symbol>
  <symbol id="uk2-link" viewBox="0 0 24 24" xmlns="http://www.w3.org/2000/svg">
    <g id="primary">
      <path d="M13.8793 9.54725C14.5538 10.2342 15.0084 11.0549 15.2441 11.9223C15.299 12.1243 15.1223 12.5688 14.7042 12.6644C14.2861 12.76 13.8958 12.5587 13.705 12.0251C13.5193 11.5058 13.2207 11.0175 12.809 10.5982C11.2888 9.04999 8.80143 9.02727 7.25325 10.5474L4.29726 13.4499C2.74908 14.97 2.72636 17.4574 4.2465 19.0056C5.76665 20.5538 8.25402 20.5765 9.8022 19.0563L11.4518 17.4366C11.5923 17.2986 11.7814 17.2215 11.9783 17.2217C12.6493 17.2226 12.9815 18.0368 12.5028 18.5069L10.8531 20.1266C8.71383 22.2272 5.27675 22.1958 3.1762 20.0565C1.07564 17.9172 1.10704 14.4801 3.24634 12.3796L6.20233 9.47711C8.34162 7.37655 11.7787 7.40795 13.8793 9.54725Z" />
      <path d="M16.7436 13.4527L19.6996 10.5502C21.2478 9.03008 21.2705 6.54271 19.7503 4.99453C18.2302 3.44635 15.7428 3.42362 14.1946 4.94377L12.545 6.56353C12.4045 6.70148 12.2154 6.77864 12.0185 6.77838C11.3475 6.77748 11.0153 5.96334 11.4941 5.49323L13.1437 3.87346C15.283 1.7729 18.7201 1.80431 20.8207 3.9436C22.9212 6.0829 22.8898 9.51998 20.7505 11.6205L17.7945 14.523C15.6552 16.6236 12.2181 16.5922 10.1176 14.4529C9.45388 13.7769 9.00301 12.9714 8.76424 12.1194C8.72368 11.9747 8.76192 11.6839 8.9267 11.4945C9.12407 11.2676 9.48608 11.2029 9.77411 11.2893C10.0263 11.3651 10.1658 11.6246 10.2942 11.9816C10.4801 12.4984 10.7779 12.9843 11.1879 13.4019C12.708 14.9501 15.1954 14.9728 16.7436 13.4527Z" />
    </g>
  </symbol>
  <symbol id="uk2-cd-maturity" viewBox="0 0 24 24" xmlns="http://www.w3.org/2000/svg">
    <g id="primary">
      <path fill-rule="evenodd" clip-rule="evenodd" d="M10.451 9.39062H4.22621V7.89062H10.451V9.39062Z" />
      <path fill-rule="evenodd" clip-rule="evenodd" d="M10.451 12.3887H4.22621V10.8887H10.451V12.3887Z" />
      <path fill-rule="evenodd" clip-rule="evenodd" d="M7.00187 15.3828H4.22621V13.8828H7.00187V15.3828Z" />
      <path d="M2.44531 17.628V5.64844H21.5571V17.628H20.807V19.128H22.0571C22.6094 19.128 23.0571 18.6803 23.0571 18.128V5.14844C23.0571 4.59615 22.6094 4.14844 22.0571 4.14844H1.94531C1.39303 4.14844 0.945312 4.59615 0.945312 5.14844V18.128C0.945312 18.6803 1.39303 19.128 1.94531 19.128H11.1851V17.628H2.44531Z" />
      <path fill-rule="evenodd" clip-rule="evenodd" d="M19.6305 11.2395C19.6305 12.0476 19.3586 12.7934 18.8998 13.3933V19.1354C18.8998 19.4258 18.7217 19.6875 18.4487 19.7986C18.1756 19.9097 17.8613 19.8483 17.6523 19.643L15.9769 17.9971L14.3014 19.643C14.0924 19.8483 13.7781 19.9097 13.5051 19.7986C13.232 19.6875 13.054 19.4258 13.054 19.1354V13.3933C12.5951 12.7934 12.3232 12.0476 12.3232 11.2395C12.3232 9.25727 13.959 7.65039 15.9769 7.65039C17.9947 7.65039 19.6305 9.25727 19.6305 11.2395ZM15.9769 13.3929C17.1876 13.3929 18.1691 12.4288 18.1691 11.2395C18.1691 10.0501 17.1876 9.08602 15.9769 9.08602C14.7662 9.08602 13.7847 10.0501 13.7847 11.2395C13.7847 12.4288 14.7662 13.3929 15.9769 13.3929ZM15.9769 14.8285C16.4965 14.8285 16.9908 14.722 17.4383 14.5299V17.4025L16.4936 16.4744C16.2082 16.1941 15.7455 16.1941 15.4602 16.4744L14.5154 17.4025V14.5299C14.963 14.722 15.4573 14.8285 15.9769 14.8285Z" />
    </g>
  </symbol>
  <symbol id="uk2-internet" viewBox="0 0 24 24" xmlns="http://www.w3.org/2000/svg">
    <path id="primary" fill-rule="evenodd" clip-rule="evenodd" d="M12 22.5C17.799 22.5 22.5 17.799 22.5 12C22.5 6.20101 17.799 1.5 12 1.5C6.20101 1.5 1.5 6.20101 1.5 12C1.5 17.799 6.20101 22.5 12 22.5ZM14.1489 2.96268C15.396 3.25958 16.5456 3.80819 17.541 4.55185C17.0479 4.92025 16.5169 5.24079 15.955 5.50657C15.4554 4.5679 14.8471 3.71173 14.1489 2.96268ZM18.5052 5.38047C17.8846 5.87004 17.2076 6.29124 16.4855 6.6327C17.0807 8.07337 17.4348 9.66586 17.4915 11.3364H21.2495C21.0873 9.01027 20.068 6.92039 18.5052 5.38047ZM12.4032 3.01931C13.3464 3.81456 14.1595 4.81264 14.7923 5.96297C14.0335 6.20289 13.2325 6.34791 12.4032 6.38411V3.01931ZM15.3357 7.0952C14.409 7.40551 13.4248 7.5904 12.4032 7.62969V11.3364H16.2463C16.1906 9.81381 15.8684 8.38134 15.3357 7.0952ZM11.1587 3.01931L11.1587 6.35622C10.4387 6.29219 9.74234 6.14593 9.07907 5.92691C9.64291 4.9109 10.3478 3.76049 11.1587 3.01931ZM11.1587 7.60513C10.2455 7.53365 9.365 7.34562 8.53212 7.05589C7.98967 8.35213 7.66148 9.79828 7.60516 11.3364H11.1587V7.60513ZM9.66329 3.00507C8.99396 3.73051 8.4084 4.55491 7.92336 5.45629C7.40009 5.20069 6.90443 4.89732 6.44205 4.55185C7.39178 3.84227 8.48193 3.31027 9.66329 3.00507ZM7.38787 6.58008C6.70679 6.24829 6.06686 5.84518 5.47779 5.38047C3.91502 6.92039 2.89567 9.01027 2.73347 11.3364H6.36001C6.41741 9.64549 6.77947 8.03455 7.38787 6.58008ZM21.2539 12.5809C21.1064 14.9333 20.0827 17.048 18.5052 18.6024C17.8481 18.0839 17.1277 17.6422 16.3574 17.2906C16.993 15.8557 17.386 14.2604 17.4784 12.5809H21.2539ZM17.541 19.431C17.0021 19.0284 16.4181 18.683 15.7979 18.4037C15.221 19.4225 14.5137 20.3374 13.7013 21.115C15.1213 20.8506 16.4276 20.2628 17.541 19.431ZM16.2323 12.5809C16.1408 14.1185 15.7771 15.559 15.2 16.8432C14.3131 16.5597 13.3751 16.3905 12.4032 16.3531V12.5809H16.2323ZM14.6179 17.9666C13.9111 17.7584 13.1692 17.6322 12.4032 17.5987V20.6047C13.2619 19.8807 14.0127 18.9886 14.6179 17.9666ZM11.1587 12.5809V16.3777C10.2951 16.4453 9.46081 16.6171 8.66834 16.8806C8.0815 15.587 7.71159 14.1334 7.61924 12.5809H11.1587ZM11.1587 17.6266C10.5016 17.685 9.86413 17.812 9.25358 18.0002C9.78588 18.8919 10.4294 19.9381 11.1587 20.6047V17.6266ZM6.37306 12.5809C6.46656 14.2801 6.8678 15.8932 7.51657 17.3411C6.78731 17.6842 6.10383 18.1085 5.47779 18.6024C3.90035 17.048 2.87657 14.9333 2.72913 12.5809H6.37306ZM8.08081 18.4515C7.49934 18.722 6.95056 19.051 6.44205 19.431C7.51211 20.2305 8.76043 20.8045 10.1166 21.0827C9.33093 20.3243 8.64461 19.4371 8.08081 18.4515Z" />
  </symbol>
  <symbol id="uk2-pencil-fill" viewBox="0 0 24 24" xmlns="http://www.w3.org/2000/svg">
    <path id="primary" fill-rule="evenodd" clip-rule="evenodd" d="M13.6307 5.8707L18.1307 10.3707L7.41016 21.0902H2.91016V16.5902L13.6307 5.8707ZM20.1602 3.84018C21.4028 5.08282 21.4028 7.09754 20.1602 8.34018L19.1912 9.3102L14.6912 4.8102L15.6602 3.84018C16.9028 2.59754 18.9175 2.59754 20.1602 3.84018Z" />
  </symbol>

</svg>
