<svg xmlns="http://www.w3.org/2000/svg" xmlns:xlink="http://www.w3.org/1999/xlink">
  <symbol id="uk2-bank" viewBox="0 0 24 24" xmlns="http://www.w3.org/2000/svg">
    <g id="primary">
      <path d="M16.5 11.25V15.75H18V11.25H16.5ZM21 17.25H3V20.25H21V17.25ZM12 3.8085L3 6.38145V9.75H21V6.38145L12 3.8085ZM15 6.75V8.25H9V6.75H15ZM9 11.25V15.75H15V11.25H9ZM6 11.25V15.75H7.5V11.25H6ZM19.5 15.75H21C21.8284 15.75 22.5 16.4216 22.5 17.25V20.25C22.5 21.0784 21.8284 21.75 21 21.75H3C2.17157 21.75 1.5 21.0784 1.5 20.25V17.25C1.5 16.4216 2.17157 15.75 3 15.75H4.5V11.25H3C2.17157 11.25 1.5 10.5784 1.5 9.75V6.38145C1.5 5.71173 1.94397 5.12315 2.58792 4.93917L12 2.25L21.4121 4.93917C22.056 5.12315 22.5 5.71173 22.5 6.38145V9.75C22.5 10.5784 21.8284 11.25 21 11.25H19.5V15.75Z" />
    </g>
  </symbol>
  <symbol id="uk2-coin-cents" viewBox="0 0 24 24" xmlns="http://www.w3.org/2000/svg">
    <path id="primary" d="M12 1.5C17.799 1.5 22.5 6.20101 22.5 12C22.5 17.799 17.799 22.5 12 22.5C6.20101 22.5 1.5 17.799 1.5 12C1.5 6.20101 6.20101 1.5 12 1.5ZM12 3C7.02944 3 3 7.02944 3 12C3 16.9706 7.02944 21 12 21C16.9706 21 21 16.9706 21 12C21 7.02944 16.9706 3 12 3ZM12.75 6L12.7501 8.32503C13.4851 8.47424 14.142 8.83842 14.6524 9.34908L13.5917 10.4097C13.1845 10.0021 12.6217 9.75 12 9.75C10.7574 9.75 9.75 10.7574 9.75 12C9.75 13.2426 10.7574 14.25 12 14.25C12.6213 14.25 13.1838 13.9982 13.591 13.591L14.6517 14.6517C14.1415 15.1618 13.485 15.5257 12.7505 15.6749L12.75 18H11.25L11.2499 15.675C9.53825 15.3275 8.25 13.8142 8.25 12C8.25 10.1858 9.53825 8.67255 11.2499 8.32504L11.25 6H12.75Z" />
  </symbol>
  <symbol id="uk2-coin-dollar-sign" viewBox="0 0 24 24" xmlns="http://www.w3.org/2000/svg">
    <path id="primary" fill-rule="evenodd" clip-rule="evenodd" d="M12 1.5C17.799 1.5 22.5 6.20101 22.5 12C22.5 17.799 17.799 22.5 12 22.5C6.20101 22.5 1.5 17.799 1.5 12C1.5 6.20101 6.20101 1.5 12 1.5ZM12 3C7.02944 3 3 7.02944 3 12C3 16.9706 7.02944 21 12 21C16.9706 21 21 16.9706 21 12C21 7.02944 16.9706 3 12 3ZM12.75 4.5L12.7508 6.8528C14.0141 7.20601 14.9009 8.41133 14.9922 9.55637L15 9.75H13.5C13.5 9.10078 12.8194 8.25 12 8.25C10.9142 8.25 10.5 8.66421 10.5 9.75C10.5 10.2385 10.861 10.5718 12.0645 11.1918L12.3354 11.3292C14.2894 12.3062 15 12.8983 15 14.25C15 15.8974 14.1958 16.9312 12.7515 17.1874L12.75 19.5H11.25L11.2507 17.1476C9.98664 16.795 9.09919 15.5891 9.00779 14.4436L9 14.25H10.5C10.5 14.8992 11.1806 15.75 12 15.75C13.0858 15.75 13.5 15.3358 13.5 14.25C13.5 13.7615 13.139 13.4282 11.9355 12.8082L11.6646 12.6708C9.71062 11.6938 9 11.1017 9 9.75C9 8.10204 9.80475 7.06807 11.25 6.81233L11.25 4.5H12.75Z" />
  </symbol>
  <symbol id="uk2-dollar-arrow-forward" viewBox="0 0 24 24" xmlns="http://www.w3.org/2000/svg">
    <g id="primary">
      <path d="M11.0938 1.5C14.9802 1.5 18.3735 3.61154 20.189 6.75H18.4047C16.7709 4.4789 14.105 3 11.0938 3C6.12319 3 2.09375 7.02944 2.09375 12C2.09375 16.9706 6.12319 21 11.0938 21C14.105 21 16.7709 19.5211 18.4047 17.25H20.189C18.3735 20.3885 14.9802 22.5 11.0938 22.5C5.29476 22.5 0.59375 17.799 0.59375 12C0.59375 6.20101 5.29476 1.5 11.0938 1.5Z" />
      <path d="M11.8438 4.5L11.8445 6.8528C13.1078 7.20601 13.9946 8.41133 14.086 9.55637L14.0938 9.75H12.5938C12.5938 9.10078 11.9131 8.25 11.0938 8.25C10.008 8.25 9.59375 8.66421 9.59375 9.75C9.59375 10.2385 9.95472 10.5718 11.1582 11.1918L11.4292 11.3292C13.3831 12.3062 14.0938 12.8983 14.0938 14.25C14.0938 15.8974 13.2896 16.9312 11.8453 17.1874L11.8438 19.5H10.3438L10.3445 17.1476C9.08039 16.795 8.19294 15.5891 8.10154 14.4436L8.09375 14.25H9.59375C9.59375 14.8992 10.2744 15.75 11.0938 15.75C12.1795 15.75 12.5938 15.3358 12.5938 14.25C12.5938 13.7615 12.2328 13.4282 11.0293 12.8082L10.7583 12.6708C8.80437 11.6938 8.09375 11.1017 8.09375 9.75C8.09375 8.10204 8.8985 7.06807 10.3438 6.81233L10.3438 4.5H11.8438Z" />
      <path d="M23.4044 12L19.8741 15.5303L18.8134 14.4697L20.5334 12.7492L15.5938 12.75V11.25L20.5334 11.2492L18.8134 9.53034L19.8741 8.46968L23.4044 12Z" />
    </g>
  </symbol>
  <symbol id="uk2-dollar-arrow-back" viewBox="0 0 24 24" xmlns="http://www.w3.org/2000/svg">
    <g id="primary">
      <path d="M3.80912 6.75C5.62462 3.61154 9.01793 1.5 12.9044 1.5C18.7034 1.5 23.4044 6.20101 23.4044 12C23.4044 17.799 18.7034 22.5 12.9044 22.5C9.01793 22.5 5.62462 20.3885 3.80912 17.25H5.59348C7.22725 19.5211 9.89312 21 12.9044 21C17.875 21 21.9044 16.9706 21.9044 12C21.9044 7.02944 17.875 3 12.9044 3C9.89312 3 7.22725 4.4789 5.59348 6.75H3.80912Z" />
      <path d="M4.12408 15.5303L0.59375 12L4.12408 8.46968L5.18474 9.53034L3.46475 11.2492L8.40441 11.25V12.75L3.46475 12.7492L5.18474 14.4697L4.12408 15.5303Z" />
      <path d="M13.6552 6.8528L13.6544 4.5H12.1544L12.1544 6.81233C10.7092 7.06807 9.90441 8.10204 9.90441 9.75C9.90441 11.1017 10.615 11.6938 12.569 12.6708L12.84 12.8082C14.0434 13.4282 14.4044 13.7615 14.4044 14.25C14.4044 15.3358 13.9902 15.75 12.9044 15.75C12.085 15.75 11.4044 14.8992 11.4044 14.25H9.90441L9.9122 14.4436C10.0036 15.5891 10.891 16.795 12.1551 17.1476L12.1544 19.5H13.6544L13.6559 17.1874C15.1002 16.9312 15.9044 15.8974 15.9044 14.25C15.9044 12.8983 15.1938 12.3062 13.2398 11.3292L12.9689 11.1918C11.7654 10.5718 11.4044 10.2385 11.4044 9.75C11.4044 8.66421 11.8186 8.25 12.9044 8.25C13.7238 8.25 14.4044 9.10078 14.4044 9.75H15.9044L15.8966 9.55637C15.8053 8.41133 14.9185 7.20601 13.6552 6.8528Z" />
    </g>
  </symbol>
  <symbol id="uk2-bank-check" viewBox="0 0 24 24" xmlns="http://www.w3.org/2000/svg">
    <path id="primary" d="M21 16.5V7.5H3V16.5H21ZM19.5 10.5V15H13.5V10.5H19.5ZM10.5 13.5V15H4.5V13.5H10.5ZM18 12H15V13.5H18V12ZM12 10.5V12H4.5V10.5H12ZM21 6C21.8284 6 22.5 6.67157 22.5 7.5V16.5C22.5 17.3284 21.8284 18 21 18H3C2.17157 18 1.5 17.3284 1.5 16.5V7.5C1.5 6.67157 2.17157 6 3 6H21Z" />
  </symbol>
  <symbol id="uk2-bank-check-stack" viewBox="0 0 24 24" xmlns="http://www.w3.org/2000/svg">
    <path id="primary" d="M21 7.5C21.8284 7.5 22.5 8.17157 22.5 9V18C22.5 18.8284 21.8284 19.5 21 19.5H3C2.17157 19.5 1.5 18.8284 1.5 18V9C1.5 8.17157 2.17157 7.5 3 7.5H21ZM21 9H3V18H21V9ZM19.5 12V16.5H13.5V12H19.5ZM10.5 15V16.5H4.5V15H10.5ZM18 13.5H15V15H18V13.5ZM12 12V13.5H4.5V12H12ZM19.5 4.5V6H4.5V4.5H19.5Z" />
  </symbol>
  <symbol id="uk2-bank-check-stack-x" viewBox="0 0 24 24" xmlns="http://www.w3.org/2000/svg">
    <g id="primary">
      <path d="M19.0071 17.2474L16.8857 15.1261L17.9464 14.0654L20.0677 16.1868L22.189 14.0654L23.2497 15.1261L21.1284 17.2474L23.2497 19.3687L22.189 20.4294L20.0677 18.3081L17.9464 20.4294L16.8857 19.3687L19.0071 17.2474Z" />
      <path d="M21.75 8.07227C21.75 7.24384 21.0784 6.57227 20.25 6.57227H2.25C1.42157 6.57227 0.75 7.24384 0.75 8.07227V17.0723C0.75 17.9007 1.42157 18.5723 2.25 18.5723H15.4293V17.0723H2.25V8.07227H20.25V12.5723H21.75V8.07227Z" />
      <path d="M18.75 12.5723V11.0723H12.75V15.5723H14.25V12.5723H18.75Z" />
      <path d="M9.75 15.5723V14.0723H3.75V15.5723H9.75Z" />
      <path d="M11.25 12.5723V11.0723H3.75V12.5723H11.25Z" />
      <path d="M18.75 5.07227V3.57227H3.75V5.07227H18.75Z" />
    </g>
  </symbol>
  <symbol id="uk2-bank-check-pencil" viewBox="0 0 24 24" xmlns="http://www.w3.org/2000/svg">
    <path id="primary" d="M19.5 9.04457L21 9.04607C21.8284 9.04607 22.5 9.71764 22.5 10.5461V19.5461C22.5 20.3745 21.8284 21.0461 21 21.0461H3C2.17157 21.0461 1.5 20.3745 1.5 19.5461V10.5461C1.5 9.71764 2.17157 9.04607 3 9.04607L10.5 9.04457V10.5446L3 10.5461V19.5461H21V10.5461L19.5 10.5446V9.04457ZM19.5 13.5461V18.0461H13.5V13.5461H19.5ZM10.5 16.5461V18.0461H4.5V16.5461H10.5ZM18 15.0461H15V16.5461H18V15.0461ZM4.5 15.0461V13.5461H12V15.0461H4.5ZM17.0947 3.64074C18.0089 2.72652 19.4911 2.72652 20.4053 3.64074C21.2624 4.49781 21.316 5.85412 20.566 6.7736L20.4053 6.9514L15.3107 12.0461H12V8.73541L17.0947 3.64074ZM19.3447 4.7014C19.0527 4.40946 18.5996 4.37703 18.2718 4.60409L18.1553 4.7014L13.5 9.35507V10.5461H14.688L19.3447 5.89074C19.6001 5.63529 19.6569 5.25641 19.515 4.9461L19.442 4.81787L19.3447 4.7014Z" />
  </symbol>
  <symbol id="uk2-bank-check-arrow-up" viewBox="0 0 24 24" xmlns="http://www.w3.org/2000/svg">
    <path id="primary" d="M7.5 8.40441V9.90441H3V18.9044H21V9.90441H16.5V8.40441H21C21.8284 8.40441 22.5 9.07598 22.5 9.90441V18.9044C22.5 19.7328 21.8284 20.4044 21 20.4044H3C2.17157 20.4044 1.5 19.7328 1.5 18.9044V9.90441C1.5 9.07598 2.17157 8.40441 3 8.40441H7.5ZM19.5 12.9044V17.4044H13.5V12.9044H19.5ZM10.5 15.9044V17.4044H4.5V15.9044H10.5ZM18 14.4044H15V15.9044H18V14.4044ZM12 12.9044V14.4044H4.5V12.9044H12ZM12 3.59375L15.5303 7.12408L14.4697 8.18474L12.7492 6.46475L12.75 11.4044H11.25L11.2492 6.46475L9.53033 8.18474L8.46967 7.12408L12 3.59375Z" />
  </symbol>
  <symbol id="uk2-coins" viewBox="0 0 24 24" xmlns="http://www.w3.org/2000/svg">
    <path id="primary" d="M15 4.5C19.1421 4.5 22.5 7.85786 22.5 12C22.5 16.1421 19.1421 19.5 15 19.5C14.0598 19.5 13.1601 19.327 12.3308 19.0111L12.0007 18.8762C11.0819 19.2772 10.067 19.5 9 19.5C4.85786 19.5 1.5 16.1421 1.5 12C1.5 7.85786 4.85786 4.5 9 4.5C10.067 4.5 11.0819 4.7228 12.0008 5.12441L12.2231 5.03088C13.0819 4.68836 14.019 4.5 15 4.5ZM9 6C5.68629 6 3 8.68629 3 12C3 15.3137 5.68629 18 9 18C9.45134 18 9.89103 17.9502 10.3139 17.8557L10.3406 17.8775C8.6099 16.5036 7.5 14.3814 7.5 12C7.5 9.74302 8.49694 7.71888 10.0745 6.34394L10.3119 6.14542C9.89103 6.04983 9.45134 6 9 6ZM15 6C11.6863 6 9 8.68629 9 12C9 15.3137 11.6863 18 15 18C18.3137 18 21 15.3137 21 12C21 8.68629 18.3137 6 15 6Z" />
  </symbol>
  <symbol id="uk2-piggy" viewBox="0 0 24 24" xmlns="http://www.w3.org/2000/svg">
    <path id="primary" fill-rule="evenodd" clip-rule="evenodd" d="M14.25 2.25C14.6346 2.25 14.9516 2.53953 14.995 2.91253L15 3V5.25H15.75C18 5.25 19.875 6 20.625 9H21.75C22.5784 9 23.25 9.67157 23.25 10.5V12.375C23.25 13.5 22.875 15 21.75 16.125L21.0983 16.7539C20.5007 17.3393 20.2694 17.7249 20.2512 19.2892L20.25 21.75H15.75L14.625 19.5H9.18675L7.5 21.75H5.25C4.05174 21.75 3.07225 20.8133 3.00382 19.6322L3 19.5L2.9991 17.3697C1.77154 16.1627 0.949011 14.5309 0.780941 12.6821C0.760324 12.4553 0.75 12.2277 0.75 12C0.75 7.44365 4.44365 3.75 9 3.75L10.6965 3.74983C11.4509 2.76646 12.6467 2.25 14.25 2.25ZM13.5 6.75L13.497 3.80325L13.4532 3.81008C12.0372 4.04407 11.3417 4.97068 11.2585 6.74841L11.25 6.75L9.75771 6.74932C9.78059 6.20203 9.85426 5.70146 9.97753 5.24941L9 5.25L8.80098 5.25288C5.16511 5.35816 2.25 8.33865 2.25 12L2.2562 12.2734L2.27478 12.5463L2.31132 12.8591L2.35232 13.1087L2.41788 13.4168L2.52299 13.7986L2.60423 14.0413L2.70642 14.3063L2.76527 14.4439L2.869 14.6658L2.99893 14.9147C3.38036 15.6058 3.89316 16.2115 4.50052 16.7005L4.5 19.5C4.5 19.8846 4.78953 20.2016 5.16253 20.245L5.25 20.25H6.75L8.41288 18.0329L8.64288 18.0234L9 18H15.5521L16.6763 20.25H18.75V19.5C18.75 17.8155 18.9582 16.9392 19.6436 16.1155L19.74 16.0035L19.908 15.8274L20.6893 15.0643C21.3405 14.4132 21.7001 13.4844 21.7452 12.5705L21.75 12.375V10.5H19.4538L19.1698 9.3638C18.7124 7.53417 17.8717 6.85571 16.1909 6.76166L15.75 6.75H13.5ZM16.875 10.5C17.4963 10.5 18 11.0037 18 11.625C18 12.2463 17.4963 12.75 16.875 12.75C16.2537 12.75 15.75 12.2463 15.75 11.625C15.75 11.0037 16.2537 10.5 16.875 10.5ZM8.24988 6.80322L8.25004 8.32475C6.53236 8.67241 5.25 10.1941 5.25 12.0002H3.75C3.75 9.36035 5.70163 7.16726 8.24988 6.80322Z" />
  </symbol>
  <symbol id="uk2-vault" viewBox="0 0 24 24" xmlns="http://www.w3.org/2000/svg">
    <g id="primary">
      <path d="M13.875 10.5C14.4963 10.5 15 11.0037 15 11.625C15 12.2463 14.4963 12.75 13.875 12.75C13.2537 12.75 12.75 12.2463 12.75 11.625C12.75 11.0037 13.2537 10.5 13.875 10.5Z" />
      <path fill-rule="evenodd" clip-rule="evenodd" d="M6 15C6 15.8284 6.67157 16.5 7.5 16.5H16.5C17.3284 16.5 18 15.8284 18 15V7.5C18 6.67157 17.3284 6 16.5 6H7.5C6.67157 6 6 6.67157 6 7.5V15ZM16.5 7.5H7.5V9H9V10.5H7.5V12H9V13.5H7.5V15H16.5V7.5Z" />
      <path fill-rule="evenodd" clip-rule="evenodd" d="M6 3C4.34315 3 3 4.34315 3 6V16.5C3 18.1569 4.34315 19.5 6 19.5V21H7.5V19.5H16.5V21H18V19.5C19.6569 19.5 21 18.1569 21 16.5V6C21 4.34315 19.6569 3 18 3H6ZM18 4.5H6C5.17157 4.5 4.5 5.17157 4.5 6V16.5C4.5 17.3284 5.17157 18 6 18H18C18.8284 18 19.5 17.3284 19.5 16.5V6C19.5 5.17157 18.8284 4.5 18 4.5Z" />
    </g>
  </symbol>
  <symbol id="uk2-card-holder" viewBox="0 0 24 24" xmlns="http://www.w3.org/2000/svg">
    <g id="primary">
      <path d="M4.5 15H7.5V16.5H4.5V15Z" />
      <path fill-rule="evenodd" clip-rule="evenodd" d="M1.5 18V6C1.5 5.17157 2.17157 4.5 3 4.5H21C21.8284 4.5 22.5 5.17157 22.5 6V18C22.5 18.8284 21.8284 19.5 21 19.5H3C2.17157 19.5 1.5 18.8284 1.5 18ZM21 12H15.4359C15.3733 12 15.3178 12.04 15.298 12.0993C14.8699 13.3837 13.668 14.25 12.3141 14.25H11.6859C10.332 14.25 9.13009 13.3837 8.70198 12.0993C8.6822 12.04 8.62668 12 8.56415 12H3L3 18H21V12ZM21 6V7.5H3V6L21 6ZM3 9H21V10.5H15.4359C14.7277 10.5 14.0989 10.9532 13.875 11.625C13.6511 12.2968 13.0223 12.75 12.3141 12.75H11.6859C10.9777 12.75 10.3489 12.2968 10.125 11.625C9.90105 10.9532 9.27233 10.5 8.56415 10.5H3L3 9Z" />
    </g>
  </symbol>
  <symbol id="uk2-credit-card" viewBox="0 0 24 24" xmlns="http://www.w3.org/2000/svg">
    <path id="primary" d="M22.5 16.5C22.5 18.1569 21.1569 19.5 19.5 19.5H4.5C2.84315 19.5 1.5 18.1569 1.5 16.5V7.5C1.5 5.84315 2.84315 4.5 4.5 4.5H19.5C21.1569 4.5 22.5 5.84315 22.5 7.5V16.5ZM21 12H3V16.5C3 17.2693 3.57906 17.9033 4.32507 17.9899L4.5 18H19.5C20.2693 18 20.9033 17.4209 20.9899 16.6749L21 16.5V12ZM19.5 15V16.5H15V15H19.5ZM19.5 6H4.5C3.73075 6 3.09674 6.57906 3.01009 7.32507L3 7.5V9H21V7.5C21 6.73075 20.4209 6.09674 19.6749 6.01009L19.5 6Z" />
  </symbol>
  <symbol id="uk2-briefcase" viewBox="0 0 24 24" xmlns="http://www.w3.org/2000/svg">
    <path id="primary" fill-rule="evenodd" clip-rule="evenodd" d="M7.5 6.75V5.25C7.5 4.42157 8.17157 3.75 9 3.75H15C15.8284 3.75 16.5 4.42157 16.5 5.25V6.75H20.25C21.0784 6.75 21.75 7.42157 21.75 8.25V9.63844C21.75 10.2856 21.472 10.8934 21 11.3156V18.75C21 19.5784 20.3284 20.25 19.5 20.25H4.5C3.67157 20.25 3 19.5784 3 18.75V11.3156C2.52801 10.8934 2.25 10.2856 2.25 9.63844V8.25C2.25 7.42157 2.92157 6.75 3.75 6.75H7.5ZM9 5.25H15V6.75H9V5.25ZM3.75 8.25V9.63844C3.75 9.90519 3.89168 10.1519 4.1221 10.2863L10.1105 13.7795C11.2781 14.4606 12.7219 14.4606 13.8895 13.7795L19.8779 10.2863C20.1083 10.1519 20.25 9.9052 20.25 9.63844V8.25H3.75ZM4.5 12.2433L4.5 18.75H6.75V13.5558L4.5 12.2433ZM15.75 18.75V14.4308L14.6453 15.0752C13.0107 16.0287 10.9893 16.0287 9.35468 15.0752L8.25 14.4308V18.75H15.75ZM17.25 18.75H19.5V12.2433L17.25 13.5558V18.75Z" />
  </symbol>
  <symbol id="uk2-axos-card" viewBox="0 0 24 24" xmlns="http://www.w3.org/2000/svg">
    <path id="primary" d="M16.5 1.5C18.1569 1.5 19.5 2.84315 19.5 4.5V19.5C19.5 21.1569 18.1569 22.5 16.5 22.5H7.5C5.84315 22.5 4.5 21.1569 4.5 19.5V4.5C4.5 2.84315 5.84315 1.5 7.5 1.5H16.5ZM18 5.418L15 7.149V10.5H10.5V9.7485L6 12.3465V19.5C6 20.2693 6.57906 20.9033 7.32507 20.9899L7.5 21H16.5C17.2693 21 17.9033 20.4209 17.9899 19.6749L18 19.5V5.418ZM10.5 18V19.5H7.5V18H10.5ZM10.5 15V16.5H7.5V15H10.5ZM16.5 15V16.5H12V15H16.5ZM16.5 12V13.5H10.5V12H16.5ZM16.5 3H7.5C6.73075 3 6.09674 3.57906 6.01009 4.32507L6 4.5V10.6155L10.5 8.0175V4.5H15V5.418L17.8217 3.79009C17.5947 3.36842 17.1719 3.06781 16.6749 3.01009L16.5 3ZM12 9H13.5V6H12V9Z" />
  </symbol>
  <symbol id="uk2-axos-card-x" viewBox="0 0 25 24" xmlns="http://www.w3.org/2000/svg">
    <g id="primary">
      <path d="M16.8276 19.6339L14.7063 17.5125L15.7669 16.4519L17.8882 18.5732L20.0096 16.4519L21.0702 17.5125L18.9489 19.6339L21.0702 21.7552L20.0096 22.8158L17.8882 20.6945L15.7669 22.8158L14.7062 21.7552L16.8276 19.6339Z" />
      <path fill-rule="evenodd" clip-rule="evenodd" d="M18 4C18 2.34315 16.6569 1 15 1H6C4.34315 1 3 2.34315 3 4V19C3 20.6569 4.34315 22 6 22H13.2746V20.5H6L5.82507 20.4899C5.07906 20.4033 4.5 19.7693 4.5 19V11.8465L9 9.2485V10H13.5V6.649L16.5 4.918V15.0462H18V4ZM6 2.5H15L15.1749 2.51009C15.6719 2.56781 16.0947 2.86842 16.3217 3.29009L13.5 4.918V4H9V7.5175L4.5 10.1155V4L4.51009 3.82507C4.59674 3.07906 5.23075 2.5 6 2.5ZM12 8.5H10.5V5.5H12V8.5Z" />
      <path d="M9 18.9519V17.4519H6V18.9519H9Z" />
      <path d="M9 15.9519V14.4519H6V15.9519H9Z" />
      <path d="M14.525 15.9519V14.4519H10.5V15.9519H14.525Z" />
      <path d="M15 12.9519V11.4519H9V12.9519H15Z" />
    </g>
  </symbol>
  <symbol id="uk2-dollar-bill" viewBox="0 0 24 24" xmlns="http://www.w3.org/2000/svg">
    <path id="primary" d="M21 6C21.8284 6 22.5 6.67157 22.5 7.5V16.5C22.5 17.3284 21.8284 18 21 18H3C2.17157 18 1.5 17.3284 1.5 16.5V7.5C1.5 6.67157 2.17157 6 3 6H21ZM21 7.5H3V16.5H21V7.5ZM12 9C13.6569 9 15 10.3431 15 12C15 13.6569 13.6569 15 12 15C10.3431 15 9 13.6569 9 12C9 10.3431 10.3431 9 12 9ZM4.5 9H7.5V10.5H6V13.5H7.5V15H4.5V9ZM12 10.5C11.1716 10.5 10.5 11.1716 10.5 12C10.5 12.8284 11.1716 13.5 12 13.5C12.8284 13.5 13.5 12.8284 13.5 12C13.5 11.1716 12.8284 10.5 12 10.5ZM19.5 9V15H16.5V13.5H18V10.5H16.5V9H19.5Z" />
  </symbol>
  <symbol id="uk2-dollar-bill-stack" viewBox="0 0 24 24" xmlns="http://www.w3.org/2000/svg">
    <path id="primary" d="M21 7.5C21.8284 7.5 22.5 8.17157 22.5 9V18C22.5 18.8284 21.8284 19.5 21 19.5H3C2.17157 19.5 1.5 18.8284 1.5 18V9C1.5 8.17157 2.17157 7.5 3 7.5H21ZM21 9H3V18H21V9ZM12 10.5C13.6569 10.5 15 11.8431 15 13.5C15 15.1569 13.6569 16.5 12 16.5C10.3431 16.5 9 15.1569 9 13.5C9 11.8431 10.3431 10.5 12 10.5ZM4.5 10.5H7.5V12H6V15H7.5V16.5H4.5V10.5ZM12 12C11.1716 12 10.5 12.6716 10.5 13.5C10.5 14.3284 11.1716 15 12 15C12.8284 15 13.5 14.3284 13.5 13.5C13.5 12.6716 12.8284 12 12 12ZM19.5 10.5V16.5H16.5V15H18V12H16.5V10.5H19.5ZM19.5 4.5V6H4.5V4.5H19.5Z" />
  </symbol>
  <symbol id="uk2-dollar-bill-arrow-forward" viewBox="0 0 24 24" xmlns="http://www.w3.org/2000/svg">
    <path id="primary" d="M14.8438 7.5H13.3438V3H4.34375V21H13.3438V16.5H14.8438V21C14.8438 21.8284 14.1722 22.5 13.3438 22.5H4.34375C3.51532 22.5 2.84375 21.8284 2.84375 21V3C2.84375 2.17157 3.51532 1.5 4.34375 1.5H13.3438C14.1722 1.5 14.8438 2.17157 14.8438 3V7.5ZM11.8438 7.5H10.3438V6H7.34375V7.5H5.84375V4.5H11.8438V7.5ZM11.8438 19.5H5.84375V16.5H7.34375V18H10.3438V16.5H11.8438V19.5ZM11.8438 12C11.8438 13.6569 10.5006 15 8.84375 15C7.1869 15 5.84375 13.6569 5.84375 12C5.84375 10.3431 7.1869 9 8.84375 9C10.5006 9 11.8438 10.3431 11.8438 12ZM10.3438 12C10.3438 11.1716 9.67218 10.5 8.84375 10.5C8.01532 10.5 7.34375 11.1716 7.34375 12C7.34375 12.8284 8.01532 13.5 8.84375 13.5C9.67218 13.5 10.3438 12.8284 10.3438 12ZM21.1544 12L17.6241 15.5303L16.5634 14.4697L18.2834 12.7492L13.3438 12.75V11.25L18.2834 11.2492L16.5634 9.53033L17.6241 8.46967L21.1544 12Z" />
  </symbol>
  <symbol id="uk2-dollar-bill-cut" viewBox="0 0 24 24" xmlns="http://www.w3.org/2000/svg">
    <g id="primary">
      <path d="M16.5 3H18V4.5H16.5V3Z" />
      <path d="M3 6H15V7.5H3V16.5H15V18H3C2.17157 18 1.5 17.3284 1.5 16.5V7.5C1.5 6.67157 2.17157 6 3 6Z" />
      <path d="M21 16.5H19.5V18H21C21.8284 18 22.5 17.3284 22.5 16.5V7.5C22.5 6.67157 21.8284 6 21 6H19.5V7.5H21V16.5Z" />
      <path d="M4.5 9H7.5V10.5H6V13.5H7.5V15H4.5V9Z" />
      <path fill-rule="evenodd" clip-rule="evenodd" d="M9 12C9 10.3431 10.3431 9 12 9C13.6569 9 15 10.3431 15 12C15 13.6569 13.6569 15 12 15C10.3431 15 9 13.6569 9 12ZM10.5 12C10.5 11.1716 11.1716 10.5 12 10.5C12.8284 10.5 13.5 11.1716 13.5 12C13.5 12.8284 12.8284 13.5 12 13.5C11.1716 13.5 10.5 12.8284 10.5 12Z" />
      <path d="M16.5 10.5H18V13.5H16.5V15H19.5V9H16.5V10.5Z" />
      <path d="M16.5 6H18V7.5H16.5V6Z" />
      <path d="M18 19.5H16.5V21H18V19.5Z" />
      <path d="M18 16.5H16.5V18H18V16.5Z" />
    </g>
  </symbol>
  <symbol id="uk2-coin-cents-fill" viewBox="0 0 24 24" xmlns="http://www.w3.org/2000/svg">
    <path id="primary" fill-rule="evenodd" clip-rule="evenodd" d="M22.5 12C22.5 6.20101 17.799 1.5 12 1.5C6.20101 1.5 1.5 6.20101 1.5 12C1.5 17.799 6.20101 22.5 12 22.5C17.799 22.5 22.5 17.799 22.5 12ZM12.75 6L12.7501 8.32503C13.4851 8.47424 14.142 8.83842 14.6524 9.34908L13.5917 10.4097C13.1845 10.0021 12.6217 9.75 12 9.75C10.7574 9.75 9.75 10.7574 9.75 12C9.75 13.2426 10.7574 14.25 12 14.25C12.6213 14.25 13.1838 13.9982 13.591 13.591L14.6517 14.6517C14.1415 15.1618 13.485 15.5257 12.7505 15.6749L12.75 18H11.25L11.2499 15.675C9.53825 15.3275 8.25 13.8142 8.25 12C8.25 10.1858 9.53825 8.67255 11.2499 8.32504L11.25 6H12.75Z" />
  </symbol>
  <symbol id="uk2-coin-dollar-sign-fill" viewBox="0 0 24 24" xmlns="http://www.w3.org/2000/svg">
    <path id="primary" fill-rule="evenodd" clip-rule="evenodd" d="M22.5 12C22.5 6.20101 17.799 1.5 12 1.5C6.20101 1.5 1.5 6.20101 1.5 12C1.5 17.799 6.20101 22.5 12 22.5C17.799 22.5 22.5 17.799 22.5 12ZM12.75 4.5L12.7508 6.8528C14.0141 7.20601 14.9009 8.41133 14.9922 9.55637L15 9.75H13.5C13.5 9.10078 12.8194 8.25 12 8.25C10.9142 8.25 10.5 8.66421 10.5 9.75C10.5 10.2385 10.861 10.5718 12.0645 11.1918L12.3354 11.3292C14.2894 12.3062 15 12.8983 15 14.25C15 15.8974 14.1958 16.9312 12.7515 17.1874L12.75 19.5H11.25L11.2507 17.1476C9.98664 16.795 9.09919 15.5891 9.00779 14.4436L9 14.25H10.5C10.5 14.8992 11.1806 15.75 12 15.75C13.0858 15.75 13.5 15.3358 13.5 14.25C13.5 13.7615 13.139 13.4282 11.9355 12.8082L11.6646 12.6708C9.71062 11.6938 9 11.1017 9 9.75C9 8.10204 9.80475 7.06807 11.25 6.81233L11.25 4.5H12.75Z" />
  </symbol>
  <symbol id="uk2-dollar-bill-stack-fill" viewBox="0 0 24 24" xmlns="http://www.w3.org/2000/svg">
    <path id="primary" d="M21 7.5C21.8284 7.5 22.5 8.17157 22.5 9V18C22.5 18.8284 21.8284 19.5 21 19.5H3C2.17157 19.5 1.5 18.8284 1.5 18V9C1.5 8.17157 2.17157 7.5 3 7.5H21ZM21 9H3V18H21V9ZM12 10.5C13.6569 10.5 15 11.8431 15 13.5C15 15.1569 13.6569 16.5 12 16.5C10.3431 16.5 9 15.1569 9 13.5C9 11.8431 10.3431 10.5 12 10.5ZM4.5 10.5H7.5V12H6V15H7.5V16.5H4.5V10.5ZM19.5 10.5V16.5H16.5V15H18V12H16.5V10.5H19.5ZM19.5 4.5V6H4.5V4.5H19.5Z" />
  </symbol>
  <symbol id="uk2-money-hand" viewBox="0 0 24 24" xmlns="http://www.w3.org/2000/svg">
    <g id="primary">
      <path fill-rule="evenodd" clip-rule="evenodd" d="M16.5 6.55469C16.5 8.62576 14.8211 10.3047 12.75 10.3047C10.6789 10.3047 9 8.62576 9 6.55469C9 4.48362 10.6789 2.80469 12.75 2.80469C14.8211 2.80469 16.5 4.48362 16.5 6.55469ZM15 6.55469C15 7.79733 13.9926 8.80469 12.75 8.80469C11.5074 8.80469 10.5 7.79733 10.5 6.55469C10.5 5.31205 11.5074 4.30469 12.75 4.30469C13.9926 4.30469 15 5.31205 15 6.55469Z" />
      <path fill-rule="evenodd" clip-rule="evenodd" d="M8.88236 11.312C7.75714 10.1868 6.23102 9.55469 4.63972 9.55469H1.5V16.6797L8.70267 20.7508C9.60238 21.2593 10.6835 21.3347 11.6451 20.9559L20.9454 17.2921C21.8834 16.9226 22.5 16.017 22.5 15.0088C22.5 13.6534 21.4013 12.5547 20.0459 12.5547H10.125L8.88236 11.312ZM10.125 14.0547H13.5C13.9142 14.0547 14.25 14.3905 14.25 14.8047C14.25 15.2189 13.9142 15.5547 13.5 15.5547H9.75V17.0547H13.5C14.7426 17.0547 15.75 16.0473 15.75 14.8047C15.75 14.5417 15.7049 14.2893 15.622 14.0547H20.0459C20.5728 14.0547 21 14.4819 21 15.0088C21 15.4008 20.7603 15.7528 20.3956 15.8965L11.0953 19.5602C10.5546 19.7732 9.94667 19.7309 9.44075 19.4449L3 15.8045V11.0547H4.63972C5.83319 11.0547 6.97778 11.5288 7.8217 12.3727L9.06434 13.6153C9.34564 13.8967 9.72718 14.0547 10.125 14.0547Z" />
    </g>
  </symbol>
  <symbol id="uk2-bar-graph" viewBox="0 0 24 24" xmlns="http://www.w3.org/2000/svg">
    <path id="primary" fill-rule="evenodd" clip-rule="evenodd" d="M3 18.75V3H4.5V18.75C4.5 19.1642 4.83579 19.5 5.25 19.5H6.75V10.5H12V19.5H13.5V5.25H18.75V19.5H21V21H5.25C4.00736 21 3 19.9926 3 18.75ZM17.25 19.5H15V6.75H17.25V19.5ZM8.25 12V19.5H10.5V12H8.25Z" />
  </symbol>
  <symbol id="uk2-line-graph" viewBox="0 0 24 24" xmlns="http://www.w3.org/2000/svg">
    <g id="primary">
      <path d="M3 18.75V3H4.5V18.75C4.5 19.1642 4.83579 19.5 5.25 19.5H21V21H5.25C4.00736 21 3 19.9926 3 18.75Z" />
      <path d="M16.9394 8.25H14.25V6.75H19.5V12H18V9.31068L12.75 14.5607L10.5 12.3107L6.53029 16.2804L5.46964 15.2197L10.5 10.1894L12.75 12.4394L16.9394 8.25Z" />
    </g>
  </symbol>
  <symbol id="uk2-pie-chart" viewBox="0 0 24 24" xmlns="http://www.w3.org/2000/svg">
    <path id="primary" d="M11.2656 2.98531C11.5181 2.98531 11.7684 2.99491 12.0161 3.01377L12.0156 11.9853L20.9873 11.9863C21.0061 12.2335 21.0156 12.4833 21.0156 12.7353C21.0156 18.1201 16.6504 22.4853 11.2656 22.4853C5.88085 22.4853 1.51562 18.1201 1.51562 12.7353C1.51562 7.35054 5.88085 2.98531 11.2656 2.98531ZM10.5156 4.51981L10.2804 4.54353C6.18852 5.03047 3.01562 8.51236 3.01562 12.7353C3.01562 17.2917 6.70928 20.9853 11.2656 20.9853C15.4886 20.9853 18.9705 17.8124 19.4574 13.7205L19.4796 13.4853L10.5155 13.4851L10.5156 4.51981ZM13.5148 1.51367C18.3023 1.87748 22.1235 5.69866 22.4873 10.4861L13.5156 10.4853L13.5148 1.51367ZM15.0141 3.29581V8.98531H20.7036L20.6867 8.92064C19.9005 6.22577 17.7752 4.10043 15.0803 3.31423L15.0141 3.29581Z" />
  </symbol>
  <symbol id="uk2-odometer" viewBox="0 0 24 24" xmlns="http://www.w3.org/2000/svg">
    <g id="primary">
      <path d="M5.12456 7.78752C6.78999 6.34342 8.91456 5.41482 11.25 5.25V6.75443C9.3282 6.91298 7.57761 7.67533 6.18837 8.85134L5.12456 7.78752Z" />
      <path d="M4.0639 8.84818C2.46661 10.6903 1.5 13.0941 1.5 15.7236C1.5 16.4959 1.58338 17.2488 1.74163 17.9736H3.28354C3.09844 17.2545 3 16.5006 3 15.7236C3 13.5084 3.80037 11.48 5.12771 9.912L4.0639 8.84818Z" />
      <path d="M22.2584 17.9736H20.7165C20.9016 17.2545 21 16.5006 21 15.7236C21 13.9737 20.5006 12.3404 19.6364 10.9585L20.7209 9.87401C21.8444 11.5457 22.5 13.5581 22.5 15.7236C22.5 16.4959 22.4166 17.2488 22.2584 17.9736Z" />
      <path fill-rule="evenodd" clip-rule="evenodd" d="M18.7218 7.65687C17.0803 6.2875 15.0142 5.4098 12.75 5.25V6.75443C14.6008 6.90712 16.2927 7.61979 17.6561 8.72262L13.3223 13.0564C12.9234 12.8602 12.4746 12.75 12 12.75C10.3431 12.75 9 14.0931 9 15.75C9 17.4069 10.3431 18.75 12 18.75C13.6569 18.75 15 17.4069 15 15.75C15 15.1131 14.8015 14.5226 14.4631 14.0369L20.7427 7.75736L19.682 6.6967L18.7218 7.65687ZM12 17.25C12.8284 17.25 13.5 16.5784 13.5 15.75C13.5 14.9216 12.8284 14.25 12 14.25C11.1716 14.25 10.5 14.9216 10.5 15.75C10.5 16.5784 11.1716 17.25 12 17.25Z" />
    </g>
  </symbol>
  <symbol id="uk2-activity-graph" viewBox="0 0 24 24" xmlns="http://www.w3.org/2000/svg">
    <path id="primary" fill-rule="evenodd" clip-rule="evenodd" d="M12.7321 3.75022C13.0566 3.74245 13.3492 3.94431 13.4572 4.25039L15.5306 10.125H22.5V11.625H14.4694L12.8078 6.91732L8.96837 19.7155C8.8744 20.0287 8.58833 20.245 8.26136 20.2499C7.93439 20.2549 7.6419 20.0474 7.53849 19.7372L5.45943 13.5H1.5V12H6.54057L8.21236 17.0154L12.0316 4.28449C12.1249 3.9736 12.4076 3.75798 12.7321 3.75022Z" />
  </symbol>
  <symbol id="uk2-percent" viewBox="0 0 24 24" xmlns="http://www.w3.org/2000/svg">
    <g id="primary">
      <path fill-rule="evenodd" clip-rule="evenodd" d="M7.875 11.25C9.73896 11.25 11.25 9.73896 11.25 7.875C11.25 6.01104 9.73896 4.5 7.875 4.5C6.01104 4.5 4.5 6.01104 4.5 7.875C4.5 9.73896 6.01104 11.25 7.875 11.25ZM7.875 9.75C8.91053 9.75 9.75 8.91053 9.75 7.875C9.75 6.83947 8.91053 6 7.875 6C6.83947 6 6 6.83947 6 7.875C6 8.91053 6.83947 9.75 7.875 9.75Z" />
      <path d="M19.2804 5.77941L5.78039 19.2794L4.71973 18.2188L18.2197 4.71875L19.2804 5.77941Z" />
      <path fill-rule="evenodd" clip-rule="evenodd" d="M19.5 16.125C19.5 17.989 17.989 19.5 16.125 19.5C14.261 19.5 12.75 17.989 12.75 16.125C12.75 14.261 14.261 12.75 16.125 12.75C17.989 12.75 19.5 14.261 19.5 16.125ZM18 16.125C18 17.1605 17.1605 18 16.125 18C15.0895 18 14.25 17.1605 14.25 16.125C14.25 15.0895 15.0895 14.25 16.125 14.25C17.1605 14.25 18 15.0895 18 16.125Z" />
    </g>
  </symbol>
  <symbol id="uk2-cart" viewBox="0 0 24 24" xmlns="http://www.w3.org/2000/svg">
    <g id="primary">
      <path fill-rule="evenodd" clip-rule="evenodd" d="M3.23473 4.125H1.19531V2.625H4.40589L4.96839 4.875H20.5528C21.8758 4.875 22.9133 6.01107 22.7935 7.32871L22.1302 14.625H7.40589L7.63887 15.5569C7.72234 15.8908 8.02233 16.125 8.36648 16.125H22.1953V17.625H8.36648C7.33402 17.625 6.43406 16.9223 6.18366 15.9207L3.23473 4.125ZM7.03089 13.125L5.34339 6.375H20.5528C20.9938 6.375 21.3396 6.75369 21.2997 7.1929L20.7604 13.125H7.03089Z" />
      <path d="M9.44531 20.25C9.44531 20.8713 8.94163 21.375 8.32031 21.375C7.69899 21.375 7.19531 20.8713 7.19531 20.25C7.19531 19.6287 7.69899 19.125 8.32031 19.125C8.94163 19.125 9.44531 19.6287 9.44531 20.25Z" />
      <path d="M21.4453 20.25C21.4453 20.8713 20.9416 21.375 20.3203 21.375C19.699 21.375 19.1953 20.8713 19.1953 20.25C19.1953 19.6287 19.699 19.125 20.3203 19.125C20.9416 19.125 21.4453 19.6287 21.4453 20.25Z" />
    </g>
  </symbol>
  <symbol id="uk2-hand-dollar" viewBox="0 0 24 24" xmlns="http://www.w3.org/2000/svg">
    <path id="primary" fill-rule="evenodd" clip-rule="evenodd" d="M4.52697 11.0712C3.83898 11.0712 3.28125 10.5135 3.28125 9.8255V2.35119C3.28125 1.6632 3.83898 1.10547 4.52697 1.10547H19.4756C20.1636 1.10547 20.7213 1.6632 20.7213 2.35119V9.8255C20.7213 10.5135 20.1636 11.0712 19.4756 11.0712H17.8063V13.4481C17.8063 13.476 17.8042 13.5035 17.8002 13.5304C17.7636 15.6313 17.4126 17.3485 17.1864 18.1139V18.9148C17.2177 19.0022 17.2347 19.0965 17.2347 19.1947V22.0642C17.2347 22.5229 16.8629 22.8947 16.4043 22.8947H8.59014C8.13147 22.8947 7.75966 22.5229 7.75966 22.0642V19.2758C7.64895 19.1514 7.51249 18.9885 7.34297 18.7862L7.30025 18.7352L4.58453 14.376L4.56517 14.3339C4.44429 14.0711 4.32493 13.6503 4.36683 13.2048C4.41168 12.7278 4.64944 12.2067 5.24376 11.9015C5.48006 11.7783 5.84956 11.666 6.25835 11.6969C6.68669 11.7292 7.14968 11.9209 7.4996 12.3847C7.5333 12.4228 7.54836 12.4454 7.56288 12.4673C7.57645 12.4877 7.58955 12.5074 7.61694 12.5383C7.67437 12.6031 7.72499 12.6605 7.7702 12.7121V11.0712L4.52697 11.0712ZM7.7702 9.8255V8.57978L5.77269 8.57978L5.77269 3.59691H8.26413L8.26413 4.84263H7.01841V7.33406H8.26413V7.45685C8.58709 7.16568 9.06124 7.01517 9.68029 7.01986L9.68985 7.01993C9.57376 6.73215 9.50985 6.41771 9.50985 6.08835C9.50985 4.71236 10.6253 3.59691 12.0013 3.59691C13.3773 3.59691 14.4927 4.71236 14.4927 6.08835C14.4927 6.15378 14.4902 6.21863 14.4852 6.2828C14.6897 6.33598 14.9673 6.43759 15.2177 6.65324C15.4656 6.86676 15.6474 7.15639 15.7384 7.52685V7.33407H16.9842V4.84263H15.7384V3.59691L18.2299 3.59691V8.57979H17.4496C17.6648 8.85952 17.7903 9.22823 17.806 9.69174L17.8063 9.70102V9.8255H19.4756V2.35119L4.52697 2.35119L4.52697 9.8255H7.7702ZM14.0298 7.44342H14.0923L14.0947 7.43983C14.1073 7.43935 14.1203 7.43898 14.1337 7.43873C14.2432 7.46471 14.3269 7.49876 14.389 7.55218C14.44 7.59613 14.5428 7.70873 14.5569 8.03319V12.453C14.5569 12.7855 14.8357 13.055 15.1797 13.055C15.5237 13.055 15.8026 12.7855 15.8026 12.453V10.3018C15.8044 10.2835 15.8054 10.2649 15.8054 10.2461V9.63232L15.8112 9.58473C15.8194 9.5177 15.8257 9.46639 15.839 9.40566C15.8556 9.33032 15.8756 9.28354 15.8951 9.25431C15.91 9.23189 15.9284 9.21274 15.9685 9.19445C16.0086 9.17611 16.0907 9.14992 16.241 9.14467C16.3156 9.16571 16.3679 9.19149 16.4084 9.22981C16.4482 9.2674 16.5476 9.38371 16.5606 9.7202V12.4452C16.5512 12.4915 16.5469 12.5397 16.5485 12.5891C16.6263 15.0803 16.1847 17.1501 15.9694 17.8342L15.9407 17.9255V18.3642H8.61718C8.53925 18.2738 8.4379 18.1533 8.30228 17.9914L5.68133 13.7771C5.63295 13.6565 5.5923 13.4785 5.60708 13.3214C5.61459 13.2415 5.63485 13.1828 5.66125 13.1399C5.68521 13.1008 5.72677 13.0537 5.81374 13.0092L5.81905 13.0064C5.88428 12.9722 6.02375 12.9284 6.16454 12.939C6.27951 12.9477 6.39946 12.9899 6.51243 13.1448L6.52974 13.1685L6.75328 13.4208C7.09605 13.8075 7.16439 13.9011 7.30077 14.0878C7.40458 14.2299 7.5478 14.426 7.88145 14.8464C8.05025 15.0591 8.3299 15.132 8.57275 15.0481C8.82915 14.9768 9.01592 14.7569 9.01592 14.4966L9.01592 8.65791L9.01726 8.64899C9.04645 8.4549 9.05844 8.37518 9.11017 8.30736L9.11104 8.30621C9.12474 8.28785 9.20594 8.17909 9.60796 8.17186C9.71746 8.19671 9.80123 8.22928 9.86326 8.28039C9.90682 8.31627 9.98809 8.39997 10.0197 8.61665C10.0209 8.62895 10.0225 8.64115 10.0244 8.65323C10.0275 8.68038 10.0297 8.70943 10.0312 8.7405V12.4099C10.0312 12.728 10.31 12.9858 10.654 12.9858C10.998 12.9858 11.2769 12.728 11.2769 12.4099V8.71906L11.2765 8.70873C11.274 8.64596 11.2693 8.585 11.2624 8.52582V7.32978L11.2637 7.32013C11.2929 7.1102 11.3049 7.02398 11.3566 6.95062L11.3575 6.94938C11.3712 6.92952 11.4524 6.81189 11.8544 6.80406C11.9639 6.83095 12.0477 6.86617 12.1097 6.92145C12.1608 6.96692 12.2636 7.08342 12.2776 7.41911V12.2987C12.2776 12.6427 12.5565 12.9216 12.9005 12.9216L12.9136 12.9215L12.9188 12.9215C13.2628 12.9215 13.5416 12.652 13.5416 12.3195V7.94685C13.5419 9.59416 13.5422 9.03936 13.5425 8.48749V8.48525C13.5427 8.21117 13.543 7.93752 13.543 7.93752C13.5722 7.73462 13.5842 7.65128 13.6359 7.58038L13.6368 7.57917C13.6492 7.56177 13.7172 7.46658 14.0298 7.44342ZM13.2241 6.3274C13.2391 6.25003 13.247 6.17011 13.247 6.08835C13.247 5.40035 12.6893 4.84263 12.0013 4.84263C11.4049 4.84263 10.9064 5.26168 10.7842 5.82139C11.0824 5.64423 11.4641 5.55426 11.9268 5.55806L11.9876 5.55856L12.0472 5.57083C12.2448 5.6115 12.6144 5.70265 12.9384 5.99137C13.047 6.08813 13.1429 6.20001 13.2241 6.3274ZM9.31724 19.622C9.14645 19.6075 9.05287 19.6196 9.00538 19.63V21.649H15.989V19.6242H9.34358L9.31724 19.622Z" />
  </symbol>
  <symbol id="uk2-payment-due" viewBox="0 0 24 24" xmlns="http://www.w3.org/2000/svg">
    <g id="primary">
      <path fill-rule="evenodd" clip-rule="evenodd" d="M8.29688 3.75V2.25H6.79688V3.75H5.29688C3.64002 3.75 2.29688 5.09315 2.29688 6.75V18.75C2.29688 20.4069 3.64002 21.75 5.29688 21.75H12.6844V20.25H5.29688L5.12194 20.2399C4.37594 20.1533 3.79688 19.5193 3.79688 18.75V9.75H18.7969V12.267H20.2969V6.75C20.2969 5.09315 18.9537 3.75 17.2969 3.75H15.7969V2.25H14.2969V3.75H8.29688ZM8.29688 5.25V6.75H6.79688V5.25H5.29688C4.52762 5.25 3.89361 5.82906 3.80697 6.57507L3.79688 6.75V8.25H18.7969V6.75L18.7868 6.57507C18.7001 5.82906 18.0661 5.25 17.2969 5.25H15.7969V6.75H14.2969V5.25H8.29688Z" />
      <path d="M10.5469 11.25V12.75H12.0469V11.25H10.5469Z" />
      <path d="M10.5469 14.25H12.0469V15.75H10.5469V14.25Z" />
      <path d="M10.5469 18.75V17.25H12.0469V18.75H10.5469Z" />
      <path d="M7.54688 14.25V15.75H6.04688V14.25H7.54688Z" />
      <path d="M7.54688 11.25V12.75H6.04688V11.25H7.54688Z" />
      <path d="M7.54688 18.75V17.25H6.04688V18.75H7.54688Z" />
      <path d="M15.0469 11.25V12.75H16.5469V11.25H15.0469Z" />
      <path d="M18.5567 16.14C18.4416 15.9924 18.28 15.8483 18.0714 15.7574V15.0645H17.14V15.7408C16.9559 15.8087 16.8046 15.9144 16.6876 16.0358C16.5057 16.2248 16.3809 16.4819 16.3809 16.715V16.7203C16.3808 16.8957 16.3808 17.1605 16.5676 17.4288C16.7328 17.666 17.0104 17.8581 17.3899 18.0656C17.7574 18.2667 17.8632 18.3725 17.8947 18.4176L17.8967 18.4203C17.9039 18.4294 17.913 18.4408 17.9142 18.5687C17.9065 18.5857 17.8917 18.6102 17.8694 18.6335C17.8315 18.6731 17.7626 18.7216 17.6265 18.7216C17.5344 18.7216 17.4652 18.6813 17.4036 18.6022C17.3714 18.5609 17.3469 18.5148 17.3313 18.4738C17.3212 18.4473 17.3175 18.4313 17.3164 18.4263L17.3165 18.4289L17.3166 18.4359H16.3852C16.3852 18.6628 16.4928 18.9486 16.6688 19.1745C16.7815 19.3192 16.9384 19.4596 17.14 19.5504V20.2514H18.0714V19.5798C18.2638 19.5124 18.4212 19.4039 18.5421 19.2777C18.7252 19.0865 18.8458 18.8294 18.8458 18.5991V18.5938C18.8458 18.4184 18.8458 18.1536 18.659 17.8853C18.4938 17.6482 18.2163 17.456 17.8368 17.2485C17.4692 17.0474 17.3634 16.9416 17.332 16.8965L17.3299 16.8938C17.3227 16.8848 17.3137 16.8734 17.3124 16.7476C17.3204 16.7303 17.3354 16.7059 17.3585 16.682C17.3985 16.6404 17.4685 16.5925 17.6013 16.5925C17.6898 16.5925 17.7591 16.6317 17.822 16.7125C17.8546 16.7543 17.8794 16.8009 17.8952 16.8422C17.9054 16.8687 17.9092 16.8847 17.9102 16.8896C17.9102 16.8896 17.91 16.8843 17.91 16.8793H18.8414C18.8414 16.6512 18.732 16.3651 18.5567 16.14Z" />
      <path fill-rule="evenodd" clip-rule="evenodd" d="M17.6125 21.7503C19.8718 21.7503 21.7034 19.9187 21.7034 17.6593C21.7034 15.3999 19.8718 13.5684 17.6125 13.5684C15.3531 13.5684 13.5215 15.3999 13.5215 17.6593C13.5215 19.9187 15.3531 21.7503 17.6125 21.7503ZM17.6125 20.7458C19.3171 20.7458 20.6989 19.3639 20.6989 17.6593C20.6989 15.9547 19.3171 14.5729 17.6125 14.5729C15.9078 14.5729 14.526 15.9547 14.526 17.6593C14.526 19.3639 15.9078 20.7458 17.6125 20.7458Z" />
    </g>
  </symbol>
  <symbol id="uk2-payment-overdue" viewBox="0 0 24 24" xmlns="http://www.w3.org/2000/svg">
    <g id="primary">
      <path d="M13.6685 1.42191C14.2207 1.41731 14.6722 1.86128 14.6768 2.41355L14.6773 2.47509C14.6814 2.97361 14.3201 3.38996 13.8435 3.46967L13.8473 3.9261C14.5668 4.00931 15.2881 4.17802 15.9982 4.4382C16.536 4.63529 17.0449 4.8766 17.5221 5.1565C17.5566 5.02764 17.6177 4.90361 17.7061 4.79261L17.7445 4.74448C18.0886 4.31256 18.7178 4.24143 19.1497 4.58561L19.6009 4.94515C20.0329 5.28933 20.104 5.91849 19.7598 6.35041L19.7214 6.39855C19.6397 6.50111 19.5419 6.58333 19.4345 6.64447C21.8982 9.14096 22.849 12.9265 21.5622 16.4382C19.785 21.2884 14.4124 23.7795 9.56221 22.0022C6.76351 20.9767 4.7503 18.7541 3.8894 16.1255L3.12176 18.2193L1.86719 17.7595L3.47618 13.3685L7.86719 14.9775L7.40748 16.2321L5.05642 15.3705C5.72682 17.7708 7.50328 19.8248 10.0219 20.7477C14.1792 22.271 18.7843 20.1358 20.3076 15.9785C21.831 11.8212 19.6958 7.21613 15.5385 5.69278C11.3812 4.16943 6.77609 6.30466 5.25274 10.462C5.17538 10.6731 5.10745 10.8854 5.04875 11.0983L3.79039 10.6375C3.85169 10.425 3.92089 10.2131 3.99817 10.0022C4.46722 8.72219 5.18669 7.60646 6.08089 6.69014C5.92717 6.62453 5.78782 6.51943 5.67923 6.37705L5.6419 6.32811C5.30698 5.88897 5.39146 5.26147 5.83059 4.92654L6.28933 4.57666C6.72847 4.24174 7.35597 4.32622 7.6909 4.76535L7.72823 4.81429C7.82523 4.94148 7.88705 5.08447 7.91527 5.23158C8.94012 4.60837 10.0801 4.18391 11.2708 3.98812L11.2668 3.50332C10.7239 3.49685 10.2836 3.05708 10.2791 2.51172L10.2786 2.45017C10.274 1.89791 10.718 1.44648 11.2702 1.44188L13.6685 1.42191Z" />
      <path d="M13.49 8.74766L13.4893 6.65187H12.1531L12.1532 8.7116C10.8658 8.93941 10.1489 9.86043 10.1489 11.3284C10.1489 12.5324 10.7819 13.0599 12.5224 13.9301L12.7638 14.0525C13.8358 14.6048 14.1574 14.9017 14.1574 15.3368C14.1574 16.304 13.7884 16.673 12.8212 16.673C12.0913 16.673 11.4851 15.9151 11.4851 15.3368H10.1489L10.1559 15.5093C10.2373 16.5297 11.0278 17.6038 12.1538 17.9179L12.1531 20.0133H13.4893L13.4906 17.9534C14.7772 17.7251 15.4935 16.8043 15.4935 15.3368C15.4935 14.1328 14.8605 13.6053 13.12 12.7351L12.8786 12.6127C11.8066 12.0604 11.4851 11.7635 11.4851 11.3284C11.4851 10.3612 11.854 9.99223 12.8212 9.99223C13.5511 9.99223 14.1574 10.7501 14.1574 11.3284H15.4935L15.4866 11.1559C15.4052 10.1359 14.6153 9.06228 13.49 8.74766Z" />
    </g>
  </symbol>
  <symbol id="uk2-money-arrows" viewBox="0 0 24 24" xmlns="http://www.w3.org/2000/svg">
    <g id="primary">
      <path d="M18.364 5.63604C14.8492 2.12132 9.15076 2.12132 5.63604 5.63604C5.53181 5.74027 5.43067 5.84643 5.33261 5.95439L5.3257 5.94747L5.32534 3.51468L3.82534 3.51468L3.82534 8.50732H8.81798V7.00732L6.40228 7.00813C6.49689 6.90223 6.59503 6.79837 6.6967 6.6967C9.62563 3.76777 14.3744 3.76777 17.3033 6.6967C19.2743 8.66769 19.919 11.4628 19.2373 13.9729L20.7823 13.9729C21.4325 11.0657 20.6264 7.89843 18.364 5.63604Z"/>
      <path d="M6.6967 17.3033C4.72571 15.3323 4.08107 12.5372 4.76279 10.0272L3.2177 10.0272C2.56754 12.9344 3.37365 16.1016 5.63604 18.364C9.15076 21.8787 14.8493 21.8787 18.364 18.364C18.4682 18.2598 18.5694 18.1536 18.6674 18.0457L18.6743 18.0526L18.6747 20.4854H20.1747V15.4927H15.1821V16.9927L17.5978 16.9919C17.5032 17.0978 17.405 17.2017 17.3033 17.3033C14.3744 20.2323 9.62563 20.2322 6.6967 17.3033Z"/>
      <path d="M12.7229 9.116C13.0588 9.26243 13.3191 9.49448 13.5044 9.7322C13.7868 10.0946 13.9629 10.5554 13.9629 10.9229H12.4629C12.4629 10.9309 12.4632 10.9364 12.4633 10.9393C12.4616 10.9315 12.4555 10.9057 12.4391 10.863C12.4137 10.7966 12.3737 10.7215 12.3212 10.6542C12.2198 10.5241 12.1084 10.461 11.9657 10.461C11.7519 10.461 11.6392 10.5381 11.5747 10.605C11.5376 10.6436 11.5134 10.6828 11.5005 10.7107C11.5026 10.9134 11.5172 10.9316 11.5287 10.9462L11.532 10.9505C11.5826 11.0232 11.7531 11.1936 12.345 11.5174C12.9562 11.8516 13.4032 12.161 13.6692 12.543C13.9701 12.9751 13.97 13.4015 13.97 13.684V13.6925C13.97 14.0634 13.7758 14.4775 13.4809 14.7854C13.2862 14.9887 13.0327 15.1634 12.7229 15.2719V16.3536H11.2229V15.2246C10.8982 15.0783 10.6454 14.8522 10.464 14.6193C10.1806 14.2554 10.0073 13.7951 10.0073 13.4296H11.5073L11.5072 13.4184L11.507 13.4143C11.5087 13.4222 11.5147 13.4481 11.531 13.4907C11.5561 13.5567 11.5956 13.6311 11.6474 13.6975C11.7466 13.8249 11.858 13.8898 12.0063 13.8898C12.2256 13.8898 12.3366 13.8117 12.3976 13.7479C12.4335 13.7104 12.4568 13.6721 12.4693 13.6446L12.4698 13.6435C12.4678 13.4376 12.4532 13.4192 12.4416 13.4046L12.4383 13.4002C12.3876 13.3275 12.2172 13.1571 11.6253 12.8334C11.0141 12.4991 10.5671 12.1897 10.3011 11.8077C10.0002 11.3757 10.0002 10.9493 10.0003 10.6668V10.6583C10.0003 10.2829 10.2013 9.86868 10.4943 9.56443C10.6827 9.36884 10.9264 9.19865 11.2229 9.08931V8.00002H12.7229V9.116Z"/>
    </g>
  </symbol>
</svg>
