<svg xmlns="http://www.w3.org/2000/svg" xmlns:xlink="http://www.w3.org/1999/xlink">
  <symbol id="uk2-wallet" viewBox="0 0 24 24" xmlns="http://www.w3.org/2000/svg">
    <g id="primary">
      <path d="M19.5026 7.65989H18.3939L14.356 3.88719L13.06 5.10468L10.6029 2.8125L5.41135 7.65989H4.49741C3.26133 7.65989 2.25 8.67446 2.25 9.91449V18.9329C2.25 20.1729 3.26133 21.1875 4.49741 21.1875H19.5026C20.7387 21.1875 21.75 20.1729 21.75 18.9329V9.91449C21.75 8.67446 20.7387 7.65989 19.5026 7.65989ZM16.1914 7.65989H12.5206L14.356 5.9464L16.1914 7.65989ZM10.6029 4.86419L11.9513 6.12676L10.3032 7.65989H7.60632L10.6029 4.86419ZM20.2517 15.9268H16.4986C16.0865 15.9268 15.7494 15.5886 15.7494 15.1752V13.6722C15.7494 13.2588 16.0865 12.9206 16.4986 12.9206H20.2517V15.9268ZM16.4986 11.4176C15.2625 11.4176 14.2512 12.4321 14.2512 13.6722V15.1752C14.2512 16.4153 15.2625 17.4298 16.4986 17.4298H20.2517V18.9329C20.2517 19.3462 19.9146 19.6844 19.5026 19.6844H4.49741C4.08538 19.6844 3.74827 19.3462 3.74827 18.9329V9.91449C3.74827 9.50115 4.08538 9.16296 4.49741 9.16296H19.5026C19.9146 9.16296 20.2517 9.50115 20.2517 9.91449V11.4176H16.4986Z" />
      <path d="M17.255 15.1747C17.6687 15.1747 18.0041 14.8382 18.0041 14.4232C18.0041 14.0081 17.6687 13.6716 17.255 13.6716C16.8413 13.6716 16.5059 14.0081 16.5059 14.4232C16.5059 14.8382 16.8413 15.1747 17.255 15.1747Z" />
    </g>
  </symbol>
  <symbol id="uk2-price-tag" viewBox="0 0 24 24" xmlns="http://www.w3.org/2000/svg">
    <g id="primary">
      <path d="M15.0482 15.2678L14.2532 14.473C14.4257 14.1655 14.5232 13.8431 14.5232 13.5206C14.5232 13.0557 14.3432 12.6433 13.9757 12.2758C13.7582 12.0584 13.5407 11.9084 13.3082 11.8259C13.0832 11.7434 12.8432 11.7134 12.6032 11.7209C12.3632 11.7284 12.1007 11.7809 11.8382 11.8709C11.5682 11.9534 11.2982 12.0584 11.0132 12.1709C10.7282 12.2833 10.4957 12.3433 10.3157 12.3358C10.1357 12.3358 9.96322 12.2534 9.80572 12.0959C9.64822 11.9384 9.56573 11.7809 9.55823 11.6085C9.55073 11.4435 9.61072 11.286 9.75322 11.1435C9.91072 10.9861 10.0907 10.9261 10.3007 10.9561C10.5032 10.9936 10.7207 11.1211 10.9457 11.3385L12.0332 10.2512C11.6282 9.84628 11.1782 9.62132 10.6907 9.57633C10.3232 9.54634 9.97072 9.62132 9.61822 9.80129L8.86822 9.05142L7.80322 10.1162L8.52322 10.8361C8.30572 11.181 8.19322 11.541 8.18572 11.9009C8.17822 12.3808 8.35072 12.8008 8.71072 13.1607C8.92822 13.3782 9.14572 13.5281 9.36322 13.6106C9.58072 13.6931 9.81322 13.7306 10.0607 13.7156C10.3082 13.7006 10.5632 13.6481 10.8257 13.5581C11.0882 13.4681 11.3732 13.3632 11.6657 13.2357C11.9582 13.1082 12.1982 13.0557 12.3782 13.0707C12.5582 13.0857 12.7307 13.1757 12.9032 13.3407C13.0532 13.4906 13.1357 13.6556 13.1357 13.8206C13.1357 13.993 13.0682 14.1505 12.9182 14.293C12.7157 14.4955 12.4982 14.5854 12.2657 14.5629C12.0332 14.5404 11.7932 14.413 11.5457 14.1655L10.4657 15.2453C10.9082 15.6877 11.3882 15.9202 11.9132 15.9427C12.3482 15.9577 12.7832 15.8152 13.2182 15.5228L13.9907 16.2951L15.0482 15.2678Z" />
      <path fill-rule="evenodd" clip-rule="evenodd" d="M16.6612 4.83612C15.2812 4.83612 14.1562 5.95342 14.1562 7.34067C14.1562 8.72043 15.2737 9.84523 16.6612 9.84523C18.0487 9.84523 19.1663 8.72792 19.1663 7.34067C19.1663 5.95342 18.0412 4.83612 16.6612 4.83612ZM16.6612 8.17302C16.2037 8.17302 15.8288 7.79809 15.8288 7.34067C15.8288 6.88325 16.2037 6.50832 16.6612 6.50832C17.1187 6.50832 17.4937 6.88325 17.4937 7.34067C17.4937 7.79809 17.1187 8.17302 16.6612 8.17302Z" />
      <path fill-rule="evenodd" clip-rule="evenodd" d="M19.9988 1.5H14.0138C13.3462 1.5 12.7162 1.76245 12.2437 2.23487L2.23125 12.2456C1.25625 13.2204 1.25625 14.8101 2.23125 15.7849L8.21625 21.7689C9.19125 22.7437 10.7813 22.7437 11.7563 21.7689L21.7688 11.7582C22.2413 11.2858 22.5037 10.6559 22.5037 9.98848V4.00455C22.5037 2.6173 21.3788 1.5 19.9988 1.5ZM20.8313 9.98099C20.8313 10.1984 20.7413 10.4159 20.5838 10.5734L10.5788 20.5841C10.2563 20.9065 9.72375 20.9065 9.40125 20.5841L3.41625 14.6002C3.09375 14.2777 3.09375 13.7453 3.41625 13.4229L13.4288 3.41216C13.5863 3.25469 13.7963 3.1647 14.0213 3.1647H20.0063C20.4638 3.1647 20.8387 3.53964 20.8387 3.99705V9.98099H20.8313Z" />
    </g>
  </symbol>
  <symbol id="uk2-percent-circle" viewBox="0 0 24 24" xmlns="http://www.w3.org/2000/svg">
    <g id="primary">
      <path d="M12 22.5C6.21 22.5 1.5 17.79 1.5 12C1.5 6.21 6.21 1.5 12 1.5C17.79 1.5 22.5 6.21 22.5 12C22.5 17.79 17.79 22.5 12 22.5ZM12 3C7.035 3 3 7.035 3 12C3 16.965 7.035 21 12 21C16.965 21 21 16.965 21 12C21 7.035 16.965 3 12 3Z" />
      <path d="M16.7727 6.21743L6.27223 16.7179L7.33288 17.7785L17.8333 7.27808L16.7727 6.21743Z" />
      <path d="M8.625 11.25C7.1775 11.25 6 10.0725 6 8.625C6 7.1775 7.1775 6 8.625 6C10.0725 6 11.25 7.1775 11.25 8.625C11.25 10.0725 10.0725 11.25 8.625 11.25ZM8.625 7.5C8.0025 7.5 7.5 8.0025 7.5 8.625C7.5 9.2475 8.0025 9.75 8.625 9.75C9.2475 9.75 9.75 9.2475 9.75 8.625C9.75 8.0025 9.24 7.5 8.625 7.5Z" />
      <path d="M15.375 18C13.9275 18 12.75 16.8225 12.75 15.375C12.75 13.9275 13.9275 12.75 15.375 12.75C16.8225 12.75 18 13.9275 18 15.375C18 16.8225 16.8225 18 15.375 18ZM15.375 14.25C14.7525 14.25 14.25 14.7525 14.25 15.375C14.25 15.9975 14.7525 16.5 15.375 16.5C15.9975 16.5 16.5 15.9975 16.5 15.375C16.5 14.7525 15.99 14.25 15.375 14.25Z" />
    </g>
  </symbol>
  <symbol id="uk2-coin-hand" viewBox="0 0 24 24" xmlns="http://www.w3.org/2000/svg">
    <g id="primary">
      <path d="M20.4106 12.2867V4C20.4106 3.44771 19.9629 3 19.4106 3H12.2934C11.7411 3 11.2934 3.44772 11.2934 4V12.2482H10.1234L8.87735 10.9864C7.75289 9.8477 6.22576 9.2091 4.63784 9.2091H1.5V16.4261L8.70261 20.5501C9.59913 21.0656 10.6856 21.1426 11.6429 20.7579L20.9425 17.0493C21.877 16.6723 22.5 15.7567 22.5 14.7411C22.4924 13.487 21.5883 12.4714 20.4106 12.2867ZM12.813 4.53881H18.8911V6.07762H12.813V4.53881ZM12.813 7.61643H18.8911V9.15524H12.813V7.61643ZM18.8911 10.6941V12.2329H12.813V10.6941H18.8911ZM20.3878 15.6336L11.0883 19.3422C10.5488 19.5576 9.94103 19.5114 9.43198 19.2267L2.98915 15.5413V10.7325H4.63025C5.82308 10.7325 6.97033 11.2096 7.81368 12.0636L9.0597 13.3254C9.34081 13.6101 9.72069 13.7717 10.1234 13.7717H13.5119C13.9146 13.7794 14.2413 14.1179 14.2413 14.5257C14.2413 14.9489 13.907 15.2874 13.4891 15.2874H9.75108V16.8031H13.4967C14.7428 16.8031 15.7457 15.7798 15.7457 14.5257C15.7457 14.2641 15.7001 14.0102 15.6165 13.7717H20.0535C20.5702 13.7794 20.9881 14.2102 20.9881 14.7334C20.9957 15.1258 20.7525 15.4874 20.3878 15.6336Z" />
    </g>
  </symbol>
  <symbol id="uk2-merge" viewBox="0 0 24 24" xmlns="http://www.w3.org/2000/svg">
    <g id="primary">
      <path d="M14.4413 14.5123C13.3622 13.1498 12.7653 11.4629 12.7653 9.76164V5.00379L15.0612 7.16645L16.1403 6.15L12 2.25L7.85969 6.15L8.93878 7.16645L11.2347 5.00379V9.76164C11.2347 11.4629 10.6378 13.1498 9.55867 14.5123L4.5 20.8849L5.72449 21.75L10.7832 15.3774C11.2806 14.7574 11.6862 14.0726 12 13.3517C12.3138 14.0653 12.7194 14.7502 13.2168 15.3774L18.2755 21.75L19.5 20.8849L14.4413 14.5123Z" />
    </g>
  </symbol>
  <symbol id="uk2-split" viewBox="0 0 24 24" xmlns="http://www.w3.org/2000/svg">
    <g id="primary">
      <path d="M18.7473 16.0028V18.9964L14.3969 13.1817C13.3374 11.7637 12.7514 10.008 12.7514 8.2373V2.25H11.2486V8.2373C11.2486 10.008 10.6626 11.7637 9.60314 13.1817L5.25273 18.9814V16.0028H3.75V21.75H9.50546V20.2494H6.17691L10.7978 14.082C11.2862 13.4368 11.6844 12.724 11.9925 11.9737C12.3005 12.724 12.6988 13.4293 13.1872 14.082L17.8081 20.2494H14.4945V21.75H20.25V16.0028H18.7473Z" />
    </g>
  </symbol>
  <symbol id="uk2-nest-egg" viewBox="0 0 24 24" xmlns="http://www.w3.org/2000/svg">
    <g id="primary">
      <path d="M13.4436 8.00172C13.2583 7.76399 12.998 7.53194 12.6621 7.38552V6.26953H11.1621V7.35883C10.8656 7.46816 10.6219 7.63836 10.4335 7.83394C10.1405 8.1382 9.93945 8.55238 9.93945 8.92778V8.93629C9.93942 9.21879 9.93938 9.64519 10.2403 10.0772C10.5063 10.4592 10.9533 10.7686 11.5644 11.1029C12.1564 11.4266 12.3268 11.597 12.3774 11.6698L12.3807 11.6741C12.3923 11.6887 12.407 11.7071 12.4089 11.913L12.4084 11.9141C12.396 11.9416 12.3727 11.9799 12.3368 12.0174C12.2757 12.0812 12.1648 12.1593 11.9455 12.1593C11.7971 12.1593 11.6858 12.0945 11.5866 11.9671C11.5348 11.9006 11.4953 11.8262 11.4702 11.7602C11.4539 11.7176 11.4479 11.6917 11.4462 11.6838L11.4463 11.6879L11.4465 11.6991H9.94651C9.94651 12.0646 10.1198 12.5249 10.4032 12.8888C10.5846 13.1218 10.8374 13.3478 11.1621 13.4941V14.6231H12.6621V13.5414C12.9719 13.4329 13.2254 13.2582 13.4201 13.0549C13.715 12.7471 13.9092 12.333 13.9092 11.962V11.9535C13.9092 11.671 13.9092 11.2446 13.6084 10.8125C13.3423 10.4306 12.8953 10.1211 12.2842 9.78687C11.6922 9.46312 11.5218 9.29272 11.4712 9.22001L11.4679 9.21568C11.4563 9.20116 11.4418 9.18288 11.4397 8.9802C11.4526 8.95228 11.4767 8.91308 11.5139 8.87452C11.5783 8.80759 11.6911 8.73047 11.9049 8.73047C12.0475 8.73047 12.159 8.79363 12.2604 8.92373C12.3128 8.991 12.3528 9.06613 12.3783 9.13255C12.3947 9.17518 12.4008 9.20099 12.4025 9.20886C12.4023 9.20589 12.4021 9.20042 12.4021 9.19239H13.9021C13.9021 8.82492 13.726 8.36415 13.4436 8.00172Z" />
      <path fill-rule="evenodd" clip-rule="evenodd" d="M17.1329 4.67261C18.2054 6.42926 18.9139 8.68899 19.0921 11.0753C19.663 11.23 20.3096 11.4312 20.8792 11.7153C21.8174 12.1831 22.7796 12.9945 22.7796 14.3954C22.7796 15.7088 22.5064 17.8412 20.9604 19.6515C19.3952 21.4842 16.6491 22.8449 12.0015 22.8449C7.35385 22.8449 4.6076 21.4842 3.04225 19.6515C1.49608 17.8413 1.22266 15.7088 1.22266 14.3954C1.22266 13.005 2.15268 12.1912 3.08062 11.7179C3.61226 11.4468 4.21245 11.2511 4.75523 11.0993C4.93037 8.70419 5.63983 6.4352 6.71579 4.67265C7.9513 2.64875 9.76821 1.1543 11.9242 1.1543C14.0801 1.1543 15.8972 2.64871 17.1329 4.67261ZM6.21289 12.2562C6.21289 9.69159 6.90515 7.24129 7.99608 5.45422C9.09949 3.64671 10.5132 2.6543 11.9242 2.6543C13.3352 2.6543 14.7491 3.64675 15.8527 5.45426C16.9438 7.24134 17.6362 9.69163 17.6362 12.2562C17.6362 13.0063 17.4885 13.749 17.2014 14.442C16.9143 15.1349 16.4936 15.7646 15.9632 16.2949L15.9677 16.2994C15.1468 16.7534 13.9554 17.1288 11.9244 17.1288C9.89332 17.1288 8.70191 16.7534 7.881 16.2994L7.88569 16.2947C6.81461 15.2236 6.21289 13.7709 6.21289 12.2562ZM5.02903 14.368C4.86132 13.8205 4.75837 13.2515 4.72491 12.6725C4.38846 12.7789 4.0611 12.9017 3.76207 13.0542C3.05838 13.4131 2.72266 13.8247 2.72266 14.3954C2.72266 15.5334 2.96427 17.2506 4.18282 18.6773C5.38219 20.0815 7.65036 21.3449 12.0015 21.3449C16.3526 21.3449 18.6206 20.0815 19.8197 18.6773C21.0381 17.2507 21.2796 15.5335 21.2796 14.3954C21.2796 13.8353 20.9396 13.4215 20.2098 13.0576C19.8731 12.8897 19.5029 12.7578 19.1258 12.6445C19.0942 13.2296 18.9915 13.8083 18.8201 14.3679C19.1696 14.2409 19.5637 14.1621 20.0187 14.1621V15.6621C19.2627 15.6621 18.9219 15.9433 18.2823 16.4712C18.0971 16.6241 17.8868 16.7977 17.6341 16.991C16.532 17.8346 14.9999 18.6288 11.9244 18.6288C8.84884 18.6288 7.31675 17.8346 6.21465 16.991C5.96197 16.7977 5.75169 16.6241 5.56647 16.4712C4.92687 15.9433 4.58611 15.6621 3.83008 15.6621V14.1621C4.28523 14.1621 4.67949 14.2409 5.02903 14.368Z" />
    </g>
  </symbol>
  <symbol id="uk2-money-jar" viewBox="0 0 24 24" xmlns="http://www.w3.org/2000/svg">
    <g id="primary">
      <path d="M12.7373 11.0242C13.0732 11.1706 13.3335 11.4027 13.5188 11.6404C13.8012 12.0028 13.9773 12.4636 13.9773 12.8311H12.4773L12.4773 12.8371L12.4777 12.8475C12.476 12.8397 12.4699 12.8139 12.4535 12.7712C12.428 12.7048 12.388 12.6297 12.3356 12.5624C12.2342 12.4323 12.1227 12.3691 11.9801 12.3691C11.7663 12.3691 11.6535 12.4463 11.5891 12.5132C11.5519 12.5517 11.5278 12.591 11.5149 12.6189C11.517 12.8216 11.5315 12.8398 11.5431 12.8543L11.5464 12.8587C11.597 12.9314 11.7674 13.1018 12.3594 13.4255C12.9705 13.7598 13.4175 14.0692 13.6836 14.4512C13.9844 14.8832 13.9844 15.3097 13.9844 15.5921V15.6007C13.9844 15.9716 13.7902 16.3857 13.4953 16.6936C13.3006 16.8969 13.047 17.0716 12.7373 17.1801V18.2617H11.2373V17.1328C10.9126 16.9865 10.6598 16.7604 10.4784 16.5275C10.1949 16.1636 10.0217 15.7033 10.0217 15.3378H11.5217L11.5215 15.3266L11.5214 15.3225C11.5231 15.3304 11.5291 15.3563 11.5454 15.3989C11.5705 15.4649 11.61 15.5393 11.6617 15.6057C11.761 15.7331 11.8723 15.798 12.0207 15.798C12.24 15.798 12.3509 15.7199 12.412 15.6561C12.4479 15.6186 12.4712 15.5803 12.4836 15.5528L12.4841 15.5517C12.4822 15.3458 12.4675 15.3274 12.4559 15.3128L12.4526 15.3084C12.402 15.2357 12.2316 15.0653 11.6396 14.7416C11.0285 14.4073 10.5815 14.0979 10.3155 13.7159C10.0146 13.2839 10.0146 12.8575 10.0146 12.575V12.5664C10.0146 12.1911 10.2157 11.7769 10.5087 11.4726C10.6971 11.277 10.9408 11.1068 11.2373 10.9975V9.9082H12.7373V11.0242Z" />
      <path fill-rule="evenodd" clip-rule="evenodd" d="M6.75 2.35547C6.75 1.94126 7.08579 1.60547 7.5 1.60547H16.5C16.9142 1.60547 17.25 1.94126 17.25 2.35547V4.8787C17.25 5.29291 16.9142 5.6287 16.5 5.6287H16.247V6.26943C16.4469 6.47398 16.6495 6.7229 16.8409 6.98123C17.134 7.37662 17.4368 7.84322 17.7106 8.3204C17.9838 8.79663 18.2358 9.29662 18.4218 9.75907C18.5985 10.1982 18.7504 10.6861 18.7504 11.108V19.5281C18.7504 20.4913 18.4476 21.2805 17.7578 21.7906C17.1177 22.264 16.2736 22.3945 15.4215 22.3945L8.57891 22.3941C7.72675 22.3941 6.88268 22.2636 6.24255 21.7902C5.55281 21.2801 5.25 20.4909 5.25 19.5277V11.1076C5.25 10.6857 5.40192 10.1978 5.57859 9.75866C5.76463 9.29621 6.01658 8.79623 6.28982 8.31999C6.56359 7.84282 6.86637 7.37621 7.15944 6.98082C7.35091 6.7225 7.55352 6.47357 7.7534 6.26903V5.6287H7.5C7.08579 5.6287 6.75 5.29291 6.75 4.8787V2.35547ZM9.2534 5.6287V6.59701C9.2534 6.8259 9.14888 7.04225 8.96958 7.18452C8.84152 7.28614 8.62855 7.5178 8.3645 7.87403C8.11035 8.21692 7.83917 8.63373 7.59088 9.06648C7.34205 9.50016 7.12383 9.93661 6.97021 10.3185C6.80722 10.7236 6.75 10.988 6.75 11.1076V19.5277C6.75 20.168 6.93536 20.437 7.13445 20.5842C7.38312 20.7681 7.82852 20.8941 8.57891 20.8941L15.4215 20.8945C16.1718 20.8945 16.6173 20.7685 16.8659 20.5846C17.065 20.4374 17.2504 20.1684 17.2504 19.5281V11.108C17.2504 10.9884 17.1932 10.724 17.0302 10.3189C16.8766 9.93702 16.6583 9.50057 16.4095 9.06688C16.1612 8.63413 15.89 8.21733 15.6359 7.87444C15.3718 7.51821 15.1589 7.28655 15.0308 7.18493C14.8515 7.04266 14.747 6.8263 14.747 6.59741V5.6287H9.2534ZM8.25 3.10547V4.1287H15.75V3.10547H8.25Z" />
    </g>
  </symbol>
  <symbol id="uk2-education" viewBox="0 0 24 24" xmlns="http://www.w3.org/2000/svg">
    <path id="primary" fill-rule="evenodd" clip-rule="evenodd" d="M23.1098 10.3588C23.389 10.2403 23.5694 9.96525 23.5668 9.66192C23.5642 9.35859 23.3791 9.0867 23.0978 8.97303L12.2812 4.60152C12.101 4.52866 11.8994 4.52866 11.7192 4.60152L0.902566 8.97303C0.621322 9.0867 0.436239 9.35859 0.433622 9.66192C0.431004 9.96525 0.611368 10.2403 0.890609 10.3588L3.48934 11.4616L2.22457 11.8446C1.90829 11.9404 1.69196 12.2319 1.69192 12.5623L1.69167 14.7972L1.18946 16.3166C1.16437 16.3925 1.15157 16.472 1.15157 16.552V17.1478C1.15157 17.562 1.48736 17.8978 1.90157 17.8978H2.99478C3.40899 17.8978 3.74478 17.562 3.74478 17.1478V16.552C3.74478 16.4707 3.73158 16.39 3.70569 16.313L3.19167 14.7838L3.19186 13.119L4.84982 12.6169V15.0867C4.84982 16.3404 5.86299 17.4405 7.08979 18.1738C8.36948 18.9387 10.1036 19.453 12.0007 19.453C13.8952 19.453 15.629 18.9479 16.9099 18.1867C18.141 17.4551 19.1515 16.3546 19.1515 15.0867V12.0386L23.1098 10.3588ZM7.88548 11.6977L12.0002 13.4439L20.8571 9.6853L12.0002 6.10581L3.14333 9.6853L5.73019 10.7831L11.7827 8.95037C12.1791 8.83032 12.5978 9.05439 12.7178 9.45082C12.8379 9.84726 12.6138 10.266 12.2174 10.386L7.88548 11.6977ZM17.6515 12.6751L12.2932 14.949C12.1059 15.0285 11.8945 15.0285 11.7072 14.949L6.34982 12.6755V15.0867C6.34982 15.5268 6.76952 16.2348 7.85937 16.8862C8.89633 17.506 10.3626 17.953 12.0007 17.953C13.6412 17.953 15.1078 17.5128 16.1436 16.8972C17.2291 16.2521 17.6515 15.5444 17.6515 15.0867V12.6751Z" />
  </symbol>
  <symbol id="uk2-etf" viewBox="0 0 24 24" xmlns="http://www.w3.org/2000/svg">
    <g id="primary">
      <path fill-rule="evenodd" clip-rule="evenodd" d="M9.49947 3.31836C9.49947 1.93765 10.6188 0.818359 11.9995 0.818359C13.3802 0.818359 14.4995 1.93765 14.4995 3.31836C14.4995 4.43777 13.7637 5.38534 12.7495 5.70391V7.02462L16.6827 9.29549V13.7514L17.886 14.4461C18.6689 13.7717 19.8226 13.6299 20.768 14.1757C21.9638 14.8661 22.3735 16.3951 21.6831 17.5908C20.9928 18.7865 19.4638 19.1962 18.268 18.5059C17.2749 17.9325 16.824 16.7806 17.0953 15.7216L16.0068 15.0932L11.9998 17.4066L7.99268 15.0931L6.90369 15.7218C7.17486 16.7807 6.72397 17.9326 5.73089 18.5059C4.53515 19.1963 3.00618 18.7866 2.31582 17.5908C1.62547 16.3951 2.03516 14.8661 3.23089 14.1758C4.17636 13.6299 5.33018 13.7718 6.11303 14.4462L7.31685 13.7512V9.29549L11.2495 7.025V5.70391C10.2352 5.38534 9.49947 4.43777 9.49947 3.31836ZM10.9995 3.31836C10.9995 2.76607 11.4472 2.31836 11.9995 2.31836C12.5518 2.31836 12.9995 2.76608 12.9995 3.31836C12.9995 3.87064 12.5518 4.31836 11.9995 4.31836C11.4472 4.31836 10.9995 3.87064 10.9995 3.31836ZM20.3841 16.8408C20.6602 16.3625 20.4963 15.7509 20.018 15.4748C19.5398 15.1986 18.9282 15.3625 18.652 15.8408C18.3759 16.3191 18.5398 16.9307 19.018 17.2068C19.4963 17.483 20.1079 17.3191 20.3841 16.8408ZM3.61486 16.8408C3.891 17.3191 4.50259 17.483 4.98089 17.2069C5.45918 16.9307 5.62305 16.3191 5.34691 15.8408C5.07077 15.3626 4.45918 15.1987 3.98089 15.4748C3.50259 15.751 3.33872 16.3626 3.61486 16.8408ZM8.81685 10.1615L11.9998 8.32385L15.1827 10.1615V13.8369L11.9998 15.6745L8.81685 13.8369V10.1615Z" />
      <path fill-rule="evenodd" clip-rule="evenodd" d="M14.4995 20.6816C14.4995 22.0624 13.3802 23.1816 11.9995 23.1816C10.6188 23.1816 9.49946 22.0624 9.49946 20.6816C9.49947 19.3009 10.6188 18.1816 11.9995 18.1816C13.3802 18.1816 14.4995 19.3009 14.4995 20.6816ZM12.9995 20.6816C12.9995 21.2339 12.5517 21.6816 11.9995 21.6816C11.4472 21.6816 10.9995 21.2339 10.9995 20.6816C10.9995 20.1294 11.4472 19.6816 11.9995 19.6816C12.5518 19.6816 12.9995 20.1294 12.9995 20.6816Z" />
      <path fill-rule="evenodd" clip-rule="evenodd" d="M3.23089 9.82427C2.03515 9.13391 1.62547 7.60493 2.31582 6.4092C3.00618 5.21347 4.53516 4.80378 5.73089 5.49414C6.92662 6.1845 7.33631 7.71347 6.64595 8.9092C5.95559 10.1049 4.42662 10.5146 3.23089 9.82427ZM3.98089 8.52523C3.50259 8.24909 3.33872 7.6375 3.61486 7.1592C3.891 6.68091 4.50259 6.51704 4.98089 6.79318C5.45918 7.06932 5.62305 7.68091 5.34691 8.1592C5.07077 8.6375 4.45918 8.80137 3.98089 8.52523Z" />
      <path fill-rule="evenodd" clip-rule="evenodd" d="M18.268 5.49409C19.4638 4.80374 20.9928 5.21342 21.6831 6.40916C22.3735 7.60489 21.9638 9.13386 20.768 9.82422C19.5723 10.5146 18.0433 10.1049 17.353 8.90915C16.6626 7.71342 17.0723 6.18445 18.268 5.49409ZM19.018 6.79313C19.4963 6.51699 20.1079 6.68086 20.3841 7.15916C20.6602 7.63745 20.4963 8.24904 20.018 8.52518C19.5398 8.80132 18.9282 8.63745 18.652 8.15916C18.3759 7.68086 18.5398 7.06927 19.018 6.79313Z" />
    </g>
  </symbol>
  <symbol id="uk2-short-sell" viewBox="0 0 24 24" xmlns="http://www.w3.org/2000/svg">
    <g id="primary">
      <path d="M16.9665 10.5907L16.9666 11.7149L15.4924 11.6936L15.4923 10.6012C14.9779 10.5004 14.5696 10.2936 14.2726 9.97536C13.9173 9.58822 13.7422 9.08443 13.7422 8.4587L15.2694 8.45883C15.2694 8.80882 15.349 9.06867 15.4975 9.24898C15.646 9.42929 15.8634 9.51945 16.1498 9.51948C16.3566 9.5248 16.5157 9.46118 16.6376 9.33923C16.7543 9.22258 16.8126 9.04759 16.8126 8.83548C16.8072 8.59685 16.7489 8.41124 16.6322 8.27336C16.5155 8.13547 16.3087 8.00289 16.0117 7.8862C15.7148 7.76951 15.439 7.64222 15.1898 7.52023C14.9405 7.39824 14.7231 7.25505 14.5375 7.09064C14.3519 6.92624 14.214 6.73532 14.1185 6.5232C14.023 6.31108 13.9753 6.05124 13.9753 5.74367C13.9752 5.2346 14.1502 4.8157 14.4948 4.48165C14.7546 4.23244 15.0887 4.05747 15.4864 3.96736L15.4863 2.94922L16.9923 2.94935L16.9924 4.00992C17.3689 4.13192 17.6712 4.32815 17.9099 4.60922C18.2228 4.98575 18.3819 5.46302 18.3819 6.03572L16.8441 6.03559C16.8388 5.72272 16.7751 5.47878 16.6585 5.30908C16.5312 5.13938 16.3615 5.05452 16.1388 5.0545C15.9373 5.05448 15.7835 5.12341 15.6721 5.24536C15.5555 5.37262 15.5025 5.5423 15.5025 5.76502C15.5025 5.98774 15.5662 6.16804 15.6934 6.29532C15.8154 6.4279 16.0222 6.54989 16.3033 6.67188C16.5844 6.79387 16.8495 6.91055 17.0987 7.04314C17.348 7.16513 17.5707 7.31363 17.7457 7.47804C17.9207 7.64244 18.0692 7.83336 18.17 8.05078C18.2761 8.27351 18.3238 8.53335 18.3239 8.84091C18.3239 9.36059 18.1596 9.7795 17.8308 10.1082C17.6028 10.3362 17.3059 10.4953 16.9665 10.5907Z" />
      <path fill-rule="evenodd" clip-rule="evenodd" d="M3 18.7998V3.0498H4.5V18.7998C4.5 19.214 4.83579 19.5498 5.25 19.5498H6.37109V7.05371H11.6271V19.5498H13.6113V13.9658H18.8673V19.5498H21V21.0498H5.25C4.00736 21.0498 3 20.0424 3 18.7998ZM7.87109 19.5191V8.55371H10.1271V19.5191H7.87109ZM15.1113 15.4658V19.5186H17.3673V15.4658H15.1113Z" />
    </g>
  </symbol>
  <symbol id="uk2-trading" viewBox="0 0 24 24" xmlns="http://www.w3.org/2000/svg">
    <g id="primary">
      <path fill-rule="evenodd" clip-rule="evenodd" d="M18.75 4V1.75H20.25V4L22 4L22 15H20.25V17.25H18.75V15H17L17 4L18.75 4ZM20.5 13.5H18.5V5.5H20.5V13.5Z" />
      <path fill-rule="evenodd" clip-rule="evenodd" d="M3.75 6L3.75 3.75L5.25 3.75L5.25 6H7L7 17H5.25L5.25 19.25H3.75L3.75 17H2V6H3.75ZM5.5 15.5H3.5L3.5 7.5L5.5 7.5L5.5 15.5Z" />
      <path fill-rule="evenodd" clip-rule="evenodd" d="M11.25 22.25V20H9.5L9.5 9H11.25V6.75H12.75V9H14.5L14.5 20H12.75V22.25H11.25ZM11 18.5H13L13 10.5H11L11 18.5Z" />
    </g>
  </symbol>
  <symbol id="uk2-money-bag" viewBox="0 0 24 24" xmlns="http://www.w3.org/2000/svg">
    <g id="primary">
      <path d="M13.5178 11.74C13.3325 11.5023 13.0722 11.2702 12.7363 11.1238V10.0078H11.2363V11.0971C10.9398 11.2064 10.6961 11.3766 10.5077 11.5722C10.2147 11.8765 10.0137 12.2907 10.0137 12.6661V12.6746C10.0136 12.9571 10.0136 13.3835 10.3145 13.8155C10.5805 14.1975 11.0275 14.5069 11.6386 14.8412C12.2306 15.1649 12.401 15.3353 12.4517 15.408L12.455 15.4124C12.4666 15.427 12.4812 15.4454 12.4832 15.6513L12.4827 15.6524C12.4702 15.6799 12.4469 15.7182 12.411 15.7557C12.35 15.8195 12.239 15.8976 12.0197 15.8976C11.8714 15.8976 11.76 15.8327 11.6608 15.7053C11.609 15.6389 11.5695 15.5645 11.5444 15.4985C11.5281 15.4559 11.5221 15.43 11.5204 15.4221L11.5206 15.4262L11.5207 15.4374H10.0207C10.0207 15.8029 10.194 16.2632 10.4774 16.6271C10.6588 16.86 10.9116 17.0861 11.2363 17.2324V18.3614H12.7363V17.2797C13.0461 17.1712 13.2996 16.9965 13.4943 16.7932C13.7892 16.4853 13.9834 16.0712 13.9834 15.7003V15.6918C13.9834 15.4093 13.9835 14.9829 13.6826 14.5508C13.4166 14.1688 12.9696 13.8594 12.3584 13.5252C11.7665 13.2014 11.596 13.031 11.5454 12.9583L11.5421 12.954C11.5306 12.9394 11.516 12.9212 11.5139 12.7185C11.5268 12.6906 11.551 12.6514 11.5881 12.6128C11.6526 12.5459 11.7653 12.4688 11.9791 12.4688C12.1218 12.4688 12.2332 12.5319 12.3346 12.662C12.387 12.7293 12.4271 12.8044 12.4525 12.8708C12.4689 12.9135 12.475 12.9393 12.4767 12.9471C12.4766 12.9442 12.4763 12.9387 12.4763 12.9307H13.9763C13.9763 12.5632 13.8002 12.1024 13.5178 11.74Z" />
      <path fill-rule="evenodd" clip-rule="evenodd" d="M12.0051 1.57617C11.6797 1.57617 11.4069 1.63553 11.1653 1.74421C10.9529 1.83972 10.7885 1.965 10.6893 2.04068L10.67 2.05532C10.562 2.13729 10.518 2.16629 10.4687 2.18732C10.4286 2.20439 10.3523 2.22933 10.1966 2.22933C10.0628 2.22933 9.93278 2.20102 9.76272 2.14854C9.73608 2.14032 9.7037 2.12972 9.66697 2.11771C9.52055 2.06981 9.30519 1.99937 9.11033 1.96689C8.81519 1.91771 8.47185 1.9286 8.11179 2.10972C7.77629 2.27848 7.49396 2.56162 7.2344 2.92133L6.93865 3.33117L8.64541 6.04819C7.18788 7.64845 4.5 11.3094 4.5 16.3223C4.5 19.6889 6.7337 22.4243 9.59047 22.4243H14.412C17.2688 22.4243 19.5025 19.6889 19.5025 16.3223C19.5025 11.3094 16.8146 7.64845 15.3571 6.04819L17.0638 3.33117L16.7681 2.92133C16.5085 2.56162 16.2262 2.27848 15.8907 2.10972C15.5306 1.9286 15.1873 1.91771 14.8922 1.96689C14.6973 1.99937 14.4819 2.06981 14.3355 2.11771C14.2988 2.12972 14.2664 2.14032 14.2398 2.14854C14.0697 2.20102 13.9397 2.22933 13.8058 2.22933C13.6501 2.22933 13.5748 2.20437 13.5363 2.18786C13.4885 2.1674 13.4459 2.13923 13.3389 2.05731L13.3199 2.04264C13.2214 1.96693 13.0576 1.84088 12.8451 1.74483C12.6033 1.63552 12.3305 1.57617 12.0051 1.57617ZM13.9975 5.39258H10.005L8.78485 3.45024L8.78583 3.44974L8.78882 3.44818C8.79932 3.44258 8.80909 3.43738 8.86376 3.44649C8.93795 3.45885 9.00027 3.47913 9.1111 3.51519C9.16632 3.53316 9.23361 3.55506 9.32041 3.58184C9.54418 3.6509 9.8415 3.72933 10.1966 3.72933C10.5299 3.72933 10.8094 3.67263 11.0567 3.56723C11.2904 3.46768 11.4632 3.33647 11.5708 3.25476L11.5768 3.25018C11.6955 3.16015 11.7349 3.13275 11.7805 3.11225C11.8111 3.09846 11.8716 3.07617 12.0051 3.07617C12.1387 3.07617 12.1981 3.09847 12.2272 3.11163C12.2712 3.13153 12.3092 3.15807 12.4269 3.2482L12.433 3.25284C12.5397 3.33463 12.712 3.4666 12.9457 3.56669C13.1931 3.67265 13.4727 3.72933 13.8058 3.72933C14.161 3.72933 14.4583 3.6509 14.6821 3.58184C14.7689 3.55505 14.8362 3.53316 14.8914 3.51519C15.0022 3.47913 15.0645 3.45885 15.1387 3.44649C15.1934 3.43738 15.2032 3.44258 15.2137 3.44818L15.2166 3.44974L15.2176 3.45024L13.9975 5.39258ZM6 16.3223C6 11.6503 8.62866 8.24738 9.90788 6.89258H14.0946C15.3738 8.24738 18.0025 11.6503 18.0025 16.3223C18.0025 19.1257 16.1979 20.9243 14.412 20.9243H9.59047C7.80454 20.9243 6 19.1257 6 16.3223Z" />
    </g>
  </symbol>
  <symbol id="uk2-options" viewBox="0 0 24 24" xmlns="http://www.w3.org/2000/svg">
    <g id="primary">
      <path d="M12.7272 18.3124L12.7273 19.4366L11.2532 19.4153L11.2531 18.3229C10.7387 18.2221 10.3303 18.0152 10.0333 17.697C9.67802 17.3099 9.50299 16.8061 9.50293 16.1804L11.0301 16.1805C11.0302 16.5305 11.1097 16.7904 11.2582 16.9707C11.4067 17.151 11.6242 17.2411 11.9105 17.2412C12.1173 17.2465 12.2764 17.1829 12.3984 17.0609C12.515 16.9443 12.5733 16.7693 12.5733 16.5572C12.568 16.3185 12.5096 16.1329 12.393 15.995C12.2763 15.8572 12.0695 15.7246 11.7725 15.6079C11.4755 15.4912 11.1998 15.3639 10.9505 15.2419C10.7013 15.1199 10.4838 14.9767 10.2982 14.8123C10.1126 14.6479 9.97473 14.457 9.87926 14.2449C9.78379 14.0328 9.73604 13.7729 9.73601 13.4654C9.73596 12.9563 9.91092 12.5374 10.2556 12.2033C10.5154 11.9541 10.8495 11.7792 11.2472 11.689L11.2471 10.6709L12.7531 10.671L12.7532 11.7316C13.1297 11.8536 13.432 12.0498 13.6706 12.3309C13.9835 12.7074 14.1426 13.1847 14.1427 13.7574L12.6049 13.7573C12.5995 13.4444 12.5359 13.2005 12.4192 13.0308C12.2919 12.8611 12.1222 12.7762 11.8995 12.7762C11.698 12.7762 11.5442 12.8451 11.4329 12.967C11.3162 13.0943 11.2632 13.264 11.2632 13.4867C11.2632 13.7094 11.3269 13.8897 11.4542 14.017C11.5762 14.1496 11.783 14.2716 12.064 14.3936C12.3451 14.5155 12.6102 14.6322 12.8595 14.7648C13.1087 14.8868 13.3315 15.0353 13.5065 15.1997C13.6815 15.3641 13.83 15.555 13.9308 15.7725C14.0368 15.9952 14.0846 16.255 14.0846 16.5626C14.0847 17.0823 13.9203 17.5012 13.5916 17.8299C13.3636 18.0579 13.0666 18.217 12.7272 18.3124Z" />
      <path fill-rule="evenodd" clip-rule="evenodd" d="M9 2.25V3.75H15V2.25H16.5V3.75H18C19.6569 3.75 21 5.09315 21 6.75V18.75C21 20.4069 19.6569 21.75 18 21.75H6C4.34315 21.75 3 20.4069 3 18.75V6.75C3 5.09315 4.34315 3.75 6 3.75H7.5V2.25H9ZM9 6.75V5.25H15V6.75H16.5V5.25H18C18.7693 5.25 19.4033 5.82906 19.4899 6.57507L19.5 6.75V8.25H4.5V6.75L4.51009 6.57507C4.59674 5.82906 5.23075 5.25 6 5.25H7.5V6.75H9ZM4.5 18.75V9.75H19.5V18.75C19.5 19.5193 18.9209 20.1533 18.1749 20.2399L18 20.25H6L5.82507 20.2399C5.07906 20.1533 4.5 19.5193 4.5 18.75Z" />
    </g>
  </symbol>
  <symbol id="uk2-money-stack" viewBox="0 0 24 24" xmlns="http://www.w3.org/2000/svg">
    <g id="primary">
      <path d="M12.6608 10.7459L12.6609 11.7704L11.3174 11.7509L11.3173 10.7554C10.8486 10.6635 10.4764 10.475 10.2058 10.1851C9.88195 9.83225 9.72243 9.37313 9.72238 8.80287L11.1142 8.803C11.1142 9.12195 11.1867 9.35876 11.3221 9.52308C11.4574 9.68741 11.6555 9.76958 11.9165 9.7696C12.105 9.77445 12.2499 9.71647 12.3611 9.60533C12.4674 9.49902 12.5205 9.33955 12.5205 9.14624C12.5157 8.92877 12.4625 8.75962 12.3562 8.63397C12.2498 8.50831 12.0613 8.38747 11.7907 8.28113C11.5201 8.17479 11.2688 8.05878 11.0416 7.94761C10.8145 7.83644 10.6163 7.70594 10.4472 7.55611C10.278 7.40628 10.1523 7.2323 10.0653 7.03898C9.97833 6.84567 9.93481 6.60886 9.93479 6.32857C9.93475 5.86463 10.0942 5.48287 10.4083 5.17844C10.6451 4.95133 10.9495 4.79187 11.312 4.70975L11.3119 3.78188L12.6843 3.782L12.6844 4.74853C13.0276 4.85972 13.303 5.03855 13.5205 5.2947C13.8057 5.63784 13.9507 6.0728 13.9508 6.59472L12.5493 6.5946C12.5444 6.30947 12.4864 6.08716 12.3801 5.93251C12.2641 5.77785 12.1094 5.70052 11.9065 5.7005C11.7228 5.70048 11.5827 5.7633 11.4812 5.87444C11.3749 5.99041 11.3266 6.14505 11.3266 6.34802C11.3266 6.551 11.3846 6.71531 11.5006 6.83131C11.6118 6.95213 11.8003 7.0633 12.0564 7.17447C12.3125 7.28565 12.5542 7.39199 12.7813 7.51282C13.0085 7.624 13.2115 7.75933 13.371 7.90916C13.5304 8.05898 13.6658 8.23297 13.7576 8.43112C13.8543 8.6341 13.8978 8.8709 13.8978 9.1512C13.8979 9.6248 13.7481 10.0066 13.4485 10.3062C13.2407 10.5139 12.9701 10.6589 12.6608 10.7459Z" />
      <path fill-rule="evenodd" clip-rule="evenodd" d="M18.999 7.76367C18.999 9.57794 18.3088 11.231 17.1766 12.4746H18.7871C19.4775 12.4746 20.0371 13.0343 20.0371 13.7246V21.988C20.0371 22.6784 19.4775 23.238 18.7871 23.238H5.21094C4.52058 23.238 3.96094 22.6784 3.96094 21.988V13.7246C3.96094 13.0343 4.52058 12.4746 5.21094 12.4746H6.8214C5.68924 11.231 4.99902 9.57794 4.99902 7.76367C4.99902 3.89768 8.13303 0.763672 11.999 0.763672C15.865 0.763672 18.999 3.89768 18.999 7.76367ZM11.999 13.2637C15.0366 13.2637 17.499 10.8012 17.499 7.76367C17.499 4.72611 15.0366 2.26367 11.999 2.26367C8.96146 2.26367 6.49902 4.72611 6.49902 7.76367C6.49902 10.8012 8.96146 13.2637 11.999 13.2637ZM11.999 14.7637C13.1648 14.7637 14.264 14.4787 15.2308 13.9746H18.5371V15.5622H5.46094V13.9746H8.76724C9.73403 14.4787 10.8332 14.7637 11.999 14.7637ZM5.46094 17.0645V18.6504H18.5371V17.0645H5.46094ZM5.46094 21.738V20.1521H18.5371V21.738H5.46094Z" />
    </g>
  </symbol>
  <symbol id="uk2-bag-hand" viewBox="0 0 24 24" xmlns="http://www.w3.org/2000/svg">
    <g id="primary">
      <path d="M14.2896 12.5109C14.0885 12.2529 13.806 12.001 13.4414 11.8421V10.6309H11.8134V11.8132C11.4916 11.9318 11.227 12.1165 11.0226 12.3288C10.7045 12.6591 10.4863 13.1086 10.4863 13.5161V13.5253C10.4863 13.8319 10.4862 14.2947 10.8128 14.7636C11.1015 15.1782 11.5867 15.5141 12.25 15.8769C12.8925 16.2283 13.0775 16.4132 13.1325 16.4921L13.136 16.4968C13.1486 16.5127 13.1645 16.5326 13.1666 16.7561L13.1661 16.7574C13.1526 16.7872 13.1273 16.8288 13.0883 16.8695C13.0221 16.9387 12.9016 17.0235 12.6636 17.0235C12.5026 17.0235 12.3817 16.9531 12.274 16.8148C12.2179 16.7427 12.175 16.6619 12.1477 16.5903C12.1301 16.544 12.1235 16.516 12.1217 16.5074L12.1219 16.5118L12.122 16.524H10.494C10.494 16.9207 10.682 17.4203 10.9896 17.8152C11.1866 18.0681 11.4609 18.3134 11.8134 18.4723V19.6976H13.4414V18.5236C13.7776 18.4058 14.0528 18.2162 14.2642 17.9956C14.5842 17.6614 14.795 17.2119 14.795 16.8093V16.8001C14.795 16.4935 14.795 16.0306 14.4685 15.5617C14.1797 15.1471 13.6946 14.8113 13.0312 14.4485C12.3888 14.0971 12.2038 13.9122 12.1488 13.8332L12.1452 13.8285C12.1327 13.8128 12.1169 13.7929 12.1147 13.573C12.1287 13.5427 12.1549 13.5001 12.1952 13.4582C12.2651 13.3856 12.3875 13.3019 12.6196 13.3019C12.7744 13.3019 12.8954 13.3705 13.0054 13.5117C13.0623 13.5847 13.1058 13.6662 13.1334 13.7383C13.1512 13.7846 13.1578 13.8126 13.1596 13.8211C13.1595 13.8179 13.1592 13.812 13.1592 13.8033H14.7873C14.7873 13.4044 14.5962 12.9043 14.2896 12.5109Z" />
      <path fill-rule="evenodd" clip-rule="evenodd" d="M11.761 0.92675C12.0143 0.812843 12.3013 0.75 12.6463 0.75C12.9912 0.75 13.2783 0.812829 13.5316 0.927369C13.7552 1.02845 13.9277 1.16113 14.0346 1.24334L14.0551 1.25902C14.1711 1.34791 14.223 1.38305 14.283 1.40874C14.3337 1.43047 14.4241 1.45892 14.6008 1.45892C14.7554 1.45892 14.9037 1.42605 15.0906 1.36838C15.1212 1.35894 15.1577 1.347 15.1986 1.33363C15.358 1.28154 15.5844 1.20753 15.7903 1.17321C16.1006 1.1215 16.4589 1.13317 16.8348 1.32227C17.1862 1.49902 17.4854 1.79737 17.764 2.18344L18.0597 2.59328L16.8902 4.45508H18.4341C19.5976 4.45508 20.5408 5.39829 20.5408 6.5618C20.5408 6.77927 20.5079 6.98904 20.4467 7.1864C21.4852 7.31661 22.2887 8.2028 22.2887 9.27664C22.2887 9.70654 22.1599 10.1064 21.9388 10.4397C22.3568 10.8246 22.6186 11.3765 22.6186 11.9895C22.6186 12.7383 22.2279 13.3959 21.6393 13.7695C21.7784 14.0507 21.8566 14.3674 21.8566 14.7024C21.8566 15.5164 21.395 16.2226 20.7193 16.5734C20.7196 16.6125 20.7197 16.6517 20.7197 16.691C20.7197 20.321 18.3136 23.25 15.2587 23.25H10.0255C6.97054 23.25 4.56445 20.321 4.56445 16.691C4.56445 16.0784 4.60161 15.4844 4.66979 14.9101H2.12891C1.71469 14.9101 1.37891 14.5743 1.37891 14.1601V6.5625C1.37891 6.14829 1.71469 5.8125 2.12891 5.8125H6.12457C6.2141 5.8125 6.29997 5.82819 6.37958 5.85697C6.92054 5.23666 7.64577 4.78124 8.46994 4.576L7.22444 2.59328L7.52019 2.18344C7.79878 1.79737 8.09796 1.49902 8.44934 1.32227C8.82529 1.13317 9.18355 1.1215 9.49384 1.17321C9.69979 1.20753 9.9262 1.28154 10.0855 1.33363C10.1265 1.34701 10.163 1.35894 10.1936 1.36838C10.3804 1.42605 10.5287 1.45892 10.6834 1.45892C10.86 1.45892 10.9515 1.43049 11.0038 1.4082C11.0654 1.38194 11.1187 1.34597 11.2359 1.25703L11.2565 1.24138C11.3643 1.1592 11.5374 1.02728 11.761 0.92675ZM14.72 4.89223C14.3646 4.61884 13.9196 4.45626 13.4366 4.45622L10.1655 4.45528L9.06321 2.70052C9.08898 2.68134 9.10905 2.66951 9.12338 2.66229C9.15133 2.64824 9.17237 2.64032 9.24726 2.6528C9.33259 2.66702 9.40585 2.69085 9.53004 2.73124C9.5897 2.75064 9.66111 2.77387 9.75125 2.80169C9.99184 2.87593 10.3074 2.95892 10.6834 2.95892C11.0375 2.95892 11.3323 2.89874 11.5918 2.78811C11.838 2.68319 12.0203 2.5448 12.137 2.45627L12.1427 2.45189C12.2705 2.35488 12.319 2.32052 12.3762 2.29479C12.4185 2.27577 12.4932 2.25 12.6463 2.25C12.7994 2.25 12.873 2.27579 12.9137 2.29417C12.9693 2.3193 13.0162 2.35281 13.143 2.44991L13.1488 2.45435C13.2645 2.54296 13.4462 2.68211 13.6924 2.78757C13.9519 2.89876 14.2467 2.95892 14.6008 2.95892C14.9768 2.95892 15.2923 2.87593 15.5329 2.80169C15.623 2.7739 15.6943 2.7507 15.7539 2.73131C15.8781 2.69092 15.9516 2.66702 16.0369 2.6528C16.1118 2.64032 16.1328 2.64824 16.1608 2.66229C16.1751 2.66951 16.1952 2.68134 16.221 2.70052L14.8442 4.89223H14.72ZM6.87402 10.1125C6.8742 10.1121 6.87439 10.1117 6.87457 10.1114V8.48817C6.9031 7.0844 8.04991 5.95519 9.46049 5.95508L13.4366 5.95622C13.7717 5.95622 14.0433 6.22785 14.0433 6.56293C14.0433 6.89794 13.7716 7.16954 13.4366 7.16965L11.4615 7.16909C10.6763 7.16886 10.0226 7.51625 9.51074 7.94137C9.00239 8.36359 8.5869 8.90063 8.26023 9.37769C7.93045 9.85929 7.44358 10.2227 6.87402 10.3949V10.1125ZM5.37457 8.47439C5.37421 8.4968 5.37402 8.51926 5.37402 8.54176V11.2552C5.37402 11.2648 5.37421 11.2745 5.37457 11.284V11.7927C5.2013 12.3083 5.04894 12.8478 4.92449 13.4101H2.87891L2.87891 7.3125H5.37457V8.47439ZM6.91665 11.9283C7.98581 11.7181 8.9051 11.0908 9.49787 10.2252C9.7954 9.79069 10.1186 9.38639 10.4691 9.09525C10.8162 8.80701 11.1415 8.669 11.4611 8.66909L13.4366 8.66965C13.9539 8.66965 14.4276 8.48321 14.7943 8.17385C14.9958 8.34354 15.2295 8.47615 15.485 8.56117C15.4043 8.78455 15.3604 9.02546 15.3604 9.27664C15.3604 9.97874 15.7038 10.6006 16.2319 10.9834C16.0691 11.2824 15.9766 11.6252 15.9766 11.9895C15.9766 12.6938 16.3221 13.3174 16.853 13.6999C16.6914 13.998 16.5996 14.3395 16.5996 14.7024C16.5996 15.8659 17.5428 16.8091 18.7063 16.8091H19.2187C19.1687 19.8089 17.2172 21.75 15.2587 21.75H10.0255C8.04137 21.75 6.06445 19.7578 6.06445 16.691C6.06445 14.9252 6.40873 13.3259 6.91665 11.9283ZM15.5439 6.5618C15.5439 6.22672 15.8156 5.95508 16.1507 5.95508H18.4341C18.7692 5.95508 19.0408 6.22672 19.0408 6.5618C19.0408 6.89688 18.7692 7.16852 18.4341 7.16852H16.1507C15.8156 7.16852 15.5439 6.89688 15.5439 6.5618ZM20.182 11.3834H18.0573C17.7343 11.397 17.4766 11.6632 17.4766 11.9895C17.4766 12.3246 17.7482 12.5962 18.0833 12.5962H18.6579C18.674 12.5959 18.6901 12.5957 18.7063 12.5957H19.7499C19.7661 12.5957 19.7823 12.5959 19.7984 12.5962H20.5119C20.847 12.5962 21.1186 12.3246 21.1186 11.9895C21.1186 11.6544 20.847 11.3828 20.5119 11.3828H20.2304C20.2143 11.3832 20.1982 11.3834 20.182 11.3834ZM20.7887 9.27664C20.7887 9.60302 20.531 9.8692 20.2079 9.88281H18.0833C18.0671 9.88281 18.0509 9.883 18.0348 9.88336H17.4671C17.132 9.88336 16.8604 9.61172 16.8604 9.27664C16.8604 8.94156 17.132 8.66992 17.4671 8.66992H20.182C20.517 8.66992 20.7887 8.94156 20.7887 9.27664ZM18.6803 14.0962H19.7759C20.0989 14.1099 20.3566 14.376 20.3566 14.7024C20.3566 15.0375 20.085 15.3091 19.7499 15.3091H18.7063C18.3712 15.3091 18.0996 15.0375 18.0996 14.7024C18.0996 14.376 18.3573 14.1099 18.6803 14.0962Z" />
    </g>
  </symbol>
  <symbol id="uk2-short-interest" viewBox="0 0 24 24" xmlns="http://www.w3.org/2000/svg">
    <g id="primary">
      <path fill-rule="evenodd" clip-rule="evenodd" d="M14.5352 4.0918C14.5352 5.33444 13.5278 6.3418 12.2852 6.3418C11.0425 6.3418 10.0352 5.33444 10.0352 4.0918C10.0352 2.84916 11.0425 1.8418 12.2852 1.8418C13.5278 1.8418 14.5352 2.84916 14.5352 4.0918ZM12.2852 3.3418C11.8709 3.3418 11.5352 3.67758 11.5352 4.0918C11.5352 4.50601 11.8709 4.8418 12.2852 4.8418C12.6994 4.8418 13.0352 4.50601 13.0352 4.0918C13.0352 3.67758 12.6994 3.3418 12.2852 3.3418Z" />
      <path d="M18.621 2.24598L10.5225 10.3445L11.5832 11.4051L19.6816 3.30664L18.621 2.24598Z" />
      <path fill-rule="evenodd" clip-rule="evenodd" d="M4.63972 10.5176C6.23102 10.5176 7.75714 11.1497 8.88236 12.2749L10.125 13.5176H20.0459C21.4013 13.5176 22.5 14.6163 22.5 15.9717C22.5 16.9799 21.8834 17.8855 20.9454 18.255L11.6451 21.9187C10.6835 22.2975 9.60238 22.2222 8.70267 21.7136L1.5 17.6426V10.5176H4.63972ZM13.5 15.0176H10.125C9.72718 15.0176 9.34564 14.8595 9.06434 14.5782L7.8217 13.3356C6.97778 12.4917 5.83319 12.0176 4.63972 12.0176H3V16.7674L9.44075 20.4078C9.94667 20.6938 10.5546 20.7361 11.0953 20.5231L20.3956 16.8594C20.7603 16.7157 21 16.3636 21 15.9717C21 15.4447 20.5728 15.0176 20.0459 15.0176H15.622C15.7049 15.2522 15.75 15.5046 15.75 15.7676C15.75 17.0102 14.7426 18.0176 13.5 18.0176H9.75V16.5176H13.5C13.9142 16.5176 14.25 16.1818 14.25 15.7676C14.25 15.3534 13.9142 15.0176 13.5 15.0176Z" />
      <path fill-rule="evenodd" clip-rule="evenodd" d="M17.8516 11.8574C19.0942 11.8574 20.1016 10.8501 20.1016 9.60742C20.1016 8.36478 19.0942 7.35742 17.8516 7.35742C16.6089 7.35742 15.6016 8.36478 15.6016 9.60742C15.6016 10.8501 16.6089 11.8574 17.8516 11.8574ZM17.1016 9.60742C17.1016 9.19321 17.4373 8.85742 17.8516 8.85742C18.2658 8.85742 18.6016 9.19321 18.6016 9.60742C18.6016 10.0216 18.2658 10.3574 17.8516 10.3574C17.4373 10.3574 17.1016 10.0216 17.1016 9.60742Z" />
    </g>
  </symbol>

</svg>
