<svg xmlns="http://www.w3.org/2000/svg" xmlns:xlink="http://www.w3.org/1999/xlink">
  <symbol id="uk2-bullhorn" viewBox="0 0 24 24" xmlns="http://www.w3.org/2000/svg">
    <path id="primary" fill-rule="evenodd" clip-rule="evenodd" d="M9.75 4.58407H12.7698C13.2534 4.58407 13.7339 4.5061 14.1928 4.35315L18.2757 2.99219C19.247 2.66842 20.25 3.39138 20.25 4.41521V16.7529C20.25 17.7768 19.247 18.4997 18.2757 18.176L14.1928 16.815C14.1359 16.796 14.0786 16.7782 14.0211 16.7616L14.9272 19.0268C15.3213 20.0121 14.5956 21.0839 13.5344 21.0839H8.25C7.42157 21.0839 6.75 20.4123 6.75 19.5839V15.7814C4.9566 14.744 3.75 12.8049 3.75 10.5841C3.75 7.27037 6.43629 4.58407 9.75 4.58407ZM9.75 6.08407H12.7698C13.4146 6.08407 14.0553 5.98011 14.6671 5.77617L18.75 4.41521L18.75 16.7529L14.6671 15.392C14.0553 15.188 13.4146 15.0841 12.7698 15.0841H9.75C7.26472 15.0841 5.25 13.0694 5.25 10.5841C5.25 8.09879 7.26472 6.08407 9.75 6.08407ZM8.25 16.395V19.5839H13.5344L12.3345 16.5841H9.75C9.23205 16.5841 8.72943 16.5184 8.25 16.395Z" />
  </symbol>
  <symbol id="uk2-scale" viewBox="0 0 24 24" xmlns="http://www.w3.org/2000/svg">
    <g id="primary">
      <path d="M15 2.25H9V3.75H11.25V6H3V7.5H5.25V11.25H6.75V7.5H11.25V20.25H5.25V21.75H18.75V20.25H12.75V7.5H17.25V9.75H18.75V7.5H21V6H12.75V3.75H15V2.25Z" />
      <path fill-rule="evenodd" clip-rule="evenodd" d="M2.25 12.75V15.75C2.25 16.5784 2.92157 17.25 3.75 17.25H8.25C9.07843 17.25 9.75 16.5784 9.75 15.75V12.75H2.25ZM8.25 14.25H3.75L3.75 15.75H8.25V14.25Z" />
      <path fill-rule="evenodd" clip-rule="evenodd" d="M14.25 14.25V11.25H21.75V14.25C21.75 15.0784 21.0784 15.75 20.25 15.75H15.75C14.9216 15.75 14.25 15.0784 14.25 14.25ZM15.75 12.75H20.25V14.25H15.75V12.75Z" />
    </g>
  </symbol>
  <symbol id="uk2-sun" viewBox="0 0 24 24" xmlns="http://www.w3.org/2000/svg">
    <g clip-path="url(#clip0_63_10784)">
      <path id="primary" fill-rule="evenodd" clip-rule="evenodd" d="M12.75 0V3.03081C14.6718 3.18935 16.4224 3.9517 17.8116 5.12772L19.9549 2.98443L21.0155 4.04509L18.8723 6.18838C20.0483 7.57762 20.8106 9.32821 20.9692 11.25H23.9999V12.75H20.9692C20.8106 14.6718 20.0483 16.4224 18.8722 17.8116L21.0155 19.9549L19.9549 21.0156L17.8116 18.8723C16.4223 20.0483 14.6717 20.8106 12.75 20.9692V24H11.25V20.9692C9.32815 20.8106 7.57755 20.0483 6.18831 18.8723L4.045 21.0156L2.98434 19.9549L5.12765 17.8116C3.95165 16.4224 3.1893 14.6718 3.03076 12.75H0L3.27827e-08 11.25H3.03076C3.1893 9.32821 3.95165 7.57762 5.12765 6.18838L2.98437 4.0451L4.04503 2.98444L6.18831 5.12772C7.57756 3.9517 9.32815 3.18935 11.25 3.03081V0H12.75ZM12 19.5C16.1421 19.5 19.5 16.1421 19.5 12C19.5 7.85786 16.1421 4.5 12 4.5C7.85782 4.5 4.49995 7.85786 4.49995 12C4.49995 16.1421 7.85782 19.5 12 19.5Z" />
    </g>
    <defs>
      <clipPath id="clip0_63_10784">
        <rect width="24" height="24" fill="white" />
      </clipPath>
    </defs>
  </symbol>
  <symbol id="uk2-leaf" viewBox="0 0 24 24" xmlns="http://www.w3.org/2000/svg">
    <path id="primary" fill-rule="evenodd" clip-rule="evenodd" d="M17.546 18.6066C15.978 19.934 13.9497 20.7344 11.7344 20.7344C6.76381 20.7344 2.73438 16.7049 2.73438 11.7344V2.73438H11.7344C16.7049 2.73438 20.7344 6.76381 20.7344 11.7344C20.7344 13.9496 19.934 15.978 18.6067 17.546L21.2647 20.204L20.2041 21.2647L17.546 18.6066ZM4.23438 4.23438H11.7344C15.8765 4.23438 19.2344 7.59224 19.2344 11.7344C19.2344 13.5353 18.5996 15.188 17.5416 16.4809L13.0147 11.954L11.9541 13.0147L16.4809 17.5416C15.188 18.5996 13.5353 19.2344 11.7344 19.2344C7.59224 19.2344 4.23438 15.8765 4.23438 11.7344V4.23438Z" />
  </symbol>
  <symbol id="uk2-social-distance" viewBox="0 0 24 24" xmlns="http://www.w3.org/2000/svg">
    <g id="primary">
      <path d="M12.75 2.25H11.25C11.25 5.1495 13.6005 7.5 16.5 7.5C19.3995 7.5 21.75 5.1495 21.75 2.25H20.25C20.25 4.32107 18.5711 6 16.5 6C14.4289 6 12.75 4.32107 12.75 2.25Z" />
      <path fill-rule="evenodd" clip-rule="evenodd" d="M16.5 9C14.8431 9 13.5 10.3431 13.5 12C13.5 13.6569 14.8431 15 16.5 15C18.1569 15 19.5 13.6569 19.5 12C19.5 10.3431 18.1569 9 16.5 9ZM16.5 10.5C15.6716 10.5 15 11.1716 15 12C15 12.8284 15.6716 13.5 16.5 13.5C17.3284 13.5 18 12.8284 18 12C18 11.1716 17.3284 10.5 16.5 10.5Z" />
      <path fill-rule="evenodd" clip-rule="evenodd" d="M7.5 15C9.15685 15 10.5 13.6569 10.5 12C10.5 10.3431 9.15685 9 7.5 9C5.84315 9 4.5 10.3431 4.5 12C4.5 13.6569 5.84315 15 7.5 15ZM7.5 13.5C8.32843 13.5 9 12.8284 9 12C9 11.1716 8.32843 10.5 7.5 10.5C6.67157 10.5 6 11.1716 6 12C6 12.8284 6.67157 13.5 7.5 13.5Z" />
      <path d="M11.25 21.75H12.75C12.75 18.8505 10.3995 16.5 7.5 16.5C4.60051 16.5 2.25 18.8505 2.25 21.75H3.75C3.75 19.6789 5.42893 18 7.5 18C9.57107 18 11.25 19.6789 11.25 21.75Z" />
    </g>
  </symbol>
  <symbol id="uk2-toilet-paper" viewBox="0 0 24 24" xmlns="http://www.w3.org/2000/svg">
    <g id="primary">
      <path d="M10.5 12H7.5V13.5H10.5V12Z" />
      <path d="M17.25 12C17.6642 12 18 11.3284 18 10.5C18 9.67157 17.6642 9 17.25 9C16.8358 9 16.5 9.67157 16.5 10.5C16.5 11.3284 16.8358 12 17.25 12Z" />
      <path fill-rule="evenodd" clip-rule="evenodd" d="M3 10.5C3 6.35786 4.67893 3 6.75 3H17.25C19.3211 3 21 6.35786 21 10.5C21 14.6421 19.3211 18 17.25 18H15V21H3V10.5ZM4.5 13.5H6V12H4.5V10.5C4.5 8.61131 4.88596 6.97557 5.43999 5.86752C6.03888 4.66974 6.58871 4.5 6.75 4.5H14.9996C14.089 5.86834 13.5 8.0466 13.5 10.5V12H12V13.5H13.5V19.5H4.5V13.5ZM18.56 15.1325C17.9611 16.3303 17.4113 16.5 17.25 16.5C17.0887 16.5 16.5389 16.3303 15.94 15.1325C15.386 14.0244 15 12.3887 15 10.5C15 8.61131 15.386 6.97557 15.94 5.86752C16.5389 4.66974 17.0887 4.5 17.25 4.5C17.4113 4.5 17.9611 4.66974 18.56 5.86752C19.114 6.97557 19.5 8.61131 19.5 10.5C19.5 12.3887 19.114 14.0244 18.56 15.1325Z" />
    </g>
  </symbol>
  <symbol id="uk2-wash-hands" viewBox="0 0 24 24" xmlns="http://www.w3.org/2000/svg">
    <g id="primary">
      <path fill-rule="evenodd" clip-rule="evenodd" d="M13.5 2.42969C13.5 2.42969 13.0622 2.86751 12.5211 3.57589C11.6457 4.72181 10.5 6.57575 10.5 8.42969C10.5 10.0865 11.8431 11.4297 13.5 11.4297C15.1569 11.4297 16.5 10.0865 16.5 8.42969C16.5 6.57575 15.3543 4.72181 14.4789 3.57589C13.9378 2.8675 13.5 2.42969 13.5 2.42969ZM13.2481 5.13674C13.3324 5.01029 13.4168 4.88898 13.5 4.77353C13.5832 4.88898 13.6676 5.01029 13.7519 5.13674C14.4521 6.18703 15 7.38056 15 8.42969C15 9.25811 14.3284 9.92969 13.5 9.92969C12.6716 9.92969 12 9.25811 12 8.42969C12 7.38056 12.5479 6.18703 13.2481 5.13674Z" />
      <path fill-rule="evenodd" clip-rule="evenodd" d="M4.63972 9.92969C6.23102 9.92969 7.75714 10.5618 8.88236 11.687L10.125 12.9297H20.0459C21.4013 12.9297 22.5 14.0284 22.5 15.3838C22.5 16.392 21.8834 17.2976 20.9454 17.6671L11.6451 21.3309C10.6835 21.7097 9.60238 21.6343 8.70267 21.1258L1.5 17.0547V9.92969H4.63972ZM13.5 14.4297H10.125C9.72718 14.4297 9.34564 14.2717 9.06434 13.9903L7.8217 12.7477C6.97778 11.9038 5.83319 11.4297 4.63972 11.4297H3V16.1795L9.44075 19.8199C9.94667 20.1059 10.5546 20.1482 11.0953 19.9352L20.3956 16.2715C20.7603 16.1278 21 15.7758 21 15.3838C21 14.8569 20.5728 14.4297 20.0459 14.4297H15.622C15.7049 14.6643 15.75 14.9167 15.75 15.1797C15.75 16.4223 14.7426 17.4297 13.5 17.4297H9.75V15.9297H13.5C13.9142 15.9297 14.25 15.5939 14.25 15.1797C14.25 14.7655 13.9142 14.4297 13.5 14.4297Z" />
    </g>
  </symbol>
  <symbol id="uk2-hand-sanitizer" viewBox="0 0 24 24" xmlns="http://www.w3.org/2000/svg">
    <path id="primary" fill-rule="evenodd" clip-rule="evenodd" d="M11.25 3H8.25V1.5H15.75C16.9926 1.5 18 2.50736 18 3.75H16.5C16.5 3.33579 16.1642 3 15.75 3H12.75V4.5H14.25C15.0784 4.5 15.75 5.17157 15.75 6V7.59451C17.0439 7.92755 18 9.10212 18 10.5V21C18 21.8284 17.3284 22.5 16.5 22.5H7.5C6.67157 22.5 6 21.8284 6 21V10.5C6 9.10212 6.95608 7.92755 8.25 7.59451V6C8.25 5.17157 8.92157 4.5 9.75 4.5H11.25V3ZM9.75 7.5H14.25V6H9.75V7.5ZM9 9H15C15.8284 9 16.5 9.67157 16.5 10.5V12H7.5V10.5C7.5 9.67157 8.17157 9 9 9ZM7.5 13.5V16.5H16.5V13.5H7.5ZM7.5 21V18H16.5V21H7.5Z" />
  </symbol>
  <symbol id="uk2-coronavirus" viewBox="0 0 24 24" xmlns="http://www.w3.org/2000/svg">
    <g id="primary">
      <path d="M12.75 11.3505L15.3481 9.85048L16.0981 11.1495L13.5 12.6495L12.75 11.3505Z" />
      <path d="M8.82596 9.85048L11.424 11.3505L10.674 12.6495L8.07596 11.1495L8.82596 9.85048Z" />
      <path d="M9.75 15V13.5H14.25V15H9.75Z" />
      <path fill-rule="evenodd" clip-rule="evenodd" d="M12.75 4.29933C13.1984 4.03997 13.5 3.55521 13.5 3C13.5 2.17157 12.8284 1.5 12 1.5C11.1716 1.5 10.5 2.17157 10.5 3C10.5 3.55521 10.8016 4.03997 11.25 4.29933V5.2912C9.94811 5.43511 8.75781 5.94928 7.78674 6.72608L6.57041 5.50975C6.70405 5.00933 6.57458 4.45326 6.18198 4.06066C5.59619 3.47487 4.64645 3.47487 4.06066 4.06066C3.47487 4.64645 3.47487 5.59619 4.06066 6.18198C4.45325 6.57458 5.00933 6.70405 5.50975 6.57041L6.72608 7.78674C5.94928 8.75781 5.43511 9.94811 5.2912 11.25H4.29933C4.03997 10.8016 3.55521 10.5 3 10.5C2.17157 10.5 1.5 11.1716 1.5 12C1.5 12.8284 2.17157 13.5 3 13.5C3.55521 13.5 4.03997 13.1984 4.29933 12.75H5.2912C5.43054 14.0105 5.917 15.1665 6.65288 16.1201L5.50976 17.2632C5.00933 17.1296 4.45326 17.2591 4.06066 17.6516C3.47488 18.2374 3.47488 19.1872 4.06066 19.773C4.64645 20.3588 5.5962 20.3588 6.18198 19.773C6.57458 19.3804 6.70406 18.8243 6.57042 18.3239L7.69504 17.1993C8.68245 18.0177 9.90684 18.5603 11.25 18.7088V19.7007C10.8016 19.96 10.5 20.4448 10.5 21C10.5 21.8284 11.1716 22.5 12 22.5C12.8284 22.5 13.5 21.8284 13.5 21C13.5 20.4448 13.1984 19.96 12.75 19.7007V18.7088C14.0519 18.5649 15.2422 18.0507 16.2133 17.2739L17.2632 18.3239C17.1296 18.8243 17.2591 19.3804 17.6516 19.773C18.2374 20.3588 19.1872 20.3588 19.773 19.773C20.3588 19.1872 20.3588 18.2374 19.773 17.6516C19.3804 17.2591 18.8243 17.1296 18.3239 17.2632L17.2739 16.2133C18.0507 15.2422 18.5649 14.0519 18.7088 12.75H19.7007C19.96 13.1984 20.4448 13.5 21 13.5C21.8284 13.5 22.5 12.8284 22.5 12C22.5 11.1716 21.8284 10.5 21 10.5C20.4448 10.5 19.96 10.8016 19.7007 11.25H18.7088C18.5603 9.90684 18.0177 8.68245 17.1993 7.69504L18.3239 6.57041C18.8243 6.70405 19.3804 6.57458 19.773 6.18198C20.3588 5.5962 20.3588 4.64645 19.773 4.06066C19.1872 3.47487 18.2374 3.47487 17.6517 4.06066C17.2591 4.45325 17.1296 5.00933 17.2632 5.50975L16.1201 6.65288C15.1665 5.917 14.0105 5.43054 12.75 5.2912V4.29933ZM17.25 12C17.25 11.0872 17.017 10.2288 16.6073 9.48101C16.1253 8.60128 15.3987 7.87466 14.519 7.39267C13.7712 6.98296 12.9128 6.75 12 6.75C11.0872 6.75 10.2288 6.98296 9.48101 7.39267C8.60128 7.87466 7.87466 8.60128 7.39267 9.48101C6.98296 10.2288 6.75 11.0872 6.75 12C6.75 12.9128 6.98296 13.7712 7.39267 14.519C7.87466 15.3987 8.60128 16.1253 9.48101 16.6073C10.2288 17.017 11.0872 17.25 12 17.25C12.9128 17.25 13.7712 17.017 14.519 16.6073C15.3987 16.1253 16.1253 15.3987 16.6073 14.519C17.017 13.7712 17.25 12.9128 17.25 12Z" />
    </g>
  </symbol>
  <symbol id="uk2-n95-mask" viewBox="0 0 24 24" xmlns="http://www.w3.org/2000/svg">
    <g id="primary">
      <path d="M12.3859 11.6062C12.1484 11.4637 11.8516 11.4637 11.6141 11.6062L8.63587 13.3931L7.86413 12.1069L10.8424 10.3199C11.5549 9.89241 12.4451 9.89241 13.1576 10.3199L16.1359 12.1069L15.3641 13.3931L12.3859 11.6062Z" />
      <path fill-rule="evenodd" clip-rule="evenodd" d="M3.75 10.8392V6.75C3.75 3.85051 6.10051 1.5 9 1.5H15C17.8995 1.5 20.25 3.85051 20.25 6.75V10.8392C20.7201 11.2188 21 11.7942 21 12.4092V13.5C21 18.4706 16.9706 22.5 12 22.5C7.02944 22.5 3 18.4706 3 13.5V12.4092C3 11.7942 3.27987 11.2188 3.75 10.8392ZM5.25 6.75C5.25 4.67893 6.92893 3 9 3H15C17.0711 3 18.75 4.67893 18.75 6.75V9.9375L14.6 7.51665C12.9933 6.57945 11.0067 6.57945 9.40004 7.51664L5.25 9.9375V6.75ZM19.5 13.5V13.183L17.826 14.1495L17.076 12.8505L18.9309 11.7796L13.8442 8.81231C12.7046 8.14756 11.2954 8.14756 10.1558 8.81231L5.06914 11.7796L6.92404 12.8505L6.17404 14.1495L4.5 13.183V13.5C4.5 15.0534 4.97223 16.4964 5.78097 17.6934L7.67404 16.6005L8.42404 17.8995L6.75639 18.8623C8.10865 20.1848 9.95913 21 12 21C14.0409 21 15.8914 20.1848 17.2436 18.8623L15.576 17.8995L16.326 16.6005L18.219 17.6934C19.0278 16.4964 19.5 15.0534 19.5 13.5Z" />
    </g>
  </symbol>
  <symbol id="uk2-gavel" viewBox="0 0 24 24" xmlns="http://www.w3.org/2000/svg">
    <g id="primary">
      <path fill-rule="evenodd" clip-rule="evenodd" d="M11.0082 15.3961C11.1418 15.8966 11.0123 16.4526 10.6197 16.8452L9.02873 18.4362C8.44294 19.022 7.4932 19.022 6.90741 18.4362L2.13444 13.6632C1.54865 13.0775 1.54865 12.1277 2.13444 11.5419L3.72543 9.95093C4.11802 9.55834 4.6741 9.42886 5.17452 9.5625L9.70096 5.03606C9.56732 4.53564 9.6968 3.97956 10.0894 3.58697L11.6804 1.99598C12.2662 1.41019 13.2159 1.41019 13.8017 1.99598L18.5747 6.76895C19.1605 7.35474 19.1605 8.30449 18.5747 8.89027L16.9837 10.4813C16.5911 10.8739 16.035 11.0033 15.5346 10.8697L14.8624 11.5419L21.7567 18.4362C22.6353 19.3149 22.6353 20.7395 21.7567 21.6182C20.878 22.4969 19.4534 22.4969 18.5747 21.6182L11.6804 14.7239L11.0082 15.3961ZM3.1951 12.6026L4.78609 11.0116L9.55906 15.7846L7.96807 17.3756L3.1951 12.6026ZM15.923 9.4206L11.1501 4.64763L12.741 3.05664L17.514 7.82961L15.923 9.4206ZM6.37708 10.4813L10.6197 6.23862L14.332 9.95093L10.0894 14.1936L6.37708 10.4813ZM19.6353 20.5575L12.741 13.6632L13.8017 12.6026L20.696 19.4969C20.9889 19.7898 20.9889 20.2646 20.696 20.5575C20.4031 20.8504 19.9282 20.8504 19.6353 20.5575Z" />
      <path d="M12.082 20.9438H1.58203V22.4438H12.082V20.9438Z" />
    </g>
  </symbol>
  <symbol id="uk2-light-bulb" viewBox="0 0 24 24" xmlns="http://www.w3.org/2000/svg">
    <g id="primary">
      <path d="M6 8.97792C6 5.98214 8.42155 3 12 3C15.5758 3 18 5.97927 18 9C18 10.0552 17.7783 10.8232 17.4034 11.5122C17.0079 12.2389 16.4122 12.9356 15.5504 13.8209C14.8461 14.5445 14.3898 15.4848 14.2772 16.5H15.7912C15.8941 15.8878 16.1863 15.3181 16.6253 14.8671C18.3806 13.0638 19.5 11.5916 19.5 9C19.5 5.25 16.5 1.5 12 1.5C7.5 1.5 4.5 5.25 4.5 8.97792C4.5 11.5886 5.61941 13.0634 7.37472 14.8671C7.81366 15.3181 8.10586 15.8878 8.20881 16.5H9.72278C9.61023 15.4848 9.15387 14.5445 8.4497 13.8209C7.58831 12.9358 6.99299 12.2389 6.59766 11.51C6.22265 10.8186 6 10.0446 6 8.97792Z" />
      <path d="M14.25 21V22.5H9.75V21H14.25Z" />
      <path d="M15.75 19.5V18H8.25V19.5H15.75Z" />
    </g>
  </symbol>
  <symbol id="uk2-satellite" viewBox="0 0 24 24" xmlns="http://www.w3.org/2000/svg">
    <g id="primary">
      <path d="M21.2827 10.125C21.2827 5.15444 17.2533 1.125 12.2827 1.125V2.625C16.4249 2.625 19.7827 5.98286 19.7827 10.125H21.2827Z" />
      <path d="M18.2827 10.125C18.2827 6.81129 15.5965 4.125 12.2827 4.125V5.625C14.768 5.625 16.7827 7.63972 16.7827 10.125H18.2827Z" />
      <path d="M14.5327 9C14.5327 8.37868 14.0291 7.875 13.4077 7.875C12.7864 7.875 12.2827 8.37868 12.2827 9C12.2827 9.62132 12.7864 10.125 13.4077 10.125C14.0291 10.125 14.5327 9.62132 14.5327 9Z" />
      <path fill-rule="evenodd" clip-rule="evenodd" d="M4.38183 5.47288C4.86309 4.79858 5.82567 4.80428 6.41146 5.39006L17.0181 15.9967C17.6038 16.5825 17.6095 17.545 16.9352 18.0263C16.1719 18.5711 15.3425 18.9824 14.4794 19.2601L15.0799 21.9623C15.184 22.4307 14.8276 22.875 14.3478 22.875H4.96771C4.4879 22.875 4.13149 22.4307 4.23557 21.9623L5.33017 17.0366C2.19473 13.8812 1.87843 8.98041 4.38183 5.47288ZM5.45668 6.55661C3.52703 9.46799 3.84656 13.4318 6.41146 15.9967C8.97635 18.5616 12.9401 18.8811 15.8515 16.9514L5.45668 6.55661ZM6.62629 18.1187C8.52836 19.4253 10.821 19.9188 13.0182 19.599L13.4128 21.375H5.90267L6.62629 18.1187Z" />
    </g>
  </symbol>
  <symbol id="uk2-ticket" viewBox="0 0 24 24" xmlns="http://www.w3.org/2000/svg">
    <g id="primary">
      <path d="M15 10.5H13.5V13.5H15V10.5Z" />
      <path fill-rule="evenodd" clip-rule="evenodd" d="M1.5 5.25C1.5 4.83579 1.83579 4.5 2.25 4.5H21.75C22.1642 4.5 22.5 4.83579 22.5 5.25V9C22.5 9.41421 22.155 9.73776 21.7636 9.87328C20.8826 10.1783 20.25 11.0153 20.25 12C20.25 12.9847 20.8826 13.8217 21.7636 14.1267C22.155 14.2622 22.5 14.5858 22.5 15V18.75C22.5 19.1642 22.1642 19.5 21.75 19.5H2.25C1.83579 19.5 1.5 19.1642 1.5 18.75V15C1.5 14.5858 1.845 14.2622 2.23642 14.1267C3.1174 13.8217 3.75 12.9847 3.75 12C3.75 11.0153 3.1174 10.1783 2.23642 9.87328C1.845 9.73776 1.5 9.41421 1.5 9V5.25ZM3 8.56248V6H13.5V9H15V6H21V8.56248C19.6772 9.14051 18.75 10.4603 18.75 12C18.75 13.5397 19.6772 14.8595 21 15.4375V18H15V15H13.5V18H3V15.4375C4.32282 14.8595 5.25 13.5397 5.25 12C5.25 10.4603 4.32282 9.14051 3 8.56248Z" />
    </g>
  </symbol>
  <symbol id="uk2-coffee-cup" viewBox="0 0 24 24" xmlns="http://www.w3.org/2000/svg">
    <path id="primary" fill-rule="evenodd" clip-rule="evenodd" d="M4.5 4.5V3C4.5 2.17157 5.17157 1.5 6 1.5H18C18.8284 1.5 19.5 2.17157 19.5 3V4.5C20.3284 4.5 21 5.17157 21 6V7.5C21 8.32843 20.3284 9 19.5 9H19.35L18.1351 21.1493C18.0584 21.9161 17.4131 22.5 16.6425 22.5H7.35748C6.58685 22.5 5.94161 21.9161 5.86493 21.1493L4.65 9H4.5C3.67157 9 3 8.32843 3 7.5V6C3 5.17157 3.67157 4.5 4.5 4.5ZM6 3H18V4.5H6V3ZM4.5 6L4.5 7.5H19.5V6H4.5ZM6.98248 17.25L6.53248 12.75H17.4675L17.0175 17.25H6.98248ZM7.13248 18.75L7.35748 21L16.6425 21L16.8675 18.75H7.13248ZM17.6175 11.25H6.38248L6.15748 9H17.8425L17.6175 11.25Z" />
  </symbol>
  <symbol id="uk2-puzzle-piece" viewBox="0 0 24 24" xmlns="http://www.w3.org/2000/svg">
    <path id="primary" fill-rule="evenodd" clip-rule="evenodd" d="M5.25 15V20.25H9C9 18.5931 10.3431 17.25 12 17.25C13.6569 17.25 15 18.5931 15 20.25H18.75V15H20.25C21.0784 15 21.75 14.3284 21.75 13.5C21.75 12.6716 21.0784 12 20.25 12H18.75V6.75H13.5V5.25C13.5 4.42157 12.8284 3.75 12 3.75C11.1716 3.75 10.5 4.42157 10.5 5.25V6.75H5.25V12H3.75C2.92157 12 2.25 12.6716 2.25 13.5C2.25 14.3284 2.92157 15 3.75 15H5.25ZM3.75 5.25H9C9 3.59315 10.3431 2.25 12 2.25C13.6569 2.25 15 3.59315 15 5.25H20.25V10.5C21.9069 10.5 23.25 11.8431 23.25 13.5C23.25 15.1569 21.9069 16.5 20.25 16.5V21.75H13.5V20.25C13.5 19.4216 12.8284 18.75 12 18.75C11.1716 18.75 10.5 19.4216 10.5 20.25V21.75H3.75V16.5C2.09315 16.5 0.75 15.1569 0.75 13.5C0.75 11.8431 2.09315 10.5 3.75 10.5V5.25Z" />
  </symbol>
  <symbol id="uk2-car" viewBox="0 0 24 24" xmlns="http://www.w3.org/2000/svg">
    <g id="primary">
      <path d="M9 13.5H15V15H9V13.5Z" />
      <path fill-rule="evenodd" clip-rule="evenodd" d="M21.0726 11.25H22.5V9.75H20.6855L19.6211 5.62555C19.1083 3.63845 17.3161 2.25 15.2639 2.25H8.73614C6.68393 2.25 4.89169 3.63845 4.37889 5.62555L3.31452 9.75H1.5V11.25H2.92742L2.60777 12.4887C2.43571 12.8928 2.32107 13.3272 2.27407 13.7817L2.25 13.875V20.25C2.25 21.0784 2.92157 21.75 3.75 21.75H6.75C7.57843 21.75 8.25 21.0784 8.25 20.25V18.75H15.75V20.25C15.75 21.0784 16.4216 21.75 17.25 21.75H20.25C21.0784 21.75 21.75 21.0784 21.75 20.25V13.875L21.7259 13.7817C21.6789 13.3272 21.5643 12.8928 21.3922 12.4887L21.0726 11.25ZM3.75 17.25V15H6V13.5H3.89592L4.02865 12.9857C4.5057 11.9606 5.54487 11.25 6.75 11.25H17.25C18.4551 11.25 19.4943 11.9606 19.9714 12.9857L20.1041 13.5H18V15H20.25V17.25H3.75ZM4.86366 9.75L5.83131 6.00037C6.17317 4.67563 7.368 3.75 8.73614 3.75H15.2639C16.632 3.75 17.8268 4.67563 18.1687 6.00037L19.1363 9.75H4.86366ZM3.75 20.25V18.75H6.75V20.25H3.75ZM17.25 20.25V18.75H20.25V20.25H17.25Z" />
    </g>
  </symbol>
  <symbol id="uk2-food-and-drink" viewBox="0 0 24 24" xmlns="http://www.w3.org/2000/svg">
    <g id="primary">
      <path d="M9 3V9.75C9 10.9926 7.99264 12 6.75 12C5.50736 12 4.5 10.9926 4.5 9.75V3H3V9.75C3 11.5642 4.28832 13.0775 6 13.425V21H7.5V13.425C9.21168 13.0775 10.5 11.5642 10.5 9.75V3H9Z" />
      <path d="M7.5 3H6V9.75H7.5V3Z" />
      <path fill-rule="evenodd" clip-rule="evenodd" d="M13.5 3H21V9.75C21 11.5642 19.7117 13.0775 18 13.425V19.5H20.25V21H14.25V19.5H16.5V13.425C14.7883 13.0775 13.5 11.5642 13.5 9.75V3ZM19.5 9.75V4.5H15V9.75C15 10.9926 16.0074 12 17.25 12C18.4926 12 19.5 10.9926 19.5 9.75Z" />
    </g>
  </symbol>
  <symbol id="uk2-present" viewBox="0 0 24 24" xmlns="http://www.w3.org/2000/svg">
    <path id="primary" fill-rule="evenodd" clip-rule="evenodd" d="M5.25 5.40477C5.25 3.47166 7.52682 2.43851 8.98163 3.71147L12 6.35254L15.0184 3.71147C16.4732 2.43851 18.75 3.47166 18.75 5.40477V6.59937H19.5C20.3284 6.59937 21 7.27094 21 8.09937V10.3494C21 11.1778 20.3284 11.8494 19.5 11.8494V19.3494C19.5 20.1778 18.8284 20.8494 18 20.8494H6C5.17157 20.8494 4.5 20.1778 4.5 19.3494L4.5 11.8494C3.67157 11.8494 3 11.1778 3 10.3494V8.09937C3 7.27094 3.67157 6.59937 4.5 6.59937H5.25V5.40477ZM7.99388 4.84034C7.50894 4.41602 6.75 4.7604 6.75 5.40477V6.59912H10.0039L7.99388 4.84034ZM4.5 8.09937L4.5 10.3494H9V8.09937H4.5ZM10.5 11.8494V19.3494H13.5V11.8494H10.5ZM9 11.8494V19.3494H6V11.8494H9ZM10.5 8.09937V10.3494H13.5V8.09937H10.5ZM15 8.09937V10.3494H19.5V8.09937H15ZM15 11.8494V19.3494H18V11.8494H15ZM17.25 5.40477C17.25 4.7604 16.4911 4.41602 16.0061 4.84034L13.9961 6.59912H17.25V5.40477Z" />
  </symbol>
  <symbol id="uk2-condo" viewBox="0 0 24 24" xmlns="http://www.w3.org/2000/svg">
    <g id="primary">
      <path d="M9.75049 10.9455H14.2505V12.4455H9.75049V10.9455Z" />
      <path d="M14.2505 13.9455H9.75049V15.4455H14.2505V13.9455Z" />
      <path fill-rule="evenodd" clip-rule="evenodd" d="M6.60547 21.4455V8.43858C6.60547 8.18152 6.73713 7.94236 6.95433 7.80487L16.2447 1.92414C16.744 1.60804 17.3958 1.96685 17.3958 2.55785V21.4455C17.3958 21.8597 17.06 22.1955 16.6458 22.1955H7.35547C6.94125 22.1955 6.60547 21.8597 6.60547 21.4455ZM8.10547 20.6955H15.8958V3.92023L8.10547 8.85146V20.6955Z" />
    </g>
  </symbol>
  <symbol id="uk2-hi-rise-condo" viewBox="0 0 24 24" xmlns="http://www.w3.org/2000/svg">
    <g id="primary">
      <path d="M6.33984 10.9085H10.8398V12.4085H6.33984V10.9085Z" />
      <path d="M10.8398 13.9085H6.33984V15.4085H10.8398V13.9085Z" />
      <path fill-rule="evenodd" clip-rule="evenodd" d="M3.33984 21.4084V8.40147C3.33984 8.14441 3.4715 7.90525 3.68871 7.76776L12.979 1.88703C13.4784 1.57093 14.1302 1.92974 14.1302 2.52074V11.0077H19.9079C20.3221 11.0077 20.6579 11.3435 20.6579 11.7577V21.4798C20.6579 21.8974 20.3166 22.2346 19.899 22.2297L13.5362 22.1545C13.5173 22.1543 13.4986 22.1534 13.4801 22.1518C13.4474 22.1562 13.414 22.1584 13.3802 22.1584H4.08984C3.67563 22.1584 3.33984 21.8226 3.33984 21.4084ZM4.83984 20.6584H12.6302V3.88312L4.83984 8.81435V20.6584ZM14.295 20.6634L19.1579 20.7208V12.5077H14.295V20.6634Z" />
    </g>
  </symbol>
  <symbol id="uk2-grow-money" viewBox="0 0 24 24" xmlns="http://www.w3.org/2000/svg">
    <g id="primary">
      <path d="M12.7376 4.36989C13.0735 4.51631 13.3339 4.74837 13.5191 4.98609C13.8015 5.34853 13.9776 5.80929 13.9776 6.17676H12.4776C12.4776 6.18479 12.4779 6.19026 12.478 6.19324C12.4763 6.18536 12.4702 6.15956 12.4539 6.11693C12.4284 6.05051 12.3884 5.97537 12.3359 5.9081C12.2346 5.778 12.1231 5.71484 11.9804 5.71484C11.7666 5.71484 11.6539 5.79197 11.5894 5.85889C11.5523 5.89745 11.5281 5.93666 11.5152 5.96457C11.5173 6.16726 11.5319 6.18554 11.5434 6.20005L11.5467 6.20439C11.5973 6.2771 11.7678 6.4475 12.3597 6.77124C12.9709 7.1055 13.4179 7.41493 13.6839 7.7969C13.9848 8.22895 13.9847 8.65535 13.9847 8.93785V8.94636C13.9847 9.31733 13.7905 9.73143 13.4956 10.0393C13.301 10.2426 13.0474 10.4173 12.7376 10.5258V11.6074H11.2376V10.4785C10.9129 10.3322 10.6601 10.1061 10.4787 9.87317C10.1953 9.50931 10.022 9.04896 10.022 8.68352H11.522L11.5219 8.67229L11.5217 8.66819C11.5234 8.6761 11.5294 8.70196 11.5457 8.74461C11.5708 8.81059 11.6103 8.88497 11.6621 8.95143C11.7613 9.07883 11.8727 9.14368 12.021 9.14368C12.2403 9.14368 12.3513 9.06556 12.4123 9.00182C12.4483 8.9643 12.4715 8.92599 12.484 8.89851L12.4845 8.89738C12.4825 8.69147 12.4679 8.67306 12.4563 8.65847L12.453 8.65413C12.4023 8.58142 12.2319 8.41102 11.64 8.08728C11.0288 7.75302 10.5818 7.44359 10.3158 7.06161C10.0149 6.62956 10.015 6.20316 10.015 5.92067V5.91215C10.015 5.53676 10.216 5.12257 10.509 4.81832C10.6974 4.62273 10.9411 4.45254 11.2376 4.3432V3.25391H12.7376V4.36989Z" />
      <path fill-rule="evenodd" clip-rule="evenodd" d="M11.9995 0.25C8.03313 0.25 4.81772 3.46542 4.81772 7.43183C4.81772 11.1449 7.63551 14.1998 11.2494 14.5749V20.4561L9.71835 19.1689C9.71183 19.1134 9.704 19.052 9.6946 18.9854C9.65085 18.675 9.57253 18.2453 9.43328 17.7622C9.15892 16.8104 8.62631 15.5753 7.5805 14.6697C6.53469 13.7642 5.23616 13.4136 4.25488 13.2781C3.75682 13.2094 3.3204 13.1933 3.00696 13.1944C2.84979 13.1949 2.72228 13.1998 2.63193 13.2047C2.58673 13.2072 2.55072 13.2097 2.52484 13.2116L2.49371 13.2142L2.48403 13.2151L2.4807 13.2154L2.47887 13.2155C2.08107 13.2541 1.78292 13.5979 1.80161 13.9972L2.55079 13.9621C1.80161 13.9972 1.80166 13.9982 1.80166 13.9982L1.80173 13.9995L1.80189 14.0028L1.80242 14.0125L1.80436 14.0437C1.8061 14.0696 1.80878 14.1056 1.81281 14.1507C1.82085 14.2408 1.83427 14.3677 1.85621 14.5233C1.89996 14.8337 1.97828 15.2633 2.11753 15.7464C2.39188 16.6983 2.92449 17.9333 3.9703 18.8389C5.01611 19.7445 6.31464 20.0951 7.29592 20.2305C7.79399 20.2993 8.2304 20.3154 8.54384 20.3143C8.6181 20.314 8.68574 20.3128 8.74596 20.3111L11.2494 22.4158V23.7505H12.7494V22.418L15.2554 20.3111C15.3156 20.3128 15.3833 20.314 15.4575 20.3143C15.771 20.3154 16.2074 20.2993 16.7054 20.2305C17.6867 20.0951 18.9852 19.7445 20.031 18.8389C21.0769 17.9333 21.6095 16.6983 21.8838 15.7464C22.0231 15.2633 22.1014 14.8337 22.1451 14.5233C22.1671 14.3677 22.1805 14.2408 22.1885 14.1507C22.1926 14.1056 22.1953 14.0696 22.197 14.0437L22.1989 14.0125L22.1995 14.0028L22.1996 13.9995L22.1997 13.9982C22.1997 13.9982 22.1997 13.9972 21.4506 13.9621L22.1997 13.9972C22.2184 13.5979 21.9203 13.2541 21.5225 13.2155L21.5207 13.2154L21.5173 13.2151L21.5076 13.2142L21.4765 13.2116C21.4506 13.2097 21.4146 13.2072 21.3694 13.2047C21.2791 13.1998 21.1516 13.1949 20.9944 13.1944C20.6809 13.1933 20.2445 13.2094 19.7465 13.2781C18.7652 13.4136 17.4667 13.7642 16.4209 14.6697C15.375 15.5753 14.8424 16.8104 14.5681 17.7622C14.4288 18.2453 14.3505 18.675 14.3068 18.9854C14.2974 19.052 14.2895 19.1134 14.283 19.1689L12.7494 20.4583V14.575C16.3634 14.2001 19.1814 11.145 19.1814 7.43183C19.1814 3.46542 15.966 0.25 11.9995 0.25ZM6.31772 7.43183C6.31772 4.29384 8.86156 1.75 11.9995 1.75C15.1375 1.75 17.6814 4.29384 17.6814 7.43183C17.6814 10.5698 15.1375 13.1137 11.9995 13.1137C8.86156 13.1137 6.31772 10.5698 6.31772 7.43183ZM21.5225 13.2155L21.4506 13.9621C21.523 13.2156 21.5225 13.2155 21.5225 13.2155ZM2.55079 13.9621L2.47887 13.2155C2.47887 13.2155 2.47839 13.2156 2.55079 13.9621ZM7.99196 18.1777C8.05715 18.4038 8.10636 18.6164 8.14338 18.8048C7.95161 18.7951 7.73419 18.7768 7.50103 18.7446C6.65816 18.6283 5.68731 18.3415 4.95222 17.705C4.21712 17.0685 3.7945 16.1486 3.55885 15.331C3.49366 15.1048 3.44445 14.8923 3.40743 14.7039C3.5992 14.7136 3.81661 14.7319 4.04978 14.7641C4.89265 14.8804 5.86349 15.1672 6.59859 15.8037C7.33368 16.4402 7.7563 17.3601 7.99196 18.1777ZM16.0094 18.1777C15.9442 18.4038 15.895 18.6164 15.858 18.8048C16.0497 18.7951 16.2672 18.7768 16.5003 18.7446C17.3432 18.6283 18.314 18.3415 19.0491 17.705C19.7842 17.0685 20.2068 16.1486 20.4425 15.331C20.5077 15.1048 20.5569 14.8923 20.5939 14.7039C20.4022 14.7136 20.1847 14.7319 19.9516 14.7641C19.1087 14.8804 18.1379 15.1672 17.4028 15.8037C16.6677 16.4402 16.2451 17.3601 16.0094 18.1777Z" />
    </g>
  </symbol>
  <symbol id="uk2-accessories-x" viewBox="0 0 24 24" xmlns="http://www.w3.org/2000/svg">
    <g id="primary">
      <path fill-rule="evenodd" clip-rule="evenodd" d="M10.57 10.5917C10.57 13.3756 8.31315 15.6325 5.52915 15.6325C2.74516 15.6325 0.488281 13.3756 0.488281 10.5917C0.488281 7.80766 2.74516 5.55078 5.52915 5.55078C7.43517 5.55078 9.09411 6.60863 9.9509 8.16925C10.6199 8.03548 11.0643 7.95009 11.5149 7.95009C11.9655 7.95009 12.4101 8.03553 13.0794 8.16937C13.9362 6.60869 15.5952 5.55078 17.5013 5.55078C20.1532 5.55078 22.3268 7.59862 22.5271 10.1992H21.0206C20.8254 8.42832 19.3242 7.05078 17.5013 7.05078C15.5457 7.05078 13.9604 8.63608 13.9604 10.5917C13.9604 11.8719 14.6398 12.9935 15.6578 13.6154V15.2848C13.7857 14.5489 12.4604 12.725 12.4604 10.5917C12.4604 10.2507 12.4942 9.91756 12.5588 9.59556C12.0189 9.48992 11.7644 9.45009 11.5149 9.45009C11.2654 9.45009 11.011 9.48989 10.4716 9.59543C10.5362 9.91747 10.57 10.2506 10.57 10.5917ZM9.07002 10.5917C9.07002 12.5472 7.48472 14.1325 5.52915 14.1325C3.57358 14.1325 1.98828 12.5472 1.98828 10.5917C1.98828 8.63608 3.57358 7.05078 5.52915 7.05078C7.48472 7.05078 9.07002 8.63608 9.07002 10.5917Z" />
      <path d="M19.2727 15.2679L17.1514 13.1466L18.212 12.0859L20.3333 14.2073L22.4547 12.0859L23.5153 13.1466L21.394 15.2679L23.5153 17.3892L22.4547 18.4499L20.3333 16.3286L18.212 18.4499L17.1514 17.3892L19.2727 15.2679Z" />
    </g>
  </symbol>
  <symbol id="uk2-face-center" viewBox="0 0 24 24" xmlns="http://www.w3.org/2000/svg">
    <g id="primary">
      <path d="M20.25 15C20.6642 15 21 15.3358 21 15.75V18C21 19.6569 19.6569 21 18 21H15.75C15.3357 21 14.9998 20.6643 14.9996 20.25C14.9994 19.8656 15.2887 19.5486 15.6615 19.5051L15.7491 19.5H18C18.7908 19.5 19.4386 18.8881 19.4959 18.1119L19.5 18V15.75C19.5 15.3358 19.8358 15 20.25 15ZM3.75 15C4.16421 15 4.5 15.3358 4.5 15.75V18C4.5 18.7908 5.11191 19.4386 5.88805 19.4959L6 19.5H8.24925C8.66352 19.5 8.99942 19.8357 8.99963 20.25C8.99982 20.6344 8.71059 20.9514 8.33779 20.9949L8.25 21H6C4.34315 21 3 19.6569 3 18V15.75C3 15.3358 3.33579 15 3.75 15ZM18 3C19.6569 3 21 4.34315 21 6V8.25C21 8.66421 20.6642 9 20.25 9C19.8358 9 19.5 8.66421 19.5 8.25V6C19.5 5.20923 18.8881 4.56138 18.1119 4.50411L18 4.5H15.75C15.3358 4.5 15 4.16421 15 3.75C15 3.33579 15.3358 3 15.75 3H18ZM8.25 3C8.66421 3 9 3.33579 9 3.75C9 4.16421 8.66421 4.5 8.25 4.5H6C5.20923 4.5 4.56138 5.11191 4.50411 5.88805L4.5 6V8.25C4.5 8.66421 4.16421 9 3.75 9C3.33579 9 3 8.66421 3 8.25V6C3 4.34315 4.34315 3 6 3H8.25Z" />
      <path fill-rule="evenodd" clip-rule="evenodd" d="M9.52471 9.67436C9.52471 8.3076 10.6327 7.19962 11.9994 7.19962C13.3662 7.19962 14.4742 8.3076 14.4742 9.67436C14.4742 11.0411 13.3662 12.1491 11.9994 12.1491C10.6327 12.1491 9.52471 11.0411 9.52471 9.67436ZM11.9994 8.69962C11.4611 8.69962 11.0247 9.13603 11.0247 9.67436C11.0247 10.2127 11.4611 10.6491 11.9994 10.6491C12.5378 10.6491 12.9742 10.2127 12.9742 9.67436C12.9742 9.13603 12.5378 8.69962 11.9994 8.69962Z" />
      <path d="M9.49233 16.8018C9.49233 15.4172 10.6148 14.2947 11.9994 14.2947C13.3841 14.2947 14.5066 15.4172 14.5066 16.8018H16.0066C16.0066 14.5888 14.2125 12.7947 11.9994 12.7947C9.78637 12.7947 7.99233 14.5888 7.99233 16.8018H9.49233Z" />
    </g>
  </symbol>
  <symbol id="uk2-center-check" viewBox="0 0 24 24" xmlns="http://www.w3.org/2000/svg">
    <g id="primary">
      <path d="M21 15.75C21 15.3358 20.6642 15 20.25 15C19.8358 15 19.5 15.3358 19.5 15.75V18L19.4959 18.1119C19.4386 18.8881 18.7908 19.5 18 19.5H15.7491L15.6615 19.5051C15.2887 19.5486 14.9994 19.8656 14.9996 20.25C14.9998 20.6643 15.3357 21 15.75 21H18C19.6569 21 21 19.6569 21 18V15.75Z" />
      <path d="M4.5 15.75C4.5 15.3358 4.16421 15 3.75 15C3.33579 15 3 15.3358 3 15.75V18C3 19.6569 4.34315 21 6 21H8.25L8.33779 20.9949C8.71059 20.9514 8.99982 20.6344 8.99963 20.25C8.99942 19.8357 8.66352 19.5 8.24925 19.5H6L5.88805 19.4959C5.11191 19.4386 4.5 18.7908 4.5 18V15.75Z" />
      <path d="M21 6C21 4.34315 19.6569 3 18 3H15.75C15.3358 3 15 3.33579 15 3.75C15 4.16421 15.3358 4.5 15.75 4.5H18L18.1119 4.50411C18.8881 4.56138 19.5 5.20923 19.5 6V8.25C19.5 8.66421 19.8358 9 20.25 9C20.6642 9 21 8.66421 21 8.25V6Z" />
      <path d="M9 3.75C9 3.33579 8.66421 3 8.25 3H6C4.34315 3 3 4.34315 3 6V8.25C3 8.66421 3.33579 9 3.75 9C4.16421 9 4.5 8.66421 4.5 8.25V6L4.50411 5.88805C4.56138 5.11191 5.20923 4.5 6 4.5H8.25C8.66421 4.5 9 4.16421 9 3.75Z" />
      <path d="M11.3321 15.3638L16.9985 9.69738L15.9379 8.63672L11.3321 13.2424L8.65636 10.5667L7.5957 11.6273L11.3321 15.3638Z" />
    </g>
  </symbol>
  <symbol id="uk2-small-business" viewBox="0 0 24 24" xmlns="http://www.w3.org/2000/svg">
    <g id="primary">
      <path fill-rule="evenodd" clip-rule="evenodd" d="M6.16406 17.333V13.2296H12.2656V17.333H6.16406ZM7.66406 14.7296H10.7656V15.833H7.66406V14.7296Z" />
      <path fill-rule="evenodd" clip-rule="evenodd" d="M20.4636 2.74414H3.49869L3.49039 6.40088C3.44681 6.5375 3.38958 6.68746 3.31942 6.87134L3.26111 7.02455C3.15332 7.30921 3.03067 7.64704 2.94374 8.01414C2.76557 8.7665 2.73229 9.66633 3.23039 10.6205L3.24612 10.6506L3.26451 10.6792C3.37268 10.8473 3.4899 10.9988 3.6148 11.1346V20.5756H20.4681V11.0408C20.5622 10.93 20.6516 10.8096 20.7355 10.6792L20.7539 10.6506L20.7696 10.6205C21.2677 9.66633 21.2344 8.7665 21.0563 8.01414C20.9693 7.64704 20.8467 7.30921 20.7389 7.02455L20.6806 6.87135C20.5945 6.64577 20.5279 6.47123 20.4821 6.30974L20.4636 6.24485V2.74414ZM5.1148 12.0157V19.0756H13.707V13.2062H17.718V19.0756H18.9681V11.9943C18.5814 12.0995 18.1758 12.1315 17.7705 12.1035C16.8777 12.042 15.9674 11.6954 15.1638 11.211C13.1513 12.9594 10.4934 12.5866 8.87378 11.1881C8.06105 11.6845 7.13628 12.0411 6.22954 12.1035C5.85303 12.1295 5.47637 12.1037 5.1148 12.0157ZM14.3174 7.33078L14.3428 9.92833C12.8557 11.3692 10.7898 11.0373 9.65779 9.86875L9.68256 7.33078H14.3174ZM4.74976 7.33078H7.75275L8.18241 7.33887L8.15774 9.86733C7.47858 10.294 6.75676 10.5637 6.12646 10.6071C5.44672 10.6539 4.91117 10.4453 4.54444 9.89573C4.27668 9.36395 4.28339 8.86643 4.40337 8.35979C4.46666 8.09255 4.55986 7.83052 4.66391 7.55573C4.67968 7.5141 4.69608 7.47122 4.71285 7.42742L4.74976 7.33078ZM7.76685 5.83078H16.2332L18.9636 5.77939V4.24414H4.99529L4.99181 5.77855L7.76685 5.83078ZM15.8176 7.33887L16.2472 7.33078H19.2502L19.2871 7.42727L19.2875 7.42842C19.3042 7.47187 19.3204 7.51441 19.3361 7.55573C19.4401 7.83052 19.5333 8.09255 19.5966 8.35979C19.7166 8.86643 19.7233 9.36395 19.4556 9.89573C19.0888 10.4453 18.5533 10.6539 17.8735 10.6071C17.2432 10.5637 16.5214 10.294 15.8423 9.86733L15.8176 7.33887ZM15.207 14.7062H16.218V19.0115H15.207V14.7062Z" />
    </g>
  </symbol>
  <symbol id="uk2-small-business-loan" viewBox="0 0 24 24" xmlns="http://www.w3.org/2000/svg">
    <g id="primary">
      <path d="M9.92267 13.0574V10.7677H14.0854V13.0574H9.92267Z" />
      <path fill-rule="evenodd" clip-rule="evenodd" d="M21.1748 1.38672H6.75546L6.74825 4.46169C6.71397 4.56691 6.66948 4.68354 6.6139 4.82924L6.56437 4.9594C6.47402 5.19802 6.36913 5.48648 6.29456 5.80138C6.14112 6.44934 6.11096 7.2334 6.54473 8.0643L6.56046 8.09442L6.57885 8.123C6.62855 8.20026 6.68045 8.2735 6.73438 8.34283L6.73438 12.2377C6.61707 12.2073 6.49936 12.1801 6.38108 12.156C5.25481 11.926 4.11265 11.9798 2.89635 12.0403L2.18359 12.0757V18.8544L9.01812 22.2034C9.55308 22.4765 10.9872 22.9642 12.5647 22.2134L20.7014 18.8822L20.7394 18.8612C21.1919 18.6116 21.5294 18.2583 21.6991 17.8023C21.8632 17.3611 21.8385 16.9089 21.7341 16.5048C21.6647 16.216 21.4847 15.8794 21.1785 15.577V8.40775C21.2512 8.31964 21.3205 8.22482 21.386 8.123L21.4044 8.09442L21.4201 8.0643C21.8539 7.2334 21.8237 6.44934 21.6703 5.80138C21.5957 5.48648 21.4908 5.19802 21.4005 4.9594L21.3509 4.82924C21.2792 4.64127 21.2259 4.5014 21.1892 4.37224L21.1748 4.32126L21.1748 1.38672ZM8.23438 12.8252C8.75925 13.105 9.29022 13.4695 9.84221 13.939L9.86777 13.9608L9.89129 13.9847C10.2492 14.349 10.4365 14.5306 10.5904 14.6397C10.6932 14.7126 10.7703 14.746 10.9016 14.7648H15.7696V10.6687H18.1253V14.7648H19.4172L19.4739 14.7736C19.5439 14.7843 19.612 14.7967 19.6785 14.8106V9.31239C19.3902 9.3731 19.0928 9.38971 18.7967 9.36931C18.0542 9.31817 17.3032 9.0394 16.6372 8.64979C14.9414 10.0676 12.7381 9.77283 11.3561 8.633C10.6831 9.03137 9.92122 9.31744 9.16816 9.36931C8.85419 9.39094 8.53879 9.37096 8.23438 9.30093L8.23438 12.8252ZM15.6602 16.2702V16.2648H15.4997C15.5168 16.3466 15.5279 16.423 15.534 16.4911L15.5375 16.5308L15.5368 16.5706C15.5251 17.2354 15.2157 17.722 14.8488 18.0365C14.5016 18.334 14.0986 18.4854 13.8063 18.539L13.7393 18.5513H10.159V17.0513H13.5859C13.6651 17.0278 13.7793 16.9776 13.8726 16.8976C13.9599 16.8228 14.022 16.7318 14.0347 16.5883C14.0312 16.5689 14.0257 16.5441 14.0173 16.5157C14.0025 16.4649 13.9824 16.4151 13.9586 16.3726C13.9094 16.2846 13.8742 16.2745 13.8675 16.2726L13.8697 16.2648H10.8112L10.7685 16.2599C10.3727 16.2145 10.0496 16.095 9.72287 15.8634C9.44463 15.6661 9.16551 15.3862 8.84525 15.0603C7.82259 14.1961 6.95324 13.8038 6.08099 13.6256C5.3523 13.4769 4.59699 13.4706 3.68359 13.5059V17.919L9.69085 20.8627L9.69742 20.866C9.99502 21.0192 10.9228 21.3405 11.9342 20.8522L11.9549 20.8422L20.0481 17.5288C20.22 17.4269 20.2722 17.3358 20.2932 17.2793C20.3198 17.2078 20.3352 17.0837 20.2806 16.8755L20.2778 16.8649L20.2754 16.8542L20.2748 16.8529C20.2633 16.8258 20.0846 16.4028 19.2988 16.2648H18.3839V16.2702H15.6602ZM15.8176 7.37131C14.6492 8.46971 13.0511 8.22587 12.1476 7.33011L12.1666 5.38268H15.7982L15.8176 7.37131ZM8.00833 5.38268H10.4472L10.6665 5.38681L10.6477 7.30883C10.1101 7.6367 9.54916 7.83951 9.06508 7.87286C8.53492 7.90938 8.13577 7.75011 7.85879 7.33945C7.65526 6.93097 7.65902 6.54891 7.75419 6.14703C7.80512 5.93199 7.88056 5.71932 7.96717 5.49058L8.00833 5.38268ZM10.4613 3.88268H17.5035L19.6748 3.84182L19.6748 2.88672H8.25195L8.24971 3.84106L10.4613 3.88268ZM17.2983 5.38681L17.5176 5.38268H19.9565L19.9977 5.49058C20.0843 5.71932 20.1597 5.93199 20.2107 6.14703C20.3058 6.54891 20.3096 6.93097 20.1061 7.33945C19.8291 7.75011 19.4299 7.90938 18.8998 7.87286C18.4157 7.83951 17.8547 7.6367 17.3171 7.30883L17.2983 5.38681Z" />
    </g>
  </symbol>
  <symbol id="uk2-expand-image" viewBox="0 0 24 24" xmlns="http://www.w3.org/2000/svg">
    <g id="primary">
      <path d="M3.33838 4.2888L3.35318 8.32624L2.02313 8.33112L2 2.02313L8.30799 2L8.31287 3.33006L4.27543 3.34486L9.10504 8.10004L8.16799 9.04398L3.33838 4.2888Z" />
      <path d="M20.5758 19.6342V15.5967H21.9058V21.9047L15.5978 21.9047L15.5978 20.5747L19.6353 20.5747L14.8231 15.8018L15.7636 14.8613L20.5758 19.6342Z" />
    </g>
  </symbol>
  <symbol id="uk2-collapse-image" viewBox="0 0 24 24" xmlns="http://www.w3.org/2000/svg">
    <g id="primary">
      <path d="M16.2333 17.1929L16.2481 21.2304L14.9181 21.2352L14.895 14.9272L21.203 14.9041L21.2078 16.2342L17.1704 16.249L22 21.0042L21.063 21.9481L16.2333 17.1929Z" />
      <path d="M7.75264 6.77286V2.73539H9.08271V9.04343L2.77468 9.04343L2.77468 7.71336L6.81215 7.71336L2 2.9405L2.9405 2L7.75264 6.77286Z" />
    </g>
  </symbol>
  <symbol id="uk2-wifi" viewBox="0 0 24 24" xmlns="http://www.w3.org/2000/svg">
    <g id="primary">
      <path d="M22.6227 9.2775C16.7553 3.4101 7.2424 3.4101 1.375 9.27751L3.14565 11.0482C8.03515 6.15865 15.9626 6.15865 20.8521 11.0481L22.6227 9.2775Z" />
      <path d="M19.0815 12.8188C15.1699 8.90719 8.82789 8.90719 4.91629 12.8188L6.68694 14.5894C9.62064 11.6557 14.3771 11.6557 17.3108 14.5894L19.0815 12.8188Z" />
      <path d="M13.3269 15.9174C12.5934 15.184 11.4043 15.184 10.6709 15.9174C9.93746 16.6509 9.93746 17.84 10.6709 18.5734C11.4043 19.3068 12.5934 19.3068 13.3269 18.5734C14.0603 17.84 14.0603 16.6509 13.3269 15.9174Z" />
    </g>
  </symbol>
  <symbol id="uk2-skeleton-tier-1" viewBox="0 0 24 24" xmlns="http://www.w3.org/2000/svg">
    <g clip-path="url(#clip0_63_10804)">
      <rect id="primary" width="24" height="24" rx="8" fill="#D4D4D4" />
    </g>
    <defs>
      <clipPath id="clip0_63_10804">
        <rect width="24" height="24" fill="white" />
      </clipPath>
    </defs>
  </symbol>


</svg>
