<svg xmlns="http://www.w3.org/2000/svg" xmlns:xlink="http://www.w3.org/1999/xlink">
  <symbol id="uk2-mono-briefcase" viewBox="0 0 32 32" xmlns="http://www.w3.org/2000/svg">
    <path id="primary" fill-rule="evenodd" clip-rule="evenodd" d="M9.9987 6.66732V8.66732H4.66536C3.92898 8.66732 3.33203 9.26427 3.33203 10.0007V12.5494C3.33203 13.2758 3.72582 13.945 4.36075 14.2978L4.66536 14.467V25.334C4.66536 26.0704 5.26232 26.6673 5.9987 26.6673H25.9987C26.7351 26.6673 27.332 26.0704 27.332 25.334V14.467L27.6366 14.2978C28.2716 13.945 28.6654 13.2758 28.6654 12.5494V10.0007C28.6654 9.26427 28.0684 8.66732 27.332 8.66732H21.9987V6.66732C21.9987 5.93094 21.4017 5.33398 20.6654 5.33398H11.332C10.5957 5.33398 9.9987 5.93094 9.9987 6.66732ZM21.9987 25.334H25.9987V15.2077L21.9987 17.43V25.334ZM20.6654 18.1707L18.265 19.5042C16.8556 20.2872 15.1418 20.2872 13.7324 19.5042L11.332 18.1707V25.334H20.6654V18.1707ZM9.9987 25.334V17.43L5.9987 15.2077V25.334H9.9987ZM20.6654 8.66732H11.332V6.66732H20.6654V8.66732ZM4.66536 12.5494V10.0007H27.332V12.5494C27.332 12.7916 27.2008 13.0146 26.9891 13.1322L17.6175 18.3387C16.6108 18.898 15.3866 18.898 14.3799 18.3387L5.00827 13.1322C4.79663 13.0146 4.66536 12.7916 4.66536 12.5494Z" />
  </symbol>
  <symbol id="uk2-mono-cds" viewBox="0 0 32 32" xmlns="http://www.w3.org/2000/svg">
    <g id="primary">
      <path fill-rule="evenodd" clip-rule="evenodd" d="M26.1394 5.90244C25.3267 5.08981 24.0092 5.08981 23.1966 5.90244L18.668 10.431V13.3738H21.6108L26.1394 8.84525L26.2822 8.68721C26.9488 7.8699 26.9012 6.66429 26.1394 5.90244ZM24.2429 6.75875C24.5343 6.55692 24.9371 6.58576 25.1966 6.84525L25.2831 6.94879L25.3479 7.06277C25.4741 7.3386 25.4236 7.67538 25.1966 7.90244L21.0573 12.0405H20.0013V10.9818L24.1394 6.84525L24.2429 6.75875Z" />
      <path d="M16.668 10.707H4.0013C3.26492 10.707 2.66797 11.304 2.66797 12.0404V25.3737C2.66797 26.1101 3.26492 26.707 4.0013 26.707H28.0013C28.7377 26.707 29.3346 26.1101 29.3346 25.3737V12.0404C29.3346 11.304 28.7377 10.707 28.0013 10.707H26.0013V12.0404H28.0013V25.3737H4.0013V12.0404H16.668V10.707Z" />
      <path d="M6.0013 15.3737H15.3346V16.707H6.0013V15.3737Z" />
      <path d="M15.3346 18.0404H6.0013V19.3737H15.3346V18.0404Z" />
      <path d="M12.668 20.707H6.0013V22.0404H12.668V20.707Z" />
      <path fill-rule="evenodd" clip-rule="evenodd" d="M26.0013 22.0404V15.3737H17.3346V22.0404H26.0013ZM18.668 16.707H24.668V20.707H18.668V16.707Z" />
    </g>
  </symbol>
  <symbol id="uk2-mono-piggy" viewBox="0 0 32 32" xmlns="http://www.w3.org/2000/svg">
    <g id="primary">
      <path d="M12.0013 9.33333C8.3194 9.33333 5.33464 12.3181 5.33464 16H6.66797C6.66797 13.0545 9.05578 10.6667 12.0013 10.6667V9.33333Z" />
      <path d="M22.668 15.3333C22.668 16.0697 22.071 16.6667 21.3346 16.6667C20.5983 16.6667 20.0013 16.0697 20.0013 15.3333C20.0013 14.597 20.5983 14 21.3346 14C22.071 14 22.668 14.597 22.668 15.3333Z" />
      <path fill-rule="evenodd" clip-rule="evenodd" d="M19.3346 8V4.44444C19.3346 4.19898 19.1357 4 18.8902 4H18.668C16.6939 4 14.9703 5.07253 14.0481 6.66667H12.0013C6.84664 6.66667 2.66797 10.8453 2.66797 16C2.66797 18.87 3.96334 21.4374 6.0013 23.1495V25.3333C6.0013 26.8061 7.19521 28 8.66797 28H11.668L13.668 25.3333H18.668L20.0013 28H26.0013V24.6667C26.0013 23.6667 26.0013 22.3333 27.0013 21.3333C28.701 19.6337 29.3346 18 29.3346 16.6667V14C29.3346 13.2636 28.7377 12.6667 28.0013 12.6667H26.0013L25.9946 12.6198C25.6159 9.96896 23.3457 8 20.668 8H19.3346ZM14.668 9.33333C14.668 7.35134 16.1095 5.70602 18.0013 5.38864V9.33333H20.668C22.6821 9.33333 24.3898 10.8144 24.6747 12.8083L24.8449 14H28.0013V16.6667C28.0013 17.5604 27.5763 18.8727 26.0585 20.3905C24.6631 21.7859 24.6662 23.615 24.6679 24.574L24.668 24.6667V26.6667H20.8253L19.492 24H13.0013L11.0013 26.6667H8.66797C7.93159 26.6667 7.33464 26.0697 7.33464 25.3333V22.5282L6.85895 22.1286C5.10964 20.659 4.0013 18.4596 4.0013 16C4.0013 11.5817 7.58302 8 12.0013 8H13.5027C13.393 8.42616 13.3346 8.87293 13.3346 9.33333V10.6667H14.668V9.33333Z" />
    </g>
  </symbol>
  <symbol id="uk2-mono-money-hand" viewBox="0 0 32 32" xmlns="http://www.w3.org/2000/svg">
    <g id="primary">
      <path fill-rule="evenodd" clip-rule="evenodd" d="M20.6667 9.05534C20.6667 11.0804 19.025 12.722 17 12.722C14.975 12.722 13.3333 11.0804 13.3333 9.05534C13.3333 7.03029 14.975 5.38867 17 5.38867C19.025 5.38867 20.6667 7.03029 20.6667 9.05534ZM19.3333 9.05534C19.3333 10.344 18.2887 11.3887 17 11.3887C15.7113 11.3887 14.6667 10.344 14.6667 9.05534C14.6667 7.76667 15.7113 6.72201 17 6.72201C18.2887 6.72201 19.3333 7.76667 19.3333 9.05534Z" />
      <path fill-rule="evenodd" clip-rule="evenodd" d="M14.3373 16.0553H27.0553C28.6816 16.0553 30 17.3737 30 19C30 20.2347 29.2297 21.3383 28.0707 21.7641L15.7503 26.2899C14.4189 26.779 12.9458 26.7052 11.6699 26.0855L2 21.3887V12.0553H5.66667C8.95789 12.0553 11.9728 14.1278 13.2497 15.5322C13.5315 15.8422 13.9183 16.0553 14.3373 16.0553ZM12.2525 24.8861L3.33333 20.554V13.3887H5.66667C8.46376 13.3887 11.1464 15.2009 12.2632 16.4292C12.7334 16.9463 13.4567 17.3887 14.3373 17.3887H18.3333C18.8856 17.3887 19.3333 17.8364 19.3333 18.3887C19.3333 18.941 18.8856 19.3887 18.3333 19.3887H13V20.722H18.3333C19.622 20.722 20.6667 19.6773 20.6667 18.3887C20.6667 18.0308 20.5861 17.6918 20.4421 17.3887H27.0553C27.9453 17.3887 28.6667 18.1101 28.6667 19C28.6667 19.6756 28.2452 20.2795 27.611 20.5125L15.2906 25.0383C14.2993 25.4025 13.2024 25.3476 12.2525 24.8861Z" />
    </g>
  </symbol>
  <symbol id="uk2-mono-present" viewBox="0 0 32 32" xmlns="http://www.w3.org/2000/svg">
    <path id="primary" fill-rule="evenodd" clip-rule="evenodd" d="M6.66667 6.57752C6.66667 4.42643 9.08261 3.16058 10.8512 4.38501L16 7.94955L21.1488 4.38501C22.9174 3.16058 25.3333 4.42643 25.3333 6.57752V8.09375H26.6667C27.403 8.09375 28 8.6907 28 9.42708V14.7604C28 15.4968 27.403 16.0938 26.6667 16.0938H26V26.7604C26 27.4968 25.403 28.0938 24.6667 28.0938H7.33333C6.59695 28.0938 6 27.4968 6 26.7604V16.0938H5.33333C4.59695 16.0938 4 15.4968 4 14.7604V9.42708C4 8.6907 4.59695 8.09375 5.33333 8.09375H6.66667V6.57752ZM10.0923 5.48127C9.20797 4.86905 8 5.50197 8 6.57752V8.09372H13.8658L10.0923 5.48127ZM21.9077 5.48127C22.792 4.86905 24 5.50197 24 6.57752V8.09372H18.1342L21.9077 5.48127ZM17.3333 16.0938V26.7604H14.6667V16.0938H17.3333ZM13.3333 26.7604V16.0938H7.33333V26.7604H13.3333ZM17.3333 9.42708V14.7604H14.6667V9.42708H17.3333ZM13.3333 14.7604V9.42708H5.33333V14.7604H13.3333ZM18.6667 14.7604V9.42708H26.6667V14.7604H18.6667ZM18.6667 26.7604V16.0938H24.6667V26.7604H18.6667Z" />
  </symbol>
  <symbol id="uk2-mono-island" viewBox="0 0 32 32" xmlns="http://www.w3.org/2000/svg">
    <path id="primary" fill-rule="evenodd" clip-rule="evenodd" d="M11.2773 9.72014C11.1914 9.71423 11.1044 9.71009 11.0165 9.70789C10.0736 9.68431 9.01658 9.88567 8.00734 10.5525C6.99961 11.2183 6.09142 12.3139 5.38542 13.9906L6.61426 14.508C7.24159 13.0181 8.00007 12.1554 8.74234 11.6649C9.02661 11.4771 9.3161 11.3389 9.60585 11.2408C9.43262 11.5369 9.33333 11.8815 9.33333 12.2493C9.33333 13.3539 10.2288 14.2493 11.3333 14.2493C12.4379 14.2493 13.3333 13.3539 13.3333 12.2493C13.3333 12.2147 13.3325 12.1803 13.3307 12.1461C13.8251 13.8731 14.0522 15.6809 13.9898 17.5072C13.9529 18.5896 13.815 19.6586 13.5816 20.7015C11.293 21.5928 9.61816 23.7118 9.36621 26.2493H4V27.5827H28V26.2493H22.6337C22.4518 24.4174 21.5284 22.8036 20.1677 21.7124C20.3582 20.8812 20.6096 20.0657 20.9195 19.2727L21.1312 19.061C21.1348 19.0579 21.1425 19.0512 21.1542 19.0421C21.181 19.0211 21.2272 18.9881 21.2913 18.9526C21.4191 18.882 21.6139 18.8042 21.8704 18.79C22.354 18.7631 23.2549 18.9561 24.5018 20.3589L25.4983 19.4731C24.3602 18.1927 23.3209 17.6343 22.4298 17.4923C22.4902 17.4693 22.5532 17.4472 22.6188 17.4263C23.376 17.1854 24.5294 17.0927 26.0352 17.8456L26.6315 16.6531C25.0045 15.8396 23.6266 15.809 22.5844 16.0537C23.0115 15.4047 23.4839 14.7819 24 14.1902L22.9951 13.3139C22.4153 13.9786 21.8867 14.6798 21.4113 15.4114C21.059 14.5426 20.357 13.575 19.0365 12.6947L18.2969 13.8041C19.6664 14.7171 20.1456 15.6638 20.3116 16.3277C20.3379 16.433 20.3568 16.533 20.37 16.6266C19.7735 15.9867 18.8378 15.4124 17.407 15.2534L17.2598 16.5786C18.5688 16.724 19.236 17.2894 19.5875 17.7686C19.7232 17.9537 19.8174 18.1341 19.8819 18.2864C19.515 19.1504 19.2136 20.0412 18.9805 20.9511C18.0836 20.5021 17.0713 20.2493 16 20.2493C15.6671 20.2493 15.3399 20.2737 15.0202 20.3208C15.1888 19.4121 15.2905 18.487 15.3224 17.5527C15.391 15.5417 15.1338 13.5515 14.5762 11.654C14.9389 12.0215 15.4428 12.2493 16 12.2493C17.1046 12.2493 18 11.3539 18 10.2493C18 10.1183 17.9874 9.99011 17.9633 9.86605C18.6495 9.87663 19.4676 10.0198 20.437 10.3752L20.896 9.12341C19.3874 8.57022 18.1314 8.45018 17.1018 8.57997C16.7859 8.37101 16.4072 8.24935 16 8.24935C15.0698 8.24935 14.2879 8.8844 14.0642 9.74462C14.0736 9.69741 14.0844 9.64762 14.0967 9.59552C14.1964 9.17398 14.396 8.61226 14.7937 8.05185C15.5643 6.96597 17.177 5.74935 20.6667 5.74935V4.41602C16.8231 4.41602 14.7691 5.78273 13.7064 7.28018C13.485 7.59212 13.311 7.90382 13.1741 8.2012C12.5061 6.93576 11.6899 5.74209 10.735 4.64722L9.73014 5.52356C10.5352 6.44668 11.2341 7.44542 11.8203 8.50102C11.486 8.33584 11.1169 8.1756 10.7203 8.03677C8.92097 7.40702 6.48201 7.20212 4.23991 9.07053L5.09349 10.0948C6.85139 8.62991 8.74576 8.75834 10.2798 9.29525C10.6388 9.42092 10.9741 9.56808 11.2773 9.72014ZM21.292 26.2493C20.964 23.6185 18.7197 21.5827 16 21.5827C15.551 21.5827 15.1151 21.6381 14.6985 21.7426C14.2452 21.8563 13.8149 22.028 13.416 22.2493C11.9607 23.0569 10.9229 24.5253 10.7079 26.2493H21.292ZM16.6667 10.2493C16.6667 10.6175 16.3682 10.916 16 10.916C15.6318 10.916 15.3333 10.6175 15.3333 10.2493C15.3333 9.88116 15.6318 9.58268 16 9.58268C16.3682 9.58268 16.6667 9.88116 16.6667 10.2493ZM12 12.2493C12 12.6175 11.7015 12.916 11.3333 12.916C10.9651 12.916 10.6667 12.6175 10.6667 12.2493C10.6667 11.8812 10.9651 11.5827 11.3333 11.5827C11.7015 11.5827 12 11.8812 12 12.2493Z" />
  </symbol>
  <symbol id="uk2-mono-bar-graph" viewBox="0 0 32 32" xmlns="http://www.w3.org/2000/svg">
    <g id="primary">
      <path d="M4 24.6667V4H5.33333V24.6667C5.33333 25.7712 6.22876 26.6667 7.33333 26.6667H28V28H7.33333C5.49238 28 4 26.5076 4 24.6667Z" />
      <path fill-rule="evenodd" clip-rule="evenodd" d="M7.33333 15.3333C7.33333 14.597 7.93029 14 8.66667 14H11.3333C12.0697 14 12.6667 14.597 12.6667 15.3333V23.3333C12.6667 24.0697 12.0697 24.6667 11.3333 24.6667H8.66667C7.93029 24.6667 7.33333 24.0697 7.33333 23.3333V15.3333ZM8.66667 15.3333H11.3333V23.3333H8.66667V15.3333Z" />
      <path fill-rule="evenodd" clip-rule="evenodd" d="M15.3333 11.3333C14.597 11.3333 14 11.9303 14 12.6667V23.3333C14 24.0697 14.597 24.6667 15.3333 24.6667H18C18.7364 24.6667 19.3333 24.0697 19.3333 23.3333V12.6667C19.3333 11.9303 18.7364 11.3333 18 11.3333H15.3333ZM18 12.6667H15.3333V23.3333H18V12.6667Z" />
      <path fill-rule="evenodd" clip-rule="evenodd" d="M20.6667 8.66667C20.6667 7.93029 21.2636 7.33333 22 7.33333H24.6667C25.403 7.33333 26 7.93029 26 8.66667V23.3333C26 24.0697 25.403 24.6667 24.6667 24.6667H22C21.2636 24.6667 20.6667 24.0697 20.6667 23.3333V8.66667ZM22 8.66667H24.6667V23.3333H22V8.66667Z" />
    </g>
  </symbol>
  <symbol id="uk2-mono-line-graph" viewBox="0 0 32 32" xmlns="http://www.w3.org/2000/svg">
    <g id="primary">
      <path d="M4 4V24.6667C4 26.5076 5.49238 28 7.33333 28H28V26.6667H7.33333C6.22876 26.6667 5.33333 25.7712 5.33333 24.6667V4H4Z" />
      <path d="M19.3333 10.6667H23.0572L16.6666 17.0572L14 14.3905L8.19523 20.1953L9.13804 21.1381L14 16.2761L16.6666 18.9428L24 11.6095V15.3333H25.3333V9.33333H19.3333V10.6667Z" />
    </g>
  </symbol>
  <symbol id="uk2-mono-credit-card" viewBox="0 0 32 32" xmlns="http://www.w3.org/2000/svg">
    <g id="primary">
      <path d="M26.0013 20.666H20.668V21.9993H26.0013V20.666Z" />
      <path fill-rule="evenodd" clip-rule="evenodd" d="M6.66797 6.66602C4.45883 6.66602 2.66797 8.45688 2.66797 10.666V21.3327C2.66797 23.5418 4.45883 25.3327 6.66797 25.3327H25.3346C27.5438 25.3327 29.3346 23.5418 29.3346 21.3327V10.666C29.3346 8.45688 27.5438 6.66602 25.3346 6.66602H6.66797ZM6.66797 7.99935H25.3346C26.8074 7.99935 28.0013 9.19326 28.0013 10.666V11.9993H4.0013V10.666C4.0013 9.19326 5.19521 7.99935 6.66797 7.99935ZM4.0013 14.666V21.3327C4.0013 22.8054 5.19521 23.9993 6.66797 23.9993H25.3346C26.8074 23.9993 28.0013 22.8054 28.0013 21.3327V14.666H4.0013Z" />
    </g>
  </symbol>
  <symbol id="uk2-mono-car" viewBox="0 0 32 32" xmlns="http://www.w3.org/2000/svg">
    <g id="primary">
      <path fill-rule="evenodd" clip-rule="evenodd" d="M20 20.6673V16.6673H12V20.6673H20ZM13.3333 18.0007H18.6667V19.334H13.3333V18.0007Z" />
      <path fill-rule="evenodd" clip-rule="evenodd" d="M4.66667 18.3076C4.66667 17.6628 4.77063 17.0221 4.97457 16.4103L5.77778 14.0007H4.66667C4.29848 14.0007 4 13.7022 4 13.334C4 12.9658 4.29848 12.6673 4.66667 12.6673H6.22222L7.75497 8.06907C8.29943 6.4357 9.82798 5.33398 11.5497 5.33398H20.4503C22.172 5.33398 23.7006 6.4357 24.245 8.06907L25.7778 12.6673H27.3333C27.7015 12.6673 28 12.9658 28 13.334C28 13.7022 27.7015 14.0007 27.3333 14.0007H26.2222L27.0254 16.4103C27.2294 17.0221 27.3333 17.6628 27.3333 18.3076V25.334C27.3333 26.0704 26.7364 26.6673 26 26.6673H22.6667C21.9303 26.6673 21.3333 26.0704 21.3333 25.334V23.334H10.6667V25.334C10.6667 26.0704 10.0697 26.6673 9.33333 26.6673H6C5.26362 26.6673 4.66667 26.0704 4.66667 25.334V18.3076ZM6 23.334V25.334H9.33333V23.334H6ZM22.6667 23.334V25.334H26V23.334H22.6667ZM11.5497 6.66732H20.4503C21.5981 6.66732 22.6171 7.4018 22.9801 8.49071L24.5969 13.3412C23.8284 12.9119 22.9428 12.6673 22 12.6673H10C9.05721 12.6673 8.17156 12.9119 7.40306 13.3412L9.01988 8.49071C9.38285 7.4018 10.4019 6.66732 11.5497 6.66732ZM6.01011 18.0007C6.03631 17.6033 6.11328 17.2105 6.23948 16.8319L6.48964 16.0814C7.16903 14.8414 8.48633 14.0007 10 14.0007H22C23.5137 14.0007 24.831 14.8414 25.5104 16.0814L25.7605 16.8319C25.8867 17.2105 25.9637 17.6033 25.9899 18.0007H21.3333V19.334H26V22.0007H6V19.334H10.6667V18.0007H6.01011Z" />
    </g>
  </symbol>
  <symbol id="uk2-mono-home" viewBox="0 0 32 32" xmlns="http://www.w3.org/2000/svg">
    <g id="primary">
      <path fill-rule="evenodd" clip-rule="evenodd" d="M16.6654 17.196H23.332V25.196H16.6654V17.196ZM17.9987 18.5293H21.9987V20.5293H17.9987V18.5293ZM21.9987 21.8626V23.8626H17.9987V21.8626H21.9987Z" />
      <path fill-rule="evenodd" clip-rule="evenodd" d="M16.0007 4.13867C16.3413 4.13917 16.6817 4.26935 16.9416 4.5292L28.4702 16.0578L27.5273 17.0006L26.6654 16.1386V25.8625C26.6654 26.9671 25.7699 27.8625 24.6654 27.8625H7.33203C6.22746 27.8625 5.33203 26.9671 5.33203 25.8625V16.1387L4.47015 17.0006L3.52734 16.0578L6.66536 12.9197V6.5293H11.332V8.25305L15.0559 4.5292C15.3168 4.26833 15.6588 4.13816 16.0007 4.13867ZM9.9987 9.58639V7.86263H7.9987V11.5864L9.9987 9.58639ZM25.332 14.8053L15.9987 5.47203L6.66536 14.8054V25.8625C6.66536 26.2307 6.96384 26.5292 7.33203 26.5292H8.66536V17.196H14.6654V26.5292H24.6654C25.0336 26.5292 25.332 26.2307 25.332 25.8625V14.8053ZM13.332 26.5292H9.9987V18.5293H13.332V26.5292Z" />
    </g>
  </symbol>
  <symbol id="uk2-mono-image" viewBox="0 0 32 32" xmlns="http://www.w3.org/2000/svg">
    <g id="primary">
      <path fill-rule="evenodd" clip-rule="evenodd" d="M21.3333 14.6667C23.1743 14.6667 24.6667 13.1743 24.6667 11.3333C24.6667 9.49238 23.1743 8 21.3333 8C19.4924 8 18 9.49238 18 11.3333C18 13.1743 19.4924 14.6667 21.3333 14.6667ZM21.3333 13.3333C22.4379 13.3333 23.3333 12.4379 23.3333 11.3333C23.3333 10.2288 22.4379 9.33333 21.3333 9.33333C20.2288 9.33333 19.3333 10.2288 19.3333 11.3333C19.3333 12.4379 20.2288 13.3333 21.3333 13.3333Z" />
      <path d="M11.1381 17.081C10.8778 16.8207 10.4557 16.8207 10.1953 17.081L7.13812 20.1382L6.19531 19.1954L9.2525 16.1382C10.0336 15.3571 11.2999 15.3571 12.0809 16.1382L16.1953 20.2526C16.4557 20.5129 16.8778 20.5129 17.1381 20.2526L19.2525 18.1382C20.0336 17.3571 21.2999 17.3571 22.0809 18.1382L25.8048 21.8621L24.862 22.8049L21.1381 19.081C20.8778 18.8207 20.4557 18.8207 20.1953 19.081L18.0809 21.1954C17.2999 21.9764 16.0336 21.9764 15.2525 21.1954L11.1381 17.081Z" />
      <path fill-rule="evenodd" clip-rule="evenodd" d="M4 8C4 5.79086 5.79086 4 8 4H24C26.2091 4 28 5.79086 28 8V24C28 26.2091 26.2091 28 24 28H8C5.79086 28 4 26.2091 4 24V8ZM8 5.33333H24C25.4728 5.33333 26.6667 6.52724 26.6667 8V24C26.6667 25.4728 25.4728 26.6667 24 26.6667H8C6.52724 26.6667 5.33333 25.4728 5.33333 24V8C5.33333 6.52724 6.52724 5.33333 8 5.33333Z" />
    </g>
  </symbol>
  <symbol id="uk2-mono-tile" viewBox="0 0 32 32" xmlns="http://www.w3.org/2000/svg">
    <g id="primary">
      <path fill-rule="evenodd" clip-rule="evenodd" d="M8 8V14.6667H14.6667V8H8ZM13.3333 9.33333H9.33333V13.3333H13.3333V9.33333Z" />
      <path fill-rule="evenodd" clip-rule="evenodd" d="M8 24V17.3333H14.6667V24H8ZM9.33333 18.6667H13.3333V22.6667H9.33333V18.6667Z" />
      <path fill-rule="evenodd" clip-rule="evenodd" d="M17.3333 8V14.6667H24V8H17.3333ZM22.6667 9.33333H18.6667V13.3333H22.6667V9.33333Z" />
      <path fill-rule="evenodd" clip-rule="evenodd" d="M17.3333 24V17.3333H24V24H17.3333ZM18.6667 18.6667H22.6667V22.6667H18.6667V18.6667Z" />
      <path fill-rule="evenodd" clip-rule="evenodd" d="M6.66667 4C5.19391 4 4 5.19391 4 6.66667V25.3333C4 26.8061 5.19391 28 6.66667 28H25.3333C26.8061 28 28 26.8061 28 25.3333V6.66667C28 5.19391 26.8061 4 25.3333 4H6.66667ZM25.3333 5.33333H6.66667C5.93029 5.33333 5.33333 5.93029 5.33333 6.66667V25.3333C5.33333 26.0697 5.93029 26.6667 6.66667 26.6667H25.3333C26.0697 26.6667 26.6667 26.0697 26.6667 25.3333V6.66667C26.6667 5.93029 26.0697 5.33333 25.3333 5.33333Z" />
    </g>
  </symbol>
  <symbol id="uk2-mono-folders" viewBox="0 0 32 32" xmlns="http://www.w3.org/2000/svg">
    <g id="primary">
      <path d="M14.781 6.66732L16.781 8.66732H26.6667V20.6673H25.3333V22.0007H26.6667C27.403 22.0007 28 21.4037 28 20.6673V8.66732C28 7.93094 27.403 7.33398 26.6667 7.33398H17.3333L15.7239 5.72451C15.4738 5.47446 15.1347 5.33398 14.781 5.33398H9.33333C8.59695 5.33398 8 5.93094 8 6.66732V8.66732H9.33333V6.66732L14.781 6.66732Z" />
      <path fill-rule="evenodd" clip-rule="evenodd" d="M13.3333 12.0007L11.7239 10.3912C11.4738 10.1411 11.1347 10.0007 10.781 10.0007H5.33333C4.59695 10.0007 4 10.5976 4 11.334V25.334C4 26.0704 4.59695 26.6673 5.33333 26.6673H22.6667C23.403 26.6673 24 26.0704 24 25.334V13.334C24 12.5976 23.403 12.0007 22.6667 12.0007H13.3333ZM12.781 13.334L10.781 11.334H5.33333V15.334H22.6667V13.334H12.781ZM22.6667 16.6673H5.33333L5.33333 25.334H22.6667V16.6673Z" />
    </g>
  </symbol>
  <symbol id="uk2-mono-identification" viewBox="0 0 32 32" xmlns="http://www.w3.org/2000/svg">
    <g id="primary">
      <path d="M16.668 11.9993H24.0013V13.3327H16.668V11.9993Z" />
      <path d="M26.0013 15.3327H16.668V16.666H26.0013V15.3327Z" />
      <path d="M16.668 18.666H26.0013V19.9993H16.668V18.666Z" />
      <path fill-rule="evenodd" clip-rule="evenodd" d="M14.0013 13.3327C14.0013 15.1736 12.5089 16.666 10.668 16.666C8.82702 16.666 7.33464 15.1736 7.33464 13.3327C7.33464 11.4917 8.82702 9.99935 10.668 9.99935C12.5089 9.99935 14.0013 11.4917 14.0013 13.3327ZM12.668 13.3327C12.668 14.4373 11.7725 15.3327 10.668 15.3327C9.5634 15.3327 8.66797 14.4373 8.66797 13.3327C8.66797 12.2281 9.5634 11.3327 10.668 11.3327C11.7725 11.3327 12.668 12.2281 12.668 13.3327Z" />
      <path d="M11.3346 18.666C12.8074 18.666 14.0013 19.8599 14.0013 21.3327V21.9993H15.3346V21.3327C15.3346 19.1235 13.5438 17.3327 11.3346 17.3327H10.0013C7.79216 17.3327 6.0013 19.1235 6.0013 21.3327V21.9993H7.33464V21.3327C7.33464 19.8599 8.52854 18.666 10.0013 18.666H11.3346Z" />
      <path fill-rule="evenodd" clip-rule="evenodd" d="M2.66797 10.666C2.66797 8.45688 4.45883 6.66602 6.66797 6.66602H25.3346C27.5438 6.66602 29.3346 8.45688 29.3346 10.666V21.3327C29.3346 23.5418 27.5438 25.3327 25.3346 25.3327H6.66797C4.45883 25.3327 2.66797 23.5418 2.66797 21.3327V10.666ZM25.3346 7.99935H6.66797C5.19521 7.99935 4.0013 9.19326 4.0013 10.666V21.3327C4.0013 22.8054 5.19521 23.9993 6.66797 23.9993H25.3346C26.8074 23.9993 28.0013 22.8054 28.0013 21.3327V10.666C28.0013 9.19326 26.8074 7.99935 25.3346 7.99935Z" />
    </g>
  </symbol>
  <symbol id="uk2-mono-user" viewBox="0 0 32 32" xmlns="http://www.w3.org/2000/svg">
    <g id="primary">
      <path fill-rule="evenodd" clip-rule="evenodd" d="M19.9987 6.66602C19.9987 8.87515 18.2078 10.666 15.9987 10.666C13.7896 10.666 11.9987 8.87515 11.9987 6.66602C11.9987 4.45688 13.7896 2.66602 15.9987 2.66602C18.2078 2.66602 19.9987 4.45688 19.9987 6.66602ZM15.9987 9.33268C17.4715 9.33268 18.6654 8.13877 18.6654 6.66602C18.6654 5.19326 17.4715 3.99935 15.9987 3.99935C14.5259 3.99935 13.332 5.19326 13.332 6.66602C13.332 8.13877 14.5259 9.33268 15.9987 9.33268Z" />
      <path d="M10.6654 15.9993C10.6654 14.5266 11.8593 13.3327 13.332 13.3327H18.6654C20.1381 13.3327 21.332 14.5266 21.332 15.9993V21.3327H22.6654V15.9993C22.6654 13.7902 20.8745 11.9993 18.6654 11.9993H13.332C11.1229 11.9993 9.33203 13.7902 9.33203 15.9993V21.3327H10.6654V15.9993Z" />
      <path d="M11.9987 17.3327H13.332V29.3327H11.9987V17.3327Z" />
      <path d="M18.6654 17.3327H19.9987V29.3327H18.6654V17.3327Z" />
    </g>
  </symbol>
  <symbol id="uk2-mono-users" viewBox="0 0 32 32" xmlns="http://www.w3.org/2000/svg">
    <g id="primary">
      <path fill-rule="evenodd" clip-rule="evenodd" d="M21.3346 12C23.5438 12 25.3346 10.2091 25.3346 8C25.3346 5.79086 23.5438 4 21.3346 4C19.1255 4 17.3346 5.79086 17.3346 8C17.3346 10.2091 19.1255 12 21.3346 12ZM24.0013 8C24.0013 9.47276 22.8074 10.6667 21.3346 10.6667C19.8619 10.6667 18.668 9.47276 18.668 8C18.668 6.52724 19.8619 5.33333 21.3346 5.33333C22.8074 5.33333 24.0013 6.52724 24.0013 8Z" />
      <path fill-rule="evenodd" clip-rule="evenodd" d="M10.668 17.3333C12.8771 17.3333 14.668 15.5425 14.668 13.3333C14.668 11.1242 12.8771 9.33333 10.668 9.33333C8.45883 9.33333 6.66797 11.1242 6.66797 13.3333C6.66797 15.5425 8.45883 17.3333 10.668 17.3333ZM13.3346 13.3333C13.3346 14.8061 12.1407 16 10.668 16C9.19521 16 8.0013 14.8061 8.0013 13.3333C8.0013 11.8606 9.19521 10.6667 10.668 10.6667C12.1407 10.6667 13.3346 11.8606 13.3346 13.3333Z" />
      <path d="M26.0013 17.3333C26.0013 15.8606 24.8074 14.6667 23.3346 14.6667H19.3346C17.8619 14.6667 16.668 15.8606 16.668 17.3333H15.3346C15.3346 15.1242 17.1255 13.3333 19.3346 13.3333H23.3346C25.5438 13.3333 27.3346 15.1242 27.3346 17.3333V22.6667H26.0013V17.3333Z" />
      <path d="M12.668 20H8.66797C7.19521 20 6.0013 21.1939 6.0013 22.6667V28H4.66797V22.6667C4.66797 20.4575 6.45883 18.6667 8.66797 18.6667H12.668C14.8771 18.6667 16.668 20.4575 16.668 22.6667V28H15.3346V22.6667C15.3346 21.1939 14.1407 20 12.668 20Z" />
    </g>
  </symbol>
  <symbol id="uk2-mono-user-group" viewBox="0 0 32 32" xmlns="http://www.w3.org/2000/svg">
    <g id="primary">
      <path fill-rule="evenodd" clip-rule="evenodd" d="M9.33464 11.3327C7.49369 11.3327 6.0013 9.8403 6.0013 7.99935C6.0013 6.1584 7.49369 4.66602 9.33464 4.66602C11.1756 4.66602 12.668 6.1584 12.668 7.99935C12.668 9.8403 11.1756 11.3327 9.33464 11.3327ZM9.33464 9.99935C8.23007 9.99935 7.33464 9.10392 7.33464 7.99935C7.33464 6.89478 8.23007 5.99935 9.33464 5.99935C10.4392 5.99935 11.3346 6.89478 11.3346 7.99935C11.3346 9.10392 10.4392 9.99935 9.33464 9.99935Z" />
      <path fill-rule="evenodd" clip-rule="evenodd" d="M22.668 11.3327C24.5089 11.3327 26.0013 9.8403 26.0013 7.99935C26.0013 6.1584 24.5089 4.66602 22.668 4.66602C20.827 4.66602 19.3346 6.1584 19.3346 7.99935C19.3346 9.8403 20.827 11.3327 22.668 11.3327ZM22.668 9.99935C23.7725 9.99935 24.668 9.10392 24.668 7.99935C24.668 6.89478 23.7725 5.99935 22.668 5.99935C21.5634 5.99935 20.668 6.89478 20.668 7.99935C20.668 9.10392 21.5634 9.99935 22.668 9.99935Z" />
      <path fill-rule="evenodd" clip-rule="evenodd" d="M16.0013 17.9993C17.8423 17.9993 19.3346 16.507 19.3346 14.666C19.3346 12.8251 17.8423 11.3327 16.0013 11.3327C14.1604 11.3327 12.668 12.8251 12.668 14.666C12.668 16.507 14.1604 17.9993 16.0013 17.9993ZM16.0013 16.666C17.1059 16.666 18.0013 15.7706 18.0013 14.666C18.0013 13.5614 17.1059 12.666 16.0013 12.666C14.8967 12.666 14.0013 13.5614 14.0013 14.666C14.0013 15.7706 14.8967 16.666 16.0013 16.666Z" />
      <path d="M6.0013 16.666C6.0013 15.1933 7.19521 13.9993 8.66797 13.9993H10.668V12.666H8.66797C6.45883 12.666 4.66797 14.4569 4.66797 16.666V20.666H6.0013V16.666Z" />
      <path d="M19.3346 23.3327C19.3346 21.8599 18.1407 20.666 16.668 20.666H15.3346C13.8619 20.666 12.668 21.8599 12.668 23.3327V27.3327H11.3346V23.3327C11.3346 21.1235 13.1255 19.3327 15.3346 19.3327H16.668C18.8771 19.3327 20.668 21.1235 20.668 23.3327V27.3327H19.3346V23.3327Z" />
      <path d="M21.3346 13.9993H23.3346C24.8074 13.9993 26.0013 15.1933 26.0013 16.666V20.666H27.3346V16.666C27.3346 14.4569 25.5438 12.666 23.3346 12.666H21.3346V13.9993Z" />
    </g>
  </symbol>
  <symbol id="uk2-mono-umbrella" viewBox="0 0 32 32" xmlns="http://www.w3.org/2000/svg">
    <path id="primary" fill-rule="evenodd" clip-rule="evenodd" d="M15.3343 2.66602H16.6676V4.01572C22.8729 4.32124 27.9628 8.8689 29.0979 14.8193C29.1046 14.8549 29.1113 14.8906 29.1178 14.9263C29.1373 15.0332 29.1555 15.1405 29.1724 15.2483C29.1893 15.3558 29.2049 15.4637 29.2192 15.5721C29.2931 16.1325 28.6147 16.3732 28.2756 15.9209C28.223 15.8508 28.1685 15.7832 28.1123 15.7181C28.0464 15.6417 27.978 15.5688 27.9075 15.4993C27.8898 15.4819 27.872 15.4648 27.8541 15.4478C26.2975 13.9754 23.7341 14.1331 22.3932 15.9209L21.8206 16.6844C21.564 17.0266 21.0638 17.0621 20.7614 16.7597L20.5037 16.502C19.4301 15.4284 18.0685 14.8183 16.6676 14.6717V26.3327C16.6676 27.2532 17.4138 27.9994 18.3343 27.9994C19.2548 27.9994 20.001 27.2532 20.001 26.3327V23.9994H21.3343V26.3327C21.3343 27.9896 19.9912 29.3327 18.3343 29.3327C16.6775 29.3327 15.3343 27.9896 15.3343 26.3327V14.6717C13.9335 14.8184 12.5719 15.4285 11.4984 16.502L11.2407 16.7597C10.9383 17.0621 10.4381 17.0266 10.1815 16.6844L9.6089 15.9209C8.26804 14.1331 5.70461 13.9754 4.14805 15.4478C4.1301 15.4648 4.1123 15.4819 4.09462 15.4993C4.02409 15.5688 3.95575 15.6417 3.8898 15.7181C3.83359 15.7832 3.77913 15.8508 3.72655 15.9209C3.38737 16.3732 2.709 16.1325 2.78293 15.5721C2.79722 15.4637 2.81282 15.3558 2.8297 15.2483C2.84662 15.1405 2.86483 15.0332 2.88431 14.9263C2.89082 14.8906 2.89747 14.8549 2.90425 14.8193C4.03931 8.86895 9.12908 4.32132 15.3343 4.01573V2.66602ZM18.4717 5.58733C20.0649 7.19952 21.6418 10.03 21.9477 14.4324C23.4491 13.0484 25.6141 12.7565 27.3953 13.5569C26.0656 9.54188 22.6718 6.46648 18.4717 5.58733ZM20.638 14.8549C20.3176 8.77742 17.4756 6.09807 16.001 5.39075C14.5263 6.09808 11.6843 8.77745 11.3639 14.8551C14.1 12.7865 17.9019 12.7865 20.638 14.8549ZM4.6068 13.5569C5.93647 9.54194 9.3302 6.46658 13.5302 5.58737C11.937 7.19955 10.3602 10.03 10.0542 14.4323C8.5529 13.0483 6.38797 12.7565 4.6068 13.5569Z" />
  </symbol>
  <symbol id="uk2-mono-building" viewBox="0 0 32 32" xmlns="http://www.w3.org/2000/svg">
    <g id="primary">
      <path d="M27.3346 27.334V14.114C27.3346 13.9372 27.2643 13.7676 27.1393 13.6426C27.0143 13.5176 26.8447 13.4473 26.6679 13.4473H22.5012V4.00065C22.5012 3.82384 22.431 3.65427 22.306 3.52925C22.181 3.40422 22.0114 3.33398 21.8346 3.33398H10.1679C9.99111 3.33398 9.82154 3.40422 9.69651 3.52925C9.57149 3.65427 9.50125 3.82384 9.50125 4.00065V8.80732H5.58792C5.41111 8.80732 5.24154 8.87756 5.11651 9.00258C4.99149 9.1276 4.92125 9.29717 4.92125 9.47399V27.334H1.78125V28.6673H30.2213V27.334H27.3346ZM15.0146 24.274H17.0146V27.334H15.0146V24.274ZM17.6812 22.9407H14.3479C14.1711 22.9407 14.0015 23.0109 13.8765 23.1359C13.7515 23.2609 13.6812 23.4305 13.6812 23.6073V27.334H10.8346V4.66732H21.1679V27.334H18.3212V23.6073C18.3212 23.4305 18.251 23.2609 18.126 23.1359C18.001 23.0109 17.8314 22.9407 17.6546 22.9407H17.6812ZM6.25458 10.1407H9.50125V27.334H6.25458V10.1407ZM22.5012 14.8073H26.0012V27.334H22.5012V14.8073Z" />
      <path d="M13.7546 6.17401H12.3079V7.62068H13.7546V6.17401Z" />
      <path d="M16.7212 6.17401H15.2746V7.62068H16.7212V6.17401Z" />
      <path d="M19.6946 6.17401H18.2479V7.62068H19.6946V6.17401Z" />
      <path d="M13.7546 19.6074H12.3079V21.054H13.7546V19.6074Z" />
      <path d="M16.7212 19.6074H15.2746V21.054H16.7212V19.6074Z" />
      <path d="M19.6946 19.6074H18.2479V21.054H19.6946V19.6074Z" />
      <path d="M13.7546 16.2473H12.3079V17.694H13.7546V16.2473Z" />
      <path d="M16.7212 16.2473H15.2746V17.694H16.7212V16.2473Z" />
      <path d="M19.6946 16.2473H18.2479V17.694H19.6946V16.2473Z" />
      <path d="M13.7546 12.894H12.3079V14.3407H13.7546V12.894Z" />
      <path d="M16.7212 12.894H15.2746V14.3407H16.7212V12.894Z" />
      <path d="M19.6946 12.894H18.2479V14.3407H19.6946V12.894Z" />
      <path d="M13.7546 9.53405H12.3079V10.9807H13.7546V9.53405Z" />
      <path d="M16.7212 9.53405H15.2746V10.9807H16.7212V9.53405Z" />
      <path d="M19.6946 9.53405H18.2479V10.9807H19.6946V9.53405Z" />
    </g>
  </symbol>
  <symbol id="uk2-mono-bag-hand" viewBox="0 0 32 32" xmlns="http://www.w3.org/2000/svg">
    <g id="primary">
      <path d="M15.5776 21.6477C15.5854 21.7408 15.8106 22.4785 16.455 22.4785C16.6384 22.5127 16.8281 22.4798 16.9892 22.3857C17.1503 22.2916 17.2721 22.1426 17.3324 21.966C17.3324 21.5157 17.3324 21.3448 16.1056 20.6771C14.3508 19.7143 14.0713 19.0931 14.0713 17.9828C14.1132 17.5396 14.2896 17.1199 14.5769 16.7798C14.8642 16.4398 15.2486 16.1958 15.6786 16.0805V14.4655H17.2315V16.096C17.691 16.2732 18.0906 16.5777 18.3835 16.9737C18.6764 17.3697 18.8505 17.8409 18.8853 18.3322H17.3324C17.3246 18.2468 17.0995 17.5092 16.455 17.5092C16.2788 17.4867 16.1002 17.5253 15.949 17.6185C15.7978 17.7118 15.6832 17.8541 15.6242 18.0216C15.6242 18.472 15.6242 18.6428 16.851 19.3105C18.6058 20.2733 18.8853 20.8945 18.8853 22.0048C18.839 22.4553 18.6556 22.8808 18.3599 23.2237C18.0641 23.5667 17.6703 23.8106 17.2315 23.9227V25.5221H15.6786V23.8683C15.2213 23.6922 14.8232 23.3902 14.5305 22.9972C14.2378 22.6041 14.0624 22.1362 14.0247 21.6477H15.5776Z" />
      <path fill-rule="evenodd" clip-rule="evenodd" d="M16.4539 2.42774L16.4522 2.42773C16.0146 2.42887 15.6655 2.55774 15.3802 2.76166C15.1375 2.93514 14.9545 3.15704 14.8299 3.30802L14.8053 3.33783C14.6614 3.51157 14.5766 3.605 14.4817 3.66904C14.4083 3.71853 14.3085 3.76342 14.1223 3.76342C13.8779 3.76342 13.6206 3.71872 13.3043 3.65641L13.2218 3.64006C12.9424 3.58451 12.6102 3.51845 12.2773 3.5011C11.8961 3.48124 11.4775 3.52133 11.0532 3.71574C10.6288 3.91016 10.2496 4.23556 9.90785 4.70641L9.61656 5.1077L11.3851 7.42852C10.2742 7.63073 9.30151 8.2294 8.61903 9.07258C8.51468 9.00484 8.39019 8.9655 8.25651 8.9655H4.25651C3.88832 8.9655 3.58984 9.26397 3.58984 9.63216V18.9655C3.58984 19.3337 3.88832 19.6322 4.25651 19.6322H6.63164C6.51464 20.3925 6.44987 21.1832 6.44987 22.0022C6.44987 25.187 7.27776 27.1485 8.67089 28.2808C10.0362 29.3904 11.7928 29.5711 13.3248 29.5711H19.5854C21.1175 29.5711 22.8741 29.3904 24.2394 28.2808C25.6325 27.1485 26.4604 25.187 26.4604 22.0022C26.4604 21.7407 26.4538 21.482 26.441 21.2264C27.0782 20.8225 27.5011 20.1111 27.5011 19.3009C27.5011 18.8626 27.3774 18.4533 27.163 18.1059C27.9027 17.7296 28.4094 16.9611 28.4094 16.0743C28.4094 15.3396 28.0616 14.6861 27.5216 14.2695C27.8308 13.8806 28.0155 13.3884 28.0155 12.8529C28.0155 11.5948 26.9956 10.5749 25.7375 10.5749H25.7292C25.8601 10.2874 25.9331 9.96803 25.9331 9.63159C25.9331 8.37344 24.9131 7.35352 23.655 7.35352H21.5823L23.2937 5.1077L23.0024 4.70641C22.6606 4.23556 22.2814 3.91016 21.8571 3.71574C21.4328 3.52133 21.0141 3.48124 20.633 3.5011C20.3001 3.51845 19.9679 3.58451 19.6885 3.64006L19.606 3.65641C19.2897 3.71872 19.0323 3.76342 18.788 3.76342C18.6017 3.76342 18.5019 3.71853 18.4286 3.66904C18.3337 3.605 18.2489 3.51157 18.105 3.33783L18.0804 3.30802C17.9558 3.15704 17.7728 2.93514 17.53 2.76166C17.2447 2.55774 16.8957 2.42887 16.4581 2.42773L16.4564 2.42774H16.4539ZM8.92318 14.4719V11.9832C8.92318 10.1627 10.3989 8.68694 12.2194 8.68685L17.7005 8.6882C18.2184 8.6882 18.6389 9.10486 18.6452 9.62123L18.6452 9.63159L18.6452 9.64385C18.6394 10.1605 18.2186 10.5776 17.7005 10.5777L13.5534 10.5767C12.4166 10.5764 11.6602 11.4994 11.369 12.3319C10.9905 13.414 10.0638 14.2376 8.92318 14.4719ZM12.6275 12.7722C12.094 14.2973 10.7845 15.4592 9.17102 15.7824C8.35968 17.577 7.7832 19.6685 7.7832 22.0022C7.7832 24.9777 8.55371 26.4673 9.51185 27.2461C10.4978 28.0475 11.8454 28.2378 13.3248 28.2378H19.5854C21.0649 28.2378 22.4124 28.0475 23.3984 27.2461C24.3566 26.4673 25.1271 24.9777 25.1271 22.0022C25.1271 21.8602 25.1249 21.7191 25.1207 21.5789H23.9688C22.7107 21.5789 21.6908 20.559 21.6908 19.3009C21.6908 18.834 21.8312 18.3999 22.0722 18.0386C21.3998 17.6425 20.9486 16.9111 20.9486 16.0743C20.9486 15.6077 21.0888 15.1739 21.3295 14.8127C20.6613 14.4156 20.2135 13.6866 20.2135 12.8529C20.2135 12.4964 20.2954 12.1591 20.4414 11.8586C20.0058 11.7648 19.6165 11.5464 19.3126 11.2426C18.9002 11.6555 18.3302 11.911 17.7005 11.911L13.5531 11.91C13.2168 11.9099 12.8227 12.2143 12.6275 12.7722ZM7.58984 10.2988L7.58984 16.1024C7.31793 16.7974 7.08144 17.5303 6.89543 18.2988H4.92318L4.92318 10.2988H7.58984ZM19.9531 7.29173L21.6021 5.12774C21.4933 5.03182 21.3927 4.96957 21.3017 4.9279C21.1269 4.84778 20.9369 4.82041 20.7024 4.83263C20.4705 4.84471 20.2317 4.89189 19.9321 4.95111L19.8637 4.9646C19.5527 5.02588 19.178 5.09675 18.788 5.09675C18.3405 5.09675 17.9802 4.97495 17.6829 4.77435C17.412 4.59163 17.2176 4.35683 17.0853 4.197L17.0781 4.1883C16.9263 4.00501 16.8461 3.91175 16.7547 3.8464C16.6899 3.80006 16.6097 3.76156 16.4551 3.76107C16.3006 3.76156 16.2204 3.80006 16.1556 3.8464C16.0641 3.91175 15.984 4.00501 15.8322 4.1883L15.825 4.19698C15.6927 4.35681 15.4982 4.59162 15.2274 4.77435C14.9301 4.97495 14.5698 5.09675 14.1223 5.09675C13.7323 5.09675 13.3576 5.02588 13.0465 4.9646L12.9782 4.95111C12.6786 4.89189 12.4398 4.84471 12.2079 4.83263C11.9734 4.82041 11.7834 4.84778 11.6085 4.9279C11.5176 4.96957 11.417 5.03182 11.3082 5.12774L12.9572 7.29173C12.9736 7.29126 12.99 7.29102 13.0065 7.29102H19.9037C19.9202 7.29102 19.9367 7.29126 19.9531 7.29173ZM19.9786 9.6433C19.9849 10.1597 20.4054 10.5763 20.9233 10.5763H22.4094C22.4367 10.5754 22.4641 10.5749 22.4916 10.5749H23.7079C24.205 10.5474 24.5997 10.1356 24.5997 9.63159C24.5997 9.10982 24.1768 8.68685 23.655 8.68685H20.9233C20.4051 8.68685 19.9844 9.10394 19.9786 9.62067L19.9786 9.63294L19.9786 9.6433ZM23.655 11.9097H22.4387C21.9416 11.9371 21.5469 12.3489 21.5469 12.8529C21.5469 13.3747 21.9698 13.7977 22.4916 13.7977H23.1445C23.1717 13.7967 23.1991 13.7962 23.2266 13.7962H25.7903C26.2875 13.7688 26.6822 13.357 26.6822 12.8529C26.6822 12.3312 26.2592 11.9082 25.7375 11.9082H23.7372C23.7099 11.9092 23.6825 11.9097 23.655 11.9097ZM23.1738 15.131H25.7375C25.765 15.131 25.7924 15.1305 25.8196 15.1296H26.1313C26.6531 15.1296 27.0761 15.5525 27.0761 16.0743C27.0761 16.5961 26.6531 17.019 26.1313 17.019H23.2266C22.7049 17.019 22.2819 16.5961 22.2819 16.0743C22.2819 15.5703 22.6766 15.1584 23.1738 15.131ZM23.9688 18.3561C23.4471 18.3561 23.0241 18.7791 23.0241 19.3009C23.0241 19.8226 23.4471 20.2456 23.9688 20.2456H25.2231C25.7448 20.2456 26.1678 19.8226 26.1678 19.3009C26.1678 18.7791 25.7448 18.3561 25.2231 18.3561H23.9688Z" />
    </g>
  </symbol>
  <symbol id="uk2-mono-bank-check-stack" viewBox="0 0 32 32" xmlns="http://www.w3.org/2000/svg">
    <g id="primary">
      <path d="M8.66797 4.66602C7.93159 4.66602 7.33464 5.26297 7.33464 5.99935V7.33268H8.66797V5.99935H23.3346V7.33268H24.668V5.99935C24.668 5.26297 24.071 4.66602 23.3346 4.66602H8.66797Z" />
      <path d="M5.33464 9.99935C5.33464 9.26297 5.93159 8.66602 6.66797 8.66602H25.3346C26.071 8.66602 26.668 9.26297 26.668 9.99935V11.3327H25.3346V9.99935H6.66797V11.3327H5.33464V9.99935Z" />
      <path d="M15.3346 16.666H6.0013V17.9993H15.3346V16.666Z" />
      <path d="M6.0013 19.3327H15.3346V20.666H6.0013V19.3327Z" />
      <path d="M6.0013 21.9993H12.668V23.3327H6.0013V21.9993Z" />
      <path fill-rule="evenodd" clip-rule="evenodd" d="M26.0013 16.666H17.3346V23.3327H26.0013V16.666ZM18.668 17.9993H24.668V21.9993H18.668V17.9993Z" />
      <path fill-rule="evenodd" clip-rule="evenodd" d="M2.66797 13.9993C2.66797 13.263 3.26492 12.666 4.0013 12.666H28.0013C28.7377 12.666 29.3346 13.263 29.3346 13.9993V25.9993C29.3346 26.7357 28.7377 27.3327 28.0013 27.3327H4.0013C3.26492 27.3327 2.66797 26.7357 2.66797 25.9993V13.9993ZM4.0013 13.9993H28.0013V25.9993H4.0013V13.9993Z" />
    </g>
  </symbol>
  <symbol id="uk2-mono-clip-board" viewBox="0 0 32 32" xmlns="http://www.w3.org/2000/svg">
    <g id="primary">
      <path d="M20.5222 11.6028L14.8565 17.1111L11.4766 13.8251L12.5222 12.7496L14.8565 15.0191L19.4766 10.5273L20.5222 11.6028Z" />
      <path d="M9.99609 21.3535L22.0002 21.3535V19.8535L9.99609 19.8535L9.99609 21.3535Z" />
      <path d="M9.99609 24.8945L22.0002 24.8945V23.3945L9.99609 23.3945L9.99609 24.8945Z" />
      <path fill-rule="evenodd" clip-rule="evenodd" d="M16 2.625C14.6021 2.625 13.4275 3.58108 13.0945 4.875H7.5C7.08579 4.875 6.75 5.21079 6.75 5.625V28.625C6.75 29.0392 7.08579 29.375 7.5 29.375H24.5C24.9142 29.375 25.25 29.0392 25.25 28.625V5.625C25.25 5.21079 24.9142 4.875 24.5 4.875H18.9055C18.5725 3.58108 17.3979 2.625 16 2.625ZM8.25 6.375V27.875H23.75V6.375H21.5V7.125C21.5 7.95343 20.8284 8.625 20 8.625H12C11.1716 8.625 10.5 7.95343 10.5 7.125V6.375H8.25ZM16 6.625C16.5523 6.625 17 6.17728 17 5.625C17 5.07272 16.5523 4.625 16 4.625C15.4477 4.625 15 5.07272 15 5.625C15 6.17728 15.4477 6.625 16 6.625Z" />
    </g>
  </symbol>
  <symbol id="uk2-mono-dollar-bill-stack" viewBox="0 0 32 32" xmlns="http://www.w3.org/2000/svg">
    <g id="primary">
      <path d="M7.33464 5.99935C7.33464 5.26297 7.93159 4.66602 8.66797 4.66602H23.3346C24.071 4.66602 24.668 5.26297 24.668 5.99935V7.33268H23.3346V5.99935H8.66797V7.33268H7.33464V5.99935Z" />
      <path d="M5.33464 9.99935C5.33464 9.26297 5.93159 8.66602 6.66797 8.66602H25.3346C26.071 8.66602 26.668 9.26297 26.668 9.99935V11.3327H25.3346V9.99935H6.66797V11.3327H5.33464V9.99935Z" />
      <path fill-rule="evenodd" clip-rule="evenodd" d="M16.0013 23.9993C18.2104 23.9993 20.0013 22.2085 20.0013 19.9993C20.0013 17.7902 18.2104 15.9993 16.0013 15.9993C13.7922 15.9993 12.0013 17.7902 12.0013 19.9993C12.0013 22.2085 13.7922 23.9993 16.0013 23.9993ZM16.0013 22.666C17.4741 22.666 18.668 21.4721 18.668 19.9993C18.668 18.5266 17.4741 17.3327 16.0013 17.3327C14.5285 17.3327 13.3346 18.5266 13.3346 19.9993C13.3346 21.4721 14.5285 22.666 16.0013 22.666Z" />
      <path fill-rule="evenodd" clip-rule="evenodd" d="M4.0013 12.666C3.26492 12.666 2.66797 13.263 2.66797 13.9993V25.9993C2.66797 26.7357 3.26492 27.3327 4.0013 27.3327H28.0013C28.7377 27.3327 29.3346 26.7357 29.3346 25.9993V13.9993C29.3346 13.263 28.7377 12.666 28.0013 12.666H4.0013ZM6.46498 15.0198C6.59899 14.6963 6.66797 14.3495 6.66797 13.9993H4.0013V16.666C4.35149 16.666 4.69826 16.597 5.02179 16.463C5.12956 16.4184 5.23405 16.3668 5.33464 16.3088C5.53603 16.1925 5.72178 16.0501 5.88692 15.885C6.05206 15.7198 6.19443 15.5341 6.3107 15.3327C6.36878 15.2321 6.42034 15.1276 6.46498 15.0198ZM8.0013 13.9993C8.0013 14.5246 7.89784 15.0448 7.69682 15.5301C7.4958 16.0154 7.20116 16.4563 6.82973 16.8278C6.4583 17.1992 6.01734 17.4938 5.53204 17.6949C5.04673 17.8959 4.52659 17.9993 4.0013 17.9993V21.9993C4.52659 21.9993 5.04673 22.1028 5.53204 22.3038C6.01734 22.5049 6.4583 22.7995 6.82973 23.1709C7.20116 23.5424 7.4958 23.9833 7.69682 24.4686C7.89784 24.9539 8.0013 25.4741 8.0013 25.9993H24.0013C24.0013 25.4741 24.1048 24.9539 24.3058 24.4686C24.5068 23.9833 24.8014 23.5424 25.1729 23.1709C25.5443 22.7995 25.9853 22.5049 26.4706 22.3038C26.9559 22.1028 27.476 21.9993 28.0013 21.9993V17.9993C27.476 17.9993 26.9559 17.8959 26.4706 17.6949C25.9853 17.4938 25.5443 17.1992 25.1729 16.8278C24.8014 16.4563 24.5068 16.0154 24.3058 15.5301C24.1048 15.0448 24.0013 14.5246 24.0013 13.9993H8.0013ZM26.9808 23.5357C27.3043 23.4017 27.6511 23.3327 28.0013 23.3327V25.9993H25.3346C25.3346 25.6492 25.4036 25.3024 25.5376 24.9789C25.5823 24.8711 25.6338 24.7666 25.6919 24.666C25.8082 24.4646 25.9505 24.2789 26.1157 24.1137C26.2808 23.9486 26.4666 23.8062 26.668 23.6899C26.7686 23.6319 26.873 23.5803 26.9808 23.5357ZM25.3346 13.9993C25.3346 14.3495 25.4036 14.6963 25.5376 15.0198C25.5823 15.1276 25.6338 15.2321 25.6919 15.3327C25.8082 15.5341 25.9505 15.7198 26.1157 15.885C26.2808 16.0501 26.4666 16.1925 26.668 16.3088C26.7686 16.3668 26.873 16.4184 26.9808 16.463C27.3043 16.597 27.6511 16.666 28.0013 16.666V13.9993H25.3346ZM4.0013 25.9993V23.3327C4.35149 23.3327 4.69826 23.4017 5.02179 23.5357C5.12956 23.5803 5.23405 23.6319 5.33464 23.6899C5.53603 23.8062 5.72178 23.9486 5.88692 24.1137C6.05206 24.2789 6.19443 24.4646 6.3107 24.666C6.36878 24.7666 6.42034 24.8711 6.46498 24.9789C6.59899 25.3024 6.66797 25.6492 6.66797 25.9993H4.0013Z" />
    </g>
  </symbol>
  <symbol id="uk2-mono-education" viewBox="0 0 32 32" xmlns="http://www.w3.org/2000/svg">
    <g id="primary">
      <path fill-rule="evenodd" clip-rule="evenodd" d="M29.3668 7.95236C29.615 7.84702 29.7753 7.60254 29.773 7.33291C29.7707 7.06328 29.6062 6.8216 29.3562 6.72057L16.2496 1.42357C16.0894 1.35881 15.9102 1.35881 15.75 1.42357L2.64343 6.72057C2.39343 6.8216 2.22891 7.06328 2.22659 7.33291C2.22426 7.60254 2.38458 7.84702 2.6328 7.95236L5.27147 9.07212L4.62397 9.22021C4.32089 9.28952 4.10596 9.55912 4.10593 9.87002L4.10565 12.3664C3.38909 12.6394 2.88001 13.3328 2.88001 14.1452V18.0086H6.68567V14.1452C6.68567 13.3249 6.16659 12.6258 5.43898 12.3585L5.4392 10.4015L7.36583 9.9609L7.57792 10.0509V13.9051C7.57792 15.2929 8.70981 16.5626 10.1742 17.4379C11.6857 18.3413 13.7437 18.9536 16.0005 18.9536C18.2552 18.9536 20.3129 18.3521 21.8254 17.4533C23.2936 16.5807 24.4232 15.3107 24.4232 13.9051V10.0503L29.3668 7.95236ZM9.5837 9.45366L15.9998 12.1764L27.3644 7.3537L15.9998 2.76072L4.63522 7.3537L7.48934 8.56489L14.4645 6.96966C14.5155 6.86354 14.5834 6.77668 14.6494 6.71044C14.7778 6.58155 14.9302 6.4961 15.0655 6.43867C15.3386 6.32274 15.6695 6.26712 16.0002 6.26712C16.3309 6.26712 16.6618 6.32274 16.935 6.43867C17.0702 6.4961 17.2226 6.58155 17.3511 6.71044C17.4822 6.84202 17.6204 7.05493 17.6204 7.33855C17.6204 7.62217 17.4822 7.83508 17.3511 7.96666C17.2226 8.09555 17.0702 8.181 16.935 8.23842C16.6618 8.35436 16.3309 8.40997 16.0002 8.40997C15.6695 8.40997 15.3386 8.35436 15.0655 8.23842C15.0468 8.23049 15.0278 8.22203 15.0085 8.21299L9.5837 9.45366ZM8.91126 13.9051V10.6167L15.7394 13.5143C15.9058 13.585 16.0938 13.585 16.2602 13.5143L23.0898 10.6161V13.9051C23.0898 14.5905 22.4831 15.5114 21.1442 16.3071C19.8496 17.0764 18.0294 17.6203 16.0005 17.6203C13.9739 17.6203 12.154 17.0679 10.8583 16.2934C9.5156 15.4909 8.91126 14.5696 8.91126 13.9051ZM4.21334 14.1452C4.21334 13.8307 4.46832 13.5757 4.78284 13.5757C5.09737 13.5757 5.35234 13.8307 5.35234 14.1452V16.6753H4.21334V14.1452Z" />
      <path fill-rule="evenodd" clip-rule="evenodd" d="M5.22662 26.0854H13.701V30.6271L16.0343 28.7487L18.3676 30.6271V26.0854H26.7709C28.1104 26.0854 29.1963 24.9995 29.1963 23.66C29.1963 22.3205 28.1104 21.2346 26.7709 21.2346H5.22662C3.88712 21.2346 2.80123 22.3205 2.80123 23.66C2.80123 24.9995 3.88712 26.0854 5.22662 26.0854ZM5.22662 22.5679C4.6235 22.5679 4.13457 23.0568 4.13457 23.66C4.13457 24.2631 4.6235 24.752 5.22662 24.752H13.701V22.5679H5.22662ZM26.7709 24.752H18.3676V22.5679H26.7709C27.3741 22.5679 27.863 23.0568 27.863 23.66C27.863 24.2631 27.3741 24.752 26.7709 24.752ZM15.0343 22.5679H17.0343V27.842L16.0343 27.037L15.0343 27.842V22.5679Z" />
    </g>
  </symbol>
  <symbol id="uk2-mono-etf" viewBox="0 0 32 32" xmlns="http://www.w3.org/2000/svg">
    <g id="primary">
      <path fill-rule="evenodd" clip-rule="evenodd" d="M13.0187 16.2716H14.2279V15.6449H13.0187V15.0497H14.4337V14.4062H12.2555V17.5964H14.4379V16.9571H13.0187V16.2716Z" />
      <path fill-rule="evenodd" clip-rule="evenodd" d="M16.401 15.0497H17.3373V14.4062H14.714V15.0497H15.6378V17.5964H16.401V15.0497Z" />
      <path fill-rule="evenodd" clip-rule="evenodd" d="M18.3835 16.3472H19.5928V15.7058H18.3835V15.0497H19.744V14.4062H17.6204V17.5964H18.3835V16.3472Z" />
      <path fill-rule="evenodd" clip-rule="evenodd" d="M15.9996 2.4375C14.711 2.4375 13.6663 3.48217 13.6663 4.77083C13.6663 5.82784 14.3691 6.72069 15.333 7.00754V9.04517L10.3099 11.9452L8.54546 10.9265C8.77906 9.94832 8.35725 8.89312 7.4418 8.36458C6.32578 7.72025 4.89874 8.10263 4.2544 9.21864C3.61007 10.3347 3.99245 11.7617 5.10846 12.406C6.0238 12.9345 7.14837 12.7723 7.87871 12.0811L9.64416 13.1004V18.8993L7.87869 19.9186C7.14835 19.2275 6.02379 19.0653 5.10846 19.5938C3.99245 20.2381 3.61007 21.6651 4.2544 22.7811C4.89874 23.8972 6.32578 24.2795 7.4418 23.6352C8.35726 23.1067 8.77906 22.0515 8.54546 21.0733L10.3114 20.0537L15.333 22.9529V24.9925C14.3691 25.2793 13.6663 26.1722 13.6663 27.2292C13.6663 28.5178 14.711 29.5625 15.9996 29.5625C17.2883 29.5625 18.333 28.5178 18.333 27.2292C18.333 26.1722 17.6301 25.2793 16.6663 24.9925V22.9532L21.6879 20.054L23.4538 21.0735C23.2202 22.0517 23.642 23.1069 24.5575 23.6354C25.6735 24.2798 27.1005 23.8974 27.7449 22.7814C28.3892 21.6653 28.0068 20.2383 26.8908 19.594C25.9755 19.0655 24.8509 19.2277 24.1206 19.9189L22.3555 18.8998V13.1004L24.1206 12.0814C24.8509 12.7725 25.9755 12.9347 26.8908 12.4063C28.0068 11.7619 28.3892 10.3349 27.7449 9.21886C27.1005 8.10284 25.6735 7.72047 24.5575 8.3648C23.642 8.89334 23.2202 9.94855 23.4538 10.9267L21.6897 11.9452L16.6663 9.04494V7.00754C17.6301 6.72069 18.333 5.82784 18.333 4.77083C18.333 3.48217 17.2883 2.4375 15.9996 2.4375ZM15.9996 3.77083C15.4473 3.77083 14.9996 4.21855 14.9996 4.77083C14.9996 5.32312 15.4473 5.77083 15.9996 5.77083C16.5519 5.77083 16.9996 5.32312 16.9996 4.77083C16.9996 4.21855 16.5519 3.77083 15.9996 3.77083ZM15.9998 10.1998L10.9775 13.0994V18.8987L15.9998 21.7984L21.0222 18.8987V13.0994L15.9998 10.1998ZM15.9996 28.2292C16.5519 28.2292 16.9996 27.7815 16.9996 27.2292C16.9996 26.6769 16.5519 26.2292 15.9996 26.2292C15.4473 26.2292 14.9996 26.6769 14.9996 27.2292C14.9996 27.7815 15.4473 28.2292 15.9996 28.2292ZM5.4091 22.1145C5.68525 22.5928 6.29684 22.7566 6.77513 22.4805C7.25342 22.2044 7.4173 21.5928 7.14115 21.1145C6.86501 20.6362 6.25342 20.4723 5.77513 20.7485C5.29684 21.0246 5.13296 21.6362 5.4091 22.1145ZM26.5902 9.88552C26.314 9.40723 25.7024 9.24336 25.2241 9.5195C24.7458 9.79564 24.582 10.4072 24.8581 10.8855C25.1343 11.3638 25.7458 11.5277 26.2241 11.2516C26.7024 10.9754 26.8663 10.3638 26.5902 9.88552ZM26.5902 22.1147C26.8663 21.6364 26.7024 21.0248 26.2241 20.7487C25.7458 20.4725 25.1343 20.6364 24.8581 21.1147C24.582 21.593 24.7458 22.2046 25.2241 22.4807C25.7024 22.7569 26.314 22.593 26.5902 22.1147ZM5.4091 9.88531C5.13296 10.3636 5.29684 10.9752 5.77513 11.2513C6.25342 11.5275 6.86501 11.3636 7.14115 10.8853C7.4173 10.407 7.25342 9.79543 6.77513 9.51928C6.29684 9.24314 5.68525 9.40702 5.4091 9.88531Z" />
    </g>
  </symbol>
  <symbol id="uk2-mono-innovation" viewBox="0 0 32 32" xmlns="http://www.w3.org/2000/svg">
    <g id="primary">
      <path d="M16.668 2.71289H15.3346V6.59289H16.668V2.71289Z" />
      <path d="M27.2168 8.79979L23.8563 10.7392L24.5228 11.894L27.8833 9.95461L27.2168 8.79979Z" />
      <path d="M7.48047 20.1914L4.11995 22.1308L4.78642 23.2856L8.14694 21.3462L7.48047 20.1914Z" />
      <path d="M4.78369 8.8006L4.11702 9.9553L7.4772 11.8953L8.14387 10.7406L4.78369 8.8006Z" />
      <path d="M24.5173 20.1944L23.8506 21.3491L27.2108 23.2891L27.8774 22.1344L24.5173 20.1944Z" />
      <path d="M22.0849 4.16625L20.1455 7.52677L21.3003 8.19324L23.2397 4.83272L22.0849 4.16625Z" />
      <path d="M29.3346 15.3796H25.4546V16.7129H29.3346V15.3796Z" />
      <path d="M6.54797 15.3796H2.66797V16.7129H6.54797V15.3796Z" />
      <path d="M11.8546 7.52624L9.91464 4.16624L8.75464 4.8329L10.6946 8.1929L11.8546 7.52624Z" />
      <path d="M16.0013 8.41961C14.4521 8.41547 12.9385 8.88319 11.6617 9.76053C10.3849 10.6379 9.40556 11.8832 8.854 13.3309C8.30245 14.7785 8.20482 16.3598 8.57412 17.8643C8.94342 19.3688 9.76213 20.7252 10.9213 21.7529C11.5453 22.2732 11.9578 23.0033 12.0813 23.8063H13.4146C13.4146 22.1329 11.848 20.7929 11.7946 20.7529C10.8494 19.901 10.1846 18.7825 9.88799 17.545C9.59137 16.3076 9.67686 15.0093 10.1332 13.8214C10.5895 12.6335 11.3952 11.6118 12.444 10.8912C13.4928 10.1706 14.7354 9.78479 16.008 9.78479C17.2805 9.78479 18.5231 10.1706 19.5719 10.8912C20.6207 11.6118 21.4264 12.6335 21.8827 13.8214C22.3391 15.0093 22.4246 16.3076 22.1279 17.545C21.8313 18.7825 21.1666 19.901 20.2213 20.7529C20.1546 20.8063 18.588 22.1463 18.588 23.8196H19.9213C20.0468 23.0124 20.4643 22.2793 21.0946 21.7596C22.2511 20.7295 23.0668 19.3721 23.4336 17.8675C23.8004 16.3629 23.7009 14.7823 23.1482 13.3356C22.5956 11.8889 21.616 10.6446 20.3395 9.76769C19.063 8.89084 17.55 8.42299 16.0013 8.42627V8.41961Z" />
      <path d="M16.0013 18.6796C15.448 18.6796 15.2546 18.0462 15.248 17.9662H13.9146C13.947 18.3857 14.0976 18.7875 14.3489 19.1249C14.6002 19.4624 14.942 19.7217 15.3346 19.8729V21.2929H16.668V19.9196C17.0447 19.8234 17.3829 19.6139 17.6368 19.3194C17.8907 19.025 18.0482 18.6597 18.088 18.2729C18.088 17.3196 17.848 16.7862 16.3413 15.9596C15.288 15.3862 15.288 15.2396 15.288 14.8529C15.3386 14.709 15.437 14.5869 15.5668 14.5068C15.6967 14.4267 15.85 14.3936 16.0013 14.4129C16.5546 14.4129 16.748 15.0462 16.7546 15.1196H18.088C18.058 14.6977 17.9086 14.2931 17.6571 13.9531C17.4056 13.6131 17.0625 13.3517 16.668 13.1996V11.7996H15.3346V13.1862C14.9654 13.2852 14.6354 13.4947 14.3887 13.7867C14.142 14.0786 13.9906 14.439 13.9546 14.8196C13.9546 15.7729 14.1946 16.3062 15.7013 17.1329C16.7546 17.7062 16.7546 17.8529 16.7546 18.2396C16.7029 18.3912 16.5983 18.5191 16.4599 18.5999C16.3216 18.6807 16.1588 18.709 16.0013 18.6796Z" />
      <path d="M19.9346 25.2996H12.1413V26.6329H19.9346V25.2996Z" />
      <path d="M18.8213 27.9529H13.6146V29.2862H18.8213V27.9529Z" />
    </g>
  </symbol>
  <symbol id="uk2-mono-lock" viewBox="0 0 32 32" xmlns="http://www.w3.org/2000/svg">
    <g id="primary">
      <path fill-rule="evenodd" clip-rule="evenodd" d="M16.7484 22.5818C17.9638 22.2524 18.8577 21.1415 18.8577 19.8219C18.8577 18.2428 17.5776 16.9626 15.9984 16.9626C14.4193 16.9626 13.1392 18.2428 13.1392 19.8219C13.1392 21.1415 14.0331 22.2523 15.2484 22.5818V25.9998H16.7484V22.5818ZM17.3577 19.8219C17.3577 20.5726 16.7492 21.1812 15.9984 21.1812C15.2477 21.1812 14.6392 20.5726 14.6392 19.8219C14.6392 19.0712 15.2477 18.4626 15.9984 18.4626C16.7492 18.4626 17.3577 19.0712 17.3577 19.8219Z" />
      <path fill-rule="evenodd" clip-rule="evenodd" d="M10.2544 7.99388C10.2544 4.82163 12.826 2.25 15.9983 2.25C19.1705 2.25 21.7422 4.82162 21.7422 7.99388V12.2455H22.0007C23.5195 12.2455 24.7507 13.4767 24.7507 14.9955V27.0001C24.7507 28.5189 23.5195 29.7501 22.0007 29.7501H9.99609C8.47731 29.7501 7.24609 28.5189 7.24609 27.0001V14.9955C7.24609 13.4767 8.47731 12.2455 9.99609 12.2455H10.2544V7.99388ZM11.7544 12.2455H20.2422V7.99388C20.2422 5.65005 18.3421 3.75 15.9983 3.75C13.6544 3.75 11.7544 5.65005 11.7544 7.99388V12.2455ZM8.74609 14.9955C8.74609 14.3051 9.30574 13.7455 9.99609 13.7455H22.0007C22.6911 13.7455 23.2507 14.3051 23.2507 14.9955V27.0001C23.2507 27.6904 22.6911 28.2501 22.0007 28.2501H9.99609C9.30574 28.2501 8.74609 27.6904 8.74609 27.0001V14.9955Z" />
    </g>
  </symbol>
  <symbol id="uk2-mono-money-bag" viewBox="0 0 32 32" xmlns="http://www.w3.org/2000/svg">
    <g id="primary">
      <path d="M15.1239 21.6477C15.1316 21.7408 15.3568 22.4785 16.0013 22.4785C16.1847 22.5127 16.3743 22.4798 16.5354 22.3857C16.6965 22.2916 16.8184 22.1426 16.8786 21.966C16.8786 21.5157 16.8786 21.3448 15.6518 20.6771C13.8971 19.7143 13.6175 19.0931 13.6175 17.9828C13.6594 17.5396 13.8358 17.1199 14.1231 16.7798C14.4104 16.4398 14.7948 16.1958 15.2248 16.0805V14.4655H16.7777V16.096C17.2373 16.2732 17.6369 16.5777 17.9298 16.9737C18.2226 17.3697 18.3967 17.8409 18.4315 18.3322H16.8786C16.8709 18.2468 16.6457 17.5092 16.0013 17.5092C15.825 17.4867 15.6464 17.5253 15.4953 17.6185C15.3441 17.7118 15.2294 17.8541 15.1705 18.0216C15.1705 18.472 15.1705 18.6428 16.3972 19.3105C18.152 20.2733 18.4315 20.8945 18.4315 22.0048C18.3852 22.4553 18.2018 22.8808 17.9061 23.2237C17.6103 23.5667 17.2165 23.8106 16.7777 23.9227V25.5221H15.2248V23.8683C14.7675 23.6922 14.3694 23.3902 14.0767 22.9972C13.784 22.6041 13.6087 22.1362 13.571 21.6477H15.1239Z" />
      <path fill-rule="evenodd" clip-rule="evenodd" d="M14.9285 2.76023C15.2137 2.55695 15.5621 2.42888 15.9984 2.42774L16.0014 2.42774L16.0043 2.42773C16.4406 2.42887 16.7891 2.55695 17.0743 2.76023C17.318 2.93394 17.5015 3.15638 17.6263 3.30766L17.6505 3.33703C17.7947 3.51111 17.8795 3.6047 17.9746 3.66889C18.048 3.71847 18.1478 3.76342 18.3342 3.76342C18.5786 3.76342 18.8359 3.71872 19.1522 3.65641L19.2347 3.64006C19.5141 3.58451 19.8463 3.51845 20.1792 3.5011C20.5604 3.48124 20.979 3.52133 21.4033 3.71574C21.8277 3.91016 22.2069 4.23556 22.5486 4.70641L22.84 5.10781L20.7237 7.88347C20.9681 8.17328 21.1154 8.54765 21.1154 8.95642C21.1154 9.25319 21.0377 9.53183 20.9017 9.77314C22.9487 12.0859 26.0066 16.3748 26.0066 22.0022C26.0066 25.187 25.1787 27.1485 23.7856 28.2808C22.4203 29.3904 20.6637 29.5711 19.1317 29.5711H12.8711C11.339 29.5711 9.5824 29.3904 8.21711 28.2808C6.82398 27.1485 5.99609 25.187 5.99609 22.0022C5.99609 16.3748 9.05401 12.0859 11.101 9.77314C10.965 9.53183 10.8874 9.25319 10.8874 8.95642C10.8874 8.54765 11.0346 8.17328 11.279 7.88347L9.1627 5.10781L9.45407 4.70641C9.79586 4.23556 10.1751 3.91016 10.5994 3.71574C11.0237 3.52133 11.4424 3.48124 11.8235 3.5011C12.1564 3.51845 12.4886 3.58451 12.768 3.64006L12.8505 3.65641C13.1668 3.71872 13.4241 3.76342 13.6685 3.76342C13.8549 3.76342 13.9547 3.71847 14.0281 3.66889C14.1232 3.6047 14.208 3.5111 14.3522 3.33703L14.3764 3.30767C14.5012 3.15639 14.6847 2.93395 14.9285 2.76023ZM21.1482 5.12765L19.4982 7.2917C19.4822 7.29125 19.4661 7.29102 19.45 7.29102H16.6686V6.16471H15.3353V7.29102H12.5528C12.5366 7.29102 12.5205 7.29125 12.5045 7.2917L10.8545 5.12765C10.9633 5.03177 11.0639 4.96955 11.1548 4.9279C11.3296 4.84778 11.5196 4.82041 11.7541 4.83263C11.986 4.84471 12.2248 4.89189 12.5244 4.95111L12.5928 4.9646C12.9038 5.02588 13.2785 5.09675 13.6685 5.09675C14.1164 5.09675 14.4769 4.97474 14.7743 4.77387C15.0449 4.59118 15.2392 4.35644 15.3715 4.19669L15.3791 4.18746C15.5309 4.00422 15.611 3.91108 15.7024 3.84598C15.7669 3.80001 15.847 3.76155 16.0014 3.76107C16.1557 3.76155 16.2359 3.80001 16.3003 3.84598C16.3917 3.91108 16.4719 4.00422 16.6236 4.18746L16.6313 4.19668C16.7635 4.35644 16.9578 4.59118 17.2284 4.77387C17.5258 4.97474 17.8863 5.09675 18.3342 5.09675C18.7242 5.09675 19.0989 5.02588 19.4099 4.9646L19.4783 4.95111C19.7779 4.89189 20.0167 4.84471 20.2486 4.83263C20.4831 4.82041 20.6731 4.84778 20.8479 4.9279C20.9389 4.96955 21.0394 5.03177 21.1482 5.12765ZM12.5528 8.62435H19.45C19.6333 8.62435 19.782 8.77302 19.782 8.95642C19.782 9.13981 19.6333 9.28848 19.45 9.28848H12.5528C12.3694 9.28848 12.2207 9.13981 12.2207 8.95642C12.2207 8.77302 12.3694 8.62435 12.5528 8.62435ZM19.45 10.6218C19.5814 10.6218 19.7093 10.6066 19.832 10.5778C21.7774 12.7575 24.6733 16.7718 24.6733 22.0022C24.6733 24.9777 23.9028 26.4673 22.9446 27.2461C21.9587 28.0475 20.6111 28.2378 19.1317 28.2378H12.8711C11.3916 28.2378 10.0441 28.0475 9.05807 27.2461C8.09993 26.4673 7.32943 24.9777 7.32943 22.0022C7.32943 16.7718 10.2253 12.7575 12.1707 10.5778C12.2934 10.6066 12.4213 10.6218 12.5528 10.6218H13.5235L12.9746 12.0526L14.2717 12.3613L14.939 10.6218H17.0638L17.7311 12.3613L19.0282 12.0526L18.4793 10.6218H19.45Z" />
    </g>
  </symbol>
  <symbol id="uk2-mono-money-jar" viewBox="0 0 32 32" xmlns="http://www.w3.org/2000/svg">
    <g id="primary">
      <path fill-rule="evenodd" clip-rule="evenodd" d="M12.3626 20.0501C12.3626 19.6819 12.6611 19.3835 13.0293 19.3835H20.8973C21.2655 19.3835 21.5639 19.6819 21.5639 20.0501V22.0638C21.5639 22.432 21.2655 22.7305 20.8973 22.7305H19.6401V23.4095H20.8973C21.2655 23.4095 21.5639 23.708 21.5639 24.0762V26.0898C21.5639 26.458 21.2655 26.7565 20.8973 26.7565H13.0293C12.6611 26.7565 12.3626 26.458 12.3626 26.0898V24.7435H11.1055C10.7373 24.7435 10.4388 24.445 10.4388 24.0768V22.0632C10.4388 21.695 10.7373 21.3965 11.1055 21.3965H12.3626V20.0501ZM19.0031 21.3971C18.9933 21.3967 18.9834 21.3965 18.9734 21.3965H13.696V20.7168H20.2306V21.3971H19.0031ZM12.9996 22.7298H11.7721V23.4102H12.9996C13.0095 23.4097 13.0194 23.4095 13.0293 23.4095H18.3068V22.7305H13.0293L13.0153 22.7303L12.9996 22.7298ZM13.696 24.7435V25.4232H20.2306V24.7428H19.0031C18.9933 24.7433 18.9834 24.7435 18.9734 24.7435H13.696Z" />
      <path d="M15.248 14.5514C15.2547 14.6314 15.448 15.2647 16.0014 15.2647C16.1589 15.2941 16.3217 15.2658 16.46 15.185C16.5984 15.1042 16.703 14.9763 16.7547 14.8247C16.7547 14.438 16.7547 14.2914 15.7014 13.718C14.1947 12.8914 13.9547 12.358 13.9547 11.4047C13.9906 11.0242 14.1421 10.6638 14.3888 10.3718C14.6355 10.0799 14.9655 9.87034 15.3347 9.77138V8.71289H16.668V9.78471C17.0626 9.93686 17.4057 10.1982 17.6572 10.5382C17.9087 10.8783 18.0581 11.2829 18.088 11.7047H16.7547C16.748 11.6314 16.5547 10.998 16.0014 10.998C15.8501 10.9787 15.6967 11.0119 15.5669 11.0919C15.4371 11.172 15.3387 11.2942 15.288 11.438C15.288 11.8247 15.288 11.9714 16.3414 12.5447C17.848 13.3714 18.088 13.9047 18.088 14.858C18.0483 15.2448 17.8908 15.6101 17.6369 15.9046C17.383 16.1991 17.0448 16.4085 16.668 16.5047V17.4823H15.3347V16.458C14.9421 16.3069 14.6003 16.0475 14.349 15.7101C14.0976 15.3726 13.9471 14.9709 13.9147 14.5514H15.248Z" />
      <path fill-rule="evenodd" clip-rule="evenodd" d="M9.02734 3.33268C9.02734 2.96449 9.32582 2.66602 9.69401 2.66602H22.3387C22.7069 2.66602 23.0054 2.96449 23.0054 3.33268V5.99627C23.0054 6.36446 22.7069 6.66294 22.3387 6.66294H21.4614V7.74036C21.7476 8.01662 22.0516 8.38314 22.3466 8.78115C22.739 9.31051 23.1464 9.93814 23.5156 10.5816C23.8843 11.2241 24.2215 11.8942 24.4687 12.5087C24.7076 13.1026 24.8931 13.7175 24.8931 14.223V25.7654C24.8931 27.0079 24.5063 27.9645 23.679 28.5763C22.8958 29.1555 21.8348 29.3332 20.6911 29.3332L11.3113 29.3327C10.1676 29.3327 9.10663 29.1549 8.32344 28.5757C7.49617 27.9639 7.10938 27.0074 7.10938 25.7648V14.2224C7.10938 13.7169 7.29481 13.102 7.5337 12.5082C7.78091 11.8937 8.11816 11.2236 8.48684 10.581C8.856 9.93759 9.26343 9.30996 9.6558 8.7806C9.95082 8.38258 10.2548 8.01606 10.5411 7.7398V6.66294H9.69401C9.32582 6.66294 9.02734 6.36446 9.02734 5.99627V3.33268ZM11.8744 6.66294V8.03923C11.8744 8.24269 11.7815 8.435 11.6221 8.56147C11.4083 8.73117 11.0935 9.08001 10.727 9.57456C10.3692 10.0573 9.98984 10.6406 9.64334 11.2445C9.29636 11.8493 8.98909 12.4629 8.77069 13.0058C8.54397 13.5694 8.44271 13.9856 8.44271 14.2224V25.7648C8.44271 26.7204 8.72511 27.2144 9.11624 27.5037C9.55146 27.8256 10.2581 27.9993 11.3113 27.9993L20.6912 27.9999C21.7443 27.9999 22.451 27.8261 22.8862 27.5043C23.2773 27.215 23.5597 26.721 23.5597 25.7654V14.223C23.5597 13.9861 23.4585 13.5699 23.2317 13.0064C23.0133 12.4635 22.7061 11.8499 22.3591 11.2451C22.0126 10.6412 21.6332 10.0578 21.2755 9.57512C20.9089 9.08057 20.5942 8.73172 20.3803 8.56202C20.2209 8.43556 20.128 8.24324 20.128 8.03978V6.66294H11.8744ZM10.3607 3.99935V5.3296H12.0026V3.99935H10.3607ZM15.3346 5.3296H13.3359V3.99935H15.3346V5.3296ZM16.668 5.3296H18.6615V3.99935H16.668V5.3296ZM21.6721 5.3296H19.9948V3.99935H21.6721V5.3296Z" />
    </g>
  </symbol>
  <symbol id="uk2-mono-money-stack" viewBox="0 0 32 32" xmlns="http://www.w3.org/2000/svg">
    <g id="primary">
      <path d="M15.1694 11.8558C15.1767 11.9439 15.3898 12.642 15.9997 12.642C16.1732 12.6744 16.3527 12.6432 16.5051 12.5541C16.6576 12.4651 16.7729 12.3241 16.8299 12.157C16.8299 11.7309 16.8299 11.5692 15.669 10.9373C14.0085 10.0262 13.744 9.4384 13.744 8.3877C13.7836 7.96831 13.9505 7.57108 14.2224 7.2493C14.4942 6.92753 14.858 6.69661 15.2649 6.58754V5.05924H16.7344V6.60224C17.1693 6.76992 17.5475 7.05799 17.8246 7.43274C18.1018 7.80749 18.2665 8.25341 18.2995 8.71834H16.8299C16.8226 8.63752 16.6095 7.9395 15.9997 7.9395C15.8329 7.9182 15.6639 7.95472 15.5208 8.04297C15.3778 8.13122 15.2693 8.26587 15.2135 8.42444C15.2135 8.8506 15.2135 9.01224 16.3744 9.64414C18.0349 10.5552 18.2995 11.143 18.2995 12.1937C18.2556 12.62 18.0821 13.0226 17.8022 13.3472C17.5224 13.6717 17.1496 13.9026 16.7344 14.0086V15.5222H15.2649V13.9572C14.8321 13.7905 14.4555 13.5047 14.1785 13.1328C13.9015 12.7609 13.7355 12.3181 13.6999 11.8558H15.1694Z" />
      <path fill-rule="evenodd" clip-rule="evenodd" d="M23.9559 10.2905C23.9559 12.4701 23.0794 14.4451 21.6597 15.8822H23.102C23.5622 15.8822 23.9353 16.2553 23.9353 16.7155V28.6669C23.9353 29.2192 23.4876 29.6669 22.9353 29.6669H9.06445C8.51217 29.6669 8.06445 29.2192 8.06445 28.6669V16.7155C8.06445 16.2553 8.43755 15.8822 8.89779 15.8822H10.3392C8.91945 14.4451 8.04297 12.4701 8.04297 10.2905C8.04297 5.89622 11.6052 2.33398 15.9994 2.33398C20.3937 2.33398 23.9559 5.89622 23.9559 10.2905ZM15.9994 16.9136C19.6573 16.9136 22.6226 13.9483 22.6226 10.2905C22.6226 6.6326 19.6573 3.66732 15.9994 3.66732C12.3416 3.66732 9.3763 6.6326 9.3763 10.2905C9.3763 13.9483 12.3416 16.9136 15.9994 16.9136ZM15.9994 18.2469C17.4249 18.2469 18.7629 17.872 19.92 17.2155H22.602V18.9941H9.39779V17.2155H12.0788C13.236 17.872 14.5739 18.2469 15.9994 18.2469ZM22.602 20.3283V22.1061H9.39779V20.3283H22.602ZM22.602 23.4403H9.39779V25.219H22.602V23.4403ZM9.39779 26.554V28.3335H22.602V26.554H9.39779Z" />
    </g>
  </symbol>
  <symbol id="uk2-mono-nest-egg" viewBox="0 0 32 32" xmlns="http://www.w3.org/2000/svg">
    <g id="primary">
      <path d="M15.1226 15.8013C15.1303 15.8945 15.3555 16.6321 16 16.6321C16.1834 16.6664 16.373 16.6334 16.5341 16.5393C16.6952 16.4452 16.8171 16.2962 16.8773 16.1196C16.8773 15.6693 16.8773 15.4985 15.6505 14.8307C13.8958 13.8679 13.6162 13.2468 13.6162 12.1365C13.6581 11.6933 13.8345 11.2735 14.1218 10.9335C14.4091 10.5934 14.7935 10.3494 15.2235 10.2342V8.61914H16.7764V10.2497C17.236 10.4269 17.6356 10.7313 17.9285 11.1273C18.2213 11.5233 18.3954 11.9945 18.4302 12.4859H16.8773C16.8696 12.4005 16.6444 11.6628 16 11.6628C15.8237 11.6403 15.6451 11.6789 15.4939 11.7722C15.3428 11.8654 15.2281 12.0077 15.1691 12.1753C15.1691 12.6256 15.1691 12.7964 16.3959 13.4642C18.1507 14.427 18.4302 15.0481 18.4302 16.1585C18.3839 16.609 18.2005 17.0344 17.9048 17.3773C17.609 17.7203 17.2152 17.9643 16.7764 18.0763V19.6758H15.2235V18.0219C14.7662 17.8459 14.3681 17.5438 14.0754 17.1508C13.7827 16.7578 13.6074 16.2899 13.5697 15.8013H15.1226Z" />
      <path fill-rule="evenodd" clip-rule="evenodd" d="M9.14179 6.53346C7.48341 9.25008 6.46423 12.8767 6.43864 16.6375C5.65073 16.8351 4.7756 17.0938 4.04154 17.509C3.04004 18.0754 2.21875 18.984 2.21875 20.4439C2.21875 21.974 2.5769 24.4258 4.54727 26.4934C6.09212 28.1145 8.55827 29.4267 12.4258 29.922V29.9269L12.4644 29.9269C13.533 30.062 14.7082 30.1348 16.0001 30.1348C21.9943 30.1348 25.4769 28.5667 27.4525 26.4934C29.4226 24.4257 29.7805 21.974 29.7805 20.4439C29.7805 18.9836 28.958 18.0751 27.9559 17.5089C27.2225 17.0945 26.3485 16.8359 25.5614 16.6385C25.536 12.8773 24.5165 9.25027 22.8577 6.53341C21.1889 3.80006 18.7857 1.86523 15.9995 1.86523C13.2133 1.86523 10.8104 3.80009 9.14179 6.53346ZM10.2798 7.22818C8.73974 9.75103 7.77148 13.1913 7.77148 16.7825C7.77148 18.9647 8.63836 21.0575 10.1814 22.6006L10.1645 22.6175C11.351 23.2952 13.0637 23.8568 15.9995 23.8568C18.9355 23.8568 20.6482 23.2951 21.8348 22.6174L21.8183 22.6009C22.5825 21.8369 23.1886 20.9298 23.6022 19.9315C24.0157 18.9331 24.2286 17.8631 24.2286 16.7825C24.2286 13.1913 23.2601 9.75108 21.7197 7.22822C20.1683 4.6872 18.1236 3.19857 15.9995 3.19857C13.8755 3.19857 11.831 4.68717 10.2798 7.22818ZM24.8537 20.3937C25.4767 20.0288 26.2024 19.7728 27.1423 19.7728V21.1061C25.9613 21.1061 25.3815 21.5862 24.4727 22.3389C24.2249 22.544 23.9528 22.7694 23.6373 23.0109C22.185 24.1224 20.1544 25.1901 15.9995 25.1901C11.8447 25.1901 9.81401 24.1224 8.36174 23.0109C8.04628 22.7694 7.77411 22.544 7.5264 22.3389C6.61753 21.5862 6.03779 21.1061 4.85677 21.1061V19.7728C5.7973 19.7728 6.52344 20.0292 7.14667 20.3945C6.83424 19.6288 6.62107 18.8224 6.51531 17.995C5.85311 18.1695 5.22006 18.3743 4.69794 18.6696C3.97587 19.078 3.55208 19.6054 3.55208 20.4439C3.55208 20.6814 3.56194 20.9413 3.58727 21.2178L3.59121 21.2155C3.62039 21.2647 3.64996 21.3149 3.68004 21.3659C4.18952 22.2302 4.84533 23.3426 6.24108 24.2881C7.71852 25.2889 10.0965 26.1441 14.1322 26.1441V27.4774C9.90831 27.4774 7.2485 26.5809 5.49332 25.392C5.36325 25.3039 5.23853 25.2144 5.11889 25.1239C5.24079 25.2758 5.37178 25.4259 5.5125 25.5735C6.78869 26.9127 8.93417 28.1227 12.545 28.5934C16.6528 28.5772 19.3562 27.7273 21.1274 26.7113C22.9125 25.6872 23.7889 24.4725 24.2068 23.6908L25.3827 24.3194C24.8641 25.2893 23.8227 26.7022 21.7908 27.8678C21.4889 28.0411 21.1659 28.2083 20.8205 28.3676C23.6216 27.7984 25.381 26.7345 26.4872 25.5736C28.132 23.8474 28.4472 21.7871 28.4472 20.4439C28.4472 19.6057 28.023 19.0783 27.3 18.6697C26.7782 18.3749 26.1459 18.1702 25.4846 17.996C25.3795 18.8176 25.1678 19.6237 24.8537 20.3937Z" />
    </g>
  </symbol>
  <symbol id="uk2-mono-options" viewBox="0 0 32 32" xmlns="http://www.w3.org/2000/svg">
    <g id="primary">
      <path fill-rule="evenodd" clip-rule="evenodd" d="M25.5026 8.67773V16.6643H26.8359V7.32227C26.8359 5.11313 25.0451 3.32227 22.8359 3.32227H22.0996V1.99023H20.7663V3.32227H17.6536V1.99023H16.3203V3.32227H13.2077V1.99023H11.8743V3.32227H8.76172V1.99023H7.42839V3.32227H6.83594C4.6268 3.32227 2.83594 5.11313 2.83594 7.32227V23.3223C2.83594 25.5314 4.6268 27.3223 6.83594 27.3223H15.9473V25.9889H6.83594C5.36318 25.9889 4.16927 24.795 4.16927 23.3223V8.67773L25.5026 8.67773ZM11.8743 4.6556H8.76172V5.98832H7.42839V4.6556H6.83594C5.36318 4.6556 4.16927 5.84951 4.16927 7.32227V7.3444L25.5026 7.3444V7.32227C25.5026 5.84951 24.3087 4.6556 22.8359 4.6556H22.0996V5.98832H20.7663V4.6556H17.6536V5.98832H16.3203V4.6556H13.2077V5.98832H11.8743V4.6556Z" />
      <path d="M14.2799 22.0033L15.9447 22.0033V20.6699L12.9466 20.67V24.67L15.9447 24.6699V23.3366L14.2799 23.3366V22.0033Z" />
      <path d="M10.2604 15.3288L8.114 17.4752L6.96755 16.3288L6.02474 17.2716L8.114 19.3608L11.2033 16.2716L10.2604 15.3288Z" />
      <path fill-rule="evenodd" clip-rule="evenodd" d="M6.61393 10.0085V14.0085H10.6139V10.0085H6.61393ZM9.2806 11.3418H7.94727V12.6751H9.2806V11.3418Z" />
      <path fill-rule="evenodd" clip-rule="evenodd" d="M6.61393 24.6699V20.6699H10.6139V24.6699H6.61393ZM7.94727 22.0033H9.2806V23.3366H7.94727V22.0033Z" />
      <path fill-rule="evenodd" clip-rule="evenodd" d="M12.9466 10.0085V14.0085H16.9466V10.0085H12.9466ZM15.6133 11.3418H14.2799V12.6751H15.6133V11.3418Z" />
      <path fill-rule="evenodd" clip-rule="evenodd" d="M12.9466 19.3392V15.3392H16.9466V19.3392H12.9466ZM14.2799 16.6725H15.6133V18.0059H14.2799V16.6725Z" />
      <path fill-rule="evenodd" clip-rule="evenodd" d="M19.2793 14.0085V10.0085H23.2793V14.0085H19.2793ZM20.6126 11.3418H21.946V12.6751H20.6126V11.3418Z" />
      <path d="M20.6126 16.6725V17.345H19.2793V15.3392H23.2793V16.6725H20.6126Z" />
      <path d="M23.7518 27.1269L23.7517 26.3463C23.9873 26.28 24.1935 26.1696 24.3518 26.0113C24.5801 25.783 24.6942 25.4921 24.6942 25.1313C24.6942 24.9177 24.661 24.7373 24.5874 24.5827C24.5174 24.4317 24.4143 24.2991 24.2928 24.185C24.1713 24.0708 24.0166 23.9677 23.8435 23.883C23.6705 23.7909 23.4864 23.7099 23.2912 23.6252C23.0961 23.5405 22.9524 23.4558 22.8678 23.3638C22.7794 23.2754 22.7352 23.1502 22.7352 22.9955C22.7352 22.8409 22.772 22.7231 22.853 22.6347C22.9303 22.55 23.037 22.5022 23.177 22.5022C23.3316 22.5022 23.4494 22.5611 23.5378 22.679C23.6188 22.7968 23.663 22.9662 23.6667 23.1834L24.7345 23.1835C24.7345 22.7858 24.624 22.4544 24.4067 22.193C24.241 21.9978 24.0311 21.8616 23.7697 21.7769L23.7696 21.0405L22.7239 21.0404L22.724 21.7473C22.4479 21.8099 22.2159 21.9314 22.0355 22.1044C21.7962 22.3364 21.6747 22.6272 21.6747 22.9807C21.6748 23.1943 21.7079 23.3747 21.7742 23.522C21.8405 23.6693 21.9362 23.8018 22.0651 23.916C22.194 24.0301 22.345 24.1296 22.518 24.2143C22.6911 24.299 22.8826 24.3874 23.0888 24.4684C23.295 24.5494 23.4386 24.6415 23.5196 24.7372C23.6006 24.8329 23.6411 24.9618 23.6448 25.1275C23.6448 25.2748 23.6043 25.3963 23.5233 25.4773C23.4387 25.562 23.3282 25.6061 23.1846 25.6025C22.9858 25.6024 22.8348 25.5398 22.7317 25.4146C22.6286 25.2894 22.5733 25.109 22.5733 24.866L21.5129 24.8659C21.5129 25.3004 21.6345 25.6502 21.8812 25.919C22.0874 26.1399 22.3709 26.2836 22.7281 26.3535L22.7282 27.112L23.7518 27.1269Z" />
      <path fill-rule="evenodd" clip-rule="evenodd" d="M17.1634 24.0085C17.1634 20.6948 19.8497 18.0085 23.1634 18.0085C26.4771 18.0085 29.1634 20.6948 29.1634 24.0085C29.1634 27.3222 26.4771 30.0085 23.1634 30.0085C19.8497 30.0085 17.1634 27.3222 17.1634 24.0085ZM23.1634 19.3418C20.5861 19.3418 18.4967 21.4311 18.4967 24.0085C18.4967 26.5858 20.5861 28.6751 23.1634 28.6751C25.7407 28.6751 27.8301 26.5858 27.8301 24.0085C27.8301 21.4311 25.7407 19.3418 23.1634 19.3418Z" />
    </g>
  </symbol>
  <symbol id="uk2-mono-pie-chart" viewBox="0 0 32 32" xmlns="http://www.w3.org/2000/svg">
    <g id="primary">
      <path fill-rule="evenodd" clip-rule="evenodd" d="M29.3346 14.666C29.3346 14.2197 29.3097 13.7745 29.2603 13.3327C29.1353 12.2146 28.8534 11.1173 28.4212 10.0738C27.8181 8.61791 26.9342 7.29504 25.8199 6.18073C24.7056 5.06643 23.3827 4.18252 21.9268 3.57946C20.8833 3.14722 19.7861 2.86533 18.668 2.74032C18.2261 2.69092 17.781 2.66602 17.3346 2.66602V14.666H29.3346ZM27.1894 10.5841C27.5545 11.4655 27.7989 12.3901 27.9176 13.3327H18.668V4.08301C19.6106 4.20177 20.5351 4.44619 21.4166 4.8113C22.7107 5.34735 23.8866 6.13305 24.8771 7.12354C25.8676 8.11403 26.6533 9.28992 27.1894 10.5841Z" />
      <path fill-rule="evenodd" clip-rule="evenodd" d="M26.5937 18.666C26.643 18.2248 26.668 17.7797 26.668 17.3327L14.668 17.3327V5.33268C14.221 5.33268 13.7759 5.35765 13.3346 5.40698C11.433 5.61958 9.60286 6.2848 8.00113 7.35505C6.02774 8.67362 4.48967 10.5478 3.58142 12.7405C2.67317 14.9332 2.43553 17.346 2.89855 19.6738C3.36157 22.0015 4.50446 24.1397 6.18269 25.818C7.86092 27.4962 9.99912 28.6391 12.3269 29.1021C14.6547 29.5651 17.0675 29.3275 19.2602 28.4192C21.4529 27.511 23.327 25.9729 24.6456 23.9995C25.7159 22.3978 26.3811 20.5677 26.5937 18.666ZM13.3346 6.74967V18.666L25.251 18.666C25.0447 20.3032 24.4605 21.8766 23.537 23.2588C22.3649 25.0129 20.699 26.3801 18.7499 27.1874C16.8009 27.9947 14.6561 28.206 12.587 27.7944C10.5179 27.3828 8.61726 26.3669 7.1255 24.8752C5.63374 23.3834 4.61784 21.4828 4.20626 19.4136C3.79469 17.3445 4.00592 15.1998 4.81326 13.2507C5.62059 11.3016 6.98777 9.63574 8.74189 8.46367C10.124 7.54017 11.6975 6.95594 13.3346 6.74967Z" />
    </g>
  </symbol>
  <symbol id="uk2-mono-scroll" viewBox="0 0 32 32" xmlns="http://www.w3.org/2000/svg">
    <g id="primary">
      <path d="M19.9987 8.66667H9.33203V7.33333H19.9987V8.66667Z" />
      <path d="M9.33203 12.6667H19.9987V11.3333H9.33203V12.6667Z" />
      <path d="M19.9987 16.6667H9.33203V15.3333H19.9987V16.6667Z" />
      <path d="M9.33203 20.6667H19.9987V19.3333H9.33203V20.6667Z" />
      <path fill-rule="evenodd" clip-rule="evenodd" d="M25.332 2C27.2095 2 28.6654 3.60244 28.6654 5.49524V8.36191H23.332V27.0833C23.332 28.7168 21.9658 30 20.332 30C20.2195 30 20.1083 29.9939 19.9987 29.9821V30L6.66536 30C6.14617 30 5.3621 29.8872 4.68193 29.5199C3.97288 29.1371 3.33203 28.4416 3.33203 27.3333V23.3333H5.9987V5.33333C5.9987 3.49238 7.49108 2 9.33203 2H25.332ZM25.332 3.33333C24.2639 3.33333 23.332 4.26368 23.332 5.49524V7.02857H27.332V5.49524C27.332 4.26368 26.4001 3.33333 25.332 3.33333ZM22.7132 3.33333C22.2636 3.93324 21.9987 4.68782 21.9987 5.49524V27.0833C21.9987 27.9351 21.2756 28.6667 20.332 28.6667C19.3885 28.6667 18.6654 27.9351 18.6654 27.0833V23.3333H7.33203V5.33333C7.33203 4.22876 8.22746 3.33333 9.33203 3.33333H22.7132ZM17.8112 28.6667C17.5088 28.2132 17.332 27.6709 17.332 27.0833V24.6667H4.66537L4.66536 27.3333C4.66536 27.8251 4.9134 28.1296 5.31546 28.3467C5.74641 28.5794 6.29567 28.6667 6.66536 28.6667L17.8112 28.6667Z" />
    </g>
  </symbol>
  <symbol id="uk2-mono-smallbusiness-loan" viewBox="0 0 32 32" xmlns="http://www.w3.org/2000/svg">
    <g id="primary">
      <path d="M18.0152 7.35942L18.0151 6.83433C18.1736 6.78976 18.3123 6.71547 18.4188 6.60897C18.5724 6.45542 18.6491 6.25976 18.6491 6.01703C18.6491 5.87337 18.6268 5.75201 18.5773 5.64797C18.5302 5.54642 18.4608 5.45725 18.3791 5.38046C18.2973 5.30367 18.1933 5.2343 18.0769 5.17733C17.9605 5.1154 17.8366 5.06089 17.7054 5.00391C17.5741 4.94694 17.4775 4.88996 17.4205 4.82803C17.3611 4.76858 17.3313 4.68437 17.3313 4.58034C17.3313 4.47631 17.3561 4.39706 17.4106 4.33762C17.4626 4.28066 17.5344 4.24846 17.6285 4.24847C17.7325 4.24848 17.8118 4.28812 17.8712 4.36738C17.9257 4.44665 17.9555 4.56058 17.958 4.70672L18.6763 4.70678C18.6762 4.43928 18.6019 4.21636 18.4558 4.04049C18.3443 3.90921 18.2031 3.81755 18.0272 3.76057L18.0272 3.2652L17.3238 3.26514L17.3238 3.74069C17.138 3.78278 16.982 3.8645 16.8607 3.9809C16.6997 4.13693 16.618 4.33259 16.618 4.57037C16.618 4.71403 16.6403 4.83539 16.6849 4.93447C16.7295 5.03355 16.7939 5.12272 16.8806 5.19951C16.9673 5.2763 17.0688 5.34318 17.1853 5.40016C17.3017 5.45714 17.4305 5.5166 17.5692 5.5711C17.7079 5.6256 17.8045 5.68753 17.859 5.75194C17.9135 5.81634 17.9407 5.90303 17.9432 6.01449C17.9432 6.11356 17.916 6.1953 17.8615 6.24978C17.8045 6.30674 17.7302 6.33646 17.6336 6.33397C17.4999 6.33396 17.3983 6.29185 17.329 6.20763C17.2596 6.12341 17.2225 6.00204 17.2224 5.83857L16.5091 5.83851C16.5091 6.13077 16.5909 6.36608 16.7569 6.5469C16.8956 6.69553 17.0863 6.79214 17.3266 6.83922L17.3266 7.34945L18.0152 7.35942Z" />
      <path fill-rule="evenodd" clip-rule="evenodd" d="M17.5922 1.26758C19.6683 1.26758 21.3804 2.826 21.6226 4.83683H26.3387V8.25858C26.4662 8.72337 26.6159 9.31075 26.7143 9.88679C26.778 10.2596 26.8237 10.6464 26.8242 11.0043C26.8247 11.3392 26.7866 11.7187 26.631 12.0444C26.5677 12.1932 26.47 12.3453 26.3433 12.4905V20.9166C27.8923 21.265 28.6188 22.2607 28.7784 22.9301C28.9079 23.4296 28.9325 23.9644 28.7426 24.4749C28.5478 24.9985 28.1573 25.4161 27.6059 25.7203L27.5721 25.7389L16.6216 30.2221C14.6226 31.1776 12.8029 30.5564 12.1373 30.2157L3.12109 25.7976V17.208L3.75465 17.1765C5.40045 17.0947 6.89522 17.0262 8.36273 17.3258C8.52938 17.3599 8.69527 17.3985 8.86068 17.4422V12.5656C8.70044 12.3983 8.57878 12.2191 8.50437 12.0444C8.34884 11.7187 8.31075 11.3392 8.3112 11.0043C8.31169 10.6464 8.3574 10.2596 8.42111 9.88679C8.53123 9.24249 8.70537 8.58399 8.84098 8.09871L8.85143 4.83683H13.5619C13.804 2.826 15.5161 1.26758 17.5922 1.26758ZM17.5922 8.04865C19.0952 8.04865 20.3136 6.83023 20.3136 5.32725C20.3136 3.82426 19.0952 2.60585 17.5922 2.60585C16.0892 2.60585 14.8708 3.82426 14.8708 5.32725C14.8708 6.83023 16.0892 8.04865 17.5922 8.04865ZM17.5922 9.38691C17.9063 9.38691 18.212 9.35125 18.5056 9.28375C18.5714 9.54281 18.6318 9.81273 18.6769 10.0855C18.7832 10.7289 18.7799 11.2651 18.6383 11.636C18.4491 11.8541 18.1176 12.0874 17.7549 12.1514C17.4208 12.2103 16.9716 12.1445 16.4774 11.5434L16.4733 11.5385L16.4692 11.5337C16.4292 11.4869 16.3701 11.3791 16.3348 11.167C16.3002 10.9593 16.2956 10.6931 16.3273 10.3784C16.3625 10.0286 16.4399 9.64388 16.5508 9.25211C16.8832 9.34006 17.2322 9.38691 17.5922 9.38691ZM19.9924 9.86823C19.9293 9.48637 19.8396 9.10858 19.7489 8.76729C19.9 8.67235 20.0444 8.56773 20.1813 8.4543H21.5514C21.8 8.95773 21.9927 9.58918 22.0955 10.1988C22.1567 10.5622 22.1826 10.8987 22.1743 11.1759C22.1655 11.4682 22.1203 11.6345 22.0875 11.7002L22.075 11.7251L22.0647 11.751C22.0639 11.7528 22.055 11.7719 22.0307 11.8038C22.0055 11.8368 21.9691 11.8764 21.9204 11.9175C21.8231 11.9996 21.6878 12.0782 21.5178 12.1231C21.2125 12.2039 20.7052 12.1973 20.0006 11.7192C20.1376 11.1028 20.0868 10.4398 19.9924 9.86823ZM25.0054 7.12097H21.2351C21.3822 6.82285 21.4938 6.50408 21.5643 6.17017H25.0054V7.12097ZM10.194 13.2911V17.9135C10.5288 18.0633 10.8647 18.2383 11.2044 18.4421V14.3088H18.4414V20.0809H13.2998C13.5552 20.3329 13.738 20.4983 13.9027 20.615C14.094 20.7507 14.2533 20.8149 14.4972 20.8469H19.5247V14.3088H24.1238V20.8469H25.01V13.2761C24.3696 13.4251 23.6182 13.3472 22.8205 12.9018C22.5678 13.1253 22.24 13.3114 21.8586 13.4122C21.1281 13.6053 20.2447 13.482 19.293 12.85C18.9486 13.1318 18.4998 13.3739 17.9865 13.4645C17.2905 13.5873 16.5454 13.4184 15.8719 12.8303C14.909 13.4794 14.0148 13.6073 13.2768 13.4122C12.8955 13.3114 12.5676 13.1253 12.3149 12.9018C11.5455 13.3314 10.8192 13.4191 10.194 13.2911ZM8.09598 18.6322C9.10472 18.8382 10.1032 19.2463 11.2044 20.0378V20.0809H11.2639C11.499 20.2522 11.7389 20.4411 11.9846 20.6492C12.4261 21.0985 12.783 21.4557 13.1315 21.7027C13.5225 21.9799 13.9025 22.1209 14.3805 22.1759L14.4184 22.1802H18.6167L18.6099 22.2038C18.7332 22.239 18.8434 22.3319 18.9381 22.5012C19.0263 22.6588 19.0714 22.834 19.0862 22.9438C19.0707 23.2645 18.9301 23.4792 18.7461 23.6369C18.5593 23.797 18.3338 23.8894 18.1815 23.9267H13.5203V25.2601H18.3116L18.3712 25.2491C18.7148 25.1861 19.1991 25.0046 19.6137 24.6493C20.0459 24.2789 20.4068 23.7116 20.4205 22.9296L20.4212 22.8942L20.418 22.8589C20.4016 22.6744 20.3525 22.4323 20.2558 22.1802H25.8607C27.1117 22.3893 27.4499 23.1028 27.4816 23.2403L27.4838 23.2499L27.4863 23.2593C27.5717 23.5852 27.5605 23.8283 27.4929 24.01C27.4312 24.176 27.2967 24.3607 26.9931 24.5352L16.0792 29.0034L16.0609 29.0123C14.5652 29.7343 13.1958 29.2609 12.7413 29.027L12.7355 29.024L4.45443 24.9661V18.478C5.83791 18.4164 6.98591 18.4055 8.09598 18.6322ZM10.1805 6.17017H13.6202C13.6907 6.50408 13.8022 6.82285 13.9493 7.12097H10.1775L10.1805 6.17017ZM15.0031 8.4543C15.1062 8.53976 15.2136 8.62021 15.325 8.6953C15.1652 9.21762 15.0506 9.74848 15.0006 10.2449C14.9612 10.6371 14.96 11.028 15.0196 11.3859C15.0392 11.5037 15.0662 11.623 15.1029 11.7406C14.4149 12.1975 13.9183 12.2026 13.6176 12.1231C13.4476 12.0782 13.3123 11.9996 13.215 11.9175C13.1663 11.8764 13.1299 11.8368 13.1047 11.8038C13.0804 11.7719 13.0716 11.7529 13.0708 11.7511L13.0604 11.7251L13.0479 11.7002C13.0151 11.6345 12.9699 11.4682 12.9611 11.1759C12.9529 10.8987 12.9787 10.5622 13.04 10.1988C13.1427 9.58918 13.3354 8.95773 13.584 8.4543H15.0031ZM25.0094 8.4543H23.0018C23.189 8.95117 23.3264 9.47955 23.4103 9.97731C23.4826 10.4065 23.5185 10.8324 23.507 11.2157C23.5019 11.3853 23.4873 11.5601 23.4574 11.7305C24.0417 12.0614 24.4895 12.0461 24.7885 11.956C24.9753 11.8996 25.1285 11.8069 25.2403 11.7108C25.296 11.6629 25.3379 11.6172 25.3667 11.5796C25.3921 11.5464 25.4021 11.5266 25.4037 11.5233L25.4141 11.4974L25.4266 11.4725C25.4538 11.418 25.4912 11.2756 25.4909 11.0061C25.4905 10.7513 25.4571 10.4452 25.4 10.1114C25.3011 9.53262 25.1415 8.92733 25.0094 8.4543ZM10.1261 8.4543C9.99389 8.92733 9.83431 9.53262 9.73538 10.1114C9.67834 10.4452 9.64488 10.7513 9.64453 11.0061C9.64417 11.2756 9.68166 11.418 9.70885 11.4725L9.72131 11.4974L9.73158 11.5231C9.73324 11.5264 9.74332 11.5464 9.76874 11.5796C9.79755 11.6172 9.83945 11.6629 9.89514 11.7108C10.0069 11.8069 10.1601 11.8996 10.347 11.956C10.6459 12.0461 11.0938 12.0614 11.678 11.7305C11.6481 11.5601 11.6335 11.3853 11.6284 11.2157C11.6169 10.8324 11.6528 10.4065 11.7252 9.97731C11.809 9.47955 11.9464 8.95117 12.1336 8.4543H10.1261ZM12.5378 15.6421H17.108V18.7475H12.5378V15.6421ZM22.7905 15.6421H20.8581V20.8374H22.7905V15.6421Z" />
    </g>
  </symbol>
  <symbol id="uk2-mono-small-business" viewBox="0 0 32 32" xmlns="http://www.w3.org/2000/svg">
    <path id="primary" fill-rule="evenodd" clip-rule="evenodd" d="M16.0206 12.0073C17.7729 12.0073 19.1935 10.5867 19.1935 8.83438C19.1935 7.08202 17.7729 5.66146 16.0206 5.66146C14.2682 5.66146 12.8477 7.08202 12.8477 8.83438C12.8477 10.5867 14.2682 12.0073 16.0206 12.0073ZM16.0206 13.3406C16.3954 13.3406 16.7596 13.2949 17.1078 13.2086C17.1846 13.5086 17.2556 13.8226 17.3081 14.1399C17.4281 14.8666 17.4263 15.4857 17.2562 15.9194C17.0374 16.1763 16.6488 16.4531 16.219 16.5289C15.8176 16.5997 15.2903 16.514 14.7237 15.8249L14.7197 15.82L14.7155 15.8151C14.6589 15.7489 14.5893 15.6141 14.5486 15.3697C14.5087 15.1298 14.5038 14.826 14.5396 14.471C14.5802 14.0675 14.6704 13.6238 14.7997 13.1733C15.1879 13.2823 15.5974 13.3406 16.0206 13.3406ZM20.5268 8.83438C20.5268 10.4703 19.6551 11.9026 18.3509 12.6921C18.4525 13.0735 18.553 13.4958 18.6236 13.9226C18.7309 14.5723 18.7854 15.3192 18.6224 16.0044C19.4454 16.5776 20.0481 16.5943 20.4199 16.496C20.8436 16.384 21.0512 16.1092 21.0805 16.0361L21.0908 16.0102L21.1032 15.9853C21.1471 15.8976 21.1981 15.6994 21.2079 15.3694C21.2173 15.0545 21.1879 14.6745 21.1191 14.2659C21.0009 13.5644 20.7764 12.835 20.485 12.2589H18.9544C19.3881 11.8876 19.7504 11.4353 20.018 10.9256H24.3603V9.71411H20.4457C20.502 9.42959 20.5316 9.13543 20.5316 8.83438C20.5316 8.68127 20.5239 8.52995 20.509 8.38078H25.6936V12.1229C25.8362 12.6419 26.0042 13.2995 26.1143 13.9438C26.1849 14.3568 26.2351 14.7832 26.2357 15.1761C26.2362 15.5457 26.1937 15.9555 26.0272 16.3034C25.9566 16.4696 25.845 16.641 25.6987 16.8043V27.6728H6.49766V17.0022C6.25193 16.7838 6.06998 16.5385 5.97022 16.3034C5.80365 15.9555 5.76122 15.5457 5.76172 15.1761C5.76226 14.7832 5.81248 14.3568 5.88308 13.9438C6.00569 13.2264 6.20007 12.4925 6.35124 11.9518L6.36268 8.38078H11.5369C11.7643 6.10505 13.6849 4.32812 16.0206 4.32812C18.5093 4.32812 20.5268 6.34564 20.5268 8.83438ZM7.69175 9.71411H11.6002C11.685 10.1429 11.8307 10.5499 12.0279 10.9256H7.68787L7.69175 9.71411ZM11.5124 12.2589H13.0915C13.2437 12.3892 13.4046 12.5095 13.5734 12.6189C13.3956 13.1988 13.2682 13.7878 13.2129 14.3375C13.1694 14.7701 13.1684 15.1984 13.2334 15.5886C13.2578 15.7354 13.2927 15.8834 13.3413 16.0276C12.5356 16.578 11.9442 16.593 11.5775 16.496C11.1538 16.384 10.9461 16.1092 10.9169 16.0361L10.9066 16.0102L10.8941 15.9853C10.8503 15.8976 10.7993 15.6994 10.7895 15.3694C10.7801 15.0545 10.8095 14.6745 10.8783 14.2659C10.9965 13.5644 11.221 12.835 11.5124 12.2589ZM24.3475 12.2589H21.9431C22.1698 12.8363 22.3353 13.459 22.4339 14.0444C22.5138 14.5188 22.5532 14.9882 22.5407 15.4092C22.5345 15.6139 22.5158 15.8233 22.4768 16.0244C23.1667 16.4298 23.7027 16.4185 24.0657 16.3091C24.2848 16.243 24.4647 16.1342 24.5967 16.0207C24.6624 15.9642 24.7128 15.9095 24.7483 15.8632C24.7659 15.8403 24.7786 15.8209 24.7874 15.806C24.7918 15.7986 24.7949 15.7928 24.797 15.7886C24.7991 15.7843 24.7999 15.7824 24.7999 15.7824L24.8102 15.7565L24.8227 15.7316C24.8608 15.6552 24.9028 15.4823 24.9023 15.1779C24.9019 14.8881 24.864 14.5425 24.8 14.1684C24.6852 13.4967 24.4978 12.7941 24.3475 12.2589ZM24.3654 17.6099C23.6404 17.8042 22.7714 17.7307 21.8412 17.197C21.5641 17.4537 21.1953 17.6702 20.7607 17.7851C19.9593 17.9969 18.9796 17.859 17.9156 17.1365C17.5355 17.4586 17.0304 17.7397 16.4507 17.8419C15.6846 17.9771 14.8599 17.7868 14.1142 17.1143C13.0377 17.8561 12.0463 17.9991 11.2367 17.7851C10.8021 17.6702 10.4333 17.4537 10.1562 17.197C9.30964 17.6827 8.5138 17.7873 7.83099 17.6557V26.3395H18.1784V18.8575H23.3022V26.3395H24.3654V17.6099ZM7.64991 12.2589C7.49964 12.7941 7.31217 13.4967 7.19736 14.1684C7.13343 14.5425 7.09545 14.8881 7.09506 15.1779C7.09464 15.4823 7.13655 15.6552 7.17473 15.7316L7.18719 15.7565L7.19752 15.7824C7.19752 15.7824 7.1983 15.7843 7.20041 15.7886C7.2025 15.7928 7.2056 15.7986 7.20995 15.806C7.21875 15.8209 7.23154 15.8403 7.24914 15.8632C7.28462 15.9095 7.33495 15.9642 7.40074 16.0207C7.53271 16.1342 7.71263 16.243 7.93174 16.3091C8.29469 16.4185 8.8307 16.4298 9.52059 16.0244C9.4816 15.8233 9.46285 15.6139 9.45673 15.4092C9.44415 14.9882 9.48358 14.5188 9.56351 14.0444C9.66213 13.459 9.82757 12.8363 10.0543 12.2589H7.64991ZM10.2435 20.1908H15.6396V23.955H10.2435V20.1908ZM8.91016 18.8575H16.9729V25.2883H8.91016V18.8575ZM21.9689 20.1908H19.5117V26.2833H21.9689V20.1908ZM16.4969 11.1151L16.4969 10.5301C16.6735 10.4805 16.828 10.3977 16.9466 10.279C17.1177 10.108 17.2032 9.88998 17.2032 9.61955C17.2032 9.4595 17.1784 9.32428 17.1232 9.20838C17.0707 9.09524 16.9934 8.99589 16.9024 8.91033C16.8113 8.82478 16.6954 8.74751 16.5657 8.68403C16.436 8.61503 16.298 8.55431 16.1518 8.49082C16.0055 8.42734 15.8979 8.36387 15.8344 8.29487C15.7682 8.22864 15.735 8.13481 15.735 8.01892C15.735 7.90302 15.7626 7.81472 15.8233 7.7485C15.8813 7.68503 15.9613 7.64917 16.0661 7.64917C16.182 7.64918 16.2703 7.69335 16.3366 7.78165C16.3973 7.86996 16.4304 7.9969 16.4332 8.15971L17.2334 8.15978C17.2334 7.86176 17.1506 7.6134 16.9878 7.41746C16.8636 7.2712 16.7063 7.16908 16.5104 7.1056L16.5103 6.5537L15.7266 6.55363L15.7267 7.08345C15.5197 7.13034 15.3459 7.22139 15.2107 7.35107C15.0313 7.52491 14.9403 7.7429 14.9403 8.00781C14.9403 8.16786 14.9652 8.30307 15.0148 8.41346C15.0645 8.52384 15.1363 8.62319 15.2329 8.70874C15.3295 8.7943 15.4426 8.86881 15.5723 8.93229C15.702 8.99577 15.8455 9.06201 16 9.12273C16.1546 9.18346 16.2622 9.25245 16.3229 9.3242C16.3836 9.39596 16.414 9.49254 16.4168 9.61672C16.4168 9.7271 16.3864 9.81816 16.3257 9.87886C16.2623 9.94232 16.1795 9.97543 16.0719 9.97266C15.9229 9.97265 15.8097 9.92573 15.7324 9.8319C15.6552 9.73807 15.6138 9.60285 15.6137 9.42072L14.819 9.42065C14.819 9.74627 14.9101 10.0084 15.095 10.2099C15.2496 10.3755 15.4621 10.4831 15.7297 10.5356L15.7298 11.104L16.4969 11.1151Z" />
  </symbol>
  <symbol id="uk2-mono-trading" viewBox="0 0 32 32" xmlns="http://www.w3.org/2000/svg">
    <g id="primary">
      <path fill-rule="evenodd" clip-rule="evenodd" d="M11.0013 4.0332V7.74544H12.3346V17.0654H11.0013V19.1828H9.66797V17.0654H8.33464V7.74544H9.66797V4.0332H11.0013ZM11.0013 9.07878H9.66797V15.7321H11.0013V9.07878Z" />
      <path fill-rule="evenodd" clip-rule="evenodd" d="M4.0013 11.2025H2.66797V18.9396H4.0013V20.634H5.33464V18.9396H6.66797V11.2025H5.33464V8.14128H4.0013V11.2025ZM4.0013 12.5358H5.33464V17.6063H4.0013V12.5358Z" />
      <path fill-rule="evenodd" clip-rule="evenodd" d="M16.668 11.2025V8.52409H15.3346V11.2025H14.0013V25.511H15.3346V27.966H16.668V25.511H18.0013V11.2025H16.668ZM15.3346 12.5358H16.668V24.1777H15.3346V12.5358Z" />
      <path fill-rule="evenodd" clip-rule="evenodd" d="M22.3346 11.7415V13.2246H23.668V22.5446H22.3346V25.2862H21.0013V22.5446H19.668V13.2246H21.0013V11.7415H22.3346ZM22.3346 14.5579H21.0013V21.2113H22.3346V14.5579Z" />
      <path fill-rule="evenodd" clip-rule="evenodd" d="M28.0013 9.19075V7.41602H26.668V9.19075H25.3346V16.465H26.668V18.5832H28.0013V16.465H29.3346V9.19075H28.0013ZM26.668 10.5241H28.0013V15.1317H26.668V10.5241Z" />
    </g>
  </symbol>
  <symbol id="uk2-mono-skeleton-tier-2" viewBox="0 0 32 32" xmlns="http://www.w3.org/2000/svg">
    <rect id="primary" width="32" height="32" rx="8" fill="#D4D4D4" />
  </symbol>
</svg>
