<svg xmlns="http://www.w3.org/2000/svg" xmlns:xlink="http://www.w3.org/1999/xlink">
  <symbol id="uk2-arrow-back" viewBox="0 0 24 24" xmlns="http://www.w3.org/2000/svg">
    <path id="primary" d="M10.8741 2.46875L1.34375 11.9991L10.8741 21.5294L11.9347 20.4688L4.21641 12.7483L22.6544 12.7491V11.2491L4.21641 11.2482L11.9347 3.52941L10.8741 2.46875Z" />
  </symbol>
  <symbol id="uk2-arrow-forward" viewBox="0 0 24 24" xmlns="http://www.w3.org/2000/svg">
    <path id="primary" d="M13.1241 2.46875L22.6544 11.9991L13.1241 21.5294L12.0634 20.4688L19.7817 12.7483L1.34375 12.7491V11.2491L19.7817 11.2482L12.0634 3.52941L13.1241 2.46875Z" />
  </symbol>
  <symbol id="uk2-arrow-up" viewBox="0 0 24 24" xmlns="http://www.w3.org/2000/svg">
    <path id="primary" d="M21.5312 10.8741L12.0009 1.34375L2.47059 10.8741L3.53125 11.9347L11.2517 4.21641L11.2509 22.6544L12.7509 22.6544L12.7518 4.21641L20.4706 11.9347L21.5312 10.8741Z"/>
  </symbol>
  <symbol id="uk2-arrow-down" viewBox="0 0 24 24" xmlns="http://www.w3.org/2000/svg">
    <path id="primary" d="M21.5312 13.1259L12.0009 22.6563L2.47059 13.1259L3.53125 12.0653L11.2517 19.7836L11.2509 1.34559L12.7509 1.34559L12.7518 19.7836L20.4706 12.0653L21.5312 13.1259Z"/>
  </symbol>
  <symbol id="uk2-arrow-back-curve" viewBox="0 0 24 24" xmlns="http://www.w3.org/2000/svg">
    <path id="primary" fill-rule="evenodd" clip-rule="evenodd" d="M4.21507 12.7491L8.93474 17.4688L7.87408 18.5294L1.34375 11.9991L7.87408 5.46875L8.93474 6.52941L4.21507 11.2491H15.9044C19.6324 11.2491 22.6544 14.2712 22.6544 17.999H21.1544C21.1544 15.0995 18.8039 12.7491 15.9044 12.7491H4.21507Z" />
  </symbol>
  <symbol id="uk2-chevron-left" viewBox="0 0 24 24" xmlns="http://www.w3.org/2000/svg">
    <path id="primary" d="M16.2335 2.46875L6.70312 11.9991L16.2335 21.5294L17.2941 20.4687L8.82428 11.9991L17.2941 3.52941L16.2335 2.46875Z" />
  </symbol>
  <symbol id="uk2-chevron-right" viewBox="0 0 24 24" xmlns="http://www.w3.org/2000/svg">
    <path id="primary" d="M7.76378 2.46875L17.2941 11.9991L7.76378 21.5294L6.70312 20.4687L15.173 11.9991L6.70312 3.52941L7.76378 2.46875Z" />
  </symbol>
  <symbol id="uk2-chevron-down" viewBox="0 0 24 24" xmlns="http://www.w3.org/2000/svg">
    <path id="primary" d="M2.46875 7.76574L11.9991 17.2961L21.5294 7.76574L20.4687 6.70508L11.9991 15.1749L3.52941 6.70508L2.46875 7.76574Z" />
  </symbol>
  <symbol id="uk2-chevron-up" viewBox="0 0 24 24" xmlns="http://www.w3.org/2000/svg">
    <path id="primary" d="M21.5294 16.2354L11.9991 6.70508L2.46875 16.2354L3.52941 17.2961L11.9991 8.82624L20.4688 17.2961L21.5294 16.2354Z" />
  </symbol>
  <symbol id="uk2-arrows-horizontal" viewBox="0 0 24 24" xmlns="http://www.w3.org/2000/svg">
    <g id="primary">
      <path d="M8.02849 11.4688L4.80882 8.24908H20.9982V6.74908H4.80882L8.02849 3.52941L6.96783 2.46875L1.9375 7.49908L6.96783 12.5294L8.02849 11.4688Z" />
      <path d="M22.0588 16.4991L17.0285 11.4688L15.9678 12.5294L19.1875 15.7491H2.99814V17.2491H19.1875L15.9678 20.4688L17.0285 21.5294L22.0588 16.4991Z" />
    </g>
  </symbol>
  <symbol id="uk2-arrows-vertical" viewBox="0 0 24 24" xmlns="http://www.w3.org/2000/svg">
    <g id="primary">
      <path d="M12.5312 8.03044L15.7509 4.81077L15.7509 21.0001L17.2509 21.0001L17.2509 4.81077L20.4706 8.03044L21.5312 6.96978L16.5009 1.93945L11.4706 6.96978L12.5312 8.03044Z" />
      <path d="M7.50092 22.0607L12.5312 17.0304L11.4706 15.9698L8.25092 19.1894L8.25092 3.00009L6.75092 3.00009L6.75092 19.1894L3.53125 15.9698L2.47059 17.0304L7.50092 22.0607Z" />
    </g>
  </symbol>
  <symbol id="uk2-arrows-circular" viewBox="0 0 24 24" xmlns="http://www.w3.org/2000/svg">
    <g id="primary">
      <path d="M11.9991 3C7.02858 3 2.99914 7.02944 2.99914 12C2.99914 12.1474 3.00268 12.294 3.00969 12.4397H2.99991L1.27941 10.7197L0.21875 11.7803L3.74908 15.3107L7.27941 11.7803L6.21875 10.7197L4.51117 12.4284C4.50318 12.2866 4.49914 12.1438 4.49914 12C4.49914 7.85786 7.857 4.5 11.9991 4.5C14.7865 4.5 17.2189 6.02059 18.5117 8.27751L19.6042 7.18497C18.0083 4.66955 15.1986 3 11.9991 3Z" />
      <path d="M11.9991 19.5C9.21174 19.5 6.77949 17.9794 5.48667 15.7225L4.39413 16.815C5.99007 19.3305 8.79963 21 11.9991 21C16.9697 21 20.9992 16.9706 20.9992 12C20.9992 11.8526 20.9957 11.706 20.9887 11.5603H20.9984L22.7189 13.2803L23.7796 12.2197L20.2493 8.68934L16.7189 12.2197L17.7796 13.2803L19.4872 11.5716C19.4952 11.7134 19.4992 11.8562 19.4992 12C19.4992 16.1421 16.1413 19.5 11.9991 19.5Z" />
    </g>
  </symbol>
  <symbol id="uk2-x" viewBox="0 0 24 24" xmlns="http://www.w3.org/2000/svg">
    <path id="primary" d="M20.2812 2.65625L21.3419 3.71691L13.0602 11.9982L21.3419 20.2812L20.2812 21.3419L11.9982 13.0602L3.71691 21.3419L2.65625 20.2812L10.9377 11.9982L2.65625 3.71691L3.71691 2.65625L11.9982 10.9377L20.2812 2.65625Z" />
  </symbol>
  <symbol id="uk2-hamburger" viewBox="0 0 24 24" xmlns="http://www.w3.org/2000/svg">
    <path id="primary" fill-rule="evenodd" clip-rule="evenodd" d="M22.5 15.75V17.25H1.5V15.75H22.5ZM22.5 11.25V12.75H1.5V11.25H22.5ZM22.5 6.75V8.25H1.5V6.75H22.5Z" />
  </symbol>
  <symbol id="uk2-ellipses-horizontal" viewBox="0 0 24 24" xmlns="http://www.w3.org/2000/svg">
    <path id="primary" d="M17.25 12C17.25 10.7574 18.2574 9.75 19.5 9.75C20.7426 9.75 21.75 10.7574 21.75 12C21.75 13.2426 20.7426 14.25 19.5 14.25C18.2574 14.25 17.25 13.2426 17.25 12ZM9.75 12C9.75 10.7574 10.7574 9.75 12 9.75C13.2426 9.75 14.25 10.7574 14.25 12C14.25 13.2426 13.2426 14.25 12 14.25C10.7574 14.25 9.75 13.2426 9.75 12ZM2.25 12C2.25 10.7574 3.25736 9.75 4.5 9.75C5.74264 9.75 6.75 10.7574 6.75 12C6.75 13.2426 5.74264 14.25 4.5 14.25C3.25736 14.25 2.25 13.2426 2.25 12Z" />
  </symbol>
  <symbol id="uk2-ellipses-vertical" viewBox="0 0 24 24" xmlns="http://www.w3.org/2000/svg">
    <path id="primary" d="M12 17.25C13.2426 17.25 14.25 18.2574 14.25 19.5C14.25 20.7426 13.2426 21.75 12 21.75C10.7574 21.75 9.75 20.7426 9.75 19.5C9.75 18.2574 10.7574 17.25 12 17.25ZM12 9.75C13.2426 9.75 14.25 10.7574 14.25 12C14.25 13.2426 13.2426 14.25 12 14.25C10.7574 14.25 9.75 13.2426 9.75 12C9.75 10.7574 10.7574 9.75 12 9.75ZM12 2.25C13.2426 2.25 14.25 3.25736 14.25 4.5C14.25 5.74264 13.2426 6.75 12 6.75C10.7574 6.75 9.75 5.74264 9.75 4.5C9.75 3.25736 10.7574 2.25 12 2.25Z" />
  </symbol>
  <symbol id="uk2-log-in-R" viewBox="0 0 24 24" xmlns="http://www.w3.org/2000/svg">
    <path id="primary" d="M16.75 2.25C17.5193 2.25 18.1533 2.82906 18.2399 3.57507L18.25 3.75V20.25C18.25 21.0193 17.6709 21.6533 16.9249 21.7399L16.75 21.75H7.75C6.98075 21.75 6.34674 21.1709 6.26009 20.4249L6.25 20.25V17.25H7.75V20.25H16.75V3.75H7.75V6.75H6.25V3.75C6.25 2.98075 6.82906 2.34674 7.57507 2.26009L7.75 2.25H16.75ZM10.5303 8.46967L14.0607 12L10.5303 15.5303L9.46967 14.4697L11.1897 12.7492L1.75 12.75V11.25L11.1897 11.2492L9.46967 9.53033L10.5303 8.46967Z" />
  </symbol>
  <symbol id="uk2-log-in-L" viewBox="0 0 24 24" xmlns="http://www.w3.org/2000/svg">
    <path id="primary" d="M7.25 2.25C6.48075 2.25 5.84674 2.82906 5.76009 3.57507L5.75 3.75V20.25C5.75 21.0193 6.32906 21.6533 7.07507 21.7399L7.25 21.75H16.25C17.0193 21.75 17.6533 21.1709 17.7399 20.4249L17.75 20.25V17.25H16.25V20.25H7.25V3.75H16.25V6.75H17.75V3.75C17.75 2.98075 17.1709 2.34674 16.4249 2.26009L16.25 2.25H7.25ZM13.4697 8.46967L9.93934 12L13.4697 15.5303L14.5303 14.4697L12.8103 12.7492L22.25 12.75V11.25L12.8103 11.2492L14.5303 9.53033L13.4697 8.46967Z" />
  </symbol>
  <symbol id="uk2-log-out-R" viewBox="0 0 24 24" xmlns="http://www.w3.org/2000/svg">
    <path id="primary" d="M17.5938 6.75H16.0938V3.75H7.09375V20.25H16.0938V17.25H17.5938V20.25C17.5938 21.0784 16.9222 21.75 16.0938 21.75H7.09375C6.26532 21.75 5.59375 21.0784 5.59375 20.25V3.75C5.59375 2.92157 6.26532 2.25 7.09375 2.25H16.0938C16.9222 2.25 17.5938 2.92157 17.5938 3.75V6.75ZM22.4044 12L18.8741 15.5303L17.8134 14.4697L19.5334 12.7492L10.0938 12.75V11.25L19.5334 11.2492L17.8134 9.53033L18.8741 8.46967L22.4044 12Z" />
  </symbol>
  <symbol id="uk2-log-out-L" viewBox="0 0 24 24" xmlns="http://www.w3.org/2000/svg">
    <path id="primary" d="M7 6.75H8.5V3.75H17.5V20.25H8.5V17.25H7V20.25C7 21.0784 7.67157 21.75 8.5 21.75H17.5C18.3284 21.75 19 21.0784 19 20.25V3.75C19 2.92157 18.3284 2.25 17.5 2.25H8.5C7.67157 2.25 7 2.92157 7 3.75V6.75ZM2.18934 12L5.71967 15.5303L6.78033 14.4697L5.06034 12.7492L14.5 12.75V11.25L5.06034 11.2492L6.78033 9.53033L5.71967 8.46967L2.18934 12Z" />
  </symbol>
  <symbol id="uk2-double-chevrons-right" viewBox="0 0 24 24" xmlns="http://www.w3.org/2000/svg">
    <g id="primary">
      <path d="M14.2121 11.9991L4.68175 2.46875L3.62109 3.52941L12.0909 11.9991L3.62109 20.4687L4.68175 21.5294L14.2121 11.9991Z" />
      <path d="M20.9167 11.9991L11.3863 2.46875L10.3257 3.52941L18.7955 11.9991L10.3257 20.4687L11.3863 21.5294L20.9167 11.9991Z" />
    </g>
  </symbol>
  <symbol id="uk2-double-chevrons-left" viewBox="0 0 24 24" xmlns="http://www.w3.org/2000/svg">
    <g id="primary">
      <path d="M10.3257 11.9991L19.856 2.46875L20.9167 3.52941L12.4468 11.9991L20.9167 20.4687L19.856 21.5294L10.3257 11.9991Z" />
      <path d="M3.62109 11.9991L13.1514 2.46875L14.2121 3.52941L5.74225 11.9991L14.2121 20.4687L13.1514 21.5294L3.62109 11.9991Z" />
    </g>
  </symbol>

</svg>
