<svg xmlns="http://www.w3.org/2000/svg" xmlns:xlink="http://www.w3.org/1999/xlink">
  <symbol id="uk2-minus-circle" viewBox="0 0 24 24" xmlns="http://www.w3.org/2000/svg">
    <path id="primary" d="M12 1.5C17.799 1.5 22.5 6.20101 22.5 12C22.5 17.799 17.799 22.5 12 22.5C6.20101 22.5 1.5 17.799 1.5 12C1.5 6.20101 6.20101 1.5 12 1.5ZM12 3C7.02944 3 3 7.02944 3 12C3 16.9706 7.02944 21 12 21C16.9706 21 21 16.9706 21 12C21 7.02944 16.9706 3 12 3ZM18 11.25V12.75H6V11.25H18Z" />
  </symbol>
  <symbol id="uk2-plus-circle" viewBox="0 0 24 24" xmlns="http://www.w3.org/2000/svg">
    <path id="primary" d="M12 1.5C17.799 1.5 22.5 6.20101 22.5 12C22.5 17.799 17.799 22.5 12 22.5C6.20101 22.5 1.5 17.799 1.5 12C1.5 6.20101 6.20101 1.5 12 1.5ZM12 3C7.02944 3 3 7.02944 3 12C3 16.9706 7.02944 21 12 21C16.9706 21 21 16.9706 21 12C21 7.02944 16.9706 3 12 3ZM12.75 6V11.25H18V12.75H12.75V18H11.25V12.75H6V11.25H11.25V6H12.75Z" />
  </symbol>
  <symbol id="uk2-none" viewBox="0 0 24 24" xmlns="http://www.w3.org/2000/svg">
    <path id="primary" fill-rule="evenodd" clip-rule="evenodd" d="M19.4246 4.57538C15.3241 0.474874 8.67588 0.474874 4.57538 4.57538C0.474874 8.67588 0.474874 15.3241 4.57538 19.4246C8.67588 23.5251 15.3241 23.5251 19.4246 19.4246C23.5251 15.3241 23.5251 8.67588 19.4246 4.57538ZM5.12749 17.8118C2.13039 14.2758 2.29991 8.97217 5.63604 5.63604C8.97217 2.29991 14.2758 2.13039 17.8118 5.12749L5.12749 17.8118ZM6.18817 18.8725C9.72424 21.8696 15.0278 21.7001 18.364 18.364C21.7001 15.0278 21.8696 9.72424 18.8725 6.18817L6.18817 18.8725Z" />
  </symbol>
  <symbol id="uk2-filter-slider" viewBox="0 0 24 24" xmlns="http://www.w3.org/2000/svg">
    <g id="primary">
      <path fill-rule="evenodd" clip-rule="evenodd" d="M17.872 6.75C17.5631 7.62389 16.7297 8.25 15.75 8.25C14.7703 8.25 13.9369 7.62389 13.628 6.75H3V5.25H13.628C13.9369 4.37611 14.7703 3.75 15.75 3.75C16.7297 3.75 17.5631 4.37611 17.872 5.25H21V6.75H17.872ZM15.75 6.75C16.1642 6.75 16.5 6.41421 16.5 6C16.5 5.58579 16.1642 5.25 15.75 5.25C15.3358 5.25 15 5.58579 15 6C15 6.41421 15.3358 6.75 15.75 6.75Z" />
      <path fill-rule="evenodd" clip-rule="evenodd" d="M6.12803 11.25C6.43691 10.3761 7.27034 9.75 8.25 9.75C9.22966 9.75 10.0631 10.3761 10.372 11.25H21V12.75H10.372C10.0631 13.6239 9.22966 14.25 8.25 14.25C7.27034 14.25 6.43691 13.6239 6.12803 12.75H3V11.25H6.12803ZM9 12C9 12.4142 8.66421 12.75 8.25 12.75C7.83579 12.75 7.5 12.4142 7.5 12C7.5 11.5858 7.83579 11.25 8.25 11.25C8.66421 11.25 9 11.5858 9 12Z" />
      <path fill-rule="evenodd" clip-rule="evenodd" d="M13.628 17.25C13.9369 16.3761 14.7703 15.75 15.75 15.75C16.7297 15.75 17.5631 16.3761 17.872 17.25H21V18.75H17.872C17.5631 19.6239 16.7297 20.25 15.75 20.25C14.7703 20.25 13.9369 19.6239 13.628 18.75H3V17.25H13.628ZM16.5 18C16.5 18.4142 16.1642 18.75 15.75 18.75C15.3358 18.75 15 18.4142 15 18C15 17.5858 15.3358 17.25 15.75 17.25C16.1642 17.25 16.5 17.5858 16.5 18Z" />
    </g>
  </symbol>
  <symbol id="uk2-filter-funnel" viewBox="0 0 24 24" xmlns="http://www.w3.org/2000/svg">
    <path id="primary" fill-rule="evenodd" clip-rule="evenodd" d="M15 15.75V17.25H9V15.75H15ZM18 11.25V12.75H6V11.25H18ZM21 6.75V8.25H3V6.75H21Z" />
  </symbol>
  <symbol id="uk2-lock" viewBox="0 0 24 24" xmlns="http://www.w3.org/2000/svg">
    <g id="primary">
      <path fill-rule="evenodd" clip-rule="evenodd" d="M14.25 15C14.25 15.9797 13.6239 16.8131 12.75 17.122V19.5H11.25V17.122C10.3761 16.8131 9.75 15.9797 9.75 15C9.75 13.7574 10.7574 12.75 12 12.75C13.2426 12.75 14.25 13.7574 14.25 15ZM12 15.75C12.4142 15.75 12.75 15.4142 12.75 15C12.75 14.5858 12.4142 14.25 12 14.25C11.5858 14.25 11.25 14.5858 11.25 15C11.25 15.4142 11.5858 15.75 12 15.75Z" />
      <path fill-rule="evenodd" clip-rule="evenodd" d="M7.5 6V9.09451C6.20608 9.42755 5.25 10.6021 5.25 12V19.5C5.25 21.1569 6.59315 22.5 8.25 22.5H15.75C17.4069 22.5 18.75 21.1569 18.75 19.5V12C18.75 10.6021 17.7939 9.42755 16.5 9.09451V6C16.5 3.51472 14.4853 1.5 12 1.5C9.51472 1.5 7.5 3.51472 7.5 6ZM15 9V6C15 4.34315 13.6569 3 12 3C10.3431 3 9 4.34315 9 6V9H15ZM6.75 12C6.75 11.1716 7.42157 10.5 8.25 10.5H15.75C16.5784 10.5 17.25 11.1716 17.25 12V19.5C17.25 20.3284 16.5784 21 15.75 21H8.25C7.42157 21 6.75 20.3284 6.75 19.5V12Z" />
    </g>
  </symbol>
  <symbol id="uk2-unlock" viewBox="0 0 24 24" xmlns="http://www.w3.org/2000/svg">
    <g id="primary">
      <path fill-rule="evenodd" clip-rule="evenodd" d="M12.75 17.122C13.6239 16.8131 14.25 15.9797 14.25 15C14.25 13.7574 13.2426 12.75 12 12.75C10.7574 12.75 9.75 13.7574 9.75 15C9.75 15.9797 10.3761 16.8131 11.25 17.122V19.5H12.75V17.122ZM12.75 15C12.75 15.4142 12.4142 15.75 12 15.75C11.5858 15.75 11.25 15.4142 11.25 15C11.25 14.5858 11.5858 14.25 12 14.25C12.4142 14.25 12.75 14.5858 12.75 15Z" />
      <path fill-rule="evenodd" clip-rule="evenodd" d="M16.5 6H15C15 4.34315 13.6569 3 12 3C10.3431 3 9 4.34315 9 6V9H15.75C17.4069 9 18.75 10.3431 18.75 12V19.5C18.75 21.1569 17.4069 22.5 15.75 22.5H8.25C6.59315 22.5 5.25 21.1569 5.25 19.5V12C5.25 10.6021 6.20608 9.42755 7.5 9.09451V6C7.5 3.51472 9.51472 1.5 12 1.5C14.4853 1.5 16.5 3.51472 16.5 6ZM8.25 10.5C7.42157 10.5 6.75 11.1716 6.75 12V19.5C6.75 20.3284 7.42157 21 8.25 21H15.75C16.5784 21 17.25 20.3284 17.25 19.5V12C17.25 11.1716 16.5784 10.5 15.75 10.5H8.25Z" />
    </g>
  </symbol>
  <symbol id="uk2-location-pin" viewBox="0 0 24 24" xmlns="http://www.w3.org/2000/svg">
    <g id="primary">
      <path fill-rule="evenodd" clip-rule="evenodd" d="M15 9.34766C15 11.0045 13.6569 12.3477 12 12.3477C10.3431 12.3477 9 11.0045 9 9.34766C9 7.6908 10.3431 6.34766 12 6.34766C13.6569 6.34766 15 7.6908 15 9.34766ZM13.5 9.34766C13.5 10.1761 12.8284 10.8477 12 10.8477C11.1716 10.8477 10.5 10.1761 10.5 9.34766C10.5 8.51923 11.1716 7.84766 12 7.84766C12.8284 7.84766 13.5 8.51923 13.5 9.34766Z" />
      <path fill-rule="evenodd" clip-rule="evenodd" d="M4.5 9.34766C4.5 4.84766 8.25 1.84766 12 1.84766C15.75 1.84766 19.5 4.84766 19.5 9.34766C19.5 13.191 15.4881 18.8578 13.0712 21.6759C12.5094 22.331 11.5178 22.3064 10.9669 21.6421C8.55428 18.7333 4.5 13.2112 4.5 9.34766ZM6 9.34766C6 5.77188 8.97927 3.34766 12 3.34766C15.0207 3.34766 18 5.77188 18 9.34766C18 10.8467 17.1792 12.9292 15.8945 15.1435C14.6812 17.2347 13.1848 19.2251 12.0348 20.5797C10.8663 19.1634 9.34905 17.1709 8.12032 15.0902C6.82516 12.897 6 10.8496 6 9.34766Z" />
    </g>
  </symbol>
  <symbol id="uk2-cog" viewBox="0 0 24 24" xmlns="http://www.w3.org/2000/svg">
    <g id="primary">
      <path fill-rule="evenodd" clip-rule="evenodd" d="M16.4984 12C16.4984 14.4853 14.4837 16.5 11.9984 16.5C9.5131 16.5 7.49838 14.4853 7.49838 12C7.49838 9.51472 9.5131 7.5 11.9984 7.5C14.4837 7.5 16.4984 9.51472 16.4984 12ZM14.9984 12C14.9984 13.6569 13.6552 15 11.9984 15C10.3415 15 8.99838 13.6569 8.99838 12C8.99838 10.3431 10.3415 9 11.9984 9C13.6552 9 14.9984 10.3431 14.9984 12Z" />
      <path fill-rule="evenodd" clip-rule="evenodd" d="M15.1335 2.85074L15.2918 4.43357C15.8657 4.68374 16.4057 4.9973 16.9028 5.3654L18.3544 4.71032C19.0568 4.39332 19.8851 4.66015 20.2704 5.32754L21.913 8.17246C22.2983 8.83985 22.1152 9.69062 21.4895 10.1404L20.1966 11.0698C20.2308 11.3752 20.2484 11.6855 20.2484 12C20.2484 12.3145 20.2308 12.6248 20.1966 12.9302L21.4895 13.8596C22.1152 14.3094 22.2983 15.1602 21.913 15.8275L20.2704 18.6725C19.8851 19.3398 19.0568 19.6067 18.3544 19.2897L16.9028 18.6346C16.4057 19.0027 15.8657 19.3163 15.2918 19.5664L15.1335 21.1493C15.0568 21.9161 14.4116 22.5 13.6409 22.5H10.3559C9.58527 22.5 8.94002 21.9161 8.86334 21.1493L8.70505 19.5664C8.13111 19.3163 7.59115 19.0027 7.09401 18.6346L5.64248 19.2897C4.94007 19.6067 4.11174 19.3398 3.72643 18.6725L2.08391 15.8275C1.6986 15.1602 1.88168 14.3094 2.50741 13.8596L3.80027 12.9302C3.76601 12.6249 3.74841 12.3145 3.74841 12C3.74841 11.6855 3.76601 11.3751 3.80027 11.0698L2.50741 10.1404C1.88168 9.69062 1.6986 8.83984 2.08391 8.17246L3.72643 5.32754C4.11174 4.66015 4.94007 4.39332 5.64248 4.71032L7.09402 5.36538C7.59115 4.99729 8.13111 4.68374 8.70505 4.43357L8.86334 2.85074C8.94002 2.08394 9.58527 1.5 10.3559 1.5H13.6409C14.4116 1.5 15.0568 2.08394 15.1335 2.85074ZM13.6409 3L13.8867 5.45743L14.6924 5.80863C15.1614 6.01304 15.6031 6.26947 16.0102 6.57091L16.7176 7.09467L18.9714 6.07754L20.6139 8.92246L18.608 10.3644L18.7059 11.2371C18.734 11.487 18.7484 11.7415 18.7484 12C18.7484 12.2585 18.734 12.513 18.7059 12.7629L18.608 13.6356L20.6139 15.0775L18.9714 17.9225L16.7176 16.9053L16.0102 17.4291C15.6031 17.7305 15.1614 17.987 14.6924 18.1914L13.8867 18.5426L13.6409 21H10.3559L10.1101 18.5426L9.3044 18.1914C8.83543 17.987 8.39372 17.7305 7.98662 17.4291L7.27925 16.9053L5.02547 17.9225L3.38295 15.0775L5.38884 13.6356L5.29091 12.7629C5.26287 12.513 5.24841 12.2585 5.24841 12C5.24841 11.7415 5.26287 11.487 5.29091 11.2371L5.38884 10.3644L3.38295 8.92246L5.02547 6.07754L7.27925 7.09466L7.98662 6.5709C8.39372 6.26946 8.83543 6.01304 9.3044 5.80863L10.1101 5.45743L10.3559 3L13.6409 3Z" />
    </g>
  </symbol>
  <symbol id="uk2-trash" viewBox="0 0 24 24" xmlns="http://www.w3.org/2000/svg">
    <g id="primary">
      <path d="M9 19.5V9H10.5V19.5H9Z" />
      <path d="M15 19.5V9H13.5V19.5H15Z" />
      <path fill-rule="evenodd" clip-rule="evenodd" d="M16.5 6V3.75C16.5 2.50736 15.4926 1.5 14.25 1.5H9.75C8.50736 1.5 7.5 2.50736 7.5 3.75V6H3V7.5H4.5V19.5C4.5 21.1569 5.84315 22.5 7.5 22.5H16.5C18.1569 22.5 19.5 21.1569 19.5 19.5V7.5H21V6H16.5ZM15 6V3.75C15 3.33579 14.6642 3 14.25 3H9.75C9.33579 3 9 3.33579 9 3.75V6H15ZM6 7.5H18V19.5C18 20.3284 17.3284 21 16.5 21H7.5C6.67157 21 6 20.3284 6 19.5V7.5Z" />
    </g>
  </symbol>
  <symbol id="uk2-share" viewBox="0 0 24 24" xmlns="http://www.w3.org/2000/svg">
    <g id="primary">
      <path d="M11.2803 5.87132L8.06066 9.09099L7 8.03033L12.0303 3L17.0607 8.03033L16 9.09099L12.7803 5.87132L12.7803 16.8107H11.2803L11.2803 5.87132Z" />
      <path d="M3 10.8203L3 18.75C3 19.9926 4.00736 21 5.25 21L18.75 21C19.9926 21 21 19.9926 21 18.75V10.8203H19.5V18.75C19.5 19.1642 19.1642 19.5 18.75 19.5L5.25 19.5C4.83579 19.5 4.5 19.1642 4.5 18.75L4.5 10.8203H3Z" />
    </g>
  </symbol>
  <symbol id="uk2-folder" viewBox="0 0 24 24" xmlns="http://www.w3.org/2000/svg">
    <path id="primary" d="M8.37868 3C8.7765 3 9.15804 3.15804 9.43934 3.43934L11.5607 5.56066C11.842 5.84196 12.2235 6 12.6213 6H21C21.8284 6 22.5 6.67157 22.5 7.5V19.5C22.5 20.3284 21.8284 21 21 21H3C2.17157 21 1.5 20.3284 1.5 19.5V4.5C1.5 3.67157 2.17157 3 3 3H8.37868ZM10.5 6.62132L8.37868 4.5H3V19.5H21V7.5H12.6213C11.9141 7.5 11.2326 7.25027 10.6947 6.79963L10.5 6.62132Z" />
  </symbol>
  <symbol id="uk2-checkmark" viewBox="0 0 24 24" xmlns="http://www.w3.org/2000/svg">
    <path id="primary" fill-rule="evenodd" clip-rule="evenodd" d="M20.0294 7.01574L8.99908 18.0461L3.96875 13.0157L5.02941 11.9551L8.99908 15.9247L18.9688 5.95508L20.0294 7.01574Z" />
  </symbol>
  <symbol id="uk2-plus" viewBox="0 0 24 24" xmlns="http://www.w3.org/2000/svg">
    <path id="primary" d="M12.75 3H11.25V11.25H3V12.75H11.25V21H12.75V12.75H21V11.25H12.75V3Z" />
  </symbol>
  <symbol id="uk2-minus" viewBox="0 0 24 24" xmlns="http://www.w3.org/2000/svg">
    <path id="primary" d="M21 11.25V12.75L3 12.75L3 11.25L21 11.25Z" />
  </symbol>
  <symbol id="uk2-clock" viewBox="0 0 24 24" xmlns="http://www.w3.org/2000/svg">
    <path id="primary" d="M12 1.5C17.799 1.5 22.5 6.20101 22.5 12C22.5 17.799 17.799 22.5 12 22.5C6.20101 22.5 1.5 17.799 1.5 12C1.5 6.20101 6.20101 1.5 12 1.5ZM12 3C7.02944 3 3 7.02944 3 12C3 16.9706 7.02944 21 12 21C16.9706 21 21 16.9706 21 12C21 7.02944 16.9706 3 12 3ZM12.75 6V11.25H16.5V12.75H11.25V6H12.75Z" />
  </symbol>
  <symbol id="uk2-clock-arrow" viewBox="0 0 24 24" xmlns="http://www.w3.org/2000/svg">
    <path id="primary" d="M12 1.5C17.799 1.5 22.5 6.20101 22.5 12C22.5 17.799 17.799 22.5 12 22.5C6.20101 22.5 1.5 17.799 1.5 12C1.5 11.7479 1.50889 11.4978 1.52637 11.2501L3.03077 11.2504C3.01039 11.4976 3 11.7476 3 12C3 16.9706 7.02944 21 12 21C16.9706 21 21 16.9706 21 12C21 7.02944 16.9706 3 12 3C8.98866 3 6.32274 4.47895 4.68898 6.75012L7.5 6.75V8.25H2.25V3H3.75L3.75045 5.50354C5.67321 3.06526 8.65381 1.5 12 1.5ZM12.75 6V11.25H16.5V12.75H11.25V6H12.75Z" />
  </symbol>
  <symbol id="uk2-hourglass" viewBox="0 0 24 24" xmlns="http://www.w3.org/2000/svg">
    <path id="primary" fill-rule="evenodd" clip-rule="evenodd" d="M19.5 1.5V3H18V5.95205C18 6.89476 17.6449 7.80289 17.0055 8.4956L15.1794 10.4739C14.3838 11.3358 14.3838 12.6642 15.1794 13.5261L17.0055 15.5044C17.6449 16.1971 18 17.1052 18 18.048V21H19.5V22.5H4.5V21H6V18.048C6 17.1052 6.35506 16.1971 6.99449 15.5044L8.82058 13.5261C9.61617 12.6642 9.61617 11.3358 8.82058 10.4739L6.99449 8.4956C6.35506 7.80289 6 6.89476 6 5.95205V3H4.5V1.5H19.5ZM7.5 3V5.95205C7.5 6.51768 7.71304 7.06255 8.09669 7.47818L9.92279 9.45645C11.2488 10.8929 11.2488 13.1071 9.92279 14.5436L8.09669 16.5218C7.71304 16.9374 7.5 17.4823 7.5 18.048V21H16.5V18.048C16.5 17.4823 16.287 16.9374 15.9033 16.5218L14.0772 14.5436C12.7512 13.1071 12.7512 10.8929 14.0772 9.45645L15.9033 7.47818C16.287 7.06255 16.5 6.51768 16.5 5.95205V3H7.5Z" />
  </symbol>
  <symbol id="uk2-paper-airplane" viewBox="0 0 24 24" xmlns="http://www.w3.org/2000/svg">
    <path id="primary" fill-rule="evenodd" clip-rule="evenodd" d="M2.50366 9.00975C2.53281 8.7154 2.73224 8.46568 3.01284 8.37214L20.5137 2.53851C20.7832 2.44867 21.0804 2.51882 21.2812 2.71969C21.4821 2.92056 21.5523 3.21769 21.4624 3.48719L15.6288 20.9881C15.5353 21.2687 15.2855 21.4681 14.9912 21.4973C14.6968 21.5264 14.4128 21.3798 14.2661 21.123L10.1249 13.876L2.87791 9.73483C2.62109 9.58808 2.47452 9.3041 2.50366 9.00975ZM11.61 13.4516L14.7362 18.9224L19.5651 4.43587L5.07854 9.26471L10.5494 12.3909L14.9173 8.02299L15.9779 9.08365L11.61 13.4516Z" />
  </symbol>
  <symbol id="uk2-paper-airplane-2" viewBox="0 0 24 24" xmlns="http://www.w3.org/2000/svg">
    <path id="primary" fill-rule="evenodd" clip-rule="evenodd" d="M3.27454 3.17C3.50328 2.98248 3.82088 2.94691 4.08544 3.07919L20.5854 11.3292C20.8395 11.4562 21 11.7159 21 12C21 12.2841 20.8395 12.5438 20.5854 12.6708L4.08544 20.9208C3.82088 21.0531 3.50328 21.0175 3.27454 20.83C3.0458 20.6425 2.94863 20.338 3.02646 20.0527L5.22264 12L3.02646 3.94735C2.94863 3.66198 3.0458 3.35753 3.27454 3.17ZM6.57288 12.75L4.91497 18.829L18.573 12L4.91497 5.171L6.57288 11.25H12.75V12.75H6.57288Z" />
  </symbol>
  <symbol id="uk2-dot-gird" viewBox="0 0 24 24" xmlns="http://www.w3.org/2000/svg">
    <g id="primary">
      <path d="M7 10C8.65685 10 10 8.65685 10 7C10 5.34315 8.65685 4 7 4C5.34315 4 4 5.34315 4 7C4 8.65685 5.34315 10 7 10Z" />
      <path d="M7 20C8.65685 20 10 18.6569 10 17C10 15.3431 8.65685 14 7 14C5.34315 14 4 15.3431 4 17C4 18.6569 5.34315 20 7 20Z" />
      <path d="M20 7C20 8.65685 18.6569 10 17 10C15.3431 10 14 8.65685 14 7C14 5.34315 15.3431 4 17 4C18.6569 4 20 5.34315 20 7Z" />
      <path d="M17 20C18.6569 20 20 18.6569 20 17C20 15.3431 18.6569 14 17 14C15.3431 14 14 15.3431 14 17C14 18.6569 15.3431 20 17 20Z" />
    </g>
  </symbol>
  <symbol id="uk2-dot-grid-drag" viewBox="0 0 24 24" xmlns="http://www.w3.org/2000/svg">
    <g id="primary">
      <circle cx="15" cy="6.75" r="1.5" />
      <circle cx="9" cy="6.75" r="1.5" />
      <circle cx="15" cy="12" r="1.5" />
      <circle cx="9" cy="12" r="1.5" />
      <circle cx="15" cy="17.25" r="1.5" />
      <circle cx="9" cy="17.25" r="1.5" />
    </g>
</symbol>
  <symbol id="uk2-flag" viewBox="0 0 24 24" xmlns="http://www.w3.org/2000/svg">
    <path id="primary" fill-rule="evenodd" clip-rule="evenodd" d="M4.5 2.25C4.5 1.83579 4.83579 1.5 5.25 1.5H18.75C19.0533 1.5 19.3268 1.68273 19.4429 1.96299C19.559 2.24324 19.4948 2.56583 19.2803 2.78033L14.5607 7.5L19.2803 12.2197C19.4948 12.4342 19.559 12.7568 19.4429 13.037C19.3268 13.3173 19.0533 13.5 18.75 13.5H6V22.5H4.5V2.25ZM6 12H16.9393L12.9697 8.03033C12.6768 7.73744 12.6768 7.26256 12.9697 6.96967L16.9393 3H6V12Z" />
  </symbol>
  <symbol id="uk2-ribbon" viewBox="0 0 24 24" xmlns="http://www.w3.org/2000/svg">
    <path id="primary" fill-rule="evenodd" clip-rule="evenodd" d="M16.5 11.4687C17.4335 10.411 18 9.02167 18 7.5C18 4.18629 15.3137 1.5 12 1.5C8.68629 1.5 6 4.18629 6 7.5C6 9.02167 6.56645 10.411 7.5 11.4687V21.75C7.5 22.0533 7.68273 22.3268 7.96299 22.4429C8.24324 22.559 8.56583 22.4948 8.78033 22.2803L12 19.0607L15.2197 22.2803C15.4342 22.4948 15.7568 22.559 16.037 22.4429C16.3173 22.3268 16.5 22.0533 16.5 21.75V11.4687ZM16.5 7.5C16.5 9.98528 14.4853 12 12 12C9.51472 12 7.5 9.98528 7.5 7.5C7.5 5.01472 9.51472 3 12 3C14.4853 3 16.5 5.01472 16.5 7.5ZM15 12.6973C14.1175 13.2078 13.0929 13.5 12 13.5C10.9071 13.5 9.88252 13.2078 9 12.6973V19.9393L11.4697 17.4697C11.7626 17.1768 12.2374 17.1768 12.5303 17.4697L15 19.9393V12.6973Z" />
  </symbol>
  <symbol id="uk2-bell" viewBox="0 0 24 24" xmlns="http://www.w3.org/2000/svg">
    <path id="primary" fill-rule="evenodd" clip-rule="evenodd" d="M12.75 1.125L12.7511 3.41631C16.1255 3.78988 18.75 6.65095 18.75 10.125V13.875L20.25 16.125V18.375C20.25 19.2034 19.5784 19.875 18.75 19.875L15.6749 19.8757C15.3271 21.587 13.814 22.875 12 22.875C10.186 22.875 8.67285 21.587 8.32515 19.8757L5.25 19.875C4.42157 19.875 3.75 19.2034 3.75 18.375V16.125L5.25 13.875V10.125C5.25 6.65043 7.87527 3.78903 11.2504 3.41615L11.25 1.125H12.75ZM14.1195 19.875H9.879L9.90725 19.953C10.2117 20.7219 10.9276 21.2829 11.7833 21.3647L12 21.375C12.9503 21.375 13.7629 20.7859 14.0927 19.953L14.1195 19.875ZM12 4.875C9.19715 4.875 6.90731 7.07142 6.75777 9.83695L6.75 10.125V14.3292L5.25 16.578V18.375H18.75V16.581L17.25 14.3292V10.125C17.25 7.2255 14.8995 4.875 12 4.875Z" />
  </symbol>
  <symbol id="uk2-magnifying-glass" viewBox="0 0 24 24" xmlns="http://www.w3.org/2000/svg">
    <path id="primary" d="M10.2344 1.23438C15.2049 1.23438 19.2344 5.26381 19.2344 10.2344C19.2344 12.4499 18.4338 14.4785 17.1061 16.0466L22.7647 21.704L21.704 22.7647L16.0466 17.1061C14.4785 18.4338 12.4499 19.2344 10.2344 19.2344C5.26381 19.2344 1.23438 15.2049 1.23438 10.2344C1.23438 5.26381 5.26381 1.23438 10.2344 1.23438ZM10.2344 2.73438C6.09224 2.73438 2.73438 6.09224 2.73438 10.2344C2.73438 14.3765 6.09224 17.7344 10.2344 17.7344C14.3765 17.7344 17.7344 14.3765 17.7344 10.2344C17.7344 6.09224 14.3765 2.73438 10.2344 2.73438Z" />
  </symbol>
  <symbol id="uk2-magnify-minus" viewBox="0 0 24 24" xmlns="http://www.w3.org/2000/svg">
    <g id="primary">
      <path d="M14.7344 9.48438V10.9844H5.73438V9.48438H14.7344Z" />
      <path fill-rule="evenodd" clip-rule="evenodd" d="M19.2344 10.2344C19.2344 5.26381 15.2049 1.23438 10.2344 1.23438C5.26381 1.23438 1.23438 5.26381 1.23438 10.2344C1.23438 15.2049 5.26381 19.2344 10.2344 19.2344C12.4499 19.2344 14.4785 18.4338 16.0466 17.1061L21.704 22.7647L22.7647 21.704L17.1061 16.0466C18.4338 14.4785 19.2344 12.4499 19.2344 10.2344ZM2.73438 10.2344C2.73438 6.09224 6.09224 2.73438 10.2344 2.73438C14.3765 2.73438 17.7344 6.09224 17.7344 10.2344C17.7344 14.3765 14.3765 17.7344 10.2344 17.7344C6.09224 17.7344 2.73438 14.3765 2.73438 10.2344Z" />
    </g>
  </symbol>
  <symbol id="uk2-minus-circle-fill" viewBox="0 0 24 24" xmlns="http://www.w3.org/2000/svg">
    <path id="primary" fill-rule="evenodd" clip-rule="evenodd" d="M22.5 12C22.5 6.20101 17.799 1.5 12 1.5C6.20101 1.5 1.5 6.20101 1.5 12C1.5 17.799 6.20101 22.5 12 22.5C17.799 22.5 22.5 17.799 22.5 12ZM18 11.25V12.75H6V11.25H18Z" />
  </symbol>
  <symbol id="uk2-plus-circle-fill" viewBox="0 0 24 24" xmlns="http://www.w3.org/2000/svg">
    <path id="primary" fill-rule="evenodd" clip-rule="evenodd" d="M22.5 12C22.5 6.20101 17.799 1.5 12 1.5C6.20101 1.5 1.5 6.20101 1.5 12C1.5 17.799 6.20101 22.5 12 22.5C17.799 22.5 22.5 17.799 22.5 12ZM12.75 6V11.25H18V12.75H12.75V18H11.25V12.75H6V11.25H11.25V6H12.75Z" />
  </symbol>
  <symbol id="uk2-lock-fill" viewBox="0 0 24 24" xmlns="http://www.w3.org/2000/svg">
    <path id="primary" fill-rule="evenodd" clip-rule="evenodd" d="M12 1.5C14.4853 1.5 16.5 3.51472 16.5 6V9.09451C17.7939 9.42755 18.75 10.6021 18.75 12V19.5C18.75 21.1569 17.4069 22.5 15.75 22.5H8.25C6.59315 22.5 5.25 21.1569 5.25 19.5V12C5.25 10.6021 6.20608 9.42755 7.5 9.09451V6C7.5 3.51472 9.51472 1.5 12 1.5ZM15 9V6C15 4.34315 13.6569 3 12 3C10.3431 3 9 4.34315 9 6V9H15ZM12.75 17.122C13.6239 16.8131 14.25 15.9797 14.25 15C14.25 13.7574 13.2426 12.75 12 12.75C10.7574 12.75 9.75 13.7574 9.75 15C9.75 15.9797 10.3761 16.8131 11.25 17.122V19.5H12.75V17.122Z" />
  </symbol>
  <symbol id="uk2-unlock-fill" viewBox="0 0 24 24" xmlns="http://www.w3.org/2000/svg">
    <path id="primary" fill-rule="evenodd" clip-rule="evenodd" d="M15 6H16.5C16.5 3.51472 14.4853 1.5 12 1.5C9.51472 1.5 7.5 3.51472 7.5 6V9.09451C6.20608 9.42755 5.25 10.6021 5.25 12V19.5C5.25 21.1569 6.59315 22.5 8.25 22.5H15.75C17.4069 22.5 18.75 21.1569 18.75 19.5V12C18.75 10.3431 17.4069 9 15.75 9H9V6C9 4.34315 10.3431 3 12 3C13.6569 3 15 4.34315 15 6ZM14.25 15C14.25 15.9797 13.6239 16.8131 12.75 17.122V19.5H11.25V17.122C10.3761 16.8131 9.75 15.9797 9.75 15C9.75 13.7574 10.7574 12.75 12 12.75C13.2426 12.75 14.25 13.7574 14.25 15Z" />
  </symbol>
  <symbol id="uk2-location-pin-fill" viewBox="0 0 24 24" xmlns="http://www.w3.org/2000/svg">
    <path id="primary" fill-rule="evenodd" clip-rule="evenodd" d="M12 1.84766C8.25 1.84766 4.5 4.84766 4.5 9.34766C4.5 13.2112 8.55428 18.7333 10.9669 21.6421C11.5178 22.3064 12.5094 22.331 13.0712 21.6759C15.4881 18.8578 19.5 13.191 19.5 9.34766C19.5 4.84766 15.75 1.84766 12 1.84766ZM12 11.5977C13.2426 11.5977 14.25 10.5903 14.25 9.34766C14.25 8.10501 13.2426 7.09766 12 7.09766C10.7574 7.09766 9.75 8.10501 9.75 9.34766C9.75 10.5903 10.7574 11.5977 12 11.5977Z" />
  </symbol>
  <symbol id="uk2-cog-fill" viewBox="0 0 24 24" xmlns="http://www.w3.org/2000/svg">
    <path id="primary" fill-rule="evenodd" clip-rule="evenodd" d="M15.2918 4.43357L15.1335 2.85074C15.0568 2.08394 14.4116 1.5 13.6409 1.5H10.3559C9.58527 1.5 8.94002 2.08394 8.86334 2.85074L8.70505 4.43357C8.13111 4.68374 7.59115 4.99729 7.09402 5.36538L5.64248 4.71032C4.94007 4.39332 4.11174 4.66015 3.72643 5.32754L2.08391 8.17246C1.6986 8.83984 1.88168 9.69062 2.50741 10.1404L3.80027 11.0698C3.76601 11.3751 3.74841 11.6855 3.74841 12C3.74841 12.3145 3.76601 12.6249 3.80027 12.9302L2.50741 13.8596C1.88168 14.3094 1.6986 15.1602 2.08391 15.8275L3.72643 18.6725C4.11174 19.3398 4.94007 19.6067 5.64248 19.2897L7.09401 18.6346C7.59115 19.0027 8.13111 19.3163 8.70505 19.5664L8.86334 21.1493C8.94002 21.9161 9.58527 22.5 10.3559 22.5H13.6409C14.4116 22.5 15.0568 21.9161 15.1335 21.1493L15.2918 19.5664C15.8657 19.3163 16.4057 19.0027 16.9028 18.6346L18.3544 19.2897C19.0568 19.6067 19.8851 19.3398 20.2704 18.6725L21.913 15.8275C22.2983 15.1602 22.1152 14.3094 21.4895 13.8596L20.1966 12.9302C20.2308 12.6248 20.2484 12.3145 20.2484 12C20.2484 11.6855 20.2308 11.3752 20.1966 11.0698L21.4895 10.1404C22.1152 9.69062 22.2983 8.83985 21.913 8.17246L20.2704 5.32754C19.8851 4.66015 19.0568 4.39332 18.3544 4.71032L16.9028 5.3654C16.4057 4.9973 15.8657 4.68374 15.2918 4.43357ZM11.9984 15C13.6552 15 14.9984 13.6569 14.9984 12C14.9984 10.3431 13.6552 9 11.9984 9C10.3415 9 8.99838 10.3431 8.99838 12C8.99838 13.6569 10.3415 15 11.9984 15Z" />
  </symbol>
  <symbol id="uk2-clock-fill" viewBox="0 0 24 24" xmlns="http://www.w3.org/2000/svg">
    <path id="primary" fill-rule="evenodd" clip-rule="evenodd" d="M12 22.5C17.799 22.5 22.5 17.799 22.5 12C22.5 6.20101 17.799 1.5 12 1.5C6.20101 1.5 1.5 6.20101 1.5 12C1.5 17.799 6.20101 22.5 12 22.5ZM12.75 11.25V6H11.25V12.75H16.5V11.25H12.75Z" />
  </symbol>
  <symbol id="uk2-paper-airplane-fill" viewBox="0 0 24 24" xmlns="http://www.w3.org/2000/svg">
    <path id="primary" d="M3.01284 8.37214C2.73224 8.46568 2.53281 8.7154 2.50366 9.00975C2.47452 9.3041 2.62109 9.58808 2.87791 9.73483L9.44997 13.4903L14.9173 8.02301L15.9779 9.08367L10.5106 14.551L14.2661 21.123C14.4128 21.3798 14.6968 21.5264 14.9912 21.4973C15.2855 21.4681 15.5353 21.2687 15.6288 20.9881L21.4624 3.48719C21.5523 3.21769 21.4821 2.92056 21.2812 2.71969C21.0804 2.51882 20.7832 2.44867 20.5137 2.53851L3.01284 8.37214Z" />
  </symbol>
  <symbol id="uk2-paper-airplane-2-fill" viewBox="0 0 24 24" xmlns="http://www.w3.org/2000/svg">
    <path id="primary" d="M4.08544 3.07919C3.82088 2.94691 3.50328 2.98248 3.27454 3.17C3.0458 3.35753 2.94863 3.66198 3.02646 3.94735L5.01809 11.25H12.75V12.75H5.01809L3.02646 20.0527C2.94863 20.338 3.0458 20.6425 3.27454 20.83C3.50328 21.0175 3.82088 21.0531 4.08544 20.9208L20.5854 12.6708C20.8395 12.5438 21 12.2841 21 12C21 11.7159 20.8395 11.4562 20.5854 11.3292L4.08544 3.07919Z" />
  </symbol>
  <symbol id="uk2-flag-filled" viewBox="0 0 24 24" xmlns="http://www.w3.org/2000/svg">
    <path id="primary" fill-rule="evenodd" clip-rule="evenodd" d="M4.5 2.25C4.5 1.83579 4.83579 1.5 5.25 1.5H18.75C19.0533 1.5 19.3268 1.68273 19.4429 1.96299C19.559 2.24324 19.4948 2.56583 19.2803 2.78033L14.5607 7.5L19.2803 12.2197C19.4948 12.4342 19.559 12.7568 19.4429 13.037C19.3268 13.3173 19.0533 13.5 18.75 13.5H6V22.5H4.5V2.25Z" />
  </symbol>
  <symbol id="uk2-backspace" viewBox="0 0 24 24" xmlns="http://www.w3.org/2000/svg">
    <g id="primary">
      <path d="M17.4653 9.53039L16.4046 8.46973L14.1216 10.7512L11.8403 8.46973L10.7796 9.53039L13.0611 11.8117L10.7796 14.0947L11.8403 15.1554L14.1216 12.8737L16.4046 15.1554L17.4653 14.0947L15.1836 11.8117L17.4653 9.53039Z" />
      <path fill-rule="evenodd" clip-rule="evenodd" d="M6.13445 5.34444C6.56144 4.8107 7.20789 4.5 7.89141 4.5H20.31C21.5526 4.5 22.56 5.50736 22.56 6.75V17.25C22.56 18.4926 21.5526 19.5 20.31 19.5H7.89141C7.20789 19.5 6.56144 19.1893 6.13445 18.6556L1.93445 13.4056C1.27706 12.5838 1.27706 11.4162 1.93445 10.5944L6.13445 5.34444ZM7.89141 6H20.31C20.7242 6 21.06 6.33579 21.06 6.75V17.25C21.06 17.6642 20.7242 18 20.31 18H7.89141C7.66357 18 7.44808 17.8964 7.30575 17.7185L3.10575 12.4685C2.88662 12.1946 2.88662 11.8054 3.10575 11.5315L7.30575 6.28148C7.44808 6.10357 7.66357 6 7.89141 6Z" />
    </g>
  </symbol>
  <symbol id="uk2-box-arrow-down" viewBox="0 0 24 24" xmlns="http://www.w3.org/2000/svg">
    <g id="primary">
      <path d="M15.5303 14.4053L12 17.9357L8.46964 14.4053L9.53029 13.3447L11.2491 15.0647L11.25 10.125H12.75L12.7491 15.0647L14.4696 13.3447L15.5303 14.4053Z" />
      <path fill-rule="evenodd" clip-rule="evenodd" d="M3.75 3.375C3.33579 3.375 3 3.71079 3 4.125V7.875C3 8.28921 3.33579 8.625 3.75 8.625H4.5V19.875C4.5 20.2892 4.83579 20.625 5.25 20.625H18.75C19.1642 20.625 19.5 20.2892 19.5 19.875V8.625H20.25C20.6642 8.625 21 8.28921 21 7.875V4.125C21 3.71079 20.6642 3.375 20.25 3.375H3.75ZM6 19.125V8.625H18V19.125H6ZM19.5 4.875V7.125H4.5V4.875H19.5Z" />
    </g>
  </symbol>
  <symbol id="uk2-box" viewBox="0 0 24 24" xmlns="http://www.w3.org/2000/svg">
    <g id="primary">
      <path fill-rule="evenodd" clip-rule="evenodd" d="M8.25 12.375C8.25 11.5466 8.92157 10.875 9.75 10.875H14.25C15.0784 10.875 15.75 11.5466 15.75 12.375V13.875C15.75 14.7034 15.0784 15.375 14.25 15.375H9.75C8.92157 15.375 8.25 14.7034 8.25 13.875V12.375ZM9.75 12.375H14.25V13.875H9.75V12.375Z" />
      <path fill-rule="evenodd" clip-rule="evenodd" d="M3 4.125C3 3.71079 3.33579 3.375 3.75 3.375H20.25C20.6642 3.375 21 3.71079 21 4.125V7.875C21 8.28921 20.6642 8.625 20.25 8.625H19.5V19.875C19.5 20.2892 19.1642 20.625 18.75 20.625H5.25C4.83579 20.625 4.5 20.2892 4.5 19.875V8.625H3.75C3.33579 8.625 3 8.28921 3 7.875V4.125ZM6 8.625V19.125H18V8.625H6ZM19.5 7.125V4.875H4.5V7.125H19.5Z" />
    </g>
  </symbol>
  <symbol id="uk2-calculator-check" viewBox="0 0 23 24" xmlns="http://www.w3.org/2000/svg">
    <g id="primary">
      <path d="M15.1992 3.75H6.57422C5.78031 3.75 5.13672 4.42157 5.13672 5.25V18.75C5.13672 19.5784 5.78031 20.25 6.57422 20.25H12.3242V21.75H6.57422C4.9864 21.75 3.69922 20.4069 3.69922 18.75V5.25C3.69922 3.59315 4.9864 2.25 6.57422 2.25H15.1992C16.787 2.25 18.0742 3.59315 18.0742 5.25V15H16.6367V5.25C16.6367 4.42157 15.9931 3.75 15.1992 3.75Z" />
      <path d="M15.1992 5.25H6.57422V8.25H15.1992V5.25Z" />
      <path d="M15.1993 21.3107L19.3013 17.0303L18.2848 15.9697L15.1993 19.1894L13.5513 17.4697L12.5348 18.5303L15.1993 21.3107Z" />
      <path d="M15.1992 9.75H13.7617V11.25H15.1992V9.75Z" />
      <path d="M10.168 9.75H11.6055V11.25H10.168V9.75Z" />
      <path d="M8.01172 9.75H6.57422V11.25H8.01172V9.75Z" />
      <path d="M6.57422 17.25H8.01172V18.75H6.57422V17.25Z" />
      <path d="M6.57422 13.5H8.01172V15H6.57422V13.5Z" />
      <path d="M11.6055 13.5H10.168V15H11.6055V13.5Z" />
      <path d="M13.7617 13.5H15.1992V15H13.7617V13.5Z" />
      <path d="M10.168 17.25H11.6055V18.75H10.168V17.25Z" />
    </g>
  </symbol>
  <symbol id="uk2-calculator" viewBox="0 0 24 24" xmlns="http://www.w3.org/2000/svg">
    <g id="primary">
      <path d="M7.5 5.25H16.5V8.25H7.5V5.25Z" />
      <path d="M15 9.75H16.5V11.25H15V9.75Z" />
      <path d="M12.75 9.75H11.25V11.25H12.75V9.75Z" />
      <path d="M7.5 9.75H9V11.25H7.5V9.75Z" />
      <path d="M9 17.25H7.5V18.75H9V17.25Z" />
      <path d="M9 13.5H7.5V15H9V13.5Z" />
      <path d="M11.25 17.25H12.75V18.75H11.25V17.25Z" />
      <path d="M11.25 13.5H12.75V15H11.25V13.5Z" />
      <path d="M16.5 17.25H15V18.75H16.5V17.25Z" />
      <path d="M16.5 13.5H15V15H16.5V13.5Z" />
      <path fill-rule="evenodd" clip-rule="evenodd" d="M4.5 5.25C4.5 3.59315 5.84315 2.25 7.5 2.25H16.5C18.1569 2.25 19.5 3.59315 19.5 5.25V18.75C19.5 20.4069 18.1569 21.75 16.5 21.75H7.5C5.84315 21.75 4.5 20.4069 4.5 18.75V5.25ZM7.5 3.75H16.5C17.3284 3.75 18 4.42157 18 5.25V18.75C18 19.5784 17.3284 20.25 16.5 20.25H7.5C6.67157 20.25 6 19.5784 6 18.75V5.25C6 4.42157 6.67157 3.75 7.5 3.75Z" />
    </g>
  </symbol>
  <symbol id="uk2-camera" viewBox="0 0 24 24" xmlns="http://www.w3.org/2000/svg">
    <g id="primary">
      <path fill-rule="evenodd" clip-rule="evenodd" d="M12 18C14.4853 18 16.5 15.9853 16.5 13.5C16.5 11.0147 14.4853 9 12 9C9.51472 9 7.5 11.0147 7.5 13.5C7.5 15.9853 9.51472 18 12 18ZM12 16.5C13.6569 16.5 15 15.1569 15 13.5C15 11.8431 13.6569 10.5 12 10.5C10.3431 10.5 9 11.8431 9 13.5C9 15.1569 10.3431 16.5 12 16.5Z" />
      <path d="M18.375 12.75C18.9963 12.75 19.5 12.2463 19.5 11.625C19.5 11.0037 18.9963 10.5 18.375 10.5C17.7537 10.5 17.25 11.0037 17.25 11.625C17.25 12.2463 17.7537 12.75 18.375 12.75Z" />
      <path fill-rule="evenodd" clip-rule="evenodd" d="M4.5 21C2.84315 21 1.5 19.6569 1.5 18V10.5C1.5 8.84315 2.84315 7.5 4.5 7.5H6L6.81623 5.05132C7.22457 3.82629 8.37099 3 9.66228 3H14.3377C15.629 3 16.7754 3.82629 17.1838 5.05132L18 7.5H19.5C21.1569 7.5 22.5 8.84315 22.5 10.5V18C22.5 19.6569 21.1569 21 19.5 21H4.5ZM6 9C6.64565 9 7.21885 8.58685 7.42303 7.97434L8.23925 5.52566C8.44342 4.91315 9.01663 4.5 9.66228 4.5H14.3377C14.9834 4.5 15.5566 4.91315 15.7607 5.52566L16.577 7.97434C16.7811 8.58685 17.3544 9 18 9H19.5C20.3284 9 21 9.67157 21 10.5V18C21 18.8284 20.3284 19.5 19.5 19.5H4.5C3.67157 19.5 3 18.8284 3 18V10.5C3 9.67157 3.67157 9 4.5 9H6Z" />
    </g>
  </symbol>
  <symbol id="uk2-download" viewBox="0 0 24 24" xmlns="http://www.w3.org/2000/svg">
    <g id="primary">
      <path d="M3 15L3 18.75C3 19.9927 4.00736 21 5.25 21H18.75C19.9926 21 21 19.9927 21 18.75V15H19.5V18.75C19.5 19.1642 19.1642 19.5 18.75 19.5H5.25C4.83579 19.5 4.5 19.1642 4.5 18.75V15H3Z" />
      <path d="M12.75 13.9393L15.9697 10.7197L17.0303 11.7803L12 16.8107L6.96968 11.7803L8.03034 10.7197L11.25 13.9393V3H12.75V13.9393Z" />
    </g>
  </symbol>
  <symbol id="uk2-expand-column" viewBox="0 0 24 24" xmlns="http://www.w3.org/2000/svg">
    <g id="primary">
      <path d="M2.6875 12L6.21783 15.5303L7.27849 14.4696L5.5585 12.7491L9.74816 12.7498L9.74816 21H11.2482V3L9.74816 3L9.74816 11.2498L5.5585 11.2491L7.27849 9.53029L6.21783 8.46964L2.6875 12Z" />
      <path d="M14.2482 12.7502V21H12.7482V3L14.2482 3V11.2502L18.4377 11.2509L16.7177 9.53039L17.7784 8.46973L21.3087 12.0001L17.7784 15.5304L16.7177 14.4697L18.4377 12.7509L14.2482 12.7502Z" />
    </g>
  </symbol>
  <symbol id="uk2-expand-row" viewBox="0 0 24 24" xmlns="http://www.w3.org/2000/svg">
    <g id="primary">
      <path d="M12 21.3107L15.5303 17.7803L14.4696 16.7197L12.7491 18.4397L12.7498 14.25H21V12.75H3V14.25H11.2498L11.2491 18.4397L9.53029 16.7197L8.46964 17.7803L12 21.3107Z" />
      <path d="M12.7502 9.75H21V11.25H3V9.75H11.2502L11.2509 5.56045L9.53039 7.28044L8.46973 6.21978L12.0001 2.68945L15.5304 6.21978L14.4697 7.28044L12.7509 5.56045L12.7502 9.75Z" />
    </g>
  </symbol>
  <symbol id="uk2-heart" viewBox="0 0 23 24" xmlns="http://www.w3.org/2000/svg">
    <path id="primary" fill-rule="evenodd" clip-rule="evenodd" d="M11.4231 18.5076L4.64245 11.4306C3.96252 10.7226 3.5902 9.78209 3.5902 8.78009C3.5902 7.77809 3.96252 6.83609 4.64245 6.12809C5.32095 5.42009 6.2237 5.03009 7.18395 5.03009C8.1442 5.03009 9.04408 5.42009 9.72402 6.12809L11.4231 7.90109L13.2746 5.97059C13.9531 5.26109 14.8545 4.87109 15.8147 4.87109C16.775 4.87109 17.6777 5.26109 18.3562 5.97059C19.7578 7.43159 19.7578 9.81059 18.3562 11.2731L11.4231 18.5076ZM15.8147 3.37109C14.5281 3.37109 13.2387 3.88409 12.2583 4.91009L11.4231 5.78009L10.7403 5.06759C9.75852 4.04309 8.47052 3.53009 7.18395 3.53009C5.89595 3.53009 4.60795 4.04309 3.62614 5.06759C1.66108 7.11659 1.66108 10.4406 3.62614 12.4911L11.4231 20.6286L19.3725 12.3336C21.3376 10.2831 21.3376 6.95909 19.3725 4.91009C18.3893 3.88409 17.1027 3.37109 15.8147 3.37109Z" />
  </symbol>
  <symbol id="uk2-magnify-plus" viewBox="0 0 24 24" xmlns="http://www.w3.org/2000/svg">
    <g id="primary">
      <path d="M10.9844 5.73438V9.48438H14.7344V10.9844H10.9844V14.7344H9.48438V10.9844H5.73438V9.48438H9.48438V5.73438H10.9844Z" />
      <path fill-rule="evenodd" clip-rule="evenodd" d="M19.2344 10.2344C19.2344 5.26381 15.2049 1.23438 10.2344 1.23438C5.26381 1.23438 1.23438 5.26381 1.23438 10.2344C1.23438 15.2049 5.26381 19.2344 10.2344 19.2344C12.4499 19.2344 14.4785 18.4338 16.0466 17.1061L21.704 22.7647L22.7647 21.704L17.1061 16.0466C18.4338 14.4785 19.2344 12.4499 19.2344 10.2344ZM2.73438 10.2344C2.73438 6.09224 6.09224 2.73438 10.2344 2.73438C14.3765 2.73438 17.7344 6.09224 17.7344 10.2344C17.7344 14.3765 14.3765 17.7344 10.2344 17.7344C6.09224 17.7344 2.73438 14.3765 2.73438 10.2344Z" />
    </g>
  </symbol>
  <symbol id="uk2-new-window" viewBox="0 0 24 24" xmlns="http://www.w3.org/2000/svg">
    <g id="primary">
      <path d="M18.4388 4.50034H13.8844V3H21V10.1156H19.4997V5.56124L11.7995 13.2614L10.7386 12.2005L18.4388 4.50034Z" />
      <path d="M6 6H12V4.5H6C4.34315 4.5 3 5.84315 3 7.5V18C3 19.6569 4.34315 21 6 21H16.5C18.1569 21 19.5 19.6569 19.5 18V12H18V18C18 18.8284 17.3284 19.5 16.5 19.5H6C5.17157 19.5 4.5 18.8284 4.5 18V7.5C4.5 6.67157 5.17157 6 6 6Z" />
    </g>
  </symbol>
  <symbol id="uk2-paper-clip" viewBox="0 0 24 24" xmlns="http://www.w3.org/2000/svg">
    <path id="primary" fill-rule="evenodd" clip-rule="evenodd" d="M10.3911 5.82479C8.82001 4.25372 6.27281 4.25372 4.70174 5.82479C3.13067 7.39585 3.13067 9.94306 4.70174 11.5141L12.5767 19.3891L11.5161 20.4498L3.64108 12.5748C1.48422 10.4179 1.48422 6.92098 3.64108 4.76412C5.79793 2.60727 9.29488 2.60727 11.4517 4.76413L20.8267 14.1391C22.3623 15.6747 22.3623 18.1643 20.8267 19.6998C19.2912 21.2353 16.8016 21.2353 15.2661 19.6998L5.89108 10.3248C4.97687 9.41057 4.97686 7.92834 5.89108 7.01413C6.80529 6.09991 8.28753 6.09991 9.20174 7.01412L19.3267 17.1391L18.2661 18.1998L8.14108 8.07479C7.81265 7.74636 7.28017 7.74636 6.95174 8.07479C6.62331 8.40321 6.62331 8.9357 6.95174 9.26413L16.3267 18.6391C17.2765 19.5889 18.8163 19.5889 19.7661 18.6391C20.7158 17.6894 20.7158 16.1495 19.7661 15.1998L10.3911 5.82479Z" />
  </symbol>
  <symbol id="uk2-redo" viewBox="0 0 23 24" xmlns="http://www.w3.org/2000/svg">
    <path id="primary" d="M16.891 1.60938L15.8746 2.67004L17.5225 4.38965H11.3516C6.58811 4.38965 2.72656 8.41909 2.72656 13.3896C2.72656 18.3602 6.58811 22.3896 11.3516 22.3896C16.115 22.3896 19.9766 18.3602 19.9766 13.3896H18.5391C18.5391 17.5318 15.3211 20.8896 11.3516 20.8896C7.38202 20.8896 4.16406 17.5318 4.16406 13.3896C4.16406 9.24751 7.38202 5.88965 11.3516 5.88965H17.5226L15.8746 7.60938L16.891 8.67003L20.2743 5.1397L16.891 1.60938Z" />
  </symbol>
  <symbol id="uk2-star" viewBox="0 0 24 24" xmlns="http://www.w3.org/2000/svg">
    <path id="primary" fill-rule="evenodd" clip-rule="evenodd" d="M14.0786 9.78914L11.9982 3.05664L9.91771 9.78914H2.93261L8.58368 14.1062L6.47341 20.9352L11.9982 16.7146L17.5229 20.9352L15.4127 14.1062L21.0637 9.78914L14.0786 9.78914ZM8.81125 8.28914H2.93261C1.49781 8.28914 0.881852 10.1101 2.02202 10.9811L6.84163 14.663L5.04027 20.4923C4.60909 21.8876 6.22347 23.0137 7.384 22.1271L11.9982 18.6022L16.6123 22.1271C17.7729 23.0137 19.3872 21.8876 18.9561 20.4923L17.1547 14.663L21.9743 10.9811C23.1145 10.1101 22.4985 8.28914 21.0637 8.28914H15.1851L13.4313 2.61378C12.9957 1.20426 11.0006 1.20426 10.565 2.61378L8.81125 8.28914Z" />
  </symbol>
  <symbol id="uk2-tag" viewBox="0 0 24 24" xmlns="http://www.w3.org/2000/svg">
    <g id="primary">
      <path fill-rule="evenodd" clip-rule="evenodd" d="M10.0625 7.81055C10.0625 9.05319 9.05514 10.0605 7.8125 10.0605C6.56986 10.0605 5.5625 9.05319 5.5625 7.81055C5.5625 6.56791 6.56986 5.56055 7.8125 5.56055C9.05514 5.56055 10.0625 6.56791 10.0625 7.81055ZM8.5625 7.81055C8.5625 8.22476 8.22671 8.56055 7.8125 8.56055C7.39829 8.56055 7.0625 8.22476 7.0625 7.81055C7.0625 7.39633 7.39829 7.06055 7.8125 7.06055C8.22671 7.06055 8.5625 7.39633 8.5625 7.81055Z" />
      <path fill-rule="evenodd" clip-rule="evenodd" d="M4.8125 2.56055C3.56986 2.56055 2.5625 3.56791 2.5625 4.81055V10.1892C2.5625 10.786 2.79955 11.3583 3.22151 11.7802L12.2215 20.7802C13.1002 21.6589 14.5248 21.6589 15.4035 20.7802L20.7822 15.4015C21.6609 14.5229 21.6609 13.0982 20.7822 12.2196L11.7822 3.21956C11.3602 2.7976 10.7879 2.56055 10.1912 2.56055H4.8125ZM4.0625 4.81055C4.0625 4.39633 4.39829 4.06055 4.8125 4.06055H10.1912C10.3901 4.06055 10.5809 4.13956 10.7215 4.28022L19.7215 13.2802C20.0144 13.5731 20.0144 14.048 19.7215 14.3409L14.3428 19.7196C14.0499 20.0125 13.5751 20.0125 13.2822 19.7196L4.28217 10.7196C4.14152 10.5789 4.0625 10.3881 4.0625 10.1892V4.81055Z" />
    </g>
  </symbol>
  <symbol id="uk2-thumbs-down" viewBox="0 0 23 24" xmlns="http://www.w3.org/2000/svg">
    <path id="primary" fill-rule="evenodd" clip-rule="evenodd" d="M7.1875 12.375V4.875H5.03125V12.375H7.1875ZM8.625 4.875V12.576C8.73288 12.6409 8.83311 12.7208 8.92272 12.8143L10.3602 14.3143C10.533 14.4946 10.6588 14.7178 10.7259 14.9629L11.8575 19.0956C12.6973 18.9312 13.2958 18.0989 13.17 17.1799L12.7175 13.875H16.5312C17.3252 13.875 17.9688 13.2034 17.9688 12.375V9.375C17.9688 6.88972 16.038 4.875 13.6562 4.875H8.625ZM5.03125 3.375C4.23734 3.375 3.59375 4.04657 3.59375 4.875V12.375C3.59375 13.2034 4.23734 13.875 5.03125 13.875H7.90625L9.34375 15.375L10.5691 19.8504C10.6947 20.3089 11.0963 20.625 11.5533 20.625C13.4219 20.625 14.8573 18.898 14.5931 16.9678L14.375 15.375H16.5312C18.1191 15.375 19.4062 14.0319 19.4062 12.375V9.375C19.4062 6.06129 16.8319 3.375 13.6562 3.375H5.03125Z" />
  </symbol>
  <symbol id="uk2-thumbs-up" viewBox="0 0 23 24" xmlns="http://www.w3.org/2000/svg">
    <path id="primary" fill-rule="evenodd" clip-rule="evenodd" d="M7.1875 11.625V19.125H5.03125V11.625H7.1875ZM8.625 19.125V11.424C8.73288 11.3591 8.83311 11.2792 8.92272 11.1857L10.3602 9.68566C10.533 9.50541 10.6588 9.28219 10.7259 9.03708L11.8575 4.90435C12.6973 5.06879 13.2958 5.90113 13.17 6.82011L12.7175 10.125H16.5312C17.3252 10.125 17.9688 10.7966 17.9688 11.625V14.625C17.9688 17.1103 16.038 19.125 13.6562 19.125H8.625ZM5.03125 20.625C4.23734 20.625 3.59375 19.9534 3.59375 19.125V11.625C3.59375 10.7966 4.23734 10.125 5.03125 10.125H7.90625L9.34375 8.625L10.5691 4.14963C10.6947 3.69112 11.0963 3.375 11.5533 3.375C13.4219 3.375 14.8573 5.10198 14.5931 7.03224L14.375 8.625H16.5312C18.1191 8.625 19.4062 9.96815 19.4062 11.625V14.625C19.4062 17.9387 16.8319 20.625 13.6562 20.625H5.03125Z" />
  </symbol>
  <symbol id="uk2-tile-big" viewBox="0 0 23 24" xmlns="http://www.w3.org/2000/svg">
    <g id="primary">
      <path fill-rule="evenodd" clip-rule="evenodd" d="M2.875 4.5C2.875 3.67157 3.51859 3 4.3125 3H9.34375C10.1377 3 10.7812 3.67157 10.7812 4.5V9.75C10.7812 10.5784 10.1377 11.25 9.34375 11.25H4.3125C3.51859 11.25 2.875 10.5784 2.875 9.75V4.5ZM4.3125 4.5H9.34375V9.75H4.3125V4.5Z" />
      <path fill-rule="evenodd" clip-rule="evenodd" d="M2.875 14.25C2.875 13.4216 3.51859 12.75 4.3125 12.75H9.34375C10.1377 12.75 10.7812 13.4216 10.7812 14.25V19.5C10.7812 20.3284 10.1377 21 9.34375 21H4.3125C3.51859 21 2.875 20.3284 2.875 19.5V14.25ZM4.3125 14.25H9.34375V19.5H4.3125V14.25Z" />
      <path fill-rule="evenodd" clip-rule="evenodd" d="M13.6562 3C12.8623 3 12.2188 3.67157 12.2188 4.5V9.75C12.2188 10.5784 12.8623 11.25 13.6562 11.25H18.6875C19.4814 11.25 20.125 10.5784 20.125 9.75V4.5C20.125 3.67157 19.4814 3 18.6875 3H13.6562ZM18.6875 4.5H13.6562V9.75H18.6875V4.5Z" />
      <path fill-rule="evenodd" clip-rule="evenodd" d="M12.2188 14.25C12.2188 13.4216 12.8623 12.75 13.6562 12.75H18.6875C19.4814 12.75 20.125 13.4216 20.125 14.25V19.5C20.125 20.3284 19.4814 21 18.6875 21H13.6562C12.8623 21 12.2188 20.3284 12.2188 19.5V14.25ZM13.6562 14.25H18.6875V19.5H13.6562V14.25Z" />
    </g>
  </symbol>
  <symbol id="uk2-tile-small" viewBox="0 0 23 24" xmlns="http://www.w3.org/2000/svg">
    <path id="primary" d="M7.90625 15.75V20.25H3.59375V15.75H7.90625ZM13.6562 15.75V20.25H9.34375V15.75H13.6562ZM19.4062 15.75V20.25H15.0938V15.75H19.4062ZM6.46875 17.25H5.03125V18.75H6.46875V17.25ZM12.2188 17.25H10.7812V18.75H12.2188V17.25ZM17.9688 17.25H16.5312V18.75H17.9688V17.25ZM7.90625 9.75V14.25H3.59375V9.75H7.90625ZM13.6562 9.75V14.25H9.34375V9.75H13.6562ZM19.4062 9.75V14.25H15.0938V9.75H19.4062ZM6.46875 11.25H5.03125V12.75H6.46875V11.25ZM12.2188 11.25H10.7812V12.75H12.2188V11.25ZM17.9688 11.25H16.5312V12.75H17.9688V11.25ZM7.90625 3.75V8.25H3.59375V3.75H7.90625ZM13.6562 3.75V8.25H9.34375V3.75H13.6562ZM19.4062 3.75V8.25H15.0938V3.75H19.4062ZM6.46875 5.25H5.03125V6.75H6.46875V5.25ZM12.2188 5.25H10.7812V6.75H12.2188V5.25ZM17.9688 5.25H16.5312V6.75H17.9688V5.25Z" />
  </symbol>
  <symbol id="uk2-tile" viewBox="0 0 23 24" xmlns="http://www.w3.org/2000/svg">
    <g id="primary">
      <path fill-rule="evenodd" clip-rule="evenodd" d="M5.75 11.25V6H17.25V11.25H5.75ZM7.1875 7.5H15.8125V9.75H7.1875V7.5Z" />
      <path fill-rule="evenodd" clip-rule="evenodd" d="M5.75 12.75V18H10.7812V12.75H5.75ZM9.34375 14.25H7.1875V16.5H9.34375V14.25Z" />
      <path fill-rule="evenodd" clip-rule="evenodd" d="M12.2188 18V12.75H17.25V18H12.2188ZM13.6562 14.25H15.8125V16.5H13.6562V14.25Z" />
      <path fill-rule="evenodd" clip-rule="evenodd" d="M2.875 6C2.875 4.34315 4.16218 3 5.75 3H17.25C18.8378 3 20.125 4.34315 20.125 6V18C20.125 19.6569 18.8378 21 17.25 21H5.75C4.16218 21 2.875 19.6569 2.875 18V6ZM5.75 4.5H17.25C18.0439 4.5 18.6875 5.17157 18.6875 6V18C18.6875 18.8284 18.0439 19.5 17.25 19.5H5.75C4.95609 19.5 4.3125 18.8284 4.3125 18V6C4.3125 5.17157 4.95609 4.5 5.75 4.5Z" />
    </g>
  </symbol>
  <symbol id="uk2-undo" viewBox="0 0 23 24" xmlns="http://www.w3.org/2000/svg">
    <path id="primary" d="M6.1098 1.60938L7.12626 2.67004L5.4783 4.38965H11.6493C16.4127 4.38965 20.2743 8.41909 20.2743 13.3896C20.2743 18.3602 16.4127 22.3896 11.6493 22.3896C6.8858 22.3896 3.02426 18.3602 3.02426 13.3896H4.46176C4.46176 17.5318 7.67971 20.8896 11.6493 20.8896C15.6188 20.8896 18.8368 17.5318 18.8368 13.3896C18.8368 9.24751 15.6188 5.88965 11.6493 5.88965H5.47819L7.12626 7.60938L6.1098 8.67003L2.72656 5.1397L6.1098 1.60938Z" />
  </symbol>
  <symbol id="uk2-upload" viewBox="0 0 24 24" xmlns="http://www.w3.org/2000/svg">
    <g id="primary">
      <path d="M21 9V5.25C21 4.00736 19.9926 3 18.75 3L5.25 3C4.00736 3 3 4.00736 3 5.25L3 9H4.5L4.5 5.25C4.5 4.83578 4.83579 4.5 5.25 4.5L18.75 4.5C19.1642 4.5 19.5 4.83579 19.5 5.25V9H21Z" />
      <path d="M11.25 10.0607L8.03032 13.2804L6.96966 12.2197L12 7.18936L17.0303 12.2197L15.9697 13.2804L12.75 10.0607L12.75 21H11.25L11.25 10.0607Z" />
    </g>
  </symbol>
  <symbol id="uk2-video-chat" viewBox="0 0 24 24" xmlns="http://www.w3.org/2000/svg">
    <g id="primary">
      <path d="M12.75 9.75H6V11.25H12.75V9.75Z" />
      <path d="M6 12.75H9.75V14.25H6V12.75Z" />
      <path fill-rule="evenodd" clip-rule="evenodd" d="M17.25 16.5V16.4167L20.3908 17.8126C21.3827 18.2534 22.5 17.5273 22.5 16.4418V7.55813C22.5 6.47264 21.3827 5.74656 20.3908 6.18741L17.25 7.58332V7.5C17.25 5.84315 15.9069 4.5 14.25 4.5H4.5C2.84315 4.5 1.5 5.84315 1.5 7.5V16.5C1.5 18.1569 2.84315 19.5 4.5 19.5H14.25C15.9069 19.5 17.25 18.1569 17.25 16.5ZM14.25 6H4.5C3.67157 6 3 6.67157 3 7.5V16.5C3 17.3284 3.67157 18 4.5 18H14.25C15.0784 18 15.75 17.3284 15.75 16.5V7.5C15.75 6.67157 15.0784 6 14.25 6ZM21 16.4418L17.25 14.7752V9.2248L21 7.55813V16.4418Z" />
    </g>
  </symbol>
  <symbol id="uk2-video" viewBox="0 0 24 24" xmlns="http://www.w3.org/2000/svg">
    <path id="primary" fill-rule="evenodd" clip-rule="evenodd" d="M17.25 16.4167V16.5C17.25 18.1569 15.9069 19.5 14.25 19.5H4.5C2.84315 19.5 1.5 18.1569 1.5 16.5V7.5C1.5 5.84315 2.84315 4.5 4.5 4.5H14.25C15.9069 4.5 17.25 5.84315 17.25 7.5V7.58332L20.3908 6.18741C21.3827 5.74656 22.5 6.47264 22.5 7.55813V16.4418C22.5 17.5273 21.3827 18.2534 20.3908 17.8126L17.25 16.4167ZM4.5 6H14.25C15.0784 6 15.75 6.67157 15.75 7.5V16.5C15.75 17.3284 15.0784 18 14.25 18H4.5C3.67157 18 3 17.3284 3 16.5V7.5C3 6.67157 3.67157 6 4.5 6ZM17.25 14.7752L21 16.4418V7.55813L17.25 9.2248V14.7752Z" />
  </symbol>
  <symbol id="uk2-camera-fill" viewBox="0 0 24 24" xmlns="http://www.w3.org/2000/svg">
    <g id="primary">
      <path d="M12 16.5C13.6569 16.5 15 15.1569 15 13.5C15 11.8431 13.6569 10.5 12 10.5C10.3431 10.5 9 11.8431 9 13.5C9 15.1569 10.3431 16.5 12 16.5Z" />
      <path fill-rule="evenodd" clip-rule="evenodd" d="M1.5 18C1.5 19.6569 2.84315 21 4.5 21H19.5C21.1569 21 22.5 19.6569 22.5 18V10.5C22.5 8.84315 21.1569 7.5 19.5 7.5H18L17.1838 5.05132C16.7754 3.82629 15.629 3 14.3377 3H9.66228C8.37099 3 7.22457 3.82629 6.81623 5.05132L6 7.5H4.5C2.84315 7.5 1.5 8.84315 1.5 10.5V18ZM12 18C14.4853 18 16.5 15.9853 16.5 13.5C16.5 11.0147 14.4853 9 12 9C9.51472 9 7.5 11.0147 7.5 13.5C7.5 15.9853 9.51472 18 12 18ZM18.375 12.75C18.9963 12.75 19.5 12.2463 19.5 11.625C19.5 11.0037 18.9963 10.5 18.375 10.5C17.7537 10.5 17.25 11.0037 17.25 11.625C17.25 12.2463 17.7537 12.75 18.375 12.75Z" />
    </g>
  </symbol>
  <symbol id="uk2-tag-fill" viewBox="0 0 24 24" xmlns="http://www.w3.org/2000/svg">
    <path id="primary" fill-rule="evenodd" clip-rule="evenodd" d="M2.5625 4.81055C2.5625 3.56791 3.56986 2.56055 4.8125 2.56055H10.1912C10.7879 2.56055 11.3602 2.7976 11.7822 3.21956L20.7822 12.2196C21.6609 13.0982 21.6609 14.5229 20.7822 15.4015L15.4035 20.7802C14.5248 21.6589 13.1002 21.6589 12.2215 20.7802L3.22151 11.7802C2.79955 11.3583 2.5625 10.786 2.5625 10.1892V4.81055ZM7.8125 9.31055C8.64093 9.31055 9.3125 8.63897 9.3125 7.81055C9.3125 6.98212 8.64093 6.31055 7.8125 6.31055C6.98407 6.31055 6.3125 6.98212 6.3125 7.81055C6.3125 8.63897 6.98407 9.31055 7.8125 9.31055Z" />
  </symbol>
  <symbol id="uk2-tile-fill" viewBox="0 0 23 24" xmlns="http://www.w3.org/2000/svg">
    <g id="primary">
      <path fill-rule="evenodd" clip-rule="evenodd" d="M5.75 11.25V6H17.25V11.25H5.75Z" />
      <path fill-rule="evenodd" clip-rule="evenodd" d="M5.75 12.75V18H10.7812V12.75H5.75Z" />
      <path fill-rule="evenodd" clip-rule="evenodd" d="M12.2188 18V12.75H17.25V18H12.2188Z" />
      <path fill-rule="evenodd" clip-rule="evenodd" d="M2.875 6C2.875 4.34315 4.16218 3 5.75 3H17.25C18.8378 3 20.125 4.34315 20.125 6V18C20.125 19.6569 18.8378 21 17.25 21H5.75C4.16218 21 2.875 19.6569 2.875 18V6ZM5.75 4.5H17.25C18.0439 4.5 18.6875 5.17157 18.6875 6V18C18.6875 18.8284 18.0439 19.5 17.25 19.5H5.75C4.95609 19.5 4.3125 18.8284 4.3125 18V6C4.3125 5.17157 4.95609 4.5 5.75 4.5Z" />
    </g>
  </symbol>
  <symbol id="uk2-star-fill" viewBox="0 0 24 24" xmlns="http://www.w3.org/2000/svg">
    <path id="primary" fill-rule="evenodd" clip-rule="evenodd" d="M8.81125 8.28914H2.93261C1.49781 8.28914 0.881852 10.1101 2.02202 10.9811L6.84163 14.663L5.04027 20.4923C4.60909 21.8876 6.22347 23.0137 7.384 22.1271L11.9982 18.6022L16.6123 22.1271C17.7729 23.0137 19.3872 21.8876 18.9561 20.4923L17.1547 14.663L21.9743 10.9811C23.1145 10.1101 22.4985 8.28914 21.0637 8.28914H15.1851L13.4313 2.61378C12.9957 1.20426 11.0006 1.20426 10.565 2.61378L8.81125 8.28914Z" />
  </symbol>
  <symbol id="uk2-heart-fill" viewBox="0 0 23 24" xmlns="http://www.w3.org/2000/svg">
    <path id="primary" fill-rule="evenodd" clip-rule="evenodd" d="M15.8147 3.37109C14.5281 3.37109 13.2387 3.88409 12.2583 4.91009L11.4231 5.78009L10.7403 5.06759C9.75852 4.04309 8.47052 3.53009 7.18395 3.53009C5.89595 3.53009 4.60795 4.04309 3.62614 5.06759C1.66108 7.11659 1.66108 10.4406 3.62614 12.4911L4.30895 13.2036L5.32527 14.2641L10.4068 19.5681L11.4231 20.6286L12.4395 19.5681L17.5225 14.2641L18.5388 13.2036L19.3725 12.3336C21.3376 10.2831 21.3376 6.95909 19.3725 4.91009C18.3893 3.88409 17.1027 3.37109 15.8147 3.37109Z" />
  </symbol>
  <symbol id="uk2-clock-circular-arrow" viewBox="0 0 24 24" xmlns="http://www.w3.org/2000/svg">
    <g id="primary">
      <path d="M1.5 12C1.5 6.20101 6.20101 1.5 12 1.5C15.3462 1.5 18.3268 3.06526 20.2496 5.50354L20.25 3H21.75V8.25H16.5V6.75L19.311 6.75012C17.6773 4.47895 15.0113 3 12 3C7.02944 3 3 7.02944 3 12C3 16.9706 7.02944 21 12 21C16.9706 21 21 16.9706 21 12C21 11.7476 20.9896 11.4976 20.9692 11.2504L22.4736 11.2501C22.4911 11.4978 22.5 11.7479 22.5 12C22.5 17.799 17.799 22.5 12 22.5C6.20101 22.5 1.5 17.799 1.5 12Z" />
      <path d="M12.75 6V11.25H16.5V12.75H11.25V6H12.75Z" />
    </g>
  </symbol>

</svg>
