<svg xmlns="http://www.w3.org/2000/svg" xmlns:xlink="http://www.w3.org/1999/xlink">
  <symbol id="uk2-positive-movement" viewBox="0 0 24 24" xmlns="http://www.w3.org/2000/svg">
    <path id="primary" d="M10.7001 6.75C11.2775 5.75 12.7209 5.75 13.2982 6.75L18.4944 15.75C19.0717 16.75 18.35 18 17.1953 18H6.80302C5.64832 18 4.92663 16.75 5.50398 15.75L10.7001 6.75Z" />
  </symbol>
  <symbol id="uk2-negative-movement" viewBox="0 0 24 24" xmlns="http://www.w3.org/2000/svg">
    <path id="primary" d="M10.7001 17.25C11.2775 18.25 12.7209 18.25 13.2982 17.25L18.4944 8.25C19.0717 7.25 18.35 6 17.1953 6H6.80302C5.64832 6 4.92663 7.25 5.50398 8.25L10.7001 17.25Z" />
  </symbol>
  <symbol id="uk2-neutral-movement" viewBox="0 0 24 24" xmlns="http://www.w3.org/2000/svg">
    <g id="primary">
      <path d="M7.5 5.99609C6.67157 5.99609 6 6.66767 6 7.49609V8.49609C6 9.32452 6.67157 9.99609 7.5 9.99609H16.5C17.3284 9.99609 18 9.32452 18 8.49609V7.49609C18 6.66767 17.3284 5.99609 16.5 5.99609H7.5Z" />
      <path d="M7.5 14C6.67157 14 6 14.6716 6 15.5V16.5C6 17.3284 6.67157 18 7.5 18H16.5C17.3284 18 18 17.3284 18 16.5V15.5C18 14.6716 17.3284 14 16.5 14H7.5Z" />
    </g>
  </symbol>
  <symbol id="uk2-positive-movement-sign" viewBox="0 0 24 24" xmlns="http://www.w3.org/2000/svg">
    <path id="primary" d="M12.5 6C13.3284 6 14 6.67157 14 7.5V10H16.5C17.3284 10 18 10.6716 18 11.5V12.5C18 13.3284 17.3284 14 16.5 14H14V16.5C14 17.3284 13.3284 18 12.5 18H11.5C10.6716 18 10 17.3284 10 16.5L10 14H7.5C6.67157 14 6 13.3284 6 12.5V11.5C6 10.6716 6.67157 10 7.5 10H10L10 7.5C10 6.67157 10.6716 6 11.5 6H12.5Z" />
  </symbol>
  <symbol id="uk2-negative-movement-sign" viewBox="0 0 24 24" xmlns="http://www.w3.org/2000/svg">
    <path id="primary" d="M7.5 10C6.67157 10 6 10.6716 6 11.5V12.5C6 13.3284 6.67157 14 7.5 14H16.5C17.3284 14 18 13.3284 18 12.5V11.5C18 10.6716 17.3284 10 16.5 10H7.5Z" />
  </symbol>
</svg>
